<svg xmlns="http://www.w3.org/2000/svg" xmlns:xlink="http://www.w3.org/1999/xlink" width="1024" zoomAndPan="magnify" viewBox="0 0 768 767.999994" height="1024" preserveAspectRatio="xMidYMid meet" version="1.0"><defs><clipPath id="1bb314093c"><path d="M 0 0 L 188 0 L 188 187 L 0 187 Z M 0 0 " clip-rule="nonzero"/></clipPath><clipPath id="a247998211"><path d="M 79.324219 -138.722656 L 210.316406 -7.734375 L -7.121094 209.703125 L -138.113281 78.710938 Z M 79.324219 -138.722656 " clip-rule="nonzero"/></clipPath><clipPath id="68778a9905"><path d="M 79.324219 -138.722656 L 210.316406 -7.734375 L -7.121094 209.703125 L -138.113281 78.710938 Z M 79.324219 -138.722656 " clip-rule="nonzero"/></clipPath><clipPath id="6ff4367818"><path d="M 579 578 L 768 578 L 768 768 L 579 768 Z M 579 578 " clip-rule="nonzero"/></clipPath><clipPath id="2771d89fcc"><path d="M 687.910156 903.441406 L 556.917969 772.449219 L 774.351562 555.015625 L 905.34375 686.003906 Z M 687.910156 903.441406 " clip-rule="nonzero"/></clipPath><clipPath id="6c9d85b7db"><path d="M 687.910156 903.441406 L 556.917969 772.449219 L 774.351562 555.015625 L 905.34375 686.003906 Z M 687.910156 903.441406 " clip-rule="nonzero"/></clipPath><clipPath id="7bc0b9e568"><path d="M 0 577 L 188 577 L 188 768 L 0 768 Z M 0 577 " clip-rule="nonzero"/></clipPath><clipPath id="31e6c16be2"><path d="M -137.894531 686.222656 L -6.90625 555.230469 L 210.53125 772.664062 L 79.539062 903.65625 Z M -137.894531 686.222656 " clip-rule="nonzero"/></clipPath><clipPath id="e63980c719"><path d="M -137.894531 686.222656 L -6.90625 555.230469 L 210.53125 772.664062 L 79.539062 903.65625 Z M -137.894531 686.222656 " clip-rule="nonzero"/></clipPath><clipPath id="4978524815"><path d="M 579 0 L 768 0 L 768 188 L 579 188 Z M 579 0 " clip-rule="nonzero"/></clipPath><clipPath id="c2dd3d48ea"><path d="M 905.128906 78.496094 L 774.136719 209.488281 L 556.703125 -7.949219 L 687.695312 -138.941406 Z M 905.128906 78.496094 " clip-rule="nonzero"/></clipPath><clipPath id="bd7a039639"><path d="M 905.128906 78.496094 L 774.136719 209.488281 L 556.703125 -7.949219 L 687.695312 -138.941406 Z M 905.128906 78.496094 " clip-rule="nonzero"/></clipPath><clipPath id="0ebd71ef65"><path d="M 496.398438 154.144531 L 636.648438 154.144531 L 636.648438 294.394531 L 496.398438 294.394531 Z M 496.398438 154.144531 " clip-rule="nonzero"/></clipPath><clipPath id="016f7fab82"><path d="M 164 653 L 531.910156 653 L 531.910156 665.964844 L 164 665.964844 Z M 164 653 " clip-rule="nonzero"/></clipPath><clipPath id="f0012cd518"><path d="M 412 230.964844 L 489 230.964844 L 489 314 L 412 314 Z M 412 230.964844 " clip-rule="nonzero"/></clipPath></defs><g clip-path="url(#1bb314093c)"><g clip-path="url(#a247998211)"><g clip-path="url(#68778a9905)"><path fill="#8447ff" d="M -29.746094 186.601562 L -29.734375 -29.628906 L 187.996094 -29.640625 L 187.996094 14.632812 L 14.539062 14.640625 L 14.527344 186.601562 L -29.746094 186.601562 " fill-opacity="1" fill-rule="nonzero"/></g></g></g><g clip-path="url(#6ff4367818)"><g clip-path="url(#2771d89fcc)"><g clip-path="url(#6c9d85b7db)"><path fill="#8447ff" d="M 796.980469 578.113281 L 796.964844 794.34375 L 579.234375 794.355469 L 579.234375 750.082031 L 752.695312 750.074219 L 752.707031 578.113281 L 796.980469 578.113281 " fill-opacity="1" fill-rule="nonzero"/></g></g></g><g clip-path="url(#7bc0b9e568)"><g clip-path="url(#31e6c16be2)"><g clip-path="url(#e63980c719)"><path fill="#8447ff" d="M 187.429688 795.292969 L -28.800781 795.277344 L -28.8125 577.546875 L 15.460938 577.546875 L 15.46875 751.007812 L 187.429688 751.019531 L 187.429688 795.292969 " fill-opacity="1" fill-rule="nonzero"/></g></g></g><g clip-path="url(#4978524815)"><g clip-path="url(#c2dd3d48ea)"><g clip-path="url(#bd7a039639)"><path fill="#8447ff" d="M 579.800781 -30.574219 L 796.03125 -30.5625 L 796.042969 187.167969 L 751.769531 187.167969 L 751.761719 13.710938 L 579.800781 13.699219 L 579.800781 -30.574219 " fill-opacity="1" fill-rule="nonzero"/></g></g></g><g clip-path="url(#0ebd71ef65)"><path fill="#8447ff" d="M 566.523438 154.144531 C 527.855469 154.144531 496.398438 185.601562 496.398438 224.269531 C 496.398438 262.933594 527.855469 294.394531 566.523438 294.394531 C 605.1875 294.394531 636.648438 262.933594 636.648438 224.269531 C 636.648438 185.601562 605.1875 154.144531 566.523438 154.144531 Z M 566.523438 289.558594 C 530.515625 289.558594 501.234375 260.273438 501.234375 224.269531 C 501.234375 188.261719 530.515625 158.980469 566.523438 158.980469 C 602.527344 158.980469 631.808594 188.261719 631.808594 224.269531 C 631.808594 260.273438 602.527344 289.558594 566.523438 289.558594 Z M 566.523438 289.558594 " fill-opacity="1" fill-rule="nonzero"/></g><path fill="#8447ff" d="M 566.523438 165.195312 C 533.949219 165.195312 507.449219 191.695312 507.449219 224.269531 C 507.449219 256.839844 533.949219 283.34375 566.523438 283.34375 C 599.09375 283.34375 625.597656 256.839844 625.597656 224.269531 C 625.597656 191.695312 599.09375 165.195312 566.523438 165.195312 Z M 566.523438 278.507812 C 536.609375 278.507812 512.285156 254.179688 512.285156 224.269531 C 512.285156 194.355469 536.609375 170.03125 566.523438 170.03125 C 596.433594 170.03125 620.761719 194.355469 620.761719 224.269531 C 620.761719 254.179688 596.433594 278.507812 566.523438 278.507812 Z M 566.523438 278.507812 " fill-opacity="1" fill-rule="nonzero"/><path fill="#8447ff" d="M 570.535156 193.605469 C 576.53125 193.605469 582.289062 197.332031 586.351562 203.8125 C 587.050781 204.949219 588.550781 205.285156 589.6875 204.585938 C 590.824219 203.882812 591.164062 202.382812 590.460938 201.246094 C 585.503906 193.316406 578.226562 188.769531 570.535156 188.769531 C 558.785156 188.769531 548.820312 199.386719 545.558594 213.917969 L 529.910156 213.917969 C 528.582031 213.917969 527.492188 215.007812 527.492188 216.335938 C 527.492188 217.667969 528.582031 218.753906 529.910156 218.753906 L 544.757812 218.753906 C 544.542969 220.570312 544.421875 222.382812 544.421875 224.269531 C 544.421875 226.15625 544.566406 227.992188 544.757812 229.78125 L 529.910156 229.78125 C 528.582031 229.78125 527.492188 230.871094 527.492188 232.199219 C 527.492188 233.53125 528.582031 234.617188 529.910156 234.617188 L 545.558594 234.617188 C 548.820312 249.152344 558.785156 259.765625 570.535156 259.765625 C 578.226562 259.765625 585.503906 255.21875 590.460938 247.289062 C 591.164062 246.152344 590.824219 244.652344 589.6875 243.953125 C 588.550781 243.25 587.074219 243.589844 586.351562 244.726562 C 582.289062 251.207031 576.53125 254.929688 570.535156 254.929688 C 561.324219 254.929688 553.488281 246.441406 550.539062 234.617188 L 576.894531 234.617188 C 578.226562 234.617188 579.3125 233.53125 579.3125 232.199219 C 579.3125 230.871094 578.226562 229.78125 576.894531 229.78125 L 549.621094 229.78125 C 549.402344 227.992188 549.257812 226.15625 549.257812 224.269531 C 549.257812 222.382812 549.402344 220.542969 549.621094 218.753906 L 576.894531 218.753906 C 578.226562 218.753906 579.3125 217.667969 579.3125 216.335938 C 579.3125 215.007812 578.226562 213.917969 576.894531 213.917969 L 550.539062 213.917969 C 553.488281 202.09375 561.324219 193.605469 570.535156 193.605469 Z M 570.535156 193.605469 " fill-opacity="1" fill-rule="nonzero"/><path fill="#8cffda" d="M 205.554688 506.898438 L 277.964844 506.898438 L 277.964844 659.484375 L 205.554688 659.484375 Z M 205.554688 506.898438 " fill-opacity="1" fill-rule="nonzero"/><path fill="#8cffda" d="M 314.167969 437.074219 L 386.578125 437.074219 L 386.578125 659.484375 L 314.167969 659.484375 Z M 314.167969 437.074219 " fill-opacity="1" fill-rule="nonzero"/><path fill="#8cffda" d="M 422.785156 350.007812 L 495.199219 350.007812 L 495.199219 659.484375 L 422.785156 659.484375 Z M 422.785156 350.007812 " fill-opacity="1" fill-rule="nonzero"/><g clip-path="url(#016f7fab82)"><path fill="#8447ff" d="M 524.9375 665.917969 L 171.285156 665.917969 C 167.734375 665.917969 164.851562 663.035156 164.851562 659.484375 C 164.851562 655.929688 167.734375 653.046875 171.285156 653.046875 L 524.9375 653.046875 C 528.492188 653.046875 531.371094 655.929688 531.371094 659.484375 C 531.371094 663.035156 528.492188 665.917969 524.9375 665.917969 Z M 524.9375 665.917969 " fill-opacity="1" fill-rule="nonzero"/></g><path fill="#8447ff" d="M 148.019531 517.539062 C 146.554688 517.539062 145.078125 517.042969 143.871094 516.019531 C 141.152344 513.726562 140.816406 509.667969 143.105469 506.953125 L 195.460938 444.984375 C 197.53125 442.539062 201.078125 441.988281 203.789062 443.679688 L 231.816406 461.199219 L 309.234375 368.714844 C 311.25 366.308594 314.703125 365.707031 317.410156 367.289062 L 348.9375 385.679688 L 446.789062 269.351562 C 449.078125 266.632812 453.132812 266.28125 455.855469 268.570312 C 458.574219 270.859375 458.925781 274.917969 456.636719 277.636719 L 355.296875 398.109375 C 353.28125 400.503906 349.835938 401.101562 347.132812 399.523438 L 315.617188 381.140625 L 238.089844 473.753906 C 236.027344 476.214844 232.46875 476.78125 229.746094 475.082031 L 201.695312 457.550781 L 152.941406 515.257812 C 151.667969 516.765625 149.847656 517.539062 148.019531 517.539062 Z M 148.019531 517.539062 " fill-opacity="1" fill-rule="nonzero"/><g clip-path="url(#f0012cd518)"><path fill="#8447ff" d="M 488.953125 230.964844 L 462.460938 313.253906 L 449.664062 277.671875 L 412.421875 271.160156 Z M 488.953125 230.964844 " fill-opacity="1" fill-rule="nonzero"/></g></svg>