<svg xmlns="http://www.w3.org/2000/svg" xmlns:xlink="http://www.w3.org/1999/xlink" width="1024" zoomAndPan="magnify" viewBox="0 0 768 767.999994" height="1024" preserveAspectRatio="xMidYMid meet" version="1.0"><defs><clipPath id="806188ebe1"><path d="M 0 0 L 188 0 L 188 187 L 0 187 Z M 0 0 " clip-rule="nonzero"/></clipPath><clipPath id="28ce4d2729"><path d="M 79.324219 -138.722656 L 210.316406 -7.734375 L -7.121094 209.703125 L -138.113281 78.710938 Z M 79.324219 -138.722656 " clip-rule="nonzero"/></clipPath><clipPath id="69fcacb561"><path d="M 79.324219 -138.722656 L 210.316406 -7.734375 L -7.121094 209.703125 L -138.113281 78.710938 Z M 79.324219 -138.722656 " clip-rule="nonzero"/></clipPath><clipPath id="b89dec9473"><path d="M 579 578 L 768 578 L 768 768 L 579 768 Z M 579 578 " clip-rule="nonzero"/></clipPath><clipPath id="ce8288df17"><path d="M 687.910156 903.441406 L 556.917969 772.449219 L 774.351562 555.015625 L 905.34375 686.003906 Z M 687.910156 903.441406 " clip-rule="nonzero"/></clipPath><clipPath id="72678eb221"><path d="M 687.910156 903.441406 L 556.917969 772.449219 L 774.351562 555.015625 L 905.34375 686.003906 Z M 687.910156 903.441406 " clip-rule="nonzero"/></clipPath><clipPath id="1ac4965eab"><path d="M 0 577 L 188 577 L 188 768 L 0 768 Z M 0 577 " clip-rule="nonzero"/></clipPath><clipPath id="5f9aa6c624"><path d="M -137.894531 686.222656 L -6.90625 555.230469 L 210.53125 772.664062 L 79.539062 903.65625 Z M -137.894531 686.222656 " clip-rule="nonzero"/></clipPath><clipPath id="5f64c90c74"><path d="M -137.894531 686.222656 L -6.90625 555.230469 L 210.53125 772.664062 L 79.539062 903.65625 Z M -137.894531 686.222656 " clip-rule="nonzero"/></clipPath><clipPath id="162a200eba"><path d="M 579 0 L 768 0 L 768 188 L 579 188 Z M 579 0 " clip-rule="nonzero"/></clipPath><clipPath id="482987cfe5"><path d="M 905.128906 78.496094 L 774.136719 209.488281 L 556.703125 -7.949219 L 687.695312 -138.941406 Z M 905.128906 78.496094 " clip-rule="nonzero"/></clipPath><clipPath id="0575203433"><path d="M 905.128906 78.496094 L 774.136719 209.488281 L 556.703125 -7.949219 L 687.695312 -138.941406 Z M 905.128906 78.496094 " clip-rule="nonzero"/></clipPath><clipPath id="86e39cf047"><path d="M 155.550781 155.550781 L 612.152344 155.550781 L 612.152344 612.152344 L 155.550781 612.152344 Z M 155.550781 155.550781 " clip-rule="nonzero"/></clipPath><clipPath id="32c5e34d36"><path d="M 155.648438 160.011719 L 612.054688 160.011719 L 612.054688 209.09375 L 155.648438 209.09375 Z M 155.648438 160.011719 " clip-rule="nonzero"/></clipPath><clipPath id="66ddadc739"><path d="M 416.71875 401.847656 L 595.195312 401.847656 L 595.195312 595.195312 L 416.71875 595.195312 Z M 416.71875 401.847656 " clip-rule="nonzero"/></clipPath><clipPath id="203b217a55"><path d="M 185.46875 222.152344 L 320.8125 222.152344 L 320.8125 399 L 185.46875 399 Z M 185.46875 222.152344 " clip-rule="nonzero"/></clipPath><clipPath id="589c786721"><path d="M 230 434 L 277 434 L 277 443.761719 L 230 443.761719 Z M 230 434 " clip-rule="nonzero"/></clipPath><clipPath id="b57ce10d7d"><path d="M 197.480469 261.628906 L 240.613281 261.628906 L 240.613281 321.121094 L 197.480469 321.121094 Z M 197.480469 261.628906 " clip-rule="nonzero"/></clipPath><clipPath id="fd7b271332"><path d="M 266.136719 261.628906 L 309.265625 261.628906 L 309.265625 321.121094 L 266.136719 321.121094 Z M 266.136719 261.628906 " clip-rule="nonzero"/></clipPath><clipPath id="f3554bef69"><path d="M 242.90625 261.3125 L 263.730469 261.3125 L 263.730469 320.804688 L 242.90625 320.804688 Z M 242.90625 261.3125 " clip-rule="nonzero"/></clipPath></defs><rect x="-76.8" width="921.6" fill="#ffffff" y="-76.799999" height="921.599993" fill-opacity="1"/><rect x="-76.8" width="921.6" fill="#ffffff" y="-76.799999" height="921.599993" fill-opacity="1"/><g clip-path="url(#806188ebe1)"><g clip-path="url(#28ce4d2729)"><g clip-path="url(#69fcacb561)"><path fill="#8447ff" d="M -29.746094 186.601562 L -29.734375 -29.628906 L 187.996094 -29.640625 L 187.996094 14.632812 L 14.539062 14.640625 L 14.527344 186.601562 L -29.746094 186.601562 " fill-opacity="1" fill-rule="nonzero"/></g></g></g><g clip-path="url(#b89dec9473)"><g clip-path="url(#ce8288df17)"><g clip-path="url(#72678eb221)"><path fill="#8447ff" d="M 796.980469 578.113281 L 796.964844 794.34375 L 579.234375 794.355469 L 579.234375 750.082031 L 752.695312 750.074219 L 752.707031 578.113281 L 796.980469 578.113281 " fill-opacity="1" fill-rule="nonzero"/></g></g></g><g clip-path="url(#1ac4965eab)"><g clip-path="url(#5f9aa6c624)"><g clip-path="url(#5f64c90c74)"><path fill="#8447ff" d="M 187.429688 795.292969 L -28.800781 795.277344 L -28.8125 577.546875 L 15.460938 577.546875 L 15.46875 751.007812 L 187.429688 751.019531 L 187.429688 795.292969 " fill-opacity="1" fill-rule="nonzero"/></g></g></g><g clip-path="url(#162a200eba)"><g clip-path="url(#482987cfe5)"><g clip-path="url(#0575203433)"><path fill="#8447ff" d="M 579.800781 -30.574219 L 796.03125 -30.5625 L 796.042969 187.167969 L 751.769531 187.167969 L 751.761719 13.710938 L 579.800781 13.699219 L 579.800781 -30.574219 " fill-opacity="1" fill-rule="nonzero"/></g></g></g><g clip-path="url(#86e39cf047)"><path stroke-linecap="butt" transform="matrix(1.486397, 0, 0, 1.486397, 155.549995, 155.550012)" fill="none" stroke-linejoin="miter" d="M 0.00052876 0.000517322 L 307.187387 0.000517322 L 307.187387 307.187375 L 0.00052876 307.187375 Z M 0.00052876 0.000517322 " stroke="#8447ff" stroke-width="10.085358" stroke-opacity="1" stroke-miterlimit="4"/></g><g clip-path="url(#32c5e34d36)"><path stroke-linecap="butt" transform="matrix(1.486397, 0, 0, 1.497943, 155.648198, 160.011926)" fill="none" stroke-linejoin="miter" d="M 0.000160792 -0.000138679 L 307.055594 -0.000138679 L 307.055594 32.76614 L 0.000160792 32.76614 Z M 0.000160792 -0.000138679 " stroke="#8447ff" stroke-width="10.085358" stroke-opacity="1" stroke-miterlimit="4"/></g><g clip-path="url(#66ddadc739)"><path fill="#8447ff" d="M 438.003906 465.773438 C 443.875 465.773438 448.652344 461.011719 448.652344 455.15625 C 448.652344 449.300781 443.875 444.539062 438.003906 444.539062 C 432.132812 444.539062 427.359375 449.300781 427.359375 455.15625 C 427.359375 461.011719 432.132812 465.773438 438.003906 465.773438 Z M 438.003906 450.777344 C 440.425781 450.777344 442.398438 452.742188 442.398438 455.15625 C 442.398438 457.570312 440.425781 459.535156 438.003906 459.535156 C 435.582031 459.535156 433.613281 457.570312 433.613281 455.15625 C 433.613281 452.742188 435.582031 450.777344 438.003906 450.777344 Z M 438.003906 503.6875 C 443.875 503.6875 448.652344 498.925781 448.652344 493.070312 C 448.652344 487.214844 443.875 482.453125 438.003906 482.453125 C 432.132812 482.453125 427.359375 487.214844 427.359375 493.070312 C 427.359375 498.925781 432.132812 503.6875 438.003906 503.6875 Z M 438.003906 488.6875 C 440.425781 488.6875 442.398438 490.65625 442.398438 493.070312 C 442.398438 495.484375 440.425781 497.449219 438.003906 497.449219 C 435.582031 497.449219 433.613281 495.484375 433.613281 493.070312 C 433.613281 490.65625 435.582031 488.6875 438.003906 488.6875 Z M 438.003906 520.367188 C 432.132812 520.367188 427.359375 525.128906 427.359375 530.984375 C 427.359375 536.835938 432.132812 541.601562 438.003906 541.601562 C 443.875 541.601562 448.652344 536.835938 448.652344 530.984375 C 448.652344 525.128906 443.875 520.367188 438.003906 520.367188 Z M 438.003906 535.363281 C 435.582031 535.363281 433.613281 533.398438 433.613281 530.984375 C 433.613281 528.566406 435.582031 526.601562 438.003906 526.601562 C 440.425781 526.601562 442.398438 528.566406 442.398438 530.984375 C 442.398438 533.398438 440.425781 535.363281 438.003906 535.363281 Z M 593.210938 525.941406 L 585.464844 522.96875 C 584.339844 518.84375 582.695312 514.890625 580.5625 511.175781 L 583.933594 503.605469 C 584.460938 502.425781 584.203125 501.046875 583.289062 500.132812 L 572.597656 489.476562 C 571.683594 488.5625 570.300781 488.308594 569.117188 488.832031 L 561.523438 492.195312 C 557.796875 490.070312 553.832031 488.429688 549.699219 487.304688 L 546.714844 479.578125 C 546.253906 478.375 545.09375 477.582031 543.796875 477.582031 L 539.367188 477.582031 L 539.367188 423.433594 C 539.367188 416.9375 532.722656 411.394531 520.144531 407.402344 C 508.855469 403.820312 493.910156 401.847656 478.054688 401.847656 C 462.199219 401.847656 447.25 403.820312 435.960938 407.402344 C 423.386719 411.394531 416.738281 416.9375 416.738281 423.433594 L 416.738281 536.015625 C 416.738281 542.511719 423.386719 548.054688 435.960938 552.046875 C 447.25 555.628906 462.199219 557.601562 478.054688 557.601562 C 481.972656 557.601562 485.871094 557.472656 489.683594 557.230469 C 490.355469 558.722656 491.097656 560.179688 491.914062 561.605469 L 488.542969 569.171875 C 488.019531 570.351562 488.277344 571.730469 489.191406 572.644531 L 499.878906 583.300781 C 500.796875 584.214844 502.179688 584.46875 503.363281 583.945312 L 510.957031 580.585938 C 514.683594 582.710938 518.648438 584.347656 522.78125 585.472656 L 525.761719 593.199219 C 526.226562 594.402344 527.386719 595.195312 528.679688 595.195312 L 543.796875 595.195312 C 545.09375 595.195312 546.25 594.402344 546.714844 593.199219 L 549.699219 585.476562 C 553.832031 584.351562 557.800781 582.710938 561.527344 580.585938 L 569.117188 583.945312 C 570.300781 584.472656 571.683594 584.214844 572.597656 583.300781 L 583.289062 572.644531 C 584.203125 571.730469 584.460938 570.351562 583.933594 569.171875 L 580.5625 561.601562 C 582.691406 557.882812 584.335938 553.929688 585.464844 549.808594 L 593.210938 546.835938 C 594.421875 546.371094 595.21875 545.214844 595.21875 543.925781 L 595.21875 528.851562 C 595.21875 527.5625 594.421875 526.40625 593.210938 525.941406 Z M 437.859375 413.347656 C 448.550781 409.953125 462.824219 408.085938 478.054688 408.085938 C 493.28125 408.085938 507.558594 409.953125 518.25 413.347656 C 529.207031 416.824219 533.113281 420.835938 533.113281 423.433594 C 533.113281 426.027344 529.207031 430.039062 518.25 433.519531 C 507.558594 436.910156 493.28125 438.78125 478.054688 438.78125 C 462.824219 438.78125 448.550781 436.914062 437.859375 433.519531 C 426.898438 430.039062 422.996094 426.027344 422.996094 423.433594 C 422.996094 420.835938 426.898438 416.824219 437.859375 413.347656 Z M 422.996094 433.433594 C 426.160156 435.703125 430.5 437.730469 435.960938 439.460938 C 447.25 443.042969 462.199219 445.015625 478.054688 445.015625 C 493.910156 445.015625 508.855469 443.042969 520.144531 439.460938 C 525.605469 437.730469 529.945312 435.703125 533.113281 433.433594 L 533.113281 460.960938 C 533.113281 463.554688 529.207031 467.570312 518.25 471.046875 C 507.558594 474.441406 493.28125 476.308594 478.054688 476.308594 C 462.824219 476.308594 448.550781 474.441406 437.859375 471.046875 C 426.898438 467.570312 422.996094 463.554688 422.996094 460.960938 Z M 422.996094 470.960938 C 426.160156 473.230469 430.5 475.257812 435.960938 476.988281 C 447.25 480.570312 462.199219 482.546875 478.054688 482.546875 C 493.910156 482.546875 508.855469 480.570312 520.144531 476.988281 C 525.605469 475.257812 529.945312 473.230469 533.113281 470.960938 L 533.113281 477.582031 L 528.683594 477.582031 C 527.386719 477.582031 526.226562 478.375 525.761719 479.578125 L 522.78125 487.304688 C 518.648438 488.429688 514.683594 490.070312 510.957031 492.195312 L 503.363281 488.832031 C 502.179688 488.308594 500.796875 488.5625 499.878906 489.476562 L 489.191406 500.136719 C 488.277344 501.046875 488.019531 502.425781 488.542969 503.605469 L 491.917969 511.175781 C 491.5 511.902344 491.109375 512.636719 490.730469 513.378906 C 486.589844 513.675781 482.339844 513.835938 478.054688 513.835938 C 462.824219 513.835938 448.550781 511.96875 437.859375 508.574219 C 426.898438 505.097656 422.996094 501.085938 422.996094 498.488281 Z M 478.054688 551.363281 C 462.824219 551.363281 448.550781 549.496094 437.859375 546.101562 C 426.898438 542.625 422.996094 538.613281 422.996094 536.015625 L 422.996094 508.492188 C 426.160156 510.757812 430.5 512.785156 435.960938 514.519531 C 447.25 518.101562 462.199219 520.074219 478.054688 520.074219 C 481.398438 520.074219 484.722656 519.976562 487.996094 519.800781 C 487.632812 520.84375 487.304688 521.902344 487.011719 522.96875 L 479.265625 525.941406 C 478.058594 526.40625 477.261719 527.5625 477.261719 528.851562 L 477.261719 543.925781 C 477.261719 545.214844 478.058594 546.371094 479.265625 546.835938 L 487.011719 549.808594 C 487.132812 550.25 487.261719 550.683594 487.390625 551.117188 C 484.316406 551.277344 481.191406 551.363281 478.054688 551.363281 Z M 588.960938 541.785156 L 581.710938 544.566406 C 580.75 544.9375 580.03125 545.757812 579.792969 546.757812 C 578.695312 551.351562 576.875 555.726562 574.382812 559.757812 C 573.84375 560.636719 573.769531 561.71875 574.1875 562.660156 L 577.34375 569.746094 L 569.695312 577.378906 L 562.589844 574.230469 C 561.648438 573.8125 560.558594 573.886719 559.679688 574.425781 C 555.632812 576.910156 551.246094 578.722656 546.636719 579.816406 C 545.632812 580.054688 544.8125 580.773438 544.441406 581.730469 L 541.648438 588.960938 L 530.828125 588.960938 L 528.039062 581.730469 C 527.667969 580.769531 526.847656 580.054688 525.84375 579.816406 C 521.234375 578.722656 516.847656 576.910156 512.800781 574.425781 C 511.921875 573.886719 510.832031 573.8125 509.890625 574.230469 L 502.785156 577.378906 L 495.132812 569.746094 L 498.289062 562.664062 C 498.707031 561.722656 498.632812 560.640625 498.09375 559.761719 C 495.601562 555.730469 493.78125 551.355469 492.683594 546.753906 C 492.445312 545.753906 491.726562 544.9375 490.765625 544.566406 L 483.515625 541.785156 L 483.515625 530.992188 L 490.765625 528.210938 C 491.730469 527.84375 492.445312 527.023438 492.6875 526.023438 C 493.78125 521.425781 495.601562 517.050781 498.09375 513.019531 C 498.632812 512.140625 498.707031 511.058594 498.289062 510.117188 L 495.132812 503.03125 L 502.785156 495.402344 L 509.890625 498.546875 C 510.832031 498.964844 511.921875 498.894531 512.800781 498.355469 C 516.847656 495.871094 521.234375 494.054688 525.84375 492.960938 C 526.84375 492.722656 527.667969 492.007812 528.035156 491.046875 L 530.828125 483.816406 L 541.648438 483.816406 L 544.441406 491.046875 C 544.8125 492.007812 545.632812 492.722656 546.636719 492.960938 C 551.242188 494.054688 555.632812 495.871094 559.675781 498.355469 C 560.554688 498.894531 561.644531 498.964844 562.585938 498.546875 L 569.695312 495.402344 L 577.34375 503.03125 L 574.191406 510.113281 C 573.773438 511.054688 573.84375 512.140625 574.386719 513.015625 C 576.878906 517.050781 578.695312 521.425781 579.792969 526.023438 C 580.03125 527.023438 580.75 527.84375 581.714844 528.210938 L 588.960938 530.992188 Z M 536.238281 501.753906 C 517.085938 501.753906 501.503906 517.292969 501.503906 536.390625 C 501.503906 555.488281 517.085938 571.023438 536.238281 571.023438 C 555.394531 571.023438 570.976562 555.488281 570.976562 536.390625 C 570.976562 517.292969 555.390625 501.753906 536.238281 501.753906 Z M 536.238281 564.789062 C 520.535156 564.789062 507.757812 552.046875 507.757812 536.390625 C 507.757812 520.730469 520.535156 507.992188 536.238281 507.992188 C 551.945312 507.992188 564.71875 520.730469 564.71875 536.390625 C 564.71875 552.046875 551.945312 564.789062 536.238281 564.789062 Z M 542.886719 549.074219 C 543.332031 550.738281 542.34375 552.449219 540.675781 552.894531 C 540.402344 552.96875 540.132812 553 539.863281 553 C 538.480469 553 537.21875 552.082031 536.84375 550.6875 L 529.59375 523.703125 C 529.144531 522.039062 530.136719 520.328125 531.804688 519.882812 C 533.472656 519.4375 535.1875 520.425781 535.632812 522.089844 Z M 548.980469 524.078125 L 560.792969 534.003906 C 561.5 534.597656 561.90625 535.46875 561.90625 536.390625 C 561.90625 537.308594 561.5 538.183594 560.792969 538.773438 L 548.980469 548.703125 C 548.390625 549.195312 547.675781 549.4375 546.964844 549.4375 C 546.074219 549.4375 545.191406 549.058594 544.570312 548.328125 C 543.457031 547.011719 543.628906 545.042969 544.949219 543.933594 L 553.925781 536.390625 L 544.949219 528.84375 C 543.628906 527.734375 543.457031 525.769531 544.570312 524.453125 C 545.683594 523.136719 547.660156 522.964844 548.980469 524.078125 Z M 527.53125 528.84375 L 518.554688 536.390625 L 527.53125 543.933594 C 528.851562 545.042969 529.019531 547.011719 527.90625 548.328125 C 527.289062 549.058594 526.402344 549.4375 525.511719 549.4375 C 524.800781 549.4375 524.085938 549.195312 523.5 548.703125 L 511.683594 538.773438 C 510.980469 538.179688 510.570312 537.308594 510.570312 536.390625 C 510.570312 535.46875 510.980469 534.597656 511.683594 534.003906 L 523.5 524.078125 C 524.820312 522.964844 526.792969 523.132812 527.90625 524.453125 C 529.019531 525.769531 528.851562 527.734375 527.53125 528.84375 Z M 527.53125 528.84375 " fill-opacity="1" fill-rule="nonzero"/></g><g clip-path="url(#203b217a55)"><path fill="#8cffda" d="M 253.175781 229.351562 C 219.867188 229.351562 192.769531 256.527344 192.769531 289.929688 C 192.769531 304.144531 198.601562 317.003906 204.300781 327.710938 C 206.34375 331.535156 208.554688 335.332031 210.875 338.992188 C 211.695312 340.28125 212.617188 341.582031 213.597656 342.964844 C 218.375 349.691406 224.320312 358.0625 224.679688 374.257812 L 224.679688 380.488281 C 224.679688 386.308594 229.402344 391.046875 235.210938 391.046875 L 271.140625 391.046875 C 276.949219 391.046875 281.675781 386.308594 281.675781 380.488281 L 281.675781 373.378906 C 282.226562 357.765625 288.042969 349.566406 292.722656 342.980469 C 293.703125 341.59375 294.628906 340.285156 295.457031 338.988281 C 301.261719 329.863281 305.308594 322.296875 308.195312 315.183594 C 310.195312 310.246094 311.605469 305.636719 312.503906 301.089844 C 313.222656 297.507812 313.582031 293.753906 313.582031 289.929688 C 313.582031 256.527344 286.484375 229.351562 253.175781 229.351562 Z M 271.140625 398.277344 L 235.210938 398.277344 C 225.425781 398.277344 217.46875 390.300781 217.46875 380.488281 L 217.46875 374.339844 C 217.160156 360.445312 212.363281 353.6875 207.726562 347.15625 C 206.691406 345.699219 205.714844 344.324219 204.792969 342.878906 C 202.371094 339.0625 200.066406 335.105469 197.9375 331.121094 C 191.816406 319.621094 185.558594 305.742188 185.558594 289.929688 C 185.558594 252.535156 215.894531 222.121094 253.175781 222.121094 C 290.460938 222.121094 320.792969 252.535156 320.792969 289.929688 C 320.792969 294.230469 320.382812 298.457031 319.574219 302.503906 C 318.585938 307.496094 317.050781 312.542969 314.875 317.90625 C 311.820312 325.4375 307.582031 333.371094 301.535156 342.875 C 300.613281 344.332031 299.632812 345.710938 298.597656 347.171875 C 294.058594 353.5625 289.367188 360.171875 288.886719 373.566406 L 288.886719 380.488281 C 288.886719 390.300781 280.925781 398.277344 271.140625 398.277344 " fill-opacity="1" fill-rule="nonzero"/></g><g clip-path="url(#589c786721)"><path fill="#8cffda" d="M 230.03125 434.550781 L 243.890625 441.257812 C 249.019531 443.738281 257.335938 443.738281 262.464844 441.257812 L 276.324219 434.550781 L 230.03125 434.550781 " fill-opacity="1" fill-rule="nonzero"/></g><path fill="#8cffda" d="M 279.148438 432.175781 C 279.148438 434.171875 277.539062 435.792969 275.539062 435.792969 L 230.816406 435.792969 C 228.820312 435.792969 227.203125 434.171875 227.203125 432.175781 C 227.203125 430.171875 228.820312 428.554688 230.816406 428.554688 L 275.539062 428.554688 C 277.539062 428.554688 279.148438 430.171875 279.148438 432.175781 " fill-opacity="1" fill-rule="nonzero"/><path fill="#8cffda" d="M 282.144531 421.75 C 282.144531 423.753906 280.527344 425.375 278.535156 425.375 L 227.820312 425.375 C 225.824219 425.375 224.207031 423.753906 224.207031 421.75 C 224.207031 419.75 225.824219 418.128906 227.820312 418.128906 L 278.535156 418.128906 C 280.527344 418.128906 282.144531 419.75 282.144531 421.75 " fill-opacity="1" fill-rule="nonzero"/><path fill="#8cffda" d="M 282.144531 411.332031 C 282.144531 413.332031 280.527344 414.957031 278.535156 414.957031 L 227.820312 414.957031 C 225.824219 414.957031 224.207031 413.332031 224.207031 411.332031 C 224.207031 409.335938 225.824219 407.710938 227.820312 407.710938 L 278.535156 407.710938 C 280.527344 407.710938 282.144531 409.335938 282.144531 411.332031 " fill-opacity="1" fill-rule="nonzero"/><path fill="#8cffda" d="M 285.289062 400.914062 C 285.289062 402.914062 283.671875 404.535156 281.675781 404.535156 L 224.671875 404.535156 C 222.683594 404.535156 221.0625 402.914062 221.0625 400.914062 C 221.0625 398.917969 222.683594 397.292969 224.671875 397.292969 L 281.675781 397.292969 C 283.671875 397.292969 285.289062 398.917969 285.289062 400.914062 " fill-opacity="1" fill-rule="nonzero"/><g clip-path="url(#b57ce10d7d)"><path fill="#8447ff" d="M 197.507812 293.804688 L 240.589844 321.121094 L 240.589844 306.519531 L 216.84375 291.375 L 240.589844 276.226562 L 240.589844 261.628906 L 197.507812 288.941406 Z M 197.507812 293.804688 " fill-opacity="1" fill-rule="nonzero"/></g><g clip-path="url(#fd7b271332)"><path fill="#8447ff" d="M 266.160156 276.230469 L 289.910156 291.367188 L 266.160156 306.515625 L 266.160156 321.121094 L 309.242188 293.796875 L 309.242188 288.941406 L 266.160156 261.628906 Z M 266.160156 276.230469 " fill-opacity="1" fill-rule="nonzero"/></g><g clip-path="url(#f3554bef69)"><path fill="#8447ff" d="M 253.914062 261.394531 L 263.730469 261.394531 L 252.722656 320.71875 L 242.90625 320.71875 Z M 253.914062 261.394531 " fill-opacity="1" fill-rule="nonzero"/></g><path stroke-linecap="butt" transform="matrix(-1.477601, 0, 0, -1.487305, 379.525765, 510.682795)" fill="none" stroke-linejoin="miter" d="M -0.00106844 5.499135 L 69.460655 5.499135 " stroke="#8cffda" stroke-width="11" stroke-opacity="1" stroke-miterlimit="4"/><path stroke-linecap="butt" transform="matrix(-1.489316, 0, 0, -1.487305, 379.5335, 544.015313)" fill="none" stroke-linejoin="miter" d="M -0.00111194 5.499463 L 80.892791 5.499463 " stroke="#8cffda" stroke-width="11" stroke-opacity="1" stroke-miterlimit="4"/><path stroke-linecap="butt" transform="matrix(1.499353, 0, 0, 1.487305, 202.133371, 494.322476)" fill="none" stroke-linejoin="miter" d="M -0.00037276 5.500844 L 34.730751 5.500844 " stroke="#8cffda" stroke-width="11" stroke-opacity="1" stroke-miterlimit="4"/><path stroke-linecap="butt" transform="matrix(-1.484521, 0, 0, -1.487305, 239.385694, 544.015313)" fill="none" stroke-linejoin="miter" d="M -0.00069005 5.499463 L 25.059999 5.499463 " stroke="#8cffda" stroke-width="11" stroke-opacity="1" stroke-miterlimit="4"/><path stroke-linecap="butt" transform="matrix(1.493588, 0, 0, 1.487305, 447.226469, 299.11351)" fill="none" stroke-linejoin="miter" d="M 0.0000626869 6.00116 L 77.683707 6.00116 " stroke="#8cffda" stroke-width="12" stroke-opacity="1" stroke-miterlimit="4"/><path stroke-linecap="butt" transform="matrix(1.479598, 0, 0, 1.487305, 364.360883, 271.325779)" fill="none" stroke-linejoin="miter" d="M -0.00101945 6.000265 L 90.469058 6.000265 " stroke="#8cffda" stroke-width="12" stroke-opacity="1" stroke-miterlimit="4"/><path stroke-linecap="butt" transform="matrix(-1.493888, 0, 0, -1.487305, 422.110158, 316.961167)" fill="none" stroke-linejoin="miter" d="M 0.000524212 5.998842 L 38.841073 5.998842 " stroke="#8cffda" stroke-width="12" stroke-opacity="1" stroke-miterlimit="4"/><path stroke-linecap="butt" transform="matrix(1.486475, 0, 0, 1.487305, 521.082289, 271.325779)" fill="none" stroke-linejoin="miter" d="M -0.000173543 6.000265 L 28.025965 6.000265 " stroke="#8cffda" stroke-width="12" stroke-opacity="1" stroke-miterlimit="4"/><path stroke-linecap="butt" transform="matrix(-1.474781, 0, 0, -1.487305, 433.357902, 345.238421)" fill="none" stroke-linejoin="miter" d="M -0.000999092 5.998782 L 46.406843 5.998782 " stroke="#8cffda" stroke-width="12" stroke-opacity="1" stroke-miterlimit="4"/><path stroke-linecap="butt" transform="matrix(-1.485736, 0, 0, -1.487305, 562.946159, 345.238421)" fill="none" stroke-linejoin="miter" d="M 0.000569849 5.998782 L 74.080016 5.998782 " stroke="#8cffda" stroke-width="12" stroke-opacity="1" stroke-miterlimit="4"/><path stroke-linecap="round" transform="matrix(-1.392988, 0, 0, -1.487305, 530.211121, 191.082505)" fill="none" stroke-linejoin="miter" d="M 4.500912 4.499334 L 1.918221 4.499334 " stroke="#8cffda" stroke-width="9" stroke-opacity="1" stroke-miterlimit="4"/><path stroke-linecap="round" transform="matrix(-1.392988, 0, 0, -1.487305, 555.495336, 191.082505)" fill="none" stroke-linejoin="miter" d="M 4.500236 4.499334 L 1.917545 4.499334 " stroke="#8cffda" stroke-width="9" stroke-opacity="1" stroke-miterlimit="4"/><path stroke-linecap="round" transform="matrix(-1.392988, 0, 0, -1.487305, 581.399854, 191.082505)" fill="none" stroke-linejoin="miter" d="M 4.498993 4.499334 L 1.916302 4.499334 " stroke="#8cffda" stroke-width="9" stroke-opacity="1" stroke-miterlimit="4"/></svg>