<svg xmlns="http://www.w3.org/2000/svg" xmlns:xlink="http://www.w3.org/1999/xlink" width="1024" zoomAndPan="magnify" viewBox="0 0 768 767.999994" height="1024" preserveAspectRatio="xMidYMid meet" version="1.0"><defs><g/><clipPath id="dab14dfbfa"><path d="M 0 0 L 188 0 L 188 187 L 0 187 Z M 0 0 " clip-rule="nonzero"/></clipPath><clipPath id="76d2e35be0"><path d="M 79.324219 -138.722656 L 210.316406 -7.734375 L -7.121094 209.703125 L -138.113281 78.710938 Z M 79.324219 -138.722656 " clip-rule="nonzero"/></clipPath><clipPath id="ea9356de2b"><path d="M 79.324219 -138.722656 L 210.316406 -7.734375 L -7.121094 209.703125 L -138.113281 78.710938 Z M 79.324219 -138.722656 " clip-rule="nonzero"/></clipPath><clipPath id="8333ecd6ab"><path d="M 579 578 L 768 578 L 768 768 L 579 768 Z M 579 578 " clip-rule="nonzero"/></clipPath><clipPath id="5b4e8a64ec"><path d="M 687.910156 903.441406 L 556.917969 772.449219 L 774.351562 555.015625 L 905.34375 686.003906 Z M 687.910156 903.441406 " clip-rule="nonzero"/></clipPath><clipPath id="3e943726d5"><path d="M 687.910156 903.441406 L 556.917969 772.449219 L 774.351562 555.015625 L 905.34375 686.003906 Z M 687.910156 903.441406 " clip-rule="nonzero"/></clipPath><clipPath id="02be23c6ea"><path d="M 0 577 L 188 577 L 188 768 L 0 768 Z M 0 577 " clip-rule="nonzero"/></clipPath><clipPath id="6671531477"><path d="M -137.894531 686.222656 L -6.90625 555.230469 L 210.53125 772.664062 L 79.539062 903.65625 Z M -137.894531 686.222656 " clip-rule="nonzero"/></clipPath><clipPath id="178c348f9b"><path d="M -137.894531 686.222656 L -6.90625 555.230469 L 210.53125 772.664062 L 79.539062 903.65625 Z M -137.894531 686.222656 " clip-rule="nonzero"/></clipPath><clipPath id="d5828175c1"><path d="M 579 0 L 768 0 L 768 188 L 579 188 Z M 579 0 " clip-rule="nonzero"/></clipPath><clipPath id="07c3d1574c"><path d="M 905.128906 78.496094 L 774.136719 209.488281 L 556.703125 -7.949219 L 687.695312 -138.941406 Z M 905.128906 78.496094 " clip-rule="nonzero"/></clipPath><clipPath id="abfeef364b"><path d="M 905.128906 78.496094 L 774.136719 209.488281 L 556.703125 -7.949219 L 687.695312 -138.941406 Z M 905.128906 78.496094 " clip-rule="nonzero"/></clipPath><clipPath id="caefca1db2"><path d="M 181 260 L 273 260 L 273 355.386719 L 181 355.386719 Z M 181 260 " clip-rule="nonzero"/></clipPath><clipPath id="f4d885631b"><path d="M 116.25 214 L 187 214 L 187 310 L 116.25 310 Z M 116.25 214 " clip-rule="nonzero"/></clipPath><clipPath id="1c2c3b9a05"><path d="M 268 214 L 337.214844 214 L 337.214844 310 L 268 310 Z M 268 214 " clip-rule="nonzero"/></clipPath><clipPath id="84e6c2da9e"><path d="M 512 260 L 604 260 L 604 355.386719 L 512 355.386719 Z M 512 260 " clip-rule="nonzero"/></clipPath><clipPath id="58187cd474"><path d="M 447.039062 214 L 517 214 L 517 310 L 447.039062 310 Z M 447.039062 214 " clip-rule="nonzero"/></clipPath><clipPath id="966d374e63"><path d="M 211.894531 375.640625 L 236.6875 375.640625 L 236.6875 483.96875 L 211.894531 483.96875 Z M 211.894531 375.640625 " clip-rule="nonzero"/></clipPath><clipPath id="7cb361a979"><path d="M 543.527344 375.640625 L 568.316406 375.640625 L 568.316406 483.96875 L 543.527344 483.96875 Z M 543.527344 375.640625 " clip-rule="nonzero"/></clipPath><clipPath id="05ffc23d8c"><path d="M 171.441406 450.445312 L 272.78125 450.445312 L 272.78125 551.78125 L 171.441406 551.78125 Z M 171.441406 450.445312 " clip-rule="nonzero"/></clipPath><clipPath id="573a6a2ed3"><path d="M 179.691406 450.445312 L 264.53125 450.445312 C 269.085938 450.445312 272.78125 454.136719 272.78125 458.695312 L 272.78125 543.53125 C 272.78125 548.089844 269.085938 551.78125 264.53125 551.78125 L 179.691406 551.78125 C 175.136719 551.78125 171.441406 548.089844 171.441406 543.53125 L 171.441406 458.695312 C 171.441406 454.136719 175.136719 450.445312 179.691406 450.445312 Z M 179.691406 450.445312 " clip-rule="nonzero"/></clipPath><clipPath id="3da87ea5b4"><path d="M 171.441406 450.445312 L 272.761719 450.445312 L 272.761719 551.765625 L 171.441406 551.765625 Z M 171.441406 450.445312 " clip-rule="nonzero"/></clipPath><clipPath id="b6fb3db872"><path d="M 179.691406 450.445312 L 264.515625 450.445312 C 269.070312 450.445312 272.761719 454.136719 272.761719 458.691406 L 272.761719 543.515625 C 272.761719 548.070312 269.070312 551.765625 264.515625 551.765625 L 179.691406 551.765625 C 175.136719 551.765625 171.441406 548.070312 171.441406 543.515625 L 171.441406 458.691406 C 171.441406 454.136719 175.136719 450.445312 179.691406 450.445312 Z M 179.691406 450.445312 " clip-rule="nonzero"/></clipPath><clipPath id="9c730bf02a"><path d="M 505.1875 456.25 L 606.523438 456.25 L 606.523438 557.589844 L 505.1875 557.589844 Z M 505.1875 456.25 " clip-rule="nonzero"/></clipPath><clipPath id="29e68907d5"><path d="M 555.855469 456.25 C 527.871094 456.25 505.1875 478.933594 505.1875 506.917969 C 505.1875 534.902344 527.871094 557.589844 555.855469 557.589844 C 583.839844 557.589844 606.523438 534.902344 606.523438 506.917969 C 606.523438 478.933594 583.839844 456.25 555.855469 456.25 Z M 555.855469 456.25 " clip-rule="nonzero"/></clipPath><clipPath id="3335ba7233"><path d="M 505.1875 456.25 L 606.507812 456.25 L 606.507812 557.570312 L 505.1875 557.570312 Z M 505.1875 456.25 " clip-rule="nonzero"/></clipPath><clipPath id="d5022ee6a2"><path d="M 555.847656 456.25 C 527.867188 456.25 505.1875 478.929688 505.1875 506.910156 C 505.1875 534.890625 527.867188 557.570312 555.847656 557.570312 C 583.824219 557.570312 606.507812 534.890625 606.507812 506.910156 C 606.507812 478.929688 583.824219 456.25 555.847656 456.25 Z M 555.847656 456.25 " clip-rule="nonzero"/></clipPath></defs><g clip-path="url(#dab14dfbfa)"><g clip-path="url(#76d2e35be0)"><g clip-path="url(#ea9356de2b)"><path fill="#8447ff" d="M -29.746094 186.601562 L -29.734375 -29.628906 L 187.996094 -29.640625 L 187.996094 14.632812 L 14.539062 14.640625 L 14.527344 186.601562 L -29.746094 186.601562 " fill-opacity="1" fill-rule="nonzero"/></g></g></g><g clip-path="url(#8333ecd6ab)"><g clip-path="url(#5b4e8a64ec)"><g clip-path="url(#3e943726d5)"><path fill="#8447ff" d="M 796.980469 578.113281 L 796.964844 794.34375 L 579.234375 794.355469 L 579.234375 750.082031 L 752.695312 750.074219 L 752.707031 578.113281 L 796.980469 578.113281 " fill-opacity="1" fill-rule="nonzero"/></g></g></g><g clip-path="url(#02be23c6ea)"><g clip-path="url(#6671531477)"><g clip-path="url(#178c348f9b)"><path fill="#8447ff" d="M 187.429688 795.292969 L -28.800781 795.277344 L -28.8125 577.546875 L 15.460938 577.546875 L 15.46875 751.007812 L 187.429688 751.019531 L 187.429688 795.292969 " fill-opacity="1" fill-rule="nonzero"/></g></g></g><g clip-path="url(#d5828175c1)"><g clip-path="url(#07c3d1574c)"><g clip-path="url(#abfeef364b)"><path fill="#8447ff" d="M 579.800781 -30.574219 L 796.03125 -30.5625 L 796.042969 187.167969 L 751.769531 187.167969 L 751.761719 13.710938 L 579.800781 13.699219 L 579.800781 -30.574219 " fill-opacity="1" fill-rule="nonzero"/></g></g></g><g clip-path="url(#caefca1db2)"><path fill="#8cffda" d="M 210.972656 312.652344 C 201.589844 305.628906 197.542969 296.464844 198.75 285.179688 C 199.488281 278.28125 202.617188 272.433594 207.761719 267.84375 C 219.71875 257.195312 237.527344 258.222656 248.351562 270.125 C 256.703125 279.308594 260.246094 299.480469 243.039062 312.773438 C 248.671875 315.425781 253.957031 318.3125 258.339844 322.605469 C 262.765625 326.933594 266.398438 331.761719 268.820312 337.46875 C 271.222656 343.128906 272.609375 348.984375 272.515625 355.351562 L 265.710938 355.351562 C 265.519531 354.476562 265.1875 353.535156 265.117188 352.578125 C 263.898438 335.777344 250.96875 320.878906 233.191406 317.871094 C 211.382812 314.191406 190.644531 330.164062 188.710938 352.464844 C 188.632812 353.363281 188.484375 354.277344 188.339844 355.347656 L 181.667969 355.347656 C 181.59375 354.199219 181.375 353.03125 181.464844 351.894531 C 182.238281 342.089844 185.871094 333.460938 192.253906 325.972656 C 196.648438 320.820312 201.984375 316.925781 208.128906 314.101562 C 208.953125 313.722656 209.742188 313.28125 210.972656 312.652344 Z M 226.8125 309.84375 C 237.175781 310.53125 248.183594 301.484375 248.097656 288.902344 C 248.011719 276.84375 238.636719 267.949219 227.066406 267.863281 C 214.796875 267.769531 205.796875 277.792969 205.789062 288.941406 C 205.773438 301.113281 216.339844 310.378906 226.8125 309.84375 Z M 226.8125 309.84375 " fill-opacity="1" fill-rule="nonzero"/></g><path fill="#8cffda" d="M 190.496094 291.019531 C 190.878906 293.589844 191.203125 295.765625 191.578125 298.292969 C 180.679688 297.945312 171.035156 301.054688 163.011719 308.320312 C 154.9375 315.632812 150.945312 324.957031 150.234375 335.960938 L 143.265625 335.960938 C 143.125 326.492188 145.96875 318.085938 151.304688 310.507812 C 156.636719 302.929688 163.726562 297.40625 172.835938 293.800781 C 163.148438 286.179688 158.769531 276.652344 160.78125 264.691406 C 162.105469 256.800781 166.296875 250.542969 172.945312 246.214844 C 188.074219 236.347656 205.96875 242.84375 213.058594 255.273438 C 212.023438 255.800781 210.984375 256.324219 209.953125 256.867188 C 208.921875 257.410156 207.867188 257.992188 206.667969 258.640625 C 203.101562 253.488281 198.3125 250.152344 192.210938 249.109375 C 190.09375 248.726562 187.972656 248.679688 185.84375 248.976562 C 183.714844 249.269531 181.683594 249.886719 179.753906 250.828125 C 171.367188 254.90625 166.554688 263.730469 167.8125 272.671875 C 168.597656 278.265625 171.269531 282.773438 175.601562 286.296875 C 179.847656 289.753906 184.867188 291.125 190.496094 291.019531 Z M 190.496094 291.019531 " fill-opacity="1" fill-rule="nonzero"/><path fill="#8cffda" d="M 247.074219 258.542969 L 240.734375 255.207031 C 245.882812 246.980469 253.1875 242.277344 262.699219 241.605469 C 275.195312 240.71875 285.03125 245.898438 290.421875 257.132812 C 297.183594 271.230469 293.320312 283.480469 281.304688 293.667969 C 282.351562 294.234375 283.179688 294.730469 284.046875 295.148438 C 298.71875 302.195312 307.460938 313.710938 310.269531 329.703125 C 310.617188 331.660156 310.515625 333.703125 310.632812 335.964844 L 303.921875 335.964844 C 300.746094 311.996094 287.027344 299.324219 262.34375 297.972656 C 262.683594 295.808594 263.046875 293.515625 263.441406 291.03125 C 270.097656 291.140625 275.785156 289.113281 280.351562 284.402344 C 283.546875 281.105469 285.421875 277.132812 286.109375 272.628906 C 287.417969 264.046875 282.277344 254.695312 274.308594 250.910156 C 266.910156 247.382812 255.578125 247.425781 247.074219 258.542969 Z M 247.074219 258.542969 " fill-opacity="1" fill-rule="nonzero"/><g clip-path="url(#f4d885631b)"><path fill="#8cffda" d="M 123.191406 309.417969 L 119.992188 309.417969 C 116.539062 309.417969 116.246094 309.191406 116.613281 305.820312 C 117.796875 294.871094 122.121094 285.328125 129.980469 277.558594 C 134.148438 273.441406 138.964844 270.140625 144.457031 267.925781 C 144.875 267.757812 145.265625 267.511719 146.003906 267.125 C 145.328125 266.410156 144.859375 265.777344 144.269531 265.289062 C 136.320312 258.671875 132.832031 250.132812 133.90625 239.964844 C 134.878906 230.667969 139.632812 223.472656 147.746094 218.71875 C 158.734375 212.289062 171.847656 213.90625 181.207031 222.316406 C 183.117188 224.035156 184.839844 225.957031 186.039062 228.53125 L 180.152344 231.667969 C 179.535156 231.007812 178.90625 230.371094 178.316406 229.703125 C 172.195312 222.753906 164.5 220.449219 155.75 223.054688 C 146.890625 225.691406 141.863281 232.191406 140.84375 241.242188 C 139.96875 248.972656 143.152344 255.3125 149.332031 260.09375 C 149.988281 260.609375 150.683594 261.066406 151.421875 261.460938 C 152.683594 262.132812 152.902344 263.109375 152.773438 264.460938 C 152.578125 266.472656 152.539062 268.488281 152.652344 270.507812 C 152.765625 272.449219 152.800781 272.691406 150.847656 273.253906 C 145.417969 274.835938 140.609375 277.527344 136.429688 281.332031 C 129.433594 287.625 125.183594 295.441406 123.890625 304.804688 C 123.722656 306.164062 123.488281 307.523438 123.191406 309.417969 Z M 123.191406 309.417969 " fill-opacity="1" fill-rule="nonzero"/></g><g clip-path="url(#1c2c3b9a05)"><path fill="#8cffda" d="M 273.695312 231.679688 L 268.003906 228.628906 C 272.417969 218.6875 288.65625 210.4375 303.628906 217.425781 C 309.925781 220.367188 314.59375 224.957031 317.535156 231.199219 C 320.515625 237.53125 320.953125 244.195312 319.113281 250.898438 C 317.308594 257.480469 313.332031 262.722656 307.785156 266.800781 C 311.507812 268.949219 314.945312 270.597656 318.003906 272.765625 C 327.9375 279.820312 334.25 289.316406 336.515625 301.34375 C 336.90625 303.421875 336.964844 305.554688 337.128906 307.667969 C 337.210938 308.773438 336.667969 309.421875 335.488281 309.402344 C 335.394531 309.402344 335.300781 309.402344 335.210938 309.402344 C 330.761719 309.753906 330.746094 309.742188 330.105469 305.390625 C 328.351562 293.476562 322.546875 284.082031 312.355469 277.566406 C 309.964844 276.039062 307.230469 275.03125 304.628906 273.84375 C 303.550781 273.351562 302.40625 273.015625 301.214844 272.578125 L 301.214844 262.261719 C 307.746094 258.652344 312.140625 253.191406 312.972656 245.421875 C 313.648438 239.023438 311.679688 233.371094 307.285156 228.628906 C 299.734375 220.480469 283.753906 218.304688 273.695312 231.679688 Z M 273.695312 231.679688 " fill-opacity="1" fill-rule="nonzero"/></g><path fill="#8cffda" d="M 254.101562 235.785156 L 247.820312 238.554688 C 244.015625 227.414062 236.578125 221.179688 224.539062 222.28125 C 214.773438 223.183594 209.121094 229.449219 206.039062 238.535156 L 199.9375 235.921875 C 201.0625 226.957031 210.886719 216.140625 224.1875 214.945312 C 239.28125 213.582031 251.042969 223.605469 254.101562 235.785156 Z M 254.101562 235.785156 " fill-opacity="1" fill-rule="nonzero"/><g fill="#8447ff" fill-opacity="1"><g transform="translate(289.23268, 414.020328)"><g><path d="M 45.09375 -24.125 L -169.078125 -24.125 L -169.078125 -67.625 L -165.015625 -67.625 L -165.015625 -38.78125 L 41.03125 -38.78125 L 41.03125 -67.625 L 45.09375 -67.625 Z M 45.09375 -24.125 "/></g></g></g><g clip-path="url(#84e6c2da9e)"><path fill="#8447ff" d="M 541.761719 312.652344 C 532.378906 305.628906 528.328125 296.464844 529.535156 285.179688 C 530.277344 278.28125 533.40625 272.433594 538.546875 267.84375 C 550.503906 257.195312 568.3125 258.222656 579.140625 270.125 C 587.492188 279.308594 591.035156 299.480469 573.828125 312.773438 C 579.457031 315.425781 584.742188 318.3125 589.128906 322.605469 C 593.554688 326.933594 597.183594 331.761719 599.605469 337.46875 C 602.007812 343.128906 603.398438 348.984375 603.300781 355.351562 L 596.496094 355.351562 C 596.304688 354.476562 595.972656 353.535156 595.90625 352.578125 C 594.6875 335.777344 581.757812 320.878906 563.980469 317.871094 C 542.171875 314.191406 521.429688 330.164062 519.496094 352.464844 C 519.417969 353.363281 519.269531 354.277344 519.128906 355.347656 L 512.457031 355.347656 C 512.382812 354.199219 512.164062 353.03125 512.253906 351.894531 C 513.023438 342.089844 516.65625 333.460938 523.039062 325.972656 C 527.433594 320.820312 532.769531 316.925781 538.917969 314.101562 C 539.738281 313.722656 540.53125 313.28125 541.761719 312.652344 Z M 557.601562 309.84375 C 567.960938 310.53125 578.96875 301.484375 578.882812 288.902344 C 578.800781 276.84375 569.421875 267.949219 557.855469 267.863281 C 545.582031 267.769531 536.582031 277.792969 536.578125 288.941406 C 536.5625 301.113281 547.128906 310.378906 557.601562 309.84375 Z M 557.601562 309.84375 " fill-opacity="1" fill-rule="nonzero"/></g><path fill="#8447ff" d="M 521.285156 291.019531 C 521.664062 293.589844 521.988281 295.765625 522.367188 298.292969 C 511.464844 297.945312 501.824219 301.054688 493.800781 308.320312 C 485.722656 315.632812 481.734375 324.957031 481.023438 335.960938 L 474.054688 335.960938 C 473.910156 326.492188 476.757812 318.085938 482.089844 310.507812 C 487.425781 302.929688 494.511719 297.40625 503.621094 293.800781 C 493.933594 286.179688 489.558594 276.652344 491.566406 264.691406 C 492.890625 256.800781 497.085938 250.542969 503.730469 246.214844 C 518.863281 236.347656 536.757812 242.84375 543.84375 255.273438 C 542.8125 255.800781 541.773438 256.324219 540.742188 256.867188 C 539.710938 257.410156 538.65625 257.992188 537.457031 258.640625 C 533.890625 253.488281 529.101562 250.152344 522.996094 249.109375 C 520.882812 248.726562 518.761719 248.679688 516.628906 248.976562 C 514.5 249.269531 512.472656 249.886719 510.539062 250.828125 C 502.15625 254.90625 497.34375 263.730469 498.601562 272.671875 C 499.382812 278.265625 502.054688 282.773438 506.386719 286.296875 C 510.632812 289.753906 515.652344 291.125 521.285156 291.019531 Z M 521.285156 291.019531 " fill-opacity="1" fill-rule="nonzero"/><path fill="#8447ff" d="M 577.859375 258.542969 L 571.523438 255.207031 C 576.667969 246.980469 583.972656 242.277344 593.488281 241.605469 C 605.984375 240.71875 615.820312 245.898438 621.210938 257.132812 C 627.96875 271.230469 624.105469 283.480469 612.089844 293.667969 C 613.136719 294.234375 613.964844 294.730469 614.832031 295.148438 C 629.507812 302.195312 638.246094 313.710938 641.058594 329.703125 C 641.402344 331.660156 641.304688 333.703125 641.421875 335.964844 L 634.710938 335.964844 C 631.53125 311.996094 617.8125 299.324219 593.128906 297.972656 C 593.472656 295.808594 593.835938 293.515625 594.230469 291.03125 C 600.886719 291.140625 606.574219 289.113281 611.140625 284.402344 C 614.332031 281.105469 616.207031 277.132812 616.894531 272.628906 C 618.203125 264.046875 613.066406 254.695312 605.09375 250.910156 C 597.699219 247.382812 586.363281 247.425781 577.859375 258.542969 Z M 577.859375 258.542969 " fill-opacity="1" fill-rule="nonzero"/><g clip-path="url(#58187cd474)"><path fill="#8447ff" d="M 453.976562 309.417969 L 450.78125 309.417969 C 447.324219 309.417969 447.035156 309.191406 447.402344 305.820312 C 448.585938 294.871094 452.90625 285.328125 460.769531 277.558594 C 464.933594 273.441406 469.75 270.140625 475.246094 267.925781 C 475.664062 267.757812 476.054688 267.511719 476.789062 267.125 C 476.113281 266.410156 475.648438 265.777344 475.054688 265.289062 C 467.109375 258.671875 463.617188 250.132812 464.695312 239.964844 C 465.667969 230.667969 470.421875 223.472656 478.53125 218.71875 C 489.523438 212.289062 502.636719 213.90625 511.992188 222.316406 C 513.90625 224.035156 515.625 225.957031 516.824219 228.53125 L 510.941406 231.667969 C 510.324219 231.007812 509.695312 230.371094 509.105469 229.703125 C 502.980469 222.753906 495.289062 220.449219 486.539062 223.054688 C 477.679688 225.691406 472.652344 232.191406 471.628906 241.242188 C 470.753906 248.972656 473.941406 255.3125 480.117188 260.09375 C 480.773438 260.609375 481.472656 261.066406 482.207031 261.460938 C 483.472656 262.132812 483.6875 263.109375 483.558594 264.460938 C 483.367188 266.472656 483.324219 268.488281 483.4375 270.507812 C 483.554688 272.449219 483.585938 272.691406 481.636719 273.253906 C 476.203125 274.835938 471.398438 277.527344 467.21875 281.332031 C 460.222656 287.625 455.972656 295.441406 454.679688 304.804688 C 454.511719 306.164062 454.277344 307.523438 453.976562 309.417969 Z M 453.976562 309.417969 " fill-opacity="1" fill-rule="nonzero"/></g><path fill="#8447ff" d="M 604.484375 231.679688 L 598.789062 228.628906 C 603.207031 218.6875 619.445312 210.4375 634.417969 217.425781 C 640.710938 220.367188 645.382812 224.957031 648.320312 231.199219 C 651.300781 237.53125 651.742188 244.195312 649.898438 250.898438 C 648.097656 257.480469 644.117188 262.722656 638.574219 266.800781 C 642.292969 268.949219 645.730469 270.597656 648.789062 272.765625 C 658.726562 279.820312 665.039062 289.316406 667.304688 301.34375 C 667.691406 303.421875 667.753906 305.554688 667.917969 307.667969 C 668 308.773438 667.453125 309.421875 666.277344 309.402344 C 666.179688 309.402344 666.089844 309.402344 665.996094 309.402344 C 661.546875 309.753906 661.53125 309.742188 660.890625 305.390625 C 659.136719 293.476562 653.335938 284.082031 643.140625 277.566406 C 640.75 276.039062 638.019531 275.03125 635.417969 273.84375 C 634.339844 273.351562 633.191406 273.015625 632 272.578125 L 632 262.261719 C 638.535156 258.652344 642.929688 253.191406 643.761719 245.421875 C 644.4375 239.023438 642.464844 233.371094 638.074219 228.628906 C 630.523438 220.480469 614.542969 218.304688 604.484375 231.679688 Z M 604.484375 231.679688 " fill-opacity="1" fill-rule="nonzero"/><path fill="#8447ff" d="M 584.890625 235.785156 L 578.609375 238.554688 C 574.800781 227.414062 567.367188 221.179688 555.328125 222.28125 C 545.5625 223.183594 539.910156 229.449219 536.828125 238.535156 L 530.722656 235.921875 C 531.851562 226.957031 541.675781 216.140625 554.972656 214.945312 C 570.070312 213.582031 581.828125 223.605469 584.890625 235.785156 Z M 584.890625 235.785156 " fill-opacity="1" fill-rule="nonzero"/><g fill="#8cffda" fill-opacity="1"><g transform="translate(620.020128, 414.020328)"><g><path d="M 45.09375 -24.125 L -169.078125 -24.125 L -169.078125 -67.625 L -165.015625 -67.625 L -165.015625 -38.78125 L 41.03125 -38.78125 L 41.03125 -67.625 L 45.09375 -67.625 Z M 45.09375 -24.125 "/></g></g></g><g clip-path="url(#966d374e63)"><path fill="#8447ff" d="M 224.269531 459.425781 C 220.992188 459.425781 217.847656 460.714844 215.527344 463.011719 C 213.214844 465.320312 211.90625 468.445312 211.90625 471.699219 C 211.90625 474.949219 213.214844 478.074219 215.527344 480.371094 C 217.847656 482.671875 220.992188 483.96875 224.269531 483.96875 C 227.550781 483.96875 230.695312 482.671875 233.015625 480.371094 C 235.339844 478.074219 236.632812 474.949219 236.632812 471.699219 C 236.632812 468.445312 235.339844 465.320312 233.015625 463.011719 C 230.695312 460.714844 227.550781 459.425781 224.269531 459.425781 Z M 224.269531 417.535156 C 220.992188 417.535156 217.847656 418.824219 215.527344 421.132812 C 213.214844 423.429688 211.90625 426.554688 211.90625 429.804688 C 211.90625 433.066406 213.214844 436.179688 215.527344 438.480469 C 217.847656 440.789062 220.992188 442.078125 224.269531 442.078125 C 227.550781 442.078125 230.695312 440.789062 233.015625 438.488281 C 235.339844 436.179688 236.632812 433.066406 236.632812 429.804688 C 236.632812 426.546875 235.339844 423.429688 233.015625 421.121094 C 230.695312 418.824219 227.550781 417.535156 224.269531 417.535156 Z M 224.269531 375.640625 C 220.992188 375.640625 217.847656 376.941406 215.527344 379.238281 C 213.214844 381.539062 211.90625 384.664062 211.90625 387.914062 C 211.90625 391.164062 213.214844 394.289062 215.527344 396.589844 C 217.847656 398.894531 220.992188 400.183594 224.269531 400.183594 C 227.550781 400.183594 230.695312 398.894531 233.015625 396.597656 C 235.339844 394.289062 236.632812 391.164062 236.632812 387.914062 C 236.632812 384.664062 235.339844 381.539062 233.015625 379.238281 C 230.695312 376.929688 227.550781 375.640625 224.269531 375.640625 " fill-opacity="1" fill-rule="nonzero"/></g><g clip-path="url(#7cb361a979)"><path fill="#8cffda" d="M 555.902344 459.425781 C 552.625 459.425781 549.480469 460.714844 547.15625 463.011719 C 544.84375 465.320312 543.539062 468.445312 543.539062 471.699219 C 543.539062 474.949219 544.84375 478.074219 547.15625 480.371094 C 549.480469 482.671875 552.625 483.96875 555.902344 483.96875 C 559.183594 483.96875 562.328125 482.671875 564.648438 480.371094 C 566.96875 478.074219 568.265625 474.949219 568.265625 471.699219 C 568.265625 468.445312 566.96875 465.320312 564.648438 463.011719 C 562.328125 460.714844 559.183594 459.425781 555.902344 459.425781 Z M 555.902344 417.535156 C 552.625 417.535156 549.480469 418.824219 547.15625 421.132812 C 544.84375 423.429688 543.539062 426.554688 543.539062 429.804688 C 543.539062 433.066406 544.84375 436.179688 547.15625 438.480469 C 549.480469 440.789062 552.625 442.078125 555.902344 442.078125 C 559.183594 442.078125 562.328125 440.789062 564.648438 438.488281 C 566.96875 436.179688 568.265625 433.066406 568.265625 429.804688 C 568.265625 426.546875 566.96875 423.429688 564.648438 421.121094 C 562.328125 418.824219 559.183594 417.535156 555.902344 417.535156 Z M 555.902344 375.640625 C 552.625 375.640625 549.480469 376.941406 547.15625 379.238281 C 544.84375 381.539062 543.539062 384.664062 543.539062 387.914062 C 543.539062 391.164062 544.84375 394.289062 547.15625 396.589844 C 549.480469 398.894531 552.625 400.183594 555.902344 400.183594 C 559.183594 400.183594 562.328125 398.894531 564.648438 396.597656 C 566.96875 394.289062 568.265625 391.164062 568.265625 387.914062 C 568.265625 384.664062 566.96875 381.539062 564.648438 379.238281 C 562.328125 376.929688 559.183594 375.640625 555.902344 375.640625 " fill-opacity="1" fill-rule="nonzero"/></g><g clip-path="url(#05ffc23d8c)"><g clip-path="url(#573a6a2ed3)"><path fill="#8cffda" d="M 171.441406 450.445312 L 272.78125 450.445312 L 272.78125 551.78125 L 171.441406 551.78125 Z M 171.441406 450.445312 " fill-opacity="1" fill-rule="nonzero"/></g></g><g clip-path="url(#3da87ea5b4)"><g clip-path="url(#b6fb3db872)"><path stroke-linecap="butt" transform="matrix(0.538848, 0, 0, 0.538848, 171.442348, 450.444262)" fill="none" stroke-linejoin="miter" d="M 15.308697 0.00195006 L 172.726458 0.00195006 C 181.179099 0.00195006 188.029653 6.852504 188.029653 15.305146 L 188.029653 172.722907 C 188.029653 181.175548 181.179099 188.033351 172.726458 188.033351 L 15.308697 188.033351 C 6.856056 188.033351 -0.00174793 181.175548 -0.00174793 172.722907 L -0.00174793 15.305146 C -0.00174793 6.852504 6.856056 0.00195006 15.308697 0.00195006 Z M 15.308697 0.00195006 " stroke="#8447ff" stroke-width="25.04929" stroke-opacity="1" stroke-miterlimit="4"/></g></g><g clip-path="url(#9c730bf02a)"><g clip-path="url(#29e68907d5)"><path fill="#8447ff" d="M 505.1875 456.25 L 606.523438 456.25 L 606.523438 557.589844 L 505.1875 557.589844 Z M 505.1875 456.25 " fill-opacity="1" fill-rule="nonzero"/></g></g><g clip-path="url(#3335ba7233)"><g clip-path="url(#d5022ee6a2)"><path stroke-linecap="butt" transform="matrix(0.538848, 0, 0, 0.538848, 505.186154, 456.249933)" fill="none" stroke-linejoin="miter" d="M 94.018199 0.00012355 C 42.091723 0.00012355 0.00249792 42.089348 0.00249792 94.015824 C 0.00249792 145.9423 42.091723 188.031525 94.018199 188.031525 C 145.937425 188.031525 188.033899 145.9423 188.033899 94.015824 C 188.033899 42.089348 145.937425 0.00012355 94.018199 0.00012355 Z M 94.018199 0.00012355 " stroke="#8cffda" stroke-width="25.04929" stroke-opacity="1" stroke-miterlimit="4"/></g></g></svg>