<svg xmlns="http://www.w3.org/2000/svg" xmlns:xlink="http://www.w3.org/1999/xlink" width="1024" zoomAndPan="magnify" viewBox="0 0 768 767.999994" height="1024" preserveAspectRatio="xMidYMid meet" version="1.0"><defs><clipPath id="949f86ff11"><path d="M 0 0 L 188 0 L 188 187 L 0 187 Z M 0 0 " clip-rule="nonzero"/></clipPath><clipPath id="4e8c605d62"><path d="M 79.324219 -138.722656 L 210.316406 -7.734375 L -7.121094 209.703125 L -138.113281 78.710938 Z M 79.324219 -138.722656 " clip-rule="nonzero"/></clipPath><clipPath id="29917d91a5"><path d="M 79.324219 -138.722656 L 210.316406 -7.734375 L -7.121094 209.703125 L -138.113281 78.710938 Z M 79.324219 -138.722656 " clip-rule="nonzero"/></clipPath><clipPath id="9b9313ed20"><path d="M 579 578 L 768 578 L 768 768 L 579 768 Z M 579 578 " clip-rule="nonzero"/></clipPath><clipPath id="2b17b31be8"><path d="M 687.910156 903.441406 L 556.917969 772.449219 L 774.351562 555.015625 L 905.34375 686.003906 Z M 687.910156 903.441406 " clip-rule="nonzero"/></clipPath><clipPath id="ab7597ed4f"><path d="M 687.910156 903.441406 L 556.917969 772.449219 L 774.351562 555.015625 L 905.34375 686.003906 Z M 687.910156 903.441406 " clip-rule="nonzero"/></clipPath><clipPath id="4e66931ac1"><path d="M 0 577 L 188 577 L 188 768 L 0 768 Z M 0 577 " clip-rule="nonzero"/></clipPath><clipPath id="841b6c0488"><path d="M -137.894531 686.222656 L -6.90625 555.230469 L 210.53125 772.664062 L 79.539062 903.65625 Z M -137.894531 686.222656 " clip-rule="nonzero"/></clipPath><clipPath id="258e4bc80f"><path d="M -137.894531 686.222656 L -6.90625 555.230469 L 210.53125 772.664062 L 79.539062 903.65625 Z M -137.894531 686.222656 " clip-rule="nonzero"/></clipPath><clipPath id="70735a63bf"><path d="M 579 0 L 768 0 L 768 188 L 579 188 Z M 579 0 " clip-rule="nonzero"/></clipPath><clipPath id="47e4b6cbcd"><path d="M 905.128906 78.496094 L 774.136719 209.488281 L 556.703125 -7.949219 L 687.695312 -138.941406 Z M 905.128906 78.496094 " clip-rule="nonzero"/></clipPath><clipPath id="97f6a80e11"><path d="M 905.128906 78.496094 L 774.136719 209.488281 L 556.703125 -7.949219 L 687.695312 -138.941406 Z M 905.128906 78.496094 " clip-rule="nonzero"/></clipPath><clipPath id="782399cbd0"><path d="M 101.476562 130.882812 L 666.226562 130.882812 L 666.226562 637.511719 L 101.476562 637.511719 Z M 101.476562 130.882812 " clip-rule="nonzero"/></clipPath><clipPath id="7b2b2bae79"><path d="M 419 218 L 458 218 L 458 254 L 419 254 Z M 419 218 " clip-rule="nonzero"/></clipPath><clipPath id="34889672b1"><path d="M 596.410156 280.25 L 396.976562 275.015625 L 399.140625 192.542969 L 598.574219 197.777344 Z M 596.410156 280.25 " clip-rule="nonzero"/></clipPath><clipPath id="1f565dcd42"><path d="M 596.410156 280.25 L 396.976562 275.015625 L 399.140625 192.542969 L 598.574219 197.777344 Z M 596.410156 280.25 " clip-rule="nonzero"/></clipPath><clipPath id="cef8c6511a"><path d="M 480 221 L 512 221 L 512 256 L 480 256 Z M 480 221 " clip-rule="nonzero"/></clipPath><clipPath id="1d01009887"><path d="M 596.410156 280.25 L 396.976562 275.015625 L 399.140625 192.542969 L 598.574219 197.777344 Z M 596.410156 280.25 " clip-rule="nonzero"/></clipPath><clipPath id="f214295e58"><path d="M 596.410156 280.25 L 396.976562 275.015625 L 399.140625 192.542969 L 598.574219 197.777344 Z M 596.410156 280.25 " clip-rule="nonzero"/></clipPath><clipPath id="311b3df939"><path d="M 535 197 L 598 197 L 598 255 L 535 255 Z M 535 197 " clip-rule="nonzero"/></clipPath><clipPath id="ee4a1fc846"><path d="M 596.410156 280.25 L 396.976562 275.015625 L 399.140625 192.542969 L 598.574219 197.777344 Z M 596.410156 280.25 " clip-rule="nonzero"/></clipPath><clipPath id="4c23904738"><path d="M 596.410156 280.25 L 396.976562 275.015625 L 399.140625 192.542969 L 598.574219 197.777344 Z M 596.410156 280.25 " clip-rule="nonzero"/></clipPath><clipPath id="f732e9f7ee"><path d="M 509 241 L 539 241 L 539 271 L 509 271 Z M 509 241 " clip-rule="nonzero"/></clipPath><clipPath id="917c637bd1"><path d="M 596.410156 280.25 L 396.976562 275.015625 L 399.140625 192.542969 L 598.574219 197.777344 Z M 596.410156 280.25 " clip-rule="nonzero"/></clipPath><clipPath id="fc76240ad0"><path d="M 596.410156 280.25 L 396.976562 275.015625 L 399.140625 192.542969 L 598.574219 197.777344 Z M 596.410156 280.25 " clip-rule="nonzero"/></clipPath><clipPath id="71cf90b272"><path d="M 454 203 L 485 203 L 485 234 L 454 234 Z M 454 203 " clip-rule="nonzero"/></clipPath><clipPath id="e2f94f128b"><path d="M 596.410156 280.25 L 396.976562 275.015625 L 399.140625 192.542969 L 598.574219 197.777344 Z M 596.410156 280.25 " clip-rule="nonzero"/></clipPath><clipPath id="8818bed0a8"><path d="M 596.410156 280.25 L 396.976562 275.015625 L 399.140625 192.542969 L 598.574219 197.777344 Z M 596.410156 280.25 " clip-rule="nonzero"/></clipPath><clipPath id="ccf5e456ea"><path d="M 397 246 L 428 246 L 428 276 L 397 276 Z M 397 246 " clip-rule="nonzero"/></clipPath><clipPath id="e2ede69519"><path d="M 596.410156 280.25 L 396.976562 275.015625 L 399.140625 192.542969 L 598.574219 197.777344 Z M 596.410156 280.25 " clip-rule="nonzero"/></clipPath><clipPath id="55be441544"><path d="M 596.410156 280.25 L 396.976562 275.015625 L 399.140625 192.542969 L 598.574219 197.777344 Z M 596.410156 280.25 " clip-rule="nonzero"/></clipPath><clipPath id="a32eb39827"><path d="M 450 254.867188 L 492 254.867188 L 492 429 L 450 429 Z M 450 254.867188 " clip-rule="nonzero"/></clipPath><clipPath id="501464ae76"><path d="M 324.09375 438 L 557.34375 438 L 557.34375 444.617188 L 324.09375 444.617188 Z M 324.09375 438 " clip-rule="nonzero"/></clipPath></defs><g clip-path="url(#949f86ff11)"><g clip-path="url(#4e8c605d62)"><g clip-path="url(#29917d91a5)"><path fill="#8447ff" d="M -29.746094 186.601562 L -29.734375 -29.628906 L 187.996094 -29.640625 L 187.996094 14.632812 L 14.539062 14.640625 L 14.527344 186.601562 L -29.746094 186.601562 " fill-opacity="1" fill-rule="nonzero"/></g></g></g><g clip-path="url(#9b9313ed20)"><g clip-path="url(#2b17b31be8)"><g clip-path="url(#ab7597ed4f)"><path fill="#8447ff" d="M 796.980469 578.113281 L 796.964844 794.34375 L 579.234375 794.355469 L 579.234375 750.082031 L 752.695312 750.074219 L 752.707031 578.113281 L 796.980469 578.113281 " fill-opacity="1" fill-rule="nonzero"/></g></g></g><g clip-path="url(#4e66931ac1)"><g clip-path="url(#841b6c0488)"><g clip-path="url(#258e4bc80f)"><path fill="#8447ff" d="M 187.429688 795.292969 L -28.800781 795.277344 L -28.8125 577.546875 L 15.460938 577.546875 L 15.46875 751.007812 L 187.429688 751.019531 L 187.429688 795.292969 " fill-opacity="1" fill-rule="nonzero"/></g></g></g><g clip-path="url(#70735a63bf)"><g clip-path="url(#47e4b6cbcd)"><g clip-path="url(#97f6a80e11)"><path fill="#8447ff" d="M 579.800781 -30.574219 L 796.03125 -30.5625 L 796.042969 187.167969 L 751.769531 187.167969 L 751.761719 13.710938 L 579.800781 13.699219 L 579.800781 -30.574219 " fill-opacity="1" fill-rule="nonzero"/></g></g></g><g clip-path="url(#782399cbd0)"><path fill="#8447ff" d="M 383.851562 512.929688 C 379.257812 512.929688 375.523438 509.1875 375.523438 504.589844 C 375.523438 499.996094 379.257812 496.253906 383.851562 496.253906 C 388.441406 496.253906 392.179688 499.996094 392.179688 504.589844 C 392.179688 509.1875 388.441406 512.929688 383.851562 512.929688 Z M 383.851562 484.71875 C 372.886719 484.71875 363.996094 493.640625 363.996094 504.589844 C 363.996094 515.566406 372.886719 524.464844 383.851562 524.464844 C 394.8125 524.464844 403.707031 515.566406 403.707031 504.589844 C 403.707031 493.640625 394.8125 484.71875 383.851562 484.71875 Z M 624.378906 541.207031 L 143.324219 541.207031 C 126.597656 541.207031 113 526.652344 113 508.738281 L 113 467.976562 L 654.699219 467.976562 L 654.699219 508.738281 C 654.699219 526.652344 641.105469 541.207031 624.378906 541.207031 Z M 451.089844 625.976562 L 316.613281 625.976562 L 341.507812 552.742188 L 426.195312 552.742188 Z M 143.324219 142.445312 L 624.378906 142.445312 C 641.105469 142.445312 654.699219 157 654.699219 174.914062 L 654.699219 456.4375 L 113 456.4375 L 113 174.914062 C 113 157 126.597656 142.445312 143.324219 142.445312 Z M 624.378906 130.90625 L 143.324219 130.90625 C 120.25 130.90625 101.476562 150.644531 101.476562 174.914062 L 101.476562 508.738281 C 101.476562 533.003906 120.25 552.742188 143.324219 552.742188 L 329.328125 552.742188 L 303.105469 629.894531 C 302.519531 631.652344 302.789062 633.589844 303.871094 635.101562 C 304.972656 636.609375 306.707031 637.511719 308.574219 637.511719 L 459.128906 637.511719 C 460.996094 637.511719 462.730469 636.609375 463.832031 635.101562 C 464.914062 633.589844 465.183594 631.652344 464.597656 629.894531 L 438.371094 552.742188 L 624.378906 552.742188 C 647.453125 552.742188 666.226562 533.003906 666.226562 508.738281 L 666.226562 174.914062 C 666.226562 150.644531 647.453125 130.90625 624.378906 130.90625 " fill-opacity="1" fill-rule="nonzero"/></g><path fill="#8447ff" d="M 249.960938 252.101562 L 271.464844 173.039062 C 269.945312 172.578125 268.417969 172.164062 266.875 171.789062 C 265.335938 171.417969 263.785156 171.085938 262.226562 170.796875 C 260.667969 170.507812 259.101562 170.265625 257.527344 170.0625 C 255.957031 169.859375 254.378906 169.703125 252.796875 169.589844 C 251.214844 169.472656 249.632812 169.402344 248.046875 169.375 C 246.460938 169.347656 244.875 169.363281 243.292969 169.425781 C 241.707031 169.484375 240.125 169.589844 238.546875 169.738281 C 236.96875 169.886719 235.394531 170.074219 233.828125 170.3125 C 232.257812 170.546875 230.699219 170.824219 229.144531 171.144531 C 227.59375 171.464844 226.050781 171.828125 224.515625 172.234375 C 222.984375 172.640625 221.464844 173.085938 219.953125 173.578125 C 218.445312 174.066406 216.953125 174.597656 215.476562 175.171875 C 213.996094 175.742188 212.535156 176.355469 211.089844 177.007812 C 209.644531 177.660156 208.21875 178.351562 206.8125 179.085938 C 205.40625 179.816406 204.019531 180.585938 202.65625 181.394531 C 201.292969 182.203125 199.949219 183.046875 198.632812 183.929688 C 197.316406 184.8125 196.023438 185.730469 194.757812 186.683594 C 193.488281 187.636719 192.25 188.625 191.039062 189.648438 C 189.824219 190.667969 188.640625 191.722656 187.488281 192.8125 C 186.332031 193.898438 185.210938 195.015625 184.117188 196.167969 C 183.027344 197.316406 181.964844 198.496094 180.9375 199.703125 C 179.910156 200.910156 178.917969 202.144531 177.960938 203.410156 C 177 204.671875 176.078125 205.960938 175.1875 207.273438 C 174.300781 208.585938 173.449219 209.925781 172.636719 211.285156 C 171.820312 212.644531 171.046875 214.027344 170.308594 215.429688 C 169.570312 216.835938 168.871094 218.257812 168.210938 219.699219 C 167.554688 221.140625 166.933594 222.601562 166.355469 224.078125 C 165.777344 225.554688 165.238281 227.042969 164.742188 228.550781 C 164.246094 230.054688 163.792969 231.574219 163.378906 233.105469 C 162.96875 234.636719 162.597656 236.179688 162.269531 237.730469 C 161.941406 239.28125 161.65625 240.839844 161.417969 242.40625 C 161.175781 243.976562 160.976562 245.546875 160.824219 247.125 C 160.667969 248.703125 160.558594 250.285156 160.492188 251.867188 C 160.421875 253.453125 160.398438 255.039062 160.421875 256.625 C 160.441406 258.210938 160.503906 259.792969 160.613281 261.375 C 160.71875 262.957031 160.871094 264.535156 161.066406 266.109375 C 161.261719 267.683594 161.5 269.25 161.78125 270.808594 C 162.0625 272.371094 162.386719 273.921875 162.753906 275.464844 C 163.121094 277.007812 163.53125 278.539062 163.980469 280.058594 C 164.433594 281.578125 164.925781 283.082031 165.460938 284.578125 C 165.996094 286.070312 166.570312 287.546875 167.1875 289.007812 C 167.804688 290.46875 168.460938 291.910156 169.15625 293.335938 C 169.851562 294.761719 170.585938 296.164062 171.359375 297.550781 C 172.132812 298.933594 172.945312 300.296875 173.792969 301.632812 C 174.640625 302.972656 175.527344 304.289062 176.449219 305.578125 C 177.371094 306.871094 178.324219 308.132812 179.316406 309.371094 C 180.308594 310.609375 181.332031 311.820312 182.390625 313 C 183.449219 314.179688 184.539062 315.332031 185.660156 316.453125 C 186.78125 317.574219 187.933594 318.664062 189.113281 319.722656 C 190.292969 320.777344 191.503906 321.800781 192.742188 322.792969 C 193.980469 323.785156 195.246094 324.738281 196.535156 325.660156 C 197.828125 326.582031 199.140625 327.464844 200.480469 328.3125 C 201.820312 329.160156 203.183594 329.972656 204.566406 330.746094 C 205.953125 331.519531 207.355469 332.253906 208.78125 332.949219 C 210.207031 333.644531 211.652344 334.300781 213.113281 334.914062 C 214.574219 335.53125 216.050781 336.105469 217.542969 336.640625 C 219.035156 337.175781 220.542969 337.667969 222.0625 338.117188 C 223.582031 338.570312 225.113281 338.976562 226.65625 339.34375 C 228.199219 339.710938 229.75 340.035156 231.3125 340.316406 C 232.871094 340.597656 234.4375 340.832031 236.011719 341.027344 C 237.585938 341.222656 239.164062 341.371094 240.746094 341.480469 C 242.328125 341.585938 243.914062 341.652344 245.496094 341.671875 C 247.082031 341.691406 248.667969 341.667969 250.253906 341.597656 C 251.835938 341.53125 253.417969 341.417969 254.996094 341.265625 C 256.574219 341.109375 258.144531 340.910156 259.714844 340.667969 C 261.28125 340.425781 262.839844 340.140625 264.390625 339.8125 C 265.941406 339.484375 267.484375 339.117188 269.015625 338.703125 C 270.546875 338.289062 272.0625 337.835938 273.570312 337.335938 C 275.074219 336.839844 276.566406 336.300781 278.042969 335.722656 C 279.519531 335.144531 280.976562 334.523438 282.417969 333.863281 C 283.859375 333.207031 285.285156 332.507812 286.6875 331.769531 C 288.089844 331.03125 289.472656 330.253906 290.832031 329.4375 C 292.191406 328.625 293.527344 327.773438 294.84375 326.882812 C 296.15625 325.996094 297.445312 325.070312 298.707031 324.113281 C 299.96875 323.152344 301.203125 322.160156 302.410156 321.132812 C 303.617188 320.105469 304.796875 319.042969 305.945312 317.949219 C 307.09375 316.859375 308.210938 315.734375 309.300781 314.578125 C 310.386719 313.425781 311.441406 312.242188 312.460938 311.027344 C 313.484375 309.816406 314.472656 308.578125 315.425781 307.308594 C 316.378906 306.042969 317.296875 304.75 318.175781 303.433594 C 319.058594 302.113281 319.902344 300.773438 320.710938 299.410156 C 321.519531 298.042969 322.289062 296.65625 323.019531 295.25 C 323.75 293.84375 324.441406 292.417969 325.09375 290.972656 C 325.746094 289.527344 326.359375 288.066406 326.929688 286.585938 C 327.503906 285.109375 328.035156 283.613281 328.523438 282.105469 C 329.011719 280.597656 329.460938 279.078125 329.863281 277.542969 C 330.269531 276.011719 330.632812 274.46875 330.953125 272.914062 C 331.273438 271.363281 331.550781 269.800781 331.785156 268.234375 C 332.019531 266.664062 332.207031 265.089844 332.355469 263.511719 C 332.503906 261.933594 332.605469 260.351562 332.664062 258.769531 C 332.726562 257.183594 332.742188 255.597656 332.714844 254.011719 C 332.6875 252.425781 332.613281 250.84375 332.5 249.261719 C 332.382812 247.679688 332.226562 246.105469 332.023438 244.53125 C 331.820312 242.957031 331.574219 241.394531 331.289062 239.832031 C 331 238.273438 330.667969 236.722656 330.292969 235.183594 C 329.917969 233.644531 329.5 232.113281 329.042969 230.59375 Z M 249.960938 252.101562 " fill-opacity="1" fill-rule="nonzero"/><path fill="#8cffda" d="M 282.046875 162.695312 L 260.539062 241.757812 L 339.605469 220.253906 C 338.578125 216.867188 337.347656 213.5625 335.914062 210.328125 C 334.480469 207.09375 332.855469 203.964844 331.035156 200.929688 C 329.21875 197.898438 327.21875 194.988281 325.042969 192.199219 C 322.867188 189.414062 320.53125 186.769531 318.03125 184.269531 C 315.53125 181.765625 312.886719 179.429688 310.097656 177.253906 C 307.3125 175.078125 304.402344 173.082031 301.367188 171.261719 C 298.335938 169.445312 295.203125 167.820312 291.96875 166.386719 C 288.738281 164.953125 285.429688 163.722656 282.046875 162.695312 Z M 282.046875 162.695312 " fill-opacity="1" fill-rule="nonzero"/><g clip-path="url(#7b2b2bae79)"><g clip-path="url(#34889672b1)"><g clip-path="url(#1f565dcd42)"><path fill="#8447ff" d="M 424.023438 253.050781 C 434.746094 244.09375 446.457031 234.191406 457.179688 225.234375 C 457.171875 225.222656 457.167969 225.214844 457.164062 225.207031 C 457.058594 225.058594 456.964844 224.894531 456.878906 224.710938 C 456.78125 224.535156 456.707031 224.355469 456.644531 224.179688 C 455.914062 222.441406 455.507812 220.578125 455.421875 218.703125 C 443.792969 228.425781 431.171875 239.082031 419.542969 248.800781 C 421.304688 249.90625 422.84375 251.359375 424.023438 253.050781 Z M 424.023438 253.050781 " fill-opacity="1" fill-rule="nonzero"/></g></g></g><g clip-path="url(#cef8c6511a)"><g clip-path="url(#1d01009887)"><g clip-path="url(#f214295e58)"><path fill="#8447ff" d="M 509.707031 255.246094 C 509.929688 252.96875 510.691406 250.792969 511.871094 248.882812 C 502.566406 240.242188 492.324219 230.605469 483.015625 221.964844 C 482.46875 224.035156 481.488281 225.980469 480.089844 227.617188 C 489.648438 236.496094 500.148438 246.367188 509.707031 255.246094 Z M 509.707031 255.246094 " fill-opacity="1" fill-rule="nonzero"/></g></g></g><g clip-path="url(#311b3df939)"><g clip-path="url(#ee4a1fc846)"><g clip-path="url(#4c23904738)"><path fill="#8447ff" d="M 573.953125 223.871094 C 576.296875 225.746094 579.265625 226.945312 582.671875 227.21875 C 590.945312 227.882812 597.128906 220.542969 597.742188 212.925781 C 598.40625 204.652344 591.0625 198.46875 583.441406 197.859375 C 575.496094 197.222656 569.496094 203.960938 568.484375 211.238281 C 568.410156 211.515625 568.359375 211.8125 568.371094 212.152344 C 568.34375 212.484375 568.375 212.777344 568.433594 213.054688 C 568.605469 215.265625 569.164062 217.308594 570.078125 219.109375 C 558.667969 228.640625 546.765625 238.644531 535.359375 248.175781 C 536.621094 249.910156 537.5 251.914062 537.847656 254.089844 C 549.71875 244.175781 562.082031 233.789062 573.953125 223.871094 Z M 591.59375 212.761719 C 591.898438 223.785156 574.820312 223.28125 574.515625 212.316406 C 575.398438 201.328125 591.289062 201.746094 591.59375 212.761719 Z M 591.59375 212.761719 " fill-opacity="1" fill-rule="nonzero"/></g></g></g><g clip-path="url(#f732e9f7ee)"><g clip-path="url(#917c637bd1)"><g clip-path="url(#fc76240ad0)"><path fill="#8447ff" d="M 509.234375 257.523438 C 509.246094 257.640625 509.261719 257.753906 509.28125 257.867188 C 509.285156 258.023438 509.296875 258.179688 509.324219 258.34375 C 510.519531 265.769531 517.226562 271.152344 524.734375 270.71875 C 532.375 270.28125 538.089844 263.9375 538.496094 256.464844 C 538.550781 255.492188 538.492188 254.542969 538.34375 253.625 C 537.992188 251.449219 537.113281 249.441406 535.851562 247.710938 C 533.058594 243.875 528.402344 241.382812 523.492188 241.402344 C 518.375 241.417969 513.933594 244.292969 511.402344 248.386719 C 510.21875 250.296875 509.457031 252.472656 509.238281 254.75 C 509.148438 255.664062 509.140625 256.589844 509.234375 257.523438 Z M 523.332031 247.546875 C 528.429688 247.222656 532.230469 251.421875 532.347656 256.300781 C 532.457031 260.695312 528.75 263.902344 524.71875 264.589844 C 519.992188 265.394531 516.199219 261.460938 515.355469 257.199219 C 515.089844 252.320312 518.144531 247.875 523.332031 247.546875 Z M 523.332031 247.546875 " fill-opacity="1" fill-rule="nonzero"/></g></g></g><g clip-path="url(#71cf90b272)"><g clip-path="url(#e2f94f128b)"><g clip-path="url(#8818bed0a8)"><path fill="#8447ff" d="M 456.382812 225.183594 C 456.46875 225.367188 456.566406 225.527344 456.667969 225.675781 C 456.671875 225.6875 456.675781 225.695312 456.683594 225.703125 C 460.773438 232.550781 469.183594 234.9375 476.371094 231.382812 C 478.035156 230.558594 479.433594 229.4375 480.558594 228.113281 C 481.957031 226.476562 482.9375 224.53125 483.488281 222.457031 C 484.46875 218.753906 484.070312 214.644531 482.203125 211.183594 C 478.5 204.320312 470.027344 202.273438 463.160156 205.164062 C 457.453125 207.570312 454.664062 213.40625 454.925781 219.175781 C 455.007812 221.046875 455.414062 222.914062 456.148438 224.648438 C 456.210938 224.828125 456.285156 225.003906 456.382812 225.183594 Z M 465.554688 210.832031 C 469.257812 208.765625 474.152344 210.207031 476.492188 213.617188 C 479.207031 217.574219 477.996094 223.015625 474.039062 225.632812 C 469.703125 228.5 464.148438 226.5625 461.773438 222.222656 C 459.753906 217.910156 461.46875 213.109375 465.554688 210.832031 Z M 465.554688 210.832031 " fill-opacity="1" fill-rule="nonzero"/></g></g></g><g clip-path="url(#ccf5e456ea)"><g clip-path="url(#e2ede69519)"><g clip-path="url(#55be441544)"><path fill="#8447ff" d="M 397.589844 260.941406 C 397.601562 268.660156 403.960938 274.65625 411.378906 275.304688 C 411.539062 275.328125 411.707031 275.347656 411.886719 275.347656 C 412.0625 275.355469 412.230469 275.347656 412.390625 275.332031 C 420.125 275.082031 426.074219 269.40625 426.925781 261.710938 C 427.296875 258.34375 426.328125 255.179688 424.519531 252.582031 C 423.339844 250.886719 421.800781 249.4375 420.039062 248.332031 C 417.472656 246.726562 414.4375 245.847656 411.347656 246.023438 C 403.515625 246.476562 397.574219 253.214844 397.589844 260.941406 Z M 411.363281 252.15625 C 416.867188 251.21875 421.046875 256.53125 420.773438 261.546875 C 420.53125 266.039062 416.292969 269.195312 412.046875 269.199219 C 407.617188 268.960938 403.996094 265.601562 403.738281 261.101562 C 403.46875 256.4375 406.964844 252.902344 411.363281 252.15625 Z M 411.363281 252.15625 " fill-opacity="1" fill-rule="nonzero"/></g></g></g><path fill="#49e6b4" d="M 333.453125 299.144531 L 374.203125 299.144531 L 374.203125 428.734375 L 333.453125 428.734375 Z M 333.453125 299.144531 " fill-opacity="1" fill-rule="nonzero"/><path fill="#49e6b4" d="M 391.890625 277.65625 L 432.644531 277.65625 L 432.644531 428.734375 L 391.890625 428.734375 Z M 391.890625 277.65625 " fill-opacity="1" fill-rule="nonzero"/><g clip-path="url(#a32eb39827)"><path fill="#49e6b4" d="M 450.328125 254.863281 L 491.082031 254.863281 L 491.082031 428.734375 L 450.328125 428.734375 Z M 450.328125 254.863281 " fill-opacity="1" fill-rule="nonzero"/></g><path fill="#8447ff" d="M 333.453125 325.839844 L 374.203125 325.839844 L 374.203125 428.734375 L 333.453125 428.734375 Z M 333.453125 325.839844 " fill-opacity="1" fill-rule="nonzero"/><path fill="#8447ff" d="M 391.890625 308.777344 L 432.644531 308.777344 L 432.644531 428.734375 L 391.890625 428.734375 Z M 391.890625 308.777344 " fill-opacity="1" fill-rule="nonzero"/><path fill="#8447ff" d="M 450.328125 290.679688 L 491.082031 290.679688 L 491.082031 428.734375 L 450.328125 428.734375 Z M 450.328125 290.679688 " fill-opacity="1" fill-rule="nonzero"/><path fill="#6c38d4" d="M 333.453125 361.269531 L 374.203125 361.269531 L 374.203125 428.734375 L 333.453125 428.734375 Z M 333.453125 361.269531 " fill-opacity="1" fill-rule="nonzero"/><path fill="#6c38d4" d="M 391.890625 350.082031 L 432.644531 350.082031 L 432.644531 428.734375 L 391.890625 428.734375 Z M 391.890625 350.082031 " fill-opacity="1" fill-rule="nonzero"/><path fill="#49e6b4" d="M 507.242188 299.144531 L 547.996094 299.144531 L 547.996094 428.734375 L 507.242188 428.734375 Z M 507.242188 299.144531 " fill-opacity="1" fill-rule="nonzero"/><path fill="#8447ff" d="M 507.242188 325.839844 L 547.996094 325.839844 L 547.996094 428.734375 L 507.242188 428.734375 Z M 507.242188 325.839844 " fill-opacity="1" fill-rule="nonzero"/><path fill="#6c38d4" d="M 507.242188 361.269531 L 547.996094 361.269531 L 547.996094 428.734375 L 507.242188 428.734375 Z M 507.242188 361.269531 " fill-opacity="1" fill-rule="nonzero"/><path fill="#6c38d4" d="M 450.328125 338.21875 L 491.082031 338.21875 L 491.082031 428.734375 L 450.328125 428.734375 Z M 450.328125 338.21875 " fill-opacity="1" fill-rule="nonzero"/><g clip-path="url(#501464ae76)"><path fill="#6c38d4" d="M 324.113281 438.488281 L 557.332031 438.488281 L 557.332031 444.609375 L 324.113281 444.609375 Z M 324.113281 438.488281 " fill-opacity="1" fill-rule="nonzero"/></g></svg>