<svg xmlns="http://www.w3.org/2000/svg" xmlns:xlink="http://www.w3.org/1999/xlink" width="1024" zoomAndPan="magnify" viewBox="0 0 768 767.999994" height="1024" preserveAspectRatio="xMidYMid meet" version="1.0"><defs><clipPath id="ba881f4f87"><path d="M 0 0 L 188 0 L 188 187 L 0 187 Z M 0 0 " clip-rule="nonzero"/></clipPath><clipPath id="ce542a666e"><path d="M 79.324219 -138.722656 L 210.316406 -7.734375 L -7.121094 209.703125 L -138.113281 78.710938 Z M 79.324219 -138.722656 " clip-rule="nonzero"/></clipPath><clipPath id="c03673fd31"><path d="M 79.324219 -138.722656 L 210.316406 -7.734375 L -7.121094 209.703125 L -138.113281 78.710938 Z M 79.324219 -138.722656 " clip-rule="nonzero"/></clipPath><clipPath id="b5fcb7d455"><path d="M 579 578 L 768 578 L 768 768 L 579 768 Z M 579 578 " clip-rule="nonzero"/></clipPath><clipPath id="8427a9dd7f"><path d="M 687.910156 903.441406 L 556.917969 772.449219 L 774.351562 555.015625 L 905.34375 686.003906 Z M 687.910156 903.441406 " clip-rule="nonzero"/></clipPath><clipPath id="3fb6ff7303"><path d="M 687.910156 903.441406 L 556.917969 772.449219 L 774.351562 555.015625 L 905.34375 686.003906 Z M 687.910156 903.441406 " clip-rule="nonzero"/></clipPath><clipPath id="9072647585"><path d="M 0 577 L 188 577 L 188 768 L 0 768 Z M 0 577 " clip-rule="nonzero"/></clipPath><clipPath id="51d67c3624"><path d="M -137.894531 686.222656 L -6.90625 555.230469 L 210.53125 772.664062 L 79.539062 903.65625 Z M -137.894531 686.222656 " clip-rule="nonzero"/></clipPath><clipPath id="61edc58358"><path d="M -137.894531 686.222656 L -6.90625 555.230469 L 210.53125 772.664062 L 79.539062 903.65625 Z M -137.894531 686.222656 " clip-rule="nonzero"/></clipPath><clipPath id="524490e5ab"><path d="M 579 0 L 768 0 L 768 188 L 579 188 Z M 579 0 " clip-rule="nonzero"/></clipPath><clipPath id="8704e7a876"><path d="M 905.128906 78.496094 L 774.136719 209.488281 L 556.703125 -7.949219 L 687.695312 -138.941406 Z M 905.128906 78.496094 " clip-rule="nonzero"/></clipPath><clipPath id="aa511a6aef"><path d="M 905.128906 78.496094 L 774.136719 209.488281 L 556.703125 -7.949219 L 687.695312 -138.941406 Z M 905.128906 78.496094 " clip-rule="nonzero"/></clipPath><clipPath id="952c67b1ec"><path d="M 199 238 L 283 238 L 283 625.058594 L 199 625.058594 Z M 199 238 " clip-rule="nonzero"/></clipPath><clipPath id="b472df637f"><path d="M 299 320 L 383 320 L 383 625.058594 L 299 625.058594 Z M 299 320 " clip-rule="nonzero"/></clipPath><clipPath id="28668d4a3a"><path d="M 99.777344 331 L 183 331 L 183 625.058594 L 99.777344 625.058594 Z M 99.777344 331 " clip-rule="nonzero"/></clipPath><clipPath id="4cbefa41e2"><path d="M 399 423 L 483 423 L 483 625.058594 L 399 625.058594 Z M 399 423 " clip-rule="nonzero"/></clipPath><clipPath id="1b503cddd6"><path d="M 499 373 L 583 373 L 583 625.058594 L 499 625.058594 Z M 499 373 " clip-rule="nonzero"/></clipPath><clipPath id="c0dd25f699"><path d="M 131 133.808594 L 695 133.808594 L 695 577 L 131 577 Z M 131 133.808594 " clip-rule="nonzero"/></clipPath></defs><g clip-path="url(#ba881f4f87)"><g clip-path="url(#ce542a666e)"><g clip-path="url(#c03673fd31)"><path fill="#8447ff" d="M -29.746094 186.601562 L -29.734375 -29.628906 L 187.996094 -29.640625 L 187.996094 14.632812 L 14.539062 14.640625 L 14.527344 186.601562 L -29.746094 186.601562 " fill-opacity="1" fill-rule="nonzero"/></g></g></g><g clip-path="url(#b5fcb7d455)"><g clip-path="url(#8427a9dd7f)"><g clip-path="url(#3fb6ff7303)"><path fill="#8447ff" d="M 796.980469 578.113281 L 796.964844 794.34375 L 579.234375 794.355469 L 579.234375 750.082031 L 752.695312 750.074219 L 752.707031 578.113281 L 796.980469 578.113281 " fill-opacity="1" fill-rule="nonzero"/></g></g></g><g clip-path="url(#9072647585)"><g clip-path="url(#51d67c3624)"><g clip-path="url(#61edc58358)"><path fill="#8447ff" d="M 187.429688 795.292969 L -28.800781 795.277344 L -28.8125 577.546875 L 15.460938 577.546875 L 15.46875 751.007812 L 187.429688 751.019531 L 187.429688 795.292969 " fill-opacity="1" fill-rule="nonzero"/></g></g></g><g clip-path="url(#524490e5ab)"><g clip-path="url(#8704e7a876)"><g clip-path="url(#aa511a6aef)"><path fill="#8447ff" d="M 579.800781 -30.574219 L 796.03125 -30.5625 L 796.042969 187.167969 L 751.769531 187.167969 L 751.761719 13.710938 L 579.800781 13.699219 L 579.800781 -30.574219 " fill-opacity="1" fill-rule="nonzero"/></g></g></g><g clip-path="url(#952c67b1ec)"><path fill="#8447ff" d="M 211.421875 249.585938 C 211.183594 249.585938 210.960938 249.804688 210.960938 250.035156 L 210.960938 613.273438 C 210.960938 613.511719 211.183594 613.734375 211.421875 613.734375 L 270.800781 613.734375 C 271.039062 613.734375 271.257812 613.511719 271.257812 613.273438 L 271.257812 250.035156 C 271.257812 249.804688 271.039062 249.585938 270.800781 249.585938 Z M 270.800781 625.019531 L 211.421875 625.019531 C 204.945312 625.019531 199.667969 619.746094 199.667969 613.273438 L 199.667969 250.035156 C 199.667969 243.5625 204.945312 238.300781 211.421875 238.300781 L 270.800781 238.300781 C 277.277344 238.300781 282.554688 243.5625 282.554688 250.035156 L 282.554688 613.273438 C 282.554688 619.746094 277.277344 625.019531 270.800781 625.019531 " fill-opacity="1" fill-rule="nonzero"/></g><g clip-path="url(#b472df637f)"><path fill="#8447ff" d="M 310.882812 613.734375 L 371.160156 613.734375 L 371.160156 332.175781 L 310.882812 332.175781 Z M 371.921875 625.019531 L 310.121094 625.019531 C 304.316406 625.019531 299.585938 620.292969 299.585938 614.492188 L 299.585938 331.417969 C 299.585938 325.617188 304.316406 320.890625 310.121094 320.890625 L 371.921875 320.890625 C 377.726562 320.890625 382.457031 325.617188 382.457031 331.417969 L 382.457031 614.492188 C 382.457031 620.292969 377.726562 625.019531 371.921875 625.019531 " fill-opacity="1" fill-rule="nonzero"/></g><g clip-path="url(#28668d4a3a)"><path fill="#8447ff" d="M 111.042969 613.734375 L 171.332031 613.734375 L 171.332031 342.863281 L 111.042969 342.863281 Z M 172.089844 625.019531 L 110.28125 625.019531 C 104.46875 625.019531 99.746094 620.292969 99.746094 614.492188 L 99.746094 342.105469 C 99.746094 336.304688 104.46875 331.578125 110.28125 331.578125 L 172.089844 331.578125 C 177.894531 331.578125 182.625 336.304688 182.625 342.105469 L 182.625 614.492188 C 182.625 620.292969 177.894531 625.019531 172.089844 625.019531 " fill-opacity="1" fill-rule="nonzero"/></g><g clip-path="url(#4cbefa41e2)"><path fill="#8447ff" d="M 410.75 613.734375 L 471.046875 613.734375 L 471.046875 435.121094 L 410.75 435.121094 Z M 472.351562 625.019531 L 409.441406 625.019531 C 403.925781 625.019531 399.453125 620.539062 399.453125 615.046875 L 399.453125 433.816406 C 399.453125 428.3125 403.925781 423.832031 409.441406 423.832031 L 472.351562 423.832031 C 477.867188 423.832031 482.339844 428.3125 482.339844 433.816406 L 482.339844 615.046875 C 482.339844 620.539062 477.867188 625.019531 472.351562 625.019531 " fill-opacity="1" fill-rule="nonzero"/></g><g clip-path="url(#1b503cddd6)"><path fill="#8447ff" d="M 571.761719 625.019531 L 509.972656 625.019531 C 504.15625 625.019531 499.433594 620.292969 499.433594 614.492188 L 499.433594 379.09375 C 499.433594 375.980469 501.957031 373.453125 505.082031 373.453125 C 508.195312 373.453125 510.730469 375.980469 510.730469 379.09375 L 510.730469 613.734375 L 571 613.734375 L 571 424.589844 C 571 421.480469 573.535156 418.949219 576.648438 418.949219 C 579.773438 418.949219 582.296875 421.480469 582.296875 424.589844 L 582.296875 614.492188 C 582.296875 620.292969 577.574219 625.019531 571.761719 625.019531 " fill-opacity="1" fill-rule="nonzero"/></g><path fill="#49e6b4" d="M 540.335938 353.507812 C 517.726562 353.507812 497.394531 340.976562 487.273438 320.820312 C 472.597656 291.601562 484.441406 255.898438 513.675781 241.242188 C 522.023438 237.054688 530.964844 234.929688 540.238281 234.929688 C 562.847656 234.929688 583.1875 247.460938 593.308594 267.625 C 607.984375 296.835938 596.132812 332.519531 566.90625 347.191406 C 558.550781 351.382812 549.609375 353.507812 540.335938 353.507812 Z M 603.414062 262.5625 C 591.339844 238.554688 567.136719 223.644531 540.238281 223.644531 C 529.191406 223.644531 518.546875 226.167969 508.613281 231.148438 C 473.808594 248.605469 459.707031 291.097656 477.179688 325.871094 C 489.234375 349.882812 513.4375 364.792969 540.335938 364.792969 C 551.382812 364.792969 562.027344 362.261719 571.972656 357.28125 C 606.765625 339.820312 620.867188 297.339844 603.414062 262.5625 " fill-opacity="1" fill-rule="nonzero"/><g clip-path="url(#c0dd25f699)"><path fill="#49e6b4" d="M 679.605469 558.746094 L 668.566406 564.285156 C 667.566406 564.789062 666.5 565.035156 665.386719 565.035156 C 662.679688 565.035156 660.15625 563.5 658.953125 561.101562 L 595.277344 434.363281 C 593.511719 430.824219 594.941406 426.523438 598.460938 424.757812 L 609.511719 419.214844 C 610.507812 418.71875 611.574219 418.464844 612.6875 418.464844 C 615.398438 418.464844 617.929688 420.007812 619.128906 422.394531 L 682.796875 549.144531 C 684.574219 552.671875 683.144531 556.984375 679.605469 558.746094 Z M 577.285156 413.886719 L 576.824219 412.980469 C 575.050781 409.453125 576.488281 405.140625 580.011719 403.378906 L 603.394531 391.648438 C 604.382812 391.148438 605.453125 390.902344 606.5625 390.902344 C 609.28125 390.902344 611.804688 392.445312 613.003906 394.832031 L 613.464844 395.742188 C 614.3125 397.433594 614.453125 399.375 613.851562 401.199219 C 613.242188 403.023438 611.972656 404.488281 610.277344 405.34375 L 586.894531 417.070312 C 585.90625 417.5625 584.828125 417.820312 583.71875 417.820312 C 581.015625 417.820312 578.484375 416.277344 577.285156 413.886719 Z M 583.707031 380.664062 C 583.875 380.574219 584.042969 380.480469 584.203125 380.398438 L 588.09375 378.441406 L 591.042969 384.324219 L 581.511719 389.101562 L 578.5625 383.230469 L 583.285156 380.859375 C 583.425781 380.789062 583.574219 380.734375 583.707031 380.664062 Z M 463.878906 332.539062 C 442.738281 290.4375 459.804688 238.988281 501.933594 217.859375 C 513.96875 211.828125 526.84375 208.761719 540.203125 208.761719 C 572.785156 208.761719 602.097656 226.820312 616.703125 255.898438 C 626.949219 276.285156 628.632812 299.449219 621.441406 321.113281 C 614.328125 342.554688 599.34375 359.96875 579.253906 370.25 L 578.121094 370.816406 C 566.246094 376.679688 553.546875 379.667969 540.371094 379.667969 C 507.792969 379.667969 478.476562 361.609375 463.878906 332.539062 Z M 692.886719 544.085938 L 629.226562 417.335938 C 627.582031 414.074219 625.070312 411.472656 622.050781 409.707031 C 623.117188 408.21875 623.972656 406.542969 624.566406 404.742188 C 626.128906 400.0625 625.757812 395.0625 623.558594 390.6875 L 623.101562 389.773438 C 619.949219 383.503906 613.613281 379.613281 606.5625 379.613281 C 604.914062 379.613281 603.261719 379.871094 601.667969 380.3125 L 597.582031 372.171875 C 613.695312 360.394531 625.75 343.984375 632.164062 324.664062 C 640.300781 300.144531 638.394531 273.921875 626.789062 250.835938 C 610.261719 217.921875 577.089844 197.476562 540.203125 197.476562 C 525.070312 197.476562 510.484375 200.941406 496.867188 207.773438 C 449.171875 231.6875 429.84375 289.933594 453.785156 337.601562 C 454.984375 340 456.300781 342.308594 457.675781 344.566406 L 438.261719 378.988281 L 399.082031 283.425781 C 398.21875 281.308594 396.152344 279.925781 393.859375 279.925781 L 346.78125 279.925781 L 245.878906 136.257812 C 244.902344 134.855469 243.339844 133.972656 241.625 133.867188 C 239.90625 133.753906 238.265625 134.421875 237.101562 135.675781 L 133.234375 248.429688 C 131.117188 250.722656 131.269531 254.292969 133.5625 256.402344 C 135.867188 258.507812 139.429688 258.367188 141.546875 256.066406 L 240.664062 148.46875 L 339.226562 288.804688 C 340.285156 290.3125 342.003906 291.210938 343.851562 291.210938 L 390.0625 291.210938 L 432.226562 394.046875 C 433.054688 396.058594 434.945312 397.40625 437.105469 397.539062 C 437.222656 397.558594 437.335938 397.558594 437.460938 397.558594 C 439.480469 397.558594 441.371094 396.464844 442.375 394.683594 L 464.84375 354.855469 C 482.976562 377.5 510.457031 390.953125 540.371094 390.953125 C 549.761719 390.953125 558.9375 389.613281 567.796875 386.96875 L 571.925781 395.203125 C 565.097656 400.484375 562.714844 410.042969 566.730469 418.039062 L 567.1875 418.949219 C 570.277344 425.113281 576.453125 428.949219 583.363281 429.089844 C 582.96875 432.519531 583.523438 436.097656 585.183594 439.421875 L 648.859375 566.164062 C 652.011719 572.433594 658.335938 576.320312 665.386719 576.320312 C 668.238281 576.320312 671.089844 575.648438 673.628906 574.378906 L 684.679688 568.835938 C 693.765625 564.265625 697.457031 553.167969 692.886719 544.085938 " fill-opacity="1" fill-rule="nonzero"/></g></svg>