<svg xmlns="http://www.w3.org/2000/svg" xmlns:xlink="http://www.w3.org/1999/xlink" width="1024" zoomAndPan="magnify" viewBox="0 0 768 767.999994" height="1024" preserveAspectRatio="xMidYMid meet" version="1.0"><defs><clipPath id="937863ccfa"><path d="M 0 0 L 188 0 L 188 187 L 0 187 Z M 0 0 " clip-rule="nonzero"/></clipPath><clipPath id="f2d7adcf73"><path d="M 79.324219 -138.722656 L 210.316406 -7.734375 L -7.121094 209.703125 L -138.113281 78.710938 Z M 79.324219 -138.722656 " clip-rule="nonzero"/></clipPath><clipPath id="c5b3faec16"><path d="M 79.324219 -138.722656 L 210.316406 -7.734375 L -7.121094 209.703125 L -138.113281 78.710938 Z M 79.324219 -138.722656 " clip-rule="nonzero"/></clipPath><clipPath id="f8934a9aad"><path d="M 579 578 L 768 578 L 768 768 L 579 768 Z M 579 578 " clip-rule="nonzero"/></clipPath><clipPath id="c0e9a3ab10"><path d="M 687.910156 903.441406 L 556.917969 772.449219 L 774.351562 555.015625 L 905.34375 686.003906 Z M 687.910156 903.441406 " clip-rule="nonzero"/></clipPath><clipPath id="e89549bbf2"><path d="M 687.910156 903.441406 L 556.917969 772.449219 L 774.351562 555.015625 L 905.34375 686.003906 Z M 687.910156 903.441406 " clip-rule="nonzero"/></clipPath><clipPath id="1a41812308"><path d="M 0 577 L 188 577 L 188 768 L 0 768 Z M 0 577 " clip-rule="nonzero"/></clipPath><clipPath id="f718812608"><path d="M -137.894531 686.222656 L -6.90625 555.230469 L 210.53125 772.664062 L 79.539062 903.65625 Z M -137.894531 686.222656 " clip-rule="nonzero"/></clipPath><clipPath id="6d1a5e5764"><path d="M -137.894531 686.222656 L -6.90625 555.230469 L 210.53125 772.664062 L 79.539062 903.65625 Z M -137.894531 686.222656 " clip-rule="nonzero"/></clipPath><clipPath id="bdbd86b3e1"><path d="M 579 0 L 768 0 L 768 188 L 579 188 Z M 579 0 " clip-rule="nonzero"/></clipPath><clipPath id="a0eeeb89a9"><path d="M 905.128906 78.496094 L 774.136719 209.488281 L 556.703125 -7.949219 L 687.695312 -138.941406 Z M 905.128906 78.496094 " clip-rule="nonzero"/></clipPath><clipPath id="ce6b6444a9"><path d="M 905.128906 78.496094 L 774.136719 209.488281 L 556.703125 -7.949219 L 687.695312 -138.941406 Z M 905.128906 78.496094 " clip-rule="nonzero"/></clipPath><clipPath id="3d7a674d89"><path d="M 199 126.257812 L 565 126.257812 L 565 640.007812 L 199 640.007812 Z M 199 126.257812 " clip-rule="nonzero"/></clipPath><clipPath id="a6233dbdbf"><path d="M 587 216 L 670.65625 216 L 670.65625 300 L 587 300 Z M 587 216 " clip-rule="nonzero"/></clipPath><clipPath id="0d9f6aa5a1"><path d="M 97.65625 327 L 181 327 L 181 411 L 97.65625 411 Z M 97.65625 327 " clip-rule="nonzero"/></clipPath><clipPath id="d4c8363a21"><path d="M 258.300781 224.375 L 500.847656 224.375 L 500.847656 411.296875 L 258.300781 411.296875 Z M 258.300781 224.375 " clip-rule="nonzero"/></clipPath><clipPath id="2c5f2be1d2"><path d="M 382 231.273438 L 446 231.273438 L 446 306 L 382 306 Z M 382 231.273438 " clip-rule="nonzero"/></clipPath><clipPath id="1533970658"><path d="M 314 231.273438 L 368 231.273438 L 368 306 L 314 306 Z M 314 231.273438 " clip-rule="nonzero"/></clipPath><clipPath id="4f72304057"><path d="M 290.214844 314 L 469 314 L 469 321 L 290.214844 321 Z M 290.214844 314 " clip-rule="nonzero"/></clipPath><clipPath id="04e5cd3ebb"><path d="M 290.214844 420.867188 L 458.132812 420.867188 L 458.132812 483.179688 L 290.214844 483.179688 Z M 290.214844 420.867188 " clip-rule="nonzero"/></clipPath><clipPath id="c69dae8fb2"><path d="M 314.984375 415.191406 L 446.980469 415.191406 L 446.980469 487.191406 L 314.984375 487.191406 Z M 314.984375 415.191406 " clip-rule="nonzero"/></clipPath><clipPath id="3e1d1a59b9"><path d="M 335.226562 415.191406 L 426.738281 415.191406 C 432.105469 415.191406 437.253906 417.320312 441.050781 421.109375 C 444.847656 424.898438 446.980469 430.035156 446.980469 435.394531 L 446.980469 466.988281 C 446.980469 478.144531 437.917969 487.191406 426.738281 487.191406 L 335.226562 487.191406 C 324.046875 487.191406 314.984375 478.144531 314.984375 466.988281 L 314.984375 435.394531 C 314.984375 424.238281 324.046875 415.191406 335.226562 415.191406 Z M 335.226562 415.191406 " clip-rule="nonzero"/></clipPath></defs><g clip-path="url(#937863ccfa)"><g clip-path="url(#f2d7adcf73)"><g clip-path="url(#c5b3faec16)"><path fill="#8447ff" d="M -29.746094 186.601562 L -29.734375 -29.628906 L 187.996094 -29.640625 L 187.996094 14.632812 L 14.539062 14.640625 L 14.527344 186.601562 L -29.746094 186.601562 " fill-opacity="1" fill-rule="nonzero"/></g></g></g><g clip-path="url(#f8934a9aad)"><g clip-path="url(#c0e9a3ab10)"><g clip-path="url(#e89549bbf2)"><path fill="#8447ff" d="M 796.980469 578.113281 L 796.964844 794.34375 L 579.234375 794.355469 L 579.234375 750.082031 L 752.695312 750.074219 L 752.707031 578.113281 L 796.980469 578.113281 " fill-opacity="1" fill-rule="nonzero"/></g></g></g><g clip-path="url(#1a41812308)"><g clip-path="url(#f718812608)"><g clip-path="url(#6d1a5e5764)"><path fill="#8447ff" d="M 187.429688 795.292969 L -28.800781 795.277344 L -28.8125 577.546875 L 15.460938 577.546875 L 15.46875 751.007812 L 187.429688 751.019531 L 187.429688 795.292969 " fill-opacity="1" fill-rule="nonzero"/></g></g></g><g clip-path="url(#bdbd86b3e1)"><g clip-path="url(#a0eeeb89a9)"><g clip-path="url(#ce6b6444a9)"><path fill="#8447ff" d="M 579.800781 -30.574219 L 796.03125 -30.5625 L 796.042969 187.167969 L 751.769531 187.167969 L 751.761719 13.710938 L 579.800781 13.699219 L 579.800781 -30.574219 " fill-opacity="1" fill-rule="nonzero"/></g></g></g><g clip-path="url(#3d7a674d89)"><path fill="#49e6b4" d="M 520.832031 640.222656 L 242.582031 640.222656 C 241.164062 640.21875 239.75 640.148438 238.339844 640.007812 C 236.929688 639.867188 235.53125 639.660156 234.140625 639.382812 C 232.753906 639.105469 231.378906 638.761719 230.023438 638.351562 C 228.667969 637.9375 227.335938 637.460938 226.027344 636.917969 C 224.71875 636.378906 223.441406 635.773438 222.191406 635.105469 C 220.941406 634.4375 219.730469 633.710938 218.550781 632.921875 C 217.375 632.136719 216.238281 631.292969 215.144531 630.398438 C 214.046875 629.5 213 628.550781 211.996094 627.546875 C 210.996094 626.546875 210.046875 625.5 209.148438 624.40625 C 208.246094 623.3125 207.40625 622.175781 206.617188 621 C 205.828125 619.824219 205.101562 618.613281 204.433594 617.363281 C 203.765625 616.117188 203.160156 614.839844 202.617188 613.53125 C 202.074219 612.222656 201.597656 610.894531 201.183594 609.539062 C 200.773438 608.183594 200.429688 606.8125 200.152344 605.425781 C 199.875 604.039062 199.664062 602.640625 199.523438 601.230469 C 199.386719 599.824219 199.3125 598.410156 199.3125 596.996094 L 199.3125 169.84375 C 199.3125 168.425781 199.386719 167.015625 199.523438 165.605469 C 199.664062 164.199219 199.875 162.800781 200.152344 161.414062 C 200.429688 160.023438 200.773438 158.652344 201.183594 157.300781 C 201.597656 155.945312 202.074219 154.613281 202.617188 153.308594 C 203.160156 152 203.765625 150.722656 204.433594 149.472656 C 205.101562 148.226562 205.828125 147.015625 206.617188 145.835938 C 207.40625 144.660156 208.246094 143.527344 209.148438 142.433594 C 210.046875 141.339844 210.996094 140.289062 211.996094 139.289062 C 213 138.289062 214.046875 137.339844 215.144531 136.441406 C 216.238281 135.542969 217.375 134.703125 218.550781 133.914062 C 219.730469 133.128906 220.941406 132.402344 222.191406 131.734375 C 223.441406 131.066406 224.71875 130.460938 226.027344 129.917969 C 227.335938 129.375 228.667969 128.898438 230.023438 128.488281 C 231.378906 128.078125 232.753906 127.730469 234.140625 127.453125 C 235.53125 127.179688 236.929688 126.96875 238.339844 126.828125 C 239.75 126.691406 241.164062 126.617188 242.582031 126.617188 L 520.832031 126.617188 C 522.246094 126.617188 523.660156 126.691406 525.070312 126.828125 C 526.480469 126.96875 527.878906 127.179688 529.269531 127.453125 C 530.65625 127.730469 532.03125 128.078125 533.386719 128.488281 C 534.742188 128.898438 536.074219 129.375 537.382812 129.917969 C 538.691406 130.460938 539.96875 131.066406 541.21875 131.734375 C 542.46875 132.402344 543.679688 133.128906 544.859375 133.914062 C 546.035156 134.703125 547.171875 135.542969 548.269531 136.441406 C 549.363281 137.339844 550.410156 138.289062 551.414062 139.289062 C 552.414062 140.289062 553.363281 141.339844 554.265625 142.433594 C 555.164062 143.527344 556.003906 144.660156 556.792969 145.835938 C 557.582031 147.015625 558.308594 148.226562 558.976562 149.472656 C 559.644531 150.722656 560.25 152 560.792969 153.308594 C 561.335938 154.613281 561.8125 155.945312 562.226562 157.300781 C 562.636719 158.652344 562.980469 160.023438 563.257812 161.414062 C 563.535156 162.800781 563.746094 164.199219 563.886719 165.605469 C 564.027344 167.015625 564.097656 168.425781 564.097656 169.84375 L 564.097656 597.007812 C 564.097656 598.421875 564.023438 599.835938 563.882812 601.242188 C 563.742188 602.652344 563.535156 604.046875 563.257812 605.4375 C 562.980469 606.824219 562.632812 608.195312 562.222656 609.546875 C 561.808594 610.902344 561.332031 612.230469 560.789062 613.539062 C 560.246094 614.847656 559.640625 616.125 558.972656 617.371094 C 558.304688 618.617188 557.578125 619.832031 556.789062 621.007812 C 556 622.183594 555.160156 623.316406 554.257812 624.410156 C 553.359375 625.503906 552.410156 626.550781 551.410156 627.550781 C 550.40625 628.554688 549.359375 629.503906 548.261719 630.398438 C 547.167969 631.296875 546.03125 632.140625 544.855469 632.925781 C 543.675781 633.710938 542.464844 634.4375 541.214844 635.105469 C 539.964844 635.773438 538.6875 636.378906 537.378906 636.921875 C 536.070312 637.460938 534.738281 637.9375 533.382812 638.351562 C 532.027344 638.761719 530.65625 639.105469 529.265625 639.382812 C 527.878906 639.660156 526.480469 639.871094 525.070312 640.007812 C 523.660156 640.148438 522.246094 640.21875 520.832031 640.222656 Z M 242.582031 138.3125 C 241.546875 138.3125 240.515625 138.363281 239.484375 138.464844 C 238.457031 138.566406 237.433594 138.714844 236.421875 138.917969 C 235.40625 139.121094 234.40625 139.371094 233.414062 139.667969 C 232.425781 139.96875 231.453125 140.316406 230.496094 140.710938 C 229.542969 141.109375 228.609375 141.550781 227.695312 142.035156 C 226.785156 142.523438 225.898438 143.054688 225.039062 143.628906 C 224.179688 144.203125 223.347656 144.816406 222.550781 145.472656 C 221.75 146.125 220.984375 146.820312 220.253906 147.550781 C 219.523438 148.28125 218.828125 149.046875 218.171875 149.84375 C 217.515625 150.640625 216.902344 151.472656 216.328125 152.328125 C 215.753906 153.1875 215.222656 154.074219 214.734375 154.984375 C 214.246094 155.894531 213.804688 156.828125 213.410156 157.785156 C 213.015625 158.738281 212.667969 159.710938 212.367188 160.699219 C 212.066406 161.6875 211.816406 162.6875 211.613281 163.699219 C 211.410156 164.714844 211.261719 165.734375 211.160156 166.761719 C 211.058594 167.789062 211.007812 168.820312 211.007812 169.855469 L 211.007812 597.019531 C 211.007812 598.050781 211.058594 599.082031 211.160156 600.109375 C 211.261719 601.140625 211.410156 602.160156 211.613281 603.171875 C 211.816406 604.1875 212.066406 605.1875 212.367188 606.175781 C 212.667969 607.164062 213.015625 608.136719 213.410156 609.089844 C 213.804688 610.042969 214.246094 610.976562 214.734375 611.886719 C 215.222656 612.800781 215.753906 613.683594 216.328125 614.542969 C 216.902344 615.402344 217.515625 616.230469 218.171875 617.03125 C 218.828125 617.828125 219.523438 618.59375 220.253906 619.324219 C 220.984375 620.054688 221.75 620.746094 222.550781 621.402344 C 223.347656 622.058594 224.179688 622.671875 225.039062 623.246094 C 225.898438 623.820312 226.785156 624.351562 227.695312 624.835938 C 228.609375 625.324219 229.542969 625.765625 230.496094 626.160156 C 231.453125 626.554688 232.425781 626.902344 233.414062 627.203125 C 234.40625 627.503906 235.40625 627.753906 236.421875 627.957031 C 237.433594 628.15625 238.457031 628.308594 239.484375 628.410156 C 240.515625 628.511719 241.546875 628.5625 242.582031 628.5625 L 520.832031 628.5625 C 521.863281 628.5625 522.894531 628.511719 523.925781 628.410156 C 524.953125 628.308594 525.976562 628.15625 526.988281 627.957031 C 528.003906 627.753906 529.007812 627.503906 529.996094 627.203125 C 530.984375 626.902344 531.957031 626.554688 532.914062 626.160156 C 533.867188 625.765625 534.800781 625.324219 535.714844 624.835938 C 536.625 624.351562 537.511719 623.820312 538.371094 623.246094 C 539.230469 622.671875 540.0625 622.058594 540.859375 621.402344 C 541.660156 620.746094 542.425781 620.054688 543.15625 619.324219 C 543.886719 618.59375 544.582031 617.828125 545.238281 617.03125 C 545.894531 616.230469 546.507812 615.402344 547.082031 614.542969 C 547.65625 613.683594 548.1875 612.800781 548.675781 611.886719 C 549.164062 610.976562 549.605469 610.042969 550 609.089844 C 550.394531 608.136719 550.742188 607.164062 551.042969 606.175781 C 551.34375 605.1875 551.59375 604.1875 551.796875 603.171875 C 552 602.160156 552.148438 601.140625 552.25 600.109375 C 552.351562 599.082031 552.402344 598.050781 552.402344 597.019531 L 552.402344 169.84375 C 552.402344 168.808594 552.351562 167.777344 552.25 166.75 C 552.148438 165.722656 552 164.703125 551.796875 163.6875 C 551.59375 162.675781 551.34375 161.675781 551.042969 160.6875 C 550.742188 159.699219 550.394531 158.726562 550 157.773438 C 549.605469 156.816406 549.164062 155.882812 548.675781 154.972656 C 548.1875 154.0625 547.65625 153.175781 547.082031 152.316406 C 546.507812 151.460938 545.894531 150.628906 545.238281 149.832031 C 544.582031 149.035156 543.886719 148.269531 543.15625 147.539062 C 542.425781 146.808594 541.660156 146.113281 540.859375 145.460938 C 540.0625 144.804688 539.230469 144.191406 538.371094 143.617188 C 537.511719 143.042969 536.625 142.511719 535.714844 142.023438 C 534.800781 141.539062 533.867188 141.097656 532.914062 140.699219 C 531.957031 140.304688 530.984375 139.957031 529.996094 139.65625 C 529.007812 139.359375 528.003906 139.109375 526.988281 138.90625 C 525.976562 138.703125 524.953125 138.554688 523.925781 138.453125 C 522.894531 138.351562 521.863281 138.300781 520.832031 138.300781 Z M 242.582031 138.3125 " fill-opacity="1" fill-rule="nonzero"/></g><path fill="#49e6b4" d="M 530.460938 570.808594 L 232.972656 570.808594 C 232.589844 570.808594 232.210938 570.773438 231.832031 570.699219 C 231.457031 570.621094 231.089844 570.511719 230.734375 570.367188 C 230.382812 570.21875 230.042969 570.039062 229.726562 569.824219 C 229.40625 569.613281 229.109375 569.371094 228.839844 569.097656 C 228.566406 568.828125 228.324219 568.53125 228.113281 568.214844 C 227.898438 567.894531 227.71875 567.558594 227.570312 567.203125 C 227.425781 566.851562 227.3125 566.484375 227.238281 566.109375 C 227.164062 565.730469 227.125 565.351562 227.125 564.96875 L 227.125 201.882812 C 227.125 201.496094 227.164062 201.117188 227.238281 200.742188 C 227.3125 200.367188 227.425781 200 227.570312 199.644531 C 227.71875 199.292969 227.898438 198.953125 228.113281 198.636719 C 228.324219 198.316406 228.566406 198.023438 228.839844 197.75 C 229.109375 197.480469 229.40625 197.238281 229.726562 197.023438 C 230.042969 196.8125 230.382812 196.632812 230.734375 196.484375 C 231.089844 196.335938 231.457031 196.226562 231.832031 196.152344 C 232.210938 196.078125 232.589844 196.039062 232.972656 196.039062 L 530.460938 196.039062 C 530.84375 196.039062 531.222656 196.078125 531.601562 196.152344 C 531.976562 196.226562 532.34375 196.335938 532.699219 196.484375 C 533.050781 196.632812 533.390625 196.8125 533.707031 197.023438 C 534.027344 197.238281 534.324219 197.480469 534.59375 197.75 C 534.867188 198.023438 535.109375 198.316406 535.320312 198.636719 C 535.535156 198.953125 535.714844 199.292969 535.863281 199.644531 C 536.007812 200 536.121094 200.367188 536.195312 200.742188 C 536.269531 201.117188 536.308594 201.496094 536.308594 201.882812 L 536.308594 564.96875 C 536.308594 565.351562 536.269531 565.730469 536.195312 566.109375 C 536.121094 566.484375 536.007812 566.851562 535.863281 567.203125 C 535.714844 567.558594 535.535156 567.894531 535.320312 568.214844 C 535.109375 568.53125 534.867188 568.828125 534.59375 569.097656 C 534.324219 569.371094 534.027344 569.613281 533.707031 569.824219 C 533.390625 570.039062 533.050781 570.21875 532.699219 570.367188 C 532.34375 570.511719 531.976562 570.621094 531.601562 570.699219 C 531.222656 570.773438 530.84375 570.808594 530.460938 570.808594 Z M 238.820312 559.128906 L 524.613281 559.128906 L 524.613281 207.722656 L 238.820312 207.722656 Z M 238.820312 559.128906 " fill-opacity="1" fill-rule="nonzero"/><path fill="#49e6b4" d="M 425.355469 173.902344 L 338.054688 173.902344 C 337.671875 173.902344 337.289062 173.863281 336.914062 173.789062 C 336.539062 173.714844 336.171875 173.605469 335.816406 173.457031 C 335.460938 173.3125 335.125 173.128906 334.804688 172.917969 C 334.488281 172.703125 334.191406 172.460938 333.921875 172.191406 C 333.648438 171.917969 333.40625 171.625 333.191406 171.304688 C 332.980469 170.988281 332.800781 170.652344 332.652344 170.296875 C 332.507812 169.941406 332.394531 169.578125 332.320312 169.199219 C 332.246094 168.824219 332.207031 168.445312 332.207031 168.0625 C 332.207031 167.675781 332.246094 167.296875 332.320312 166.921875 C 332.394531 166.546875 332.507812 166.179688 332.652344 165.824219 C 332.800781 165.472656 332.980469 165.132812 333.191406 164.816406 C 333.40625 164.496094 333.648438 164.203125 333.921875 163.929688 C 334.191406 163.660156 334.488281 163.417969 334.804688 163.203125 C 335.125 162.992188 335.460938 162.8125 335.816406 162.664062 C 336.171875 162.515625 336.539062 162.40625 336.914062 162.332031 C 337.289062 162.257812 337.671875 162.21875 338.054688 162.21875 L 425.355469 162.21875 C 425.738281 162.21875 426.121094 162.257812 426.496094 162.332031 C 426.871094 162.40625 427.238281 162.515625 427.59375 162.664062 C 427.949219 162.8125 428.285156 162.992188 428.605469 163.203125 C 428.921875 163.417969 429.21875 163.660156 429.488281 163.929688 C 429.761719 164.203125 430.003906 164.496094 430.21875 164.816406 C 430.429688 165.132812 430.609375 165.472656 430.757812 165.824219 C 430.902344 166.179688 431.015625 166.546875 431.089844 166.921875 C 431.164062 167.296875 431.203125 167.675781 431.203125 168.0625 C 431.203125 168.445312 431.164062 168.824219 431.089844 169.199219 C 431.015625 169.578125 430.902344 169.941406 430.757812 170.296875 C 430.609375 170.652344 430.429688 170.988281 430.21875 171.304688 C 430.003906 171.625 429.761719 171.917969 429.488281 172.191406 C 429.21875 172.460938 428.921875 172.703125 428.605469 172.917969 C 428.285156 173.128906 427.949219 173.3125 427.59375 173.457031 C 427.238281 173.605469 426.871094 173.714844 426.496094 173.789062 C 426.121094 173.863281 425.738281 173.902344 425.355469 173.902344 Z M 425.355469 173.902344 " fill-opacity="1" fill-rule="nonzero"/><path fill="#49e6b4" d="M 316.5625 173.902344 L 306.546875 173.902344 C 306.160156 173.902344 305.78125 173.863281 305.40625 173.789062 C 305.027344 173.714844 304.664062 173.605469 304.308594 173.457031 C 303.953125 173.3125 303.617188 173.128906 303.296875 172.917969 C 302.976562 172.703125 302.683594 172.460938 302.410156 172.191406 C 302.140625 171.917969 301.898438 171.625 301.683594 171.304688 C 301.472656 170.988281 301.289062 170.652344 301.144531 170.296875 C 300.996094 169.941406 300.886719 169.578125 300.8125 169.199219 C 300.734375 168.824219 300.699219 168.445312 300.699219 168.0625 C 300.699219 167.675781 300.734375 167.296875 300.8125 166.921875 C 300.886719 166.546875 300.996094 166.179688 301.144531 165.824219 C 301.289062 165.472656 301.472656 165.132812 301.683594 164.816406 C 301.898438 164.496094 302.140625 164.203125 302.410156 163.929688 C 302.683594 163.660156 302.976562 163.417969 303.296875 163.203125 C 303.617188 162.992188 303.953125 162.8125 304.308594 162.664062 C 304.664062 162.515625 305.027344 162.40625 305.40625 162.332031 C 305.78125 162.257812 306.160156 162.21875 306.546875 162.21875 L 316.5625 162.21875 C 316.945312 162.21875 317.324219 162.257812 317.703125 162.332031 C 318.078125 162.40625 318.445312 162.515625 318.800781 162.664062 C 319.152344 162.8125 319.492188 162.992188 319.808594 163.203125 C 320.128906 163.417969 320.425781 163.660156 320.695312 163.929688 C 320.96875 164.203125 321.210938 164.496094 321.421875 164.816406 C 321.636719 165.132812 321.816406 165.472656 321.964844 165.824219 C 322.109375 166.179688 322.222656 166.546875 322.296875 166.921875 C 322.371094 167.296875 322.410156 167.675781 322.410156 168.0625 C 322.410156 168.445312 322.371094 168.824219 322.296875 169.199219 C 322.222656 169.578125 322.109375 169.941406 321.964844 170.296875 C 321.816406 170.652344 321.636719 170.988281 321.421875 171.304688 C 321.210938 171.625 320.96875 171.917969 320.695312 172.191406 C 320.425781 172.460938 320.128906 172.703125 319.808594 172.917969 C 319.492188 173.128906 319.152344 173.3125 318.800781 173.457031 C 318.445312 173.605469 318.078125 173.714844 317.703125 173.789062 C 317.324219 173.863281 316.945312 173.902344 316.5625 173.902344 Z M 316.5625 173.902344 " fill-opacity="1" fill-rule="nonzero"/><path fill="#49e6b4" d="M 381.703125 621.792969 C 380.964844 621.792969 380.226562 621.757812 379.488281 621.683594 C 378.753906 621.613281 378.023438 621.503906 377.296875 621.359375 C 376.574219 621.214844 375.855469 621.035156 375.148438 620.824219 C 374.441406 620.609375 373.746094 620.359375 373.0625 620.078125 C 372.382812 619.796875 371.714844 619.480469 371.0625 619.132812 C 370.410156 618.785156 369.777344 618.40625 369.160156 617.996094 C 368.546875 617.585938 367.953125 617.144531 367.382812 616.675781 C 366.808594 616.207031 366.261719 615.710938 365.742188 615.191406 C 365.21875 614.667969 364.722656 614.121094 364.253906 613.550781 C 363.785156 612.980469 363.34375 612.386719 362.933594 611.773438 C 362.523438 611.160156 362.140625 610.527344 361.792969 609.875 C 361.445312 609.226562 361.128906 608.558594 360.847656 607.875 C 360.5625 607.195312 360.316406 606.5 360.101562 605.792969 C 359.886719 605.085938 359.707031 604.371094 359.5625 603.644531 C 359.417969 602.921875 359.308594 602.191406 359.234375 601.457031 C 359.164062 600.722656 359.128906 599.984375 359.128906 599.246094 C 359.128906 598.507812 359.164062 597.773438 359.234375 597.035156 C 359.308594 596.300781 359.417969 595.570312 359.5625 594.847656 C 359.703125 594.125 359.882812 593.40625 360.097656 592.699219 C 360.3125 591.996094 360.5625 591.300781 360.84375 590.617188 C 361.128906 589.933594 361.441406 589.269531 361.792969 588.617188 C 362.140625 587.964844 362.519531 587.332031 362.929688 586.71875 C 363.339844 586.105469 363.78125 585.511719 364.25 584.941406 C 364.71875 584.371094 365.214844 583.824219 365.738281 583.300781 C 366.261719 582.78125 366.808594 582.285156 367.378906 581.816406 C 367.949219 581.347656 368.542969 580.90625 369.15625 580.496094 C 369.773438 580.085938 370.40625 579.707031 371.058594 579.359375 C 371.710938 579.011719 372.378906 578.695312 373.058594 578.414062 C 373.742188 578.132812 374.4375 577.882812 375.144531 577.667969 C 375.851562 577.453125 376.570312 577.273438 377.292969 577.128906 C 378.019531 576.988281 378.75 576.878906 379.484375 576.804688 C 380.222656 576.734375 380.960938 576.699219 381.699219 576.699219 C 382.4375 576.699219 383.175781 576.734375 383.910156 576.808594 C 384.644531 576.878906 385.375 576.988281 386.101562 577.132812 C 386.828125 577.277344 387.542969 577.457031 388.25 577.667969 C 388.957031 577.882812 389.652344 578.132812 390.335938 578.414062 C 391.019531 578.699219 391.6875 579.011719 392.339844 579.363281 C 392.988281 579.710938 393.625 580.089844 394.238281 580.5 C 394.851562 580.910156 395.445312 581.347656 396.015625 581.816406 C 396.589844 582.285156 397.136719 582.78125 397.65625 583.304688 C 398.179688 583.828125 398.675781 584.375 399.144531 584.945312 C 399.613281 585.515625 400.054688 586.109375 400.464844 586.722656 C 400.875 587.335938 401.253906 587.96875 401.601562 588.621094 C 401.949219 589.273438 402.265625 589.9375 402.550781 590.621094 C 402.832031 591.304688 403.082031 591.996094 403.296875 592.703125 C 403.507812 593.410156 403.6875 594.128906 403.832031 594.851562 C 403.976562 595.574219 404.085938 596.304688 404.15625 597.039062 C 404.230469 597.777344 404.265625 598.511719 404.265625 599.25 C 404.265625 599.988281 404.226562 600.726562 404.15625 601.460938 C 404.082031 602.195312 403.972656 602.921875 403.828125 603.648438 C 403.683594 604.371094 403.503906 605.085938 403.289062 605.792969 C 403.074219 606.496094 402.824219 607.191406 402.542969 607.875 C 402.257812 608.554688 401.941406 609.222656 401.59375 609.871094 C 401.246094 610.523438 400.867188 611.15625 400.457031 611.769531 C 400.046875 612.382812 399.605469 612.972656 399.136719 613.542969 C 398.667969 614.113281 398.171875 614.660156 397.648438 615.183594 C 397.128906 615.703125 396.582031 616.199219 396.011719 616.667969 C 395.4375 617.136719 394.847656 617.574219 394.230469 617.984375 C 393.617188 618.394531 392.984375 618.773438 392.332031 619.125 C 391.683594 619.472656 391.015625 619.785156 390.332031 620.070312 C 389.652344 620.351562 388.957031 620.601562 388.25 620.816406 C 387.542969 621.03125 386.828125 621.210938 386.101562 621.355469 C 385.378906 621.5 384.648438 621.609375 383.914062 621.679688 C 383.179688 621.753906 382.441406 621.792969 381.703125 621.792969 Z M 381.703125 588.378906 C 380.988281 588.378906 380.28125 588.449219 379.582031 588.585938 C 378.878906 588.726562 378.199219 588.933594 377.539062 589.203125 C 376.878906 589.476562 376.253906 589.8125 375.660156 590.207031 C 375.066406 590.605469 374.515625 591.054688 374.011719 591.558594 C 373.503906 592.0625 373.054688 592.609375 372.65625 593.203125 C 372.261719 593.796875 371.925781 594.421875 371.652344 595.082031 C 371.378906 595.742188 371.171875 596.421875 371.03125 597.121094 C 370.890625 597.820312 370.820312 598.527344 370.820312 599.238281 C 370.820312 599.953125 370.890625 600.660156 371.027344 601.359375 C 371.167969 602.058594 371.375 602.738281 371.648438 603.398438 C 371.917969 604.054688 372.253906 604.683594 372.652344 605.277344 C 373.046875 605.871094 373.496094 606.417969 374.003906 606.921875 C 374.507812 607.429688 375.054688 607.878906 375.648438 608.273438 C 376.242188 608.671875 376.871094 609.007812 377.527344 609.28125 C 378.1875 609.554688 378.867188 609.761719 379.570312 609.898438 C 380.269531 610.039062 380.976562 610.109375 381.691406 610.109375 C 382.40625 610.109375 383.113281 610.039062 383.8125 609.902344 C 384.511719 609.761719 385.191406 609.558594 385.851562 609.285156 C 386.511719 609.011719 387.140625 608.675781 387.734375 608.28125 C 388.328125 607.886719 388.878906 607.4375 389.382812 606.929688 C 389.886719 606.425781 390.339844 605.878906 390.734375 605.285156 C 391.132812 604.691406 391.46875 604.066406 391.742188 603.40625 C 392.015625 602.75 392.222656 602.070312 392.363281 601.371094 C 392.5 600.671875 392.570312 599.964844 392.570312 599.25 C 392.570312 598.539062 392.5 597.832031 392.363281 597.132812 C 392.222656 596.433594 392.015625 595.753906 391.742188 595.09375 C 391.46875 594.433594 391.136719 593.808594 390.738281 593.214844 C 390.34375 592.625 389.890625 592.074219 389.386719 591.570312 C 388.882812 591.066406 388.332031 590.613281 387.742188 590.21875 C 387.148438 589.820312 386.519531 589.484375 385.863281 589.210938 C 385.203125 588.9375 384.523438 588.730469 383.824219 588.59375 C 383.121094 588.453125 382.417969 588.382812 381.703125 588.378906 Z M 381.703125 588.378906 " fill-opacity="1" fill-rule="nonzero"/><path fill="#49e6b4" d="M 341.40625 287.628906 C 340.421875 287.191406 339.476562 286.683594 338.570312 286.105469 C 337.664062 285.527344 336.808594 284.886719 335.996094 284.179688 C 335.1875 283.472656 334.433594 282.710938 333.738281 281.890625 C 333.039062 281.074219 332.40625 280.207031 331.839844 279.296875 C 331.273438 278.382812 330.777344 277.433594 330.351562 276.445312 C 329.929688 275.457031 329.578125 274.445312 329.304688 273.40625 C 329.03125 272.367188 328.835938 271.3125 328.71875 270.246094 C 328.605469 269.179688 328.566406 268.105469 328.613281 267.035156 L 328.613281 233.375 C 328.59375 232.300781 328.960938 231.378906 329.71875 230.613281 C 330.070312 230.234375 330.480469 229.941406 330.957031 229.738281 C 331.433594 229.535156 331.929688 229.4375 332.449219 229.445312 C 332.96875 229.445312 333.46875 229.546875 333.949219 229.742188 C 334.429688 229.941406 334.851562 230.226562 335.21875 230.589844 C 335.585938 230.957031 335.871094 231.382812 336.070312 231.859375 C 336.269531 232.339844 336.371094 232.839844 336.371094 233.359375 L 336.371094 267.277344 C 336.320312 268.808594 336.496094 270.3125 336.894531 271.792969 C 337.292969 273.269531 337.898438 274.660156 338.710938 275.960938 C 340.25 278.34375 342.3125 280.136719 344.890625 281.332031 C 346.171875 281.921875 347.503906 282.371094 348.886719 282.671875 C 350.265625 282.972656 351.664062 283.125 353.074219 283.125 C 354.488281 283.125 355.886719 282.972656 357.265625 282.671875 C 358.644531 282.371094 359.976562 281.921875 361.261719 281.332031 C 363.839844 280.136719 365.898438 278.34375 367.441406 275.960938 C 369.097656 273.300781 369.878906 270.40625 369.78125 267.277344 L 369.78125 233.375 C 369.761719 232.300781 370.128906 231.378906 370.886719 230.613281 C 371.238281 230.234375 371.648438 229.941406 372.125 229.738281 C 372.601562 229.535156 373.097656 229.4375 373.617188 229.445312 C 374.136719 229.445312 374.636719 229.546875 375.117188 229.742188 C 375.597656 229.941406 376.019531 230.226562 376.386719 230.589844 C 376.753906 230.957031 377.039062 231.382812 377.238281 231.859375 C 377.4375 232.339844 377.539062 232.839844 377.539062 233.359375 L 377.539062 267.015625 C 377.617188 269.289062 377.351562 271.523438 376.738281 273.714844 C 376.128906 275.910156 375.203125 277.957031 373.960938 279.867188 C 372.820312 281.5625 371.46875 283.070312 369.90625 284.386719 C 368.34375 285.707031 366.632812 286.789062 364.769531 287.628906 C 362.9375 288.472656 361.035156 289.113281 359.0625 289.546875 C 357.089844 289.976562 355.09375 290.195312 353.074219 290.195312 C 351.058594 290.195312 349.0625 289.976562 347.089844 289.546875 C 345.117188 289.113281 343.214844 288.472656 341.382812 287.628906 Z M 341.40625 287.628906 " fill-opacity="1" fill-rule="nonzero"/><path fill="#49e6b4" d="M 353.085938 291.375 C 348.839844 291.371094 344.78125 290.484375 340.917969 288.714844 C 339.886719 288.253906 338.894531 287.71875 337.9375 287.109375 C 336.984375 286.5 336.082031 285.824219 335.230469 285.078125 C 334.378906 284.335938 333.585938 283.53125 332.851562 282.671875 C 332.117188 281.808594 331.453125 280.898438 330.855469 279.9375 C 330.257812 278.976562 329.738281 277.976562 329.289062 276.9375 C 328.839844 275.898438 328.472656 274.835938 328.183594 273.742188 C 327.894531 272.648438 327.6875 271.539062 327.5625 270.414062 C 327.4375 269.289062 327.398438 268.164062 327.441406 267.035156 L 327.441406 233.375 C 327.4375 232.875 327.503906 232.386719 327.648438 231.90625 C 327.789062 231.425781 327.996094 230.976562 328.273438 230.558594 C 328.546875 230.140625 328.878906 229.773438 329.265625 229.453125 C 329.652344 229.136719 330.074219 228.878906 330.539062 228.6875 C 331 228.496094 331.480469 228.375 331.980469 228.324219 C 332.476562 228.277344 332.972656 228.300781 333.464844 228.402344 C 333.953125 228.5 334.417969 228.667969 334.859375 228.90625 C 335.300781 229.144531 335.699219 229.441406 336.050781 229.796875 C 336.535156 230.265625 336.90625 230.808594 337.164062 231.433594 C 337.425781 232.054688 337.550781 232.703125 337.539062 233.375 L 337.539062 267.296875 C 337.453125 270.207031 338.179688 272.894531 339.722656 275.363281 C 341.144531 277.558594 343.046875 279.210938 345.421875 280.316406 C 346.628906 280.867188 347.882812 281.285156 349.179688 281.566406 C 350.476562 281.847656 351.789062 281.988281 353.117188 281.988281 C 354.445312 281.988281 355.757812 281.847656 357.054688 281.566406 C 358.351562 281.285156 359.605469 280.867188 360.8125 280.316406 C 363.183594 279.210938 365.082031 277.5625 366.507812 275.367188 C 368.03125 272.902344 368.746094 270.222656 368.65625 267.324219 L 368.65625 233.375 C 368.652344 232.875 368.722656 232.386719 368.863281 231.90625 C 369.003906 231.425781 369.210938 230.976562 369.488281 230.558594 C 369.761719 230.140625 370.09375 229.773438 370.480469 229.453125 C 370.867188 229.136719 371.289062 228.878906 371.753906 228.6875 C 372.214844 228.496094 372.695312 228.375 373.195312 228.324219 C 373.691406 228.277344 374.1875 228.300781 374.679688 228.402344 C 375.167969 228.5 375.636719 228.667969 376.074219 228.90625 C 376.515625 229.144531 376.914062 229.441406 377.265625 229.796875 C 377.75 230.265625 378.121094 230.808594 378.378906 231.433594 C 378.640625 232.054688 378.765625 232.703125 378.753906 233.375 L 378.753906 267.035156 C 378.800781 268.164062 378.761719 269.289062 378.636719 270.414062 C 378.515625 271.535156 378.308594 272.644531 378.019531 273.738281 C 377.734375 274.828125 377.363281 275.894531 376.917969 276.933594 C 376.472656 277.972656 375.949219 278.972656 375.355469 279.929688 C 374.757812 280.890625 374.09375 281.804688 373.363281 282.664062 C 372.632812 283.527344 371.839844 284.332031 370.988281 285.074219 C 370.136719 285.820312 369.234375 286.496094 368.285156 287.105469 C 367.332031 287.71875 366.339844 288.253906 365.308594 288.714844 C 361.429688 290.492188 357.355469 291.378906 353.085938 291.375 Z M 332.441406 230.625 C 331.691406 230.601562 331.0625 230.867188 330.558594 231.421875 C 330.019531 231.960938 329.761719 232.609375 329.777344 233.371094 L 329.777344 267.027344 C 329.707031 269.179688 329.960938 271.292969 330.535156 273.363281 C 331.109375 275.4375 331.980469 277.378906 333.148438 279.1875 C 334.234375 280.800781 335.519531 282.234375 337.003906 283.492188 C 338.484375 284.746094 340.113281 285.777344 341.882812 286.578125 C 343.640625 287.382812 345.464844 287.988281 347.351562 288.402344 C 349.238281 288.8125 351.148438 289.015625 353.082031 289.015625 C 355.011719 289.015625 356.921875 288.8125 358.8125 288.402344 C 360.699219 287.988281 362.523438 287.382812 364.277344 286.578125 C 366.046875 285.777344 367.675781 284.746094 369.160156 283.492188 C 370.640625 282.234375 371.925781 280.800781 373.007812 279.1875 C 374.175781 277.382812 375.046875 275.441406 375.625 273.367188 C 376.199219 271.292969 376.453125 269.179688 376.382812 267.027344 L 376.382812 233.375 C 376.382812 232.828125 376.230469 232.324219 375.925781 231.871094 C 375.621094 231.414062 375.214844 231.078125 374.710938 230.863281 C 374.203125 230.652344 373.683594 230.597656 373.144531 230.699219 C 372.605469 230.800781 372.136719 231.042969 371.746094 231.425781 C 371.207031 231.964844 370.945312 232.617188 370.960938 233.375 L 370.960938 267.296875 C 371.007812 268.941406 370.8125 270.554688 370.382812 272.140625 C 369.949219 273.730469 369.296875 275.21875 368.421875 276.613281 C 366.761719 279.183594 364.542969 281.117188 361.765625 282.40625 C 360.402344 283.03125 358.988281 283.503906 357.523438 283.820312 C 356.0625 284.140625 354.578125 284.300781 353.082031 284.300781 C 351.582031 284.300781 350.101562 284.140625 348.636719 283.820312 C 347.175781 283.503906 345.761719 283.03125 344.398438 282.40625 C 341.617188 281.113281 339.394531 279.183594 337.734375 276.605469 C 336.859375 275.214844 336.203125 273.722656 335.769531 272.136719 C 335.335938 270.550781 335.144531 268.933594 335.191406 267.289062 L 335.191406 233.375 C 335.203125 232.613281 334.933594 231.96875 334.382812 231.445312 C 333.859375 230.882812 333.210938 230.613281 332.441406 230.632812 Z M 332.441406 230.625 " fill-opacity="1" fill-rule="nonzero"/><path fill="#49e6b4" d="M 390.222656 288.722656 C 389.5 288.035156 389.140625 287.195312 389.152344 286.199219 C 389.136719 285.316406 389.394531 284.523438 389.921875 283.816406 L 409.621094 259.59375 L 390.09375 235.566406 C 389.5625 234.859375 389.308594 234.066406 389.328125 233.183594 C 389.320312 232.9375 389.335938 232.691406 389.378906 232.445312 C 389.421875 232.203125 389.488281 231.964844 389.582031 231.734375 C 389.671875 231.503906 389.785156 231.285156 389.921875 231.078125 C 390.058594 230.867188 390.214844 230.675781 390.390625 230.503906 C 390.566406 230.328125 390.757812 230.171875 390.964844 230.035156 C 391.171875 229.898438 391.390625 229.785156 391.621094 229.695312 C 391.851562 229.601562 392.089844 229.535156 392.335938 229.492188 C 392.578125 229.449219 392.828125 229.433594 393.074219 229.441406 C 393.707031 229.4375 394.304688 229.578125 394.871094 229.859375 C 395.410156 230.121094 395.867188 230.492188 396.230469 230.96875 L 414.230469 253.808594 L 432.226562 230.800781 C 432.542969 230.34375 432.953125 229.996094 433.453125 229.753906 C 433.953125 229.511719 434.484375 229.40625 435.039062 229.441406 C 436.066406 229.425781 436.949219 229.78125 437.679688 230.503906 C 438.4375 231.203125 438.808594 232.070312 438.792969 233.101562 C 438.804688 233.890625 438.574219 234.601562 438.109375 235.234375 L 418.402344 259.515625 L 438.109375 283.710938 C 438.652344 284.347656 438.910156 285.085938 438.875 285.925781 C 438.902344 286.984375 438.546875 287.890625 437.808594 288.652344 C 437.609375 288.847656 437.394531 289.019531 437.15625 289.167969 C 436.921875 289.316406 436.671875 289.4375 436.410156 289.53125 C 436.144531 289.625 435.875 289.691406 435.597656 289.726562 C 435.324219 289.761719 435.046875 289.769531 434.765625 289.746094 C 434.488281 289.71875 434.21875 289.667969 433.949219 289.582031 C 433.683594 289.5 433.429688 289.386719 433.1875 289.25 C 432.945312 289.109375 432.722656 288.949219 432.515625 288.761719 C 432.308594 288.574219 432.125 288.367188 431.960938 288.136719 L 413.714844 265.21875 L 395.71875 288.230469 C 395.363281 288.703125 394.925781 289.070312 394.398438 289.339844 C 393.875 289.605469 393.320312 289.746094 392.730469 289.757812 C 391.746094 289.769531 390.910156 289.425781 390.222656 288.722656 Z M 390.222656 288.722656 " fill-opacity="1" fill-rule="nonzero"/><path fill="#49e6b4" d="M 435.027344 290.949219 C 434.226562 290.953125 433.46875 290.769531 432.757812 290.398438 C 432.050781 290.027344 431.46875 289.511719 431.015625 288.851562 L 413.726562 267.128906 L 396.640625 288.972656 C 396.4375 289.253906 396.207031 289.507812 395.949219 289.738281 C 395.695312 289.96875 395.414062 290.167969 395.113281 290.335938 C 394.8125 290.503906 394.496094 290.640625 394.164062 290.742188 C 393.835938 290.84375 393.5 290.90625 393.152344 290.933594 C 392.808594 290.960938 392.464844 290.953125 392.125 290.90625 C 391.78125 290.859375 391.449219 290.777344 391.125 290.65625 C 390.800781 290.539062 390.492188 290.386719 390.199219 290.203125 C 389.910156 290.015625 389.640625 289.800781 389.398438 289.558594 C 388.9375 289.121094 388.585938 288.613281 388.339844 288.03125 C 388.09375 287.449219 387.976562 286.84375 387.980469 286.210938 C 387.964844 285.066406 388.300781 284.039062 388.988281 283.125 L 408.128906 259.59375 L 389.191406 236.304688 C 388.492188 235.382812 388.148438 234.339844 388.167969 233.183594 C 388.152344 232.527344 388.265625 231.894531 388.511719 231.285156 C 388.757812 230.675781 389.117188 230.140625 389.582031 229.679688 C 389.964844 229.3125 390.394531 229.011719 390.871094 228.777344 C 391.34375 228.546875 391.847656 228.390625 392.371094 228.3125 C 392.894531 228.238281 393.417969 228.242188 393.941406 228.332031 C 394.464844 228.417969 394.960938 228.582031 395.429688 228.828125 C 396.128906 229.171875 396.714844 229.65625 397.183594 230.273438 L 414.234375 251.921875 L 431.3125 230.082031 C 431.527344 229.820312 431.765625 229.585938 432.03125 229.375 C 432.292969 229.160156 432.574219 228.980469 432.878906 228.824219 C 433.179688 228.671875 433.492188 228.550781 433.820312 228.464844 C 434.144531 228.375 434.476562 228.320312 434.8125 228.300781 C 435.152344 228.28125 435.488281 228.296875 435.820312 228.347656 C 436.15625 228.394531 436.480469 228.480469 436.800781 228.597656 C 437.117188 228.714844 437.417969 228.863281 437.703125 229.042969 C 437.992188 229.222656 438.257812 229.425781 438.5 229.660156 C 438.976562 230.105469 439.34375 230.628906 439.601562 231.230469 C 439.859375 231.828125 439.980469 232.457031 439.972656 233.109375 C 439.980469 234.148438 439.679688 235.085938 439.066406 235.921875 L 419.921875 259.523438 L 439.027344 282.980469 C 439.75 283.820312 440.09375 284.792969 440.0625 285.902344 C 440.074219 286.558594 439.960938 287.195312 439.71875 287.808594 C 439.476562 288.421875 439.125 288.964844 438.664062 289.433594 C 438.191406 289.933594 437.640625 290.316406 437.007812 290.582031 C 436.375 290.84375 435.710938 290.964844 435.027344 290.949219 Z M 413.703125 263.355469 L 432.867188 287.4375 C 433.023438 287.679688 433.210938 287.890625 433.433594 288.074219 C 433.65625 288.253906 433.902344 288.394531 434.171875 288.496094 C 434.441406 288.59375 434.722656 288.648438 435.007812 288.65625 C 435.296875 288.664062 435.578125 288.625 435.851562 288.539062 C 436.128906 288.457031 436.382812 288.328125 436.613281 288.160156 C 436.847656 287.992188 437.046875 287.789062 437.214844 287.554688 C 437.378906 287.320312 437.503906 287.066406 437.585938 286.792969 C 437.667969 286.515625 437.703125 286.234375 437.691406 285.949219 C 437.730469 285.40625 437.574219 284.929688 437.226562 284.515625 L 416.902344 259.539062 L 437.195312 234.523438 C 437.492188 234.101562 437.632812 233.636719 437.621094 233.125 C 437.640625 232.425781 437.390625 231.84375 436.875 231.375 C 436.367188 230.867188 435.753906 230.621094 435.039062 230.636719 C 434.675781 230.601562 434.328125 230.660156 433.996094 230.8125 C 433.667969 230.964844 433.398438 231.191406 433.191406 231.488281 L 414.234375 255.730469 L 395.3125 231.722656 C 395.054688 231.382812 394.730469 231.117188 394.34375 230.933594 C 393.832031 230.667969 393.289062 230.570312 392.714844 230.648438 C 392.140625 230.726562 391.644531 230.960938 391.222656 231.355469 C 390.707031 231.867188 390.464844 232.488281 390.496094 233.214844 C 390.476562 233.835938 390.652344 234.398438 391.027344 234.894531 L 411.128906 259.59375 L 390.835938 284.527344 C 390.480469 285.019531 390.308594 285.570312 390.328125 286.175781 C 390.316406 286.847656 390.554688 287.410156 391.046875 287.871094 C 391.171875 288 391.3125 288.117188 391.464844 288.214844 C 391.617188 288.316406 391.78125 288.394531 391.953125 288.457031 C 392.125 288.523438 392.300781 288.5625 392.480469 288.585938 C 392.660156 288.609375 392.84375 288.613281 393.023438 288.59375 C 393.207031 288.574219 393.382812 288.535156 393.558594 288.476562 C 393.730469 288.417969 393.894531 288.339844 394.050781 288.246094 C 394.203125 288.148438 394.347656 288.035156 394.476562 287.90625 C 394.605469 287.777344 394.71875 287.636719 394.816406 287.484375 Z M 413.703125 263.355469 " fill-opacity="1" fill-rule="nonzero"/><path fill="#49e6b4" d="M 350.121094 398.710938 C 349.140625 398.273438 348.195312 397.765625 347.289062 397.183594 C 346.382812 396.605469 345.523438 395.964844 344.710938 395.253906 C 343.902344 394.546875 343.148438 393.785156 342.449219 392.964844 C 341.753906 392.144531 341.121094 391.277344 340.554688 390.363281 C 339.988281 389.453125 339.492188 388.5 339.066406 387.511719 C 338.640625 386.523438 338.289062 385.511719 338.015625 384.472656 C 337.742188 383.429688 337.546875 382.375 337.433594 381.308594 C 337.316406 380.238281 337.28125 379.167969 337.324219 378.09375 L 337.324219 344.441406 C 337.304688 343.359375 337.675781 342.4375 338.433594 341.667969 C 339.167969 340.875 340.078125 340.484375 341.160156 340.5 C 341.679688 340.5 342.179688 340.597656 342.664062 340.796875 C 343.144531 340.996094 343.566406 341.28125 343.9375 341.648438 C 344.304688 342.015625 344.585938 342.441406 344.785156 342.921875 C 344.984375 343.402344 345.082031 343.902344 345.082031 344.421875 L 345.082031 378.300781 C 345.035156 379.835938 345.207031 381.34375 345.605469 382.824219 C 346.003906 384.304688 346.609375 385.699219 347.421875 387 C 348.960938 389.382812 351.023438 391.171875 353.601562 392.363281 C 354.886719 392.949219 356.21875 393.394531 357.597656 393.695312 C 358.976562 393.996094 360.375 394.148438 361.789062 394.148438 C 363.199219 394.148438 364.597656 393.996094 365.976562 393.695312 C 367.355469 393.394531 368.6875 392.949219 369.972656 392.363281 C 372.550781 391.171875 374.613281 389.382812 376.152344 387 C 377.808594 384.335938 378.589844 381.4375 378.492188 378.300781 L 378.492188 344.421875 C 378.472656 343.34375 378.84375 342.417969 379.601562 341.648438 C 380.339844 340.855469 381.246094 340.464844 382.328125 340.480469 C 382.847656 340.480469 383.347656 340.582031 383.832031 340.78125 C 384.3125 340.980469 384.734375 341.261719 385.105469 341.628906 C 385.472656 342 385.753906 342.421875 385.953125 342.902344 C 386.152344 343.386719 386.25 343.886719 386.25 344.40625 L 386.25 378.058594 C 386.328125 380.332031 386.058594 382.5625 385.449219 384.757812 C 384.839844 386.949219 383.914062 389 382.671875 390.90625 C 381.53125 392.609375 380.175781 394.121094 378.613281 395.445312 C 377.046875 396.769531 375.332031 397.855469 373.464844 398.699219 C 371.628906 399.542969 369.726562 400.179688 367.753906 400.609375 C 365.785156 401.042969 363.789062 401.257812 361.769531 401.257812 C 359.75 401.257812 357.757812 401.042969 355.785156 400.609375 C 353.8125 400.179688 351.910156 399.542969 350.074219 398.699219 Z M 350.121094 398.710938 " fill-opacity="1" fill-rule="nonzero"/><path fill="#49e6b4" d="M 361.804688 402.433594 C 357.566406 402.425781 353.515625 401.542969 349.660156 399.78125 C 347.695312 398.890625 345.890625 397.753906 344.246094 396.363281 C 342.597656 394.976562 341.171875 393.386719 339.964844 391.601562 C 338.664062 389.601562 337.6875 387.449219 337.042969 385.148438 C 336.394531 382.847656 336.109375 380.503906 336.179688 378.117188 L 336.179688 344.441406 C 336.171875 343.941406 336.238281 343.449219 336.375 342.964844 C 336.515625 342.484375 336.722656 342.035156 337 341.613281 C 337.273438 341.195312 337.601562 340.824219 337.988281 340.503906 C 338.375 340.183594 338.800781 339.925781 339.261719 339.734375 C 339.726562 339.539062 340.207031 339.417969 340.707031 339.367188 C 341.203125 339.316406 341.699219 339.339844 342.191406 339.441406 C 342.683594 339.539062 343.152344 339.707031 343.59375 339.945312 C 344.035156 340.183594 344.433594 340.480469 344.785156 340.835938 C 345.273438 341.308594 345.644531 341.859375 345.90625 342.484375 C 346.167969 343.109375 346.292969 343.761719 346.28125 344.441406 L 346.28125 378.320312 C 346.191406 381.21875 346.90625 383.90625 348.433594 386.375 C 349.855469 388.570312 351.753906 390.21875 354.128906 391.316406 C 355.335938 391.867188 356.589844 392.285156 357.886719 392.566406 C 359.183594 392.847656 360.496094 392.988281 361.824219 392.988281 C 363.148438 392.988281 364.460938 392.847656 365.761719 392.566406 C 367.058594 392.285156 368.308594 391.867188 369.515625 391.316406 C 371.894531 390.214844 373.792969 388.566406 375.21875 386.367188 C 376.742188 383.898438 377.460938 381.214844 377.371094 378.3125 L 377.371094 344.433594 C 377.363281 343.933594 377.429688 343.441406 377.566406 342.960938 C 377.707031 342.480469 377.914062 342.027344 378.191406 341.609375 C 378.464844 341.191406 378.792969 340.820312 379.179688 340.5 C 379.566406 340.179688 379.992188 339.921875 380.453125 339.726562 C 380.917969 339.53125 381.398438 339.410156 381.898438 339.359375 C 382.394531 339.3125 382.890625 339.335938 383.382812 339.433594 C 383.875 339.53125 384.34375 339.699219 384.785156 339.9375 C 385.226562 340.175781 385.625 340.472656 385.976562 340.832031 C 386.464844 341.304688 386.835938 341.851562 387.09375 342.480469 C 387.355469 343.105469 387.476562 343.757812 387.46875 344.433594 L 387.46875 378.085938 C 387.539062 380.472656 387.25 382.816406 386.605469 385.117188 C 385.960938 387.414062 384.988281 389.566406 383.683594 391.566406 C 382.480469 393.351562 381.054688 394.941406 379.410156 396.328125 C 377.761719 397.71875 375.960938 398.859375 373.996094 399.746094 C 370.128906 401.527344 366.0625 402.421875 361.804688 402.433594 Z M 341.160156 341.683594 C 340.410156 341.664062 339.777344 341.933594 339.269531 342.484375 C 338.734375 343.027344 338.476562 343.679688 338.492188 344.441406 L 338.492188 378.09375 C 338.425781 380.246094 338.679688 382.359375 339.257812 384.433594 C 339.832031 386.507812 340.703125 388.449219 341.871094 390.257812 C 342.957031 391.871094 344.238281 393.304688 345.722656 394.558594 C 347.207031 395.8125 348.832031 396.839844 350.601562 397.640625 C 352.359375 398.449219 354.179688 399.058594 356.066406 399.472656 C 357.957031 399.886719 359.867188 400.089844 361.800781 400.089844 C 363.730469 400.089844 365.640625 399.886719 367.53125 399.472656 C 369.417969 399.058594 371.238281 398.449219 372.996094 397.640625 C 374.769531 396.84375 376.394531 395.8125 377.878906 394.558594 C 379.363281 393.300781 380.644531 391.867188 381.726562 390.253906 C 382.894531 388.445312 383.765625 386.503906 384.339844 384.429688 C 384.914062 382.355469 385.167969 380.242188 385.097656 378.09375 L 385.097656 344.441406 C 385.121094 343.671875 384.851562 343.023438 384.292969 342.496094 C 384.042969 342.234375 383.75 342.03125 383.417969 341.886719 C 383.085938 341.742188 382.738281 341.671875 382.375 341.671875 C 382.011719 341.671875 381.664062 341.742188 381.332031 341.886719 C 380.996094 342.03125 380.707031 342.234375 380.457031 342.496094 C 379.921875 343.039062 379.660156 343.691406 379.679688 344.453125 L 379.679688 378.332031 C 379.726562 379.980469 379.535156 381.601562 379.101562 383.191406 C 378.671875 384.785156 378.015625 386.277344 377.140625 387.675781 C 375.476562 390.246094 373.257812 392.175781 370.476562 393.460938 C 369.113281 394.085938 367.703125 394.558594 366.238281 394.878906 C 364.773438 395.195312 363.292969 395.355469 361.792969 395.355469 C 360.292969 395.355469 358.8125 395.195312 357.347656 394.878906 C 355.886719 394.558594 354.472656 394.085938 353.109375 393.460938 C 350.328125 392.179688 348.109375 390.253906 346.449219 387.683594 C 345.574219 386.285156 344.921875 384.789062 344.488281 383.199219 C 344.054688 381.605469 343.859375 379.984375 343.90625 378.335938 L 343.90625 344.457031 C 343.929688 343.691406 343.660156 343.042969 343.101562 342.511719 C 342.574219 341.953125 341.929688 341.675781 341.160156 341.683594 Z M 341.160156 341.683594 " fill-opacity="1" fill-rule="nonzero"/><path fill="#49e6b4" d="M 403.503906 399.734375 C 402.742188 398.988281 402.371094 398.078125 402.394531 397.011719 L 402.394531 344.441406 C 402.375 343.359375 402.742188 342.433594 403.503906 341.667969 C 403.855469 341.289062 404.269531 340.996094 404.742188 340.792969 C 405.21875 340.589844 405.714844 340.492188 406.230469 340.5 C 406.75 340.5 407.25 340.601562 407.730469 340.800781 C 408.210938 341 408.636719 341.285156 409.003906 341.652344 C 409.371094 342.019531 409.652344 342.445312 409.851562 342.921875 C 410.050781 343.402344 410.152344 343.902344 410.152344 344.421875 L 410.152344 396.992188 C 410.160156 397.511719 410.0625 398.003906 409.859375 398.480469 C 409.65625 398.953125 409.363281 399.367188 408.984375 399.714844 C 408.214844 400.46875 407.289062 400.839844 406.210938 400.824219 C 405.15625 400.84375 404.253906 400.480469 403.503906 399.734375 Z M 403.503906 399.734375 " fill-opacity="1" fill-rule="nonzero"/><path fill="#49e6b4" d="M 406.230469 402.011719 C 405.5625 402.023438 404.921875 401.902344 404.304688 401.652344 C 403.691406 401.402344 403.148438 401.039062 402.679688 400.5625 C 402.207031 400.09375 401.84375 399.554688 401.589844 398.9375 C 401.339844 398.320312 401.21875 397.675781 401.230469 397.011719 L 401.230469 344.441406 C 401.21875 343.769531 401.339844 343.125 401.589844 342.5 C 401.835938 341.878906 402.199219 341.328125 402.667969 340.847656 C 402.90625 340.613281 403.160156 340.40625 403.4375 340.222656 C 403.714844 340.039062 404.007812 339.882812 404.316406 339.757812 C 404.621094 339.628906 404.9375 339.535156 405.265625 339.46875 C 405.589844 339.40625 405.921875 339.371094 406.253906 339.371094 C 406.585938 339.371094 406.914062 339.40625 407.242188 339.46875 C 407.566406 339.535156 407.882812 339.628906 408.191406 339.757812 C 408.5 339.882812 408.792969 340.039062 409.070312 340.222656 C 409.34375 340.40625 409.601562 340.613281 409.835938 340.847656 C 410.324219 341.320312 410.695312 341.871094 410.957031 342.496094 C 411.214844 343.125 411.339844 343.773438 411.328125 344.453125 L 411.328125 397.023438 C 411.339844 397.699219 411.214844 398.347656 410.953125 398.96875 C 410.691406 399.589844 410.3125 400.128906 409.820312 400.59375 C 409.339844 401.058594 408.789062 401.414062 408.167969 401.660156 C 407.542969 401.90625 406.898438 402.023438 406.230469 402.011719 Z M 404.324219 398.910156 C 404.582031 399.160156 404.882812 399.351562 405.214844 399.488281 C 405.550781 399.621094 405.898438 399.691406 406.257812 399.691406 C 406.621094 399.691406 406.96875 399.621094 407.304688 399.488281 C 407.636719 399.351562 407.933594 399.160156 408.195312 398.910156 C 408.742188 398.402344 409.007812 397.777344 408.984375 397.027344 L 408.984375 344.457031 C 409.003906 343.691406 408.734375 343.042969 408.175781 342.511719 C 407.789062 342.117188 407.328125 341.867188 406.785156 341.757812 C 406.242188 341.648438 405.714844 341.699219 405.207031 341.914062 C 404.695312 342.128906 404.292969 342.46875 403.992188 342.933594 C 403.691406 343.398438 403.550781 343.90625 403.5625 344.457031 L 403.5625 397.027344 C 403.546875 397.765625 403.800781 398.390625 404.324219 398.910156 Z M 404.324219 398.910156 " fill-opacity="1" fill-rule="nonzero"/><path fill="#49e6b4" d="M 495.835938 318.6875 L 267.550781 318.6875 C 267.167969 318.6875 266.789062 318.648438 266.410156 318.574219 C 266.035156 318.5 265.667969 318.390625 265.316406 318.242188 C 264.960938 318.097656 264.625 317.914062 264.304688 317.703125 C 263.984375 317.488281 263.691406 317.246094 263.417969 316.976562 C 263.148438 316.707031 262.902344 316.410156 262.691406 316.089844 C 262.476562 315.773438 262.296875 315.4375 262.152344 315.082031 C 262.003906 314.726562 261.894531 314.363281 261.816406 313.984375 C 261.742188 313.609375 261.707031 313.230469 261.707031 312.847656 C 261.707031 312.460938 261.742188 312.082031 261.816406 311.707031 C 261.894531 311.332031 262.003906 310.964844 262.152344 310.609375 C 262.296875 310.257812 262.476562 309.917969 262.691406 309.601562 C 262.902344 309.28125 263.148438 308.988281 263.417969 308.714844 C 263.691406 308.445312 263.984375 308.203125 264.304688 307.988281 C 264.625 307.777344 264.960938 307.597656 265.316406 307.449219 C 265.667969 307.300781 266.035156 307.191406 266.410156 307.117188 C 266.789062 307.042969 267.167969 307.003906 267.550781 307.003906 L 495.835938 307.003906 C 496.21875 307.003906 496.597656 307.042969 496.976562 307.117188 C 497.351562 307.191406 497.71875 307.300781 498.070312 307.449219 C 498.425781 307.597656 498.761719 307.777344 499.082031 307.988281 C 499.402344 308.203125 499.699219 308.445312 499.96875 308.714844 C 500.242188 308.988281 500.484375 309.28125 500.695312 309.601562 C 500.910156 309.917969 501.089844 310.257812 501.238281 310.609375 C 501.382812 310.964844 501.492188 311.332031 501.570312 311.707031 C 501.644531 312.082031 501.679688 312.460938 501.679688 312.847656 C 501.679688 313.230469 501.644531 313.609375 501.570312 313.984375 C 501.492188 314.363281 501.382812 314.726562 501.234375 315.082031 C 501.089844 315.4375 500.910156 315.773438 500.695312 316.089844 C 500.484375 316.410156 500.242188 316.707031 499.96875 316.976562 C 499.699219 317.246094 499.402344 317.488281 499.082031 317.703125 C 498.761719 317.914062 498.425781 318.097656 498.070312 318.242188 C 497.71875 318.390625 497.351562 318.5 496.976562 318.574219 C 496.597656 318.648438 496.21875 318.6875 495.835938 318.6875 Z M 495.835938 318.6875 " fill-opacity="1" fill-rule="nonzero"/><path fill="#49e6b4" d="M 490.953125 535.820312 L 272.480469 535.820312 C 272.097656 535.820312 271.71875 535.785156 271.339844 535.710938 C 270.964844 535.632812 270.597656 535.523438 270.242188 535.375 C 269.890625 535.230469 269.550781 535.050781 269.234375 534.835938 C 268.914062 534.625 268.617188 534.382812 268.347656 534.109375 C 268.074219 533.839844 267.832031 533.542969 267.621094 533.226562 C 267.40625 532.90625 267.226562 532.570312 267.078125 532.214844 C 266.933594 531.859375 266.820312 531.496094 266.746094 531.121094 C 266.671875 530.742188 266.632812 530.363281 266.632812 529.980469 C 266.632812 529.597656 266.671875 529.214844 266.746094 528.839844 C 266.820312 528.464844 266.933594 528.097656 267.078125 527.746094 C 267.226562 527.390625 267.40625 527.054688 267.621094 526.734375 C 267.832031 526.417969 268.074219 526.121094 268.347656 525.851562 C 268.617188 525.578125 268.914062 525.335938 269.234375 525.125 C 269.550781 524.910156 269.890625 524.730469 270.242188 524.582031 C 270.597656 524.4375 270.964844 524.324219 271.339844 524.25 C 271.71875 524.175781 272.097656 524.140625 272.480469 524.140625 L 490.953125 524.140625 C 491.335938 524.140625 491.714844 524.175781 492.09375 524.25 C 492.46875 524.324219 492.835938 524.4375 493.191406 524.582031 C 493.542969 524.730469 493.882812 524.910156 494.199219 525.125 C 494.519531 525.335938 494.816406 525.578125 495.085938 525.851562 C 495.359375 526.121094 495.601562 526.417969 495.8125 526.734375 C 496.027344 527.054688 496.207031 527.390625 496.355469 527.746094 C 496.5 528.097656 496.613281 528.464844 496.6875 528.839844 C 496.761719 529.214844 496.800781 529.597656 496.800781 529.980469 C 496.800781 530.363281 496.761719 530.742188 496.6875 531.121094 C 496.613281 531.496094 496.5 531.859375 496.355469 532.214844 C 496.207031 532.570312 496.027344 532.90625 495.8125 533.226562 C 495.601562 533.542969 495.359375 533.839844 495.085938 534.109375 C 494.816406 534.382812 494.519531 534.625 494.199219 534.835938 C 493.882812 535.050781 493.542969 535.230469 493.191406 535.375 C 492.835938 535.523438 492.46875 535.632812 492.09375 535.710938 C 491.714844 535.785156 491.335938 535.820312 490.953125 535.820312 Z M 490.953125 535.820312 " fill-opacity="1" fill-rule="nonzero"/><path fill="#49e6b4" d="M 455.082031 506.570312 L 308.324219 506.570312 C 307.9375 506.570312 307.558594 506.53125 307.183594 506.457031 C 306.804688 506.382812 306.441406 506.269531 306.085938 506.125 C 305.730469 505.976562 305.394531 505.796875 305.074219 505.585938 C 304.753906 505.371094 304.460938 505.128906 304.1875 504.859375 C 303.917969 504.585938 303.675781 504.292969 303.460938 503.972656 C 303.25 503.652344 303.066406 503.316406 302.921875 502.960938 C 302.773438 502.609375 302.664062 502.242188 302.589844 501.867188 C 302.511719 501.492188 302.476562 501.109375 302.476562 500.726562 C 302.476562 500.34375 302.511719 499.964844 302.589844 499.589844 C 302.664062 499.210938 302.773438 498.847656 302.921875 498.492188 C 303.066406 498.136719 303.25 497.800781 303.460938 497.480469 C 303.675781 497.164062 303.917969 496.867188 304.1875 496.597656 C 304.460938 496.324219 304.753906 496.082031 305.074219 495.871094 C 305.394531 495.65625 305.730469 495.476562 306.085938 495.332031 C 306.441406 495.183594 306.804688 495.074219 307.183594 495 C 307.558594 494.921875 307.9375 494.886719 308.324219 494.886719 L 455.082031 494.886719 C 455.464844 494.886719 455.84375 494.921875 456.222656 495 C 456.597656 495.074219 456.964844 495.183594 457.320312 495.332031 C 457.671875 495.476562 458.011719 495.65625 458.328125 495.871094 C 458.648438 496.082031 458.945312 496.324219 459.214844 496.597656 C 459.488281 496.867188 459.730469 497.164062 459.941406 497.480469 C 460.15625 497.800781 460.335938 498.136719 460.484375 498.492188 C 460.628906 498.847656 460.742188 499.210938 460.816406 499.589844 C 460.890625 499.964844 460.929688 500.34375 460.929688 500.726562 C 460.929688 501.109375 460.890625 501.492188 460.816406 501.867188 C 460.742188 502.242188 460.628906 502.609375 460.484375 502.960938 C 460.335938 503.316406 460.15625 503.652344 459.941406 503.972656 C 459.730469 504.292969 459.488281 504.585938 459.214844 504.859375 C 458.945312 505.128906 458.648438 505.371094 458.328125 505.585938 C 458.011719 505.796875 457.671875 505.976562 457.320312 506.125 C 456.964844 506.269531 456.597656 506.382812 456.222656 506.457031 C 455.84375 506.53125 455.464844 506.570312 455.082031 506.570312 Z M 455.082031 506.570312 " fill-opacity="1" fill-rule="nonzero"/><path fill="#49e6b4" d="M 424.003906 480.761719 L 339.398438 480.761719 C 338.867188 480.761719 338.332031 480.734375 337.800781 480.683594 C 337.269531 480.628906 336.742188 480.550781 336.21875 480.445312 C 335.695312 480.339844 335.179688 480.210938 334.667969 480.054688 C 334.15625 479.898438 333.652344 479.71875 333.160156 479.515625 C 332.667969 479.3125 332.183594 479.082031 331.714844 478.832031 C 331.242188 478.578125 330.785156 478.304688 330.34375 478.007812 C 329.898438 477.710938 329.46875 477.394531 329.058594 477.054688 C 328.644531 476.71875 328.25 476.359375 327.871094 475.980469 C 327.492188 475.605469 327.136719 475.210938 326.796875 474.796875 C 326.457031 474.386719 326.140625 473.957031 325.84375 473.515625 C 325.546875 473.070312 325.273438 472.613281 325.019531 472.144531 C 324.769531 471.671875 324.539062 471.191406 324.335938 470.699219 C 324.128906 470.207031 323.949219 469.703125 323.792969 469.195312 C 323.640625 468.683594 323.507812 468.167969 323.402344 467.644531 C 323.300781 467.121094 323.21875 466.59375 323.167969 466.0625 C 323.113281 465.53125 323.085938 465 323.085938 464.464844 L 323.085938 437.011719 C 323.085938 436.476562 323.113281 435.945312 323.167969 435.414062 C 323.21875 434.882812 323.300781 434.355469 323.402344 433.835938 C 323.507812 433.3125 323.640625 432.792969 323.792969 432.285156 C 323.949219 431.773438 324.128906 431.273438 324.335938 430.777344 C 324.539062 430.285156 324.769531 429.804688 325.019531 429.335938 C 325.273438 428.863281 325.546875 428.40625 325.84375 427.964844 C 326.140625 427.519531 326.457031 427.09375 326.796875 426.679688 C 327.136719 426.265625 327.492188 425.871094 327.871094 425.496094 C 328.25 425.117188 328.644531 424.761719 329.058594 424.421875 C 329.46875 424.082031 329.898438 423.765625 330.34375 423.46875 C 330.785156 423.171875 331.242188 422.898438 331.714844 422.644531 C 332.183594 422.394531 332.667969 422.167969 333.160156 421.960938 C 333.652344 421.757812 334.15625 421.578125 334.667969 421.421875 C 335.175781 421.265625 335.695312 421.136719 336.21875 421.03125 C 336.742188 420.925781 337.269531 420.847656 337.800781 420.796875 C 338.332031 420.742188 338.867188 420.714844 339.398438 420.714844 L 424.003906 420.714844 C 424.539062 420.714844 425.070312 420.742188 425.601562 420.796875 C 426.136719 420.847656 426.664062 420.925781 427.1875 421.03125 C 427.710938 421.136719 428.226562 421.265625 428.738281 421.421875 C 429.25 421.574219 429.75 421.757812 430.246094 421.960938 C 430.738281 422.164062 431.21875 422.394531 431.691406 422.644531 C 432.164062 422.894531 432.621094 423.171875 433.0625 423.46875 C 433.507812 423.761719 433.9375 424.082031 434.347656 424.417969 C 434.761719 424.757812 435.15625 425.117188 435.535156 425.492188 C 435.914062 425.871094 436.269531 426.265625 436.609375 426.679688 C 436.949219 427.089844 437.265625 427.519531 437.5625 427.960938 C 437.859375 428.40625 438.132812 428.863281 438.386719 429.332031 C 438.636719 429.804688 438.867188 430.285156 439.070312 430.777344 C 439.277344 431.269531 439.457031 431.773438 439.613281 432.285156 C 439.765625 432.792969 439.898438 433.3125 440 433.832031 C 440.105469 434.355469 440.183594 434.882812 440.238281 435.414062 C 440.289062 435.945312 440.316406 436.476562 440.316406 437.011719 L 440.316406 464.464844 C 440.316406 465 440.289062 465.53125 440.238281 466.0625 C 440.183594 466.59375 440.105469 467.121094 440 467.644531 C 439.898438 468.167969 439.765625 468.683594 439.613281 469.195312 C 439.457031 469.703125 439.277344 470.207031 439.070312 470.699219 C 438.867188 471.191406 438.636719 471.675781 438.386719 472.144531 C 438.132812 472.613281 437.859375 473.070312 437.5625 473.515625 C 437.265625 473.960938 436.949219 474.386719 436.609375 474.800781 C 436.269531 475.210938 435.914062 475.605469 435.535156 475.984375 C 435.15625 476.363281 434.761719 476.71875 434.347656 477.058594 C 433.9375 477.398438 433.507812 477.714844 433.0625 478.011719 C 432.621094 478.308594 432.164062 478.582031 431.691406 478.832031 C 431.21875 479.085938 430.738281 479.3125 430.246094 479.515625 C 429.75 479.722656 429.25 479.902344 428.738281 480.058594 C 428.226562 480.210938 427.710938 480.34375 427.1875 480.445312 C 426.664062 480.550781 426.132812 480.628906 425.601562 480.683594 C 425.070312 480.734375 424.539062 480.761719 424.003906 480.761719 Z M 339.398438 432.398438 C 339.097656 432.398438 338.796875 432.429688 338.5 432.488281 C 338.203125 432.546875 337.914062 432.632812 337.632812 432.75 C 337.351562 432.867188 337.085938 433.007812 336.835938 433.175781 C 336.582031 433.34375 336.347656 433.535156 336.136719 433.75 C 335.921875 433.964844 335.730469 434.199219 335.5625 434.449219 C 335.390625 434.703125 335.25 434.96875 335.132812 435.246094 C 335.015625 435.527344 334.929688 435.816406 334.871094 436.113281 C 334.8125 436.410156 334.78125 436.710938 334.78125 437.011719 L 334.78125 464.464844 C 334.78125 464.769531 334.8125 465.070312 334.871094 465.367188 C 334.929688 465.664062 335.015625 465.949219 335.132812 466.230469 C 335.25 466.511719 335.390625 466.777344 335.5625 467.027344 C 335.730469 467.28125 335.921875 467.511719 336.136719 467.726562 C 336.347656 467.941406 336.582031 468.132812 336.835938 468.300781 C 337.085938 468.46875 337.351562 468.609375 337.632812 468.726562 C 337.914062 468.84375 338.203125 468.929688 338.5 468.992188 C 338.796875 469.050781 339.097656 469.078125 339.398438 469.078125 L 424.003906 469.078125 C 424.308594 469.078125 424.609375 469.050781 424.90625 468.992188 C 425.203125 468.929688 425.492188 468.84375 425.773438 468.726562 C 426.050781 468.609375 426.316406 468.46875 426.570312 468.300781 C 426.820312 468.132812 427.054688 467.941406 427.269531 467.726562 C 427.484375 467.511719 427.675781 467.28125 427.84375 467.027344 C 428.011719 466.777344 428.15625 466.511719 428.269531 466.230469 C 428.386719 465.949219 428.476562 465.664062 428.535156 465.367188 C 428.59375 465.070312 428.625 464.769531 428.625 464.464844 L 428.625 437.011719 C 428.625 436.710938 428.59375 436.410156 428.535156 436.113281 C 428.476562 435.816406 428.386719 435.527344 428.269531 435.246094 C 428.15625 434.96875 428.011719 434.703125 427.84375 434.449219 C 427.675781 434.199219 427.484375 433.964844 427.269531 433.75 C 427.054688 433.535156 426.820312 433.34375 426.570312 433.175781 C 426.316406 433.007812 426.050781 432.867188 425.773438 432.75 C 425.492188 432.632812 425.203125 432.546875 424.90625 432.488281 C 424.609375 432.429688 424.308594 432.398438 424.003906 432.398438 Z M 339.398438 432.398438 " fill-opacity="1" fill-rule="nonzero"/><path fill="#49e6b4" d="M 593.476562 263.464844 L 495.835938 263.464844 C 495.449219 263.464844 495.070312 263.425781 494.695312 263.351562 C 494.316406 263.277344 493.953125 263.167969 493.597656 263.019531 C 493.242188 262.875 492.90625 262.695312 492.585938 262.480469 C 492.265625 262.265625 491.972656 262.023438 491.699219 261.753906 C 491.429688 261.484375 491.1875 261.1875 490.972656 260.867188 C 490.757812 260.550781 490.578125 260.214844 490.433594 259.859375 C 490.285156 259.503906 490.175781 259.140625 490.101562 258.761719 C 490.023438 258.386719 489.988281 258.007812 489.988281 257.625 C 489.988281 257.238281 490.023438 256.859375 490.101562 256.484375 C 490.175781 256.109375 490.285156 255.742188 490.433594 255.386719 C 490.578125 255.035156 490.757812 254.699219 490.972656 254.378906 C 491.1875 254.058594 491.429688 253.765625 491.699219 253.492188 C 491.972656 253.222656 492.265625 252.980469 492.585938 252.765625 C 492.90625 252.554688 493.242188 252.375 493.597656 252.226562 C 493.953125 252.082031 494.316406 251.96875 494.695312 251.894531 C 495.070312 251.820312 495.449219 251.78125 495.835938 251.78125 L 593.476562 251.78125 C 593.863281 251.78125 594.242188 251.820312 594.617188 251.894531 C 594.996094 251.96875 595.359375 252.082031 595.714844 252.226562 C 596.070312 252.375 596.40625 252.554688 596.726562 252.765625 C 597.046875 252.980469 597.339844 253.222656 597.613281 253.492188 C 597.882812 253.765625 598.125 254.058594 598.339844 254.378906 C 598.554688 254.699219 598.734375 255.035156 598.878906 255.386719 C 599.027344 255.742188 599.136719 256.109375 599.214844 256.484375 C 599.289062 256.859375 599.324219 257.238281 599.324219 257.625 C 599.324219 258.007812 599.289062 258.386719 599.214844 258.761719 C 599.136719 259.140625 599.027344 259.503906 598.878906 259.859375 C 598.734375 260.214844 598.554688 260.550781 598.339844 260.867188 C 598.125 261.1875 597.882812 261.484375 597.613281 261.753906 C 597.339844 262.023438 597.046875 262.265625 596.726562 262.480469 C 596.40625 262.695312 596.070312 262.875 595.714844 263.019531 C 595.359375 263.167969 594.996094 263.277344 594.617188 263.351562 C 594.242188 263.425781 593.863281 263.464844 593.476562 263.464844 Z M 593.476562 263.464844 " fill-opacity="1" fill-rule="nonzero"/><g clip-path="url(#a6233dbdbf)"><path fill="#49e6b4" d="M 664.8125 299.109375 L 593.476562 299.109375 C 593.09375 299.109375 592.714844 299.070312 592.335938 298.996094 C 591.960938 298.921875 591.59375 298.808594 591.242188 298.664062 C 590.886719 298.515625 590.550781 298.335938 590.230469 298.125 C 589.910156 297.910156 589.617188 297.667969 589.34375 297.398438 C 589.074219 297.125 588.828125 296.832031 588.617188 296.511719 C 588.402344 296.191406 588.222656 295.855469 588.078125 295.5 C 587.929688 295.148438 587.820312 294.78125 587.742188 294.40625 C 587.667969 294.03125 587.632812 293.648438 587.632812 293.265625 L 587.632812 222.003906 C 587.632812 221.621094 587.667969 221.242188 587.742188 220.863281 C 587.820312 220.488281 587.929688 220.125 588.078125 219.769531 C 588.222656 219.414062 588.402344 219.078125 588.617188 218.757812 C 588.832031 218.441406 589.074219 218.144531 589.34375 217.875 C 589.617188 217.601562 589.910156 217.359375 590.230469 217.148438 C 590.550781 216.933594 590.886719 216.753906 591.242188 216.609375 C 591.59375 216.460938 591.960938 216.351562 592.335938 216.273438 C 592.714844 216.199219 593.09375 216.164062 593.476562 216.164062 L 664.8125 216.164062 C 665.195312 216.164062 665.574219 216.199219 665.953125 216.273438 C 666.328125 216.351562 666.695312 216.460938 667.046875 216.609375 C 667.402344 216.753906 667.738281 216.933594 668.058594 217.148438 C 668.378906 217.359375 668.675781 217.601562 668.945312 217.875 C 669.214844 218.144531 669.460938 218.441406 669.671875 218.757812 C 669.886719 219.078125 670.066406 219.414062 670.210938 219.769531 C 670.359375 220.125 670.46875 220.488281 670.546875 220.863281 C 670.621094 221.242188 670.65625 221.621094 670.65625 222.003906 L 670.65625 293.265625 C 670.65625 293.648438 670.621094 294.03125 670.546875 294.40625 C 670.46875 294.78125 670.359375 295.148438 670.210938 295.5 C 670.066406 295.855469 669.886719 296.191406 669.671875 296.511719 C 669.460938 296.832031 669.214844 297.125 668.945312 297.398438 C 668.675781 297.667969 668.378906 297.910156 668.058594 298.125 C 667.738281 298.335938 667.402344 298.515625 667.046875 298.664062 C 666.695312 298.808594 666.328125 298.921875 665.953125 298.996094 C 665.574219 299.070312 665.195312 299.109375 664.8125 299.109375 Z M 599.324219 287.425781 L 658.964844 287.425781 L 658.964844 227.84375 L 599.324219 227.84375 Z M 599.324219 287.425781 " fill-opacity="1" fill-rule="nonzero"/></g><path fill="#49e6b4" d="M 644.042969 253.054688 L 614.222656 253.054688 C 613.839844 253.054688 613.460938 253.019531 613.082031 252.945312 C 612.707031 252.867188 612.339844 252.757812 611.984375 252.609375 C 611.632812 252.464844 611.292969 252.285156 610.976562 252.070312 C 610.65625 251.859375 610.359375 251.617188 610.089844 251.34375 C 609.816406 251.074219 609.574219 250.777344 609.363281 250.460938 C 609.148438 250.140625 608.96875 249.804688 608.820312 249.449219 C 608.675781 249.09375 608.5625 248.730469 608.488281 248.355469 C 608.414062 247.976562 608.375 247.597656 608.375 247.214844 C 608.375 246.832031 608.414062 246.453125 608.488281 246.074219 C 608.5625 245.699219 608.675781 245.332031 608.820312 244.980469 C 608.96875 244.625 609.148438 244.289062 609.363281 243.96875 C 609.574219 243.652344 609.816406 243.355469 610.089844 243.085938 C 610.359375 242.8125 610.65625 242.570312 610.976562 242.359375 C 611.292969 242.144531 611.632812 241.964844 611.984375 241.816406 C 612.339844 241.671875 612.707031 241.558594 613.082031 241.484375 C 613.460938 241.410156 613.839844 241.375 614.222656 241.375 L 644.042969 241.375 C 644.425781 241.375 644.808594 241.410156 645.183594 241.484375 C 645.558594 241.558594 645.925781 241.671875 646.28125 241.816406 C 646.636719 241.964844 646.972656 242.144531 647.289062 242.359375 C 647.609375 242.570312 647.90625 242.8125 648.175781 243.085938 C 648.449219 243.355469 648.691406 243.652344 648.902344 243.96875 C 649.117188 244.289062 649.296875 244.625 649.445312 244.980469 C 649.589844 245.332031 649.703125 245.699219 649.777344 246.074219 C 649.851562 246.453125 649.890625 246.832031 649.890625 247.214844 C 649.890625 247.597656 649.851562 247.976562 649.777344 248.355469 C 649.703125 248.730469 649.589844 249.09375 649.445312 249.449219 C 649.296875 249.804688 649.117188 250.140625 648.902344 250.460938 C 648.691406 250.777344 648.449219 251.074219 648.175781 251.34375 C 647.90625 251.617188 647.609375 251.859375 647.292969 252.070312 C 646.972656 252.285156 646.636719 252.464844 646.28125 252.609375 C 645.925781 252.757812 645.558594 252.867188 645.183594 252.945312 C 644.808594 253.019531 644.425781 253.054688 644.042969 253.054688 Z M 644.042969 253.054688 " fill-opacity="1" fill-rule="nonzero"/><path fill="#49e6b4" d="M 644.042969 273.878906 L 614.222656 273.878906 C 613.839844 273.878906 613.460938 273.84375 613.082031 273.765625 C 612.707031 273.691406 612.339844 273.582031 611.984375 273.433594 C 611.632812 273.289062 611.292969 273.109375 610.976562 272.894531 C 610.65625 272.683594 610.359375 272.441406 610.089844 272.167969 C 609.816406 271.898438 609.574219 271.601562 609.363281 271.285156 C 609.148438 270.964844 608.96875 270.628906 608.820312 270.273438 C 608.675781 269.917969 608.5625 269.554688 608.488281 269.179688 C 608.414062 268.800781 608.375 268.421875 608.375 268.039062 C 608.375 267.65625 608.414062 267.273438 608.488281 266.898438 C 608.5625 266.523438 608.675781 266.15625 608.820312 265.804688 C 608.96875 265.449219 609.148438 265.113281 609.363281 264.792969 C 609.574219 264.472656 609.816406 264.179688 610.089844 263.90625 C 610.359375 263.636719 610.65625 263.394531 610.976562 263.179688 C 611.292969 262.96875 611.632812 262.789062 611.984375 262.640625 C 612.339844 262.496094 612.707031 262.382812 613.082031 262.308594 C 613.460938 262.234375 613.839844 262.195312 614.222656 262.195312 L 644.042969 262.195312 C 644.425781 262.195312 644.808594 262.234375 645.183594 262.308594 C 645.558594 262.382812 645.925781 262.496094 646.28125 262.640625 C 646.636719 262.789062 646.972656 262.96875 647.289062 263.179688 C 647.609375 263.394531 647.90625 263.636719 648.175781 263.90625 C 648.449219 264.179688 648.691406 264.472656 648.902344 264.792969 C 649.117188 265.113281 649.296875 265.449219 649.445312 265.804688 C 649.589844 266.15625 649.703125 266.523438 649.777344 266.898438 C 649.851562 267.273438 649.890625 267.65625 649.890625 268.039062 C 649.890625 268.421875 649.851562 268.800781 649.777344 269.179688 C 649.703125 269.554688 649.589844 269.917969 649.445312 270.273438 C 649.296875 270.628906 649.117188 270.964844 648.902344 271.285156 C 648.691406 271.601562 648.449219 271.898438 648.175781 272.167969 C 647.90625 272.441406 647.609375 272.683594 647.292969 272.894531 C 646.972656 273.109375 646.636719 273.289062 646.28125 273.433594 C 645.925781 273.582031 645.558594 273.691406 645.183594 273.765625 C 644.808594 273.84375 644.425781 273.878906 644.042969 273.878906 Z M 644.042969 273.878906 " fill-opacity="1" fill-rule="nonzero"/><path fill="#49e6b4" d="M 272.480469 375.175781 L 174.835938 375.175781 C 174.453125 375.175781 174.074219 375.140625 173.695312 375.066406 C 173.320312 374.988281 172.953125 374.878906 172.601562 374.734375 C 172.246094 374.585938 171.910156 374.40625 171.589844 374.191406 C 171.269531 373.980469 170.972656 373.738281 170.703125 373.464844 C 170.433594 373.195312 170.1875 372.898438 169.976562 372.582031 C 169.761719 372.261719 169.582031 371.925781 169.4375 371.570312 C 169.289062 371.21875 169.179688 370.851562 169.101562 370.476562 C 169.027344 370.097656 168.992188 369.71875 168.992188 369.335938 C 168.992188 368.953125 169.027344 368.574219 169.101562 368.195312 C 169.179688 367.820312 169.289062 367.457031 169.4375 367.101562 C 169.582031 366.746094 169.761719 366.410156 169.976562 366.089844 C 170.1875 365.773438 170.433594 365.476562 170.703125 365.207031 C 170.972656 364.933594 171.269531 364.691406 171.589844 364.480469 C 171.910156 364.265625 172.246094 364.085938 172.601562 363.941406 C 172.953125 363.792969 173.320312 363.683594 173.695312 363.605469 C 174.074219 363.53125 174.453125 363.496094 174.835938 363.496094 L 272.480469 363.496094 C 272.867188 363.496094 273.246094 363.53125 273.621094 363.605469 C 274 363.683594 274.363281 363.792969 274.71875 363.941406 C 275.074219 364.085938 275.410156 364.265625 275.730469 364.480469 C 276.050781 364.691406 276.34375 364.933594 276.617188 365.207031 C 276.886719 365.476562 277.128906 365.773438 277.34375 366.089844 C 277.554688 366.410156 277.738281 366.746094 277.882812 367.101562 C 278.03125 367.457031 278.140625 367.820312 278.214844 368.195312 C 278.289062 368.574219 278.328125 368.953125 278.328125 369.335938 C 278.328125 369.71875 278.289062 370.097656 278.214844 370.476562 C 278.140625 370.851562 278.03125 371.21875 277.882812 371.570312 C 277.738281 371.925781 277.554688 372.261719 277.34375 372.582031 C 277.128906 372.898438 276.886719 373.195312 276.617188 373.464844 C 276.34375 373.738281 276.050781 373.980469 275.730469 374.191406 C 275.410156 374.40625 275.074219 374.585938 274.71875 374.734375 C 274.363281 374.878906 274 374.988281 273.621094 375.066406 C 273.246094 375.140625 272.867188 375.175781 272.480469 375.175781 Z M 272.480469 375.175781 " fill-opacity="1" fill-rule="nonzero"/><g clip-path="url(#0d9f6aa5a1)"><path fill="#49e6b4" d="M 174.835938 410.820312 L 103.503906 410.820312 C 103.121094 410.820312 102.742188 410.78125 102.363281 410.707031 C 101.988281 410.632812 101.621094 410.523438 101.265625 410.375 C 100.914062 410.230469 100.574219 410.046875 100.257812 409.835938 C 99.9375 409.621094 99.640625 409.378906 99.371094 409.109375 C 99.097656 408.839844 98.855469 408.542969 98.644531 408.222656 C 98.429688 407.90625 98.25 407.570312 98.101562 407.214844 C 97.957031 406.859375 97.84375 406.496094 97.769531 406.117188 C 97.695312 405.742188 97.65625 405.363281 97.65625 404.980469 L 97.65625 333.714844 C 97.65625 333.332031 97.695312 332.953125 97.769531 332.578125 C 97.84375 332.199219 97.957031 331.835938 98.101562 331.480469 C 98.25 331.125 98.429688 330.789062 98.644531 330.472656 C 98.855469 330.152344 99.097656 329.859375 99.371094 329.585938 C 99.640625 329.316406 99.9375 329.074219 100.257812 328.859375 C 100.574219 328.648438 100.914062 328.464844 101.265625 328.320312 C 101.621094 328.171875 101.988281 328.0625 102.363281 327.988281 C 102.742188 327.914062 103.121094 327.875 103.503906 327.875 L 174.835938 327.875 C 175.222656 327.875 175.601562 327.914062 175.976562 327.988281 C 176.355469 328.0625 176.71875 328.171875 177.074219 328.320312 C 177.429688 328.464844 177.765625 328.648438 178.085938 328.859375 C 178.40625 329.074219 178.699219 329.316406 178.972656 329.585938 C 179.242188 329.859375 179.484375 330.152344 179.699219 330.472656 C 179.914062 330.789062 180.09375 331.125 180.238281 331.480469 C 180.386719 331.835938 180.496094 332.199219 180.570312 332.578125 C 180.648438 332.953125 180.683594 333.332031 180.683594 333.714844 L 180.683594 404.980469 C 180.683594 405.363281 180.648438 405.742188 180.570312 406.117188 C 180.496094 406.496094 180.386719 406.859375 180.238281 407.214844 C 180.09375 407.570312 179.914062 407.90625 179.699219 408.222656 C 179.484375 408.542969 179.242188 408.839844 178.972656 409.109375 C 178.699219 409.378906 178.40625 409.621094 178.085938 409.835938 C 177.765625 410.046875 177.429688 410.230469 177.074219 410.375 C 176.71875 410.523438 176.355469 410.632812 175.976562 410.707031 C 175.601562 410.78125 175.222656 410.820312 174.835938 410.820312 Z M 109.351562 399.136719 L 168.992188 399.136719 L 168.992188 339.558594 L 109.351562 339.558594 Z M 109.351562 399.136719 " fill-opacity="1" fill-rule="nonzero"/></g><path fill="#49e6b4" d="M 156.308594 364.761719 L 122.050781 364.761719 C 121.667969 364.761719 121.289062 364.726562 120.910156 364.648438 C 120.535156 364.574219 120.167969 364.464844 119.8125 364.316406 C 119.460938 364.171875 119.121094 363.992188 118.804688 363.777344 C 118.484375 363.566406 118.1875 363.324219 117.917969 363.050781 C 117.644531 362.78125 117.402344 362.484375 117.191406 362.167969 C 116.976562 361.847656 116.796875 361.511719 116.648438 361.15625 C 116.503906 360.800781 116.390625 360.4375 116.316406 360.0625 C 116.242188 359.683594 116.203125 359.304688 116.203125 358.921875 C 116.203125 358.539062 116.242188 358.15625 116.316406 357.78125 C 116.390625 357.40625 116.503906 357.039062 116.648438 356.6875 C 116.796875 356.332031 116.976562 355.996094 117.191406 355.675781 C 117.402344 355.355469 117.644531 355.0625 117.917969 354.789062 C 118.1875 354.519531 118.484375 354.277344 118.804688 354.066406 C 119.121094 353.851562 119.460938 353.671875 119.8125 353.523438 C 120.167969 353.378906 120.535156 353.265625 120.910156 353.191406 C 121.289062 353.117188 121.667969 353.082031 122.050781 353.082031 L 156.308594 353.082031 C 156.691406 353.082031 157.074219 353.117188 157.449219 353.191406 C 157.824219 353.265625 158.191406 353.378906 158.546875 353.523438 C 158.902344 353.671875 159.238281 353.851562 159.558594 354.066406 C 159.875 354.277344 160.171875 354.519531 160.441406 354.789062 C 160.714844 355.0625 160.957031 355.355469 161.171875 355.675781 C 161.382812 355.996094 161.5625 356.332031 161.710938 356.6875 C 161.855469 357.039062 161.96875 357.40625 162.042969 357.78125 C 162.117188 358.15625 162.15625 358.539062 162.15625 358.921875 C 162.15625 359.304688 162.117188 359.683594 162.042969 360.0625 C 161.96875 360.4375 161.855469 360.800781 161.710938 361.15625 C 161.5625 361.511719 161.382812 361.847656 161.171875 362.167969 C 160.957031 362.484375 160.714844 362.78125 160.441406 363.050781 C 160.171875 363.324219 159.875 363.566406 159.558594 363.777344 C 159.238281 363.992188 158.902344 364.171875 158.546875 364.316406 C 158.191406 364.464844 157.824219 364.574219 157.449219 364.648438 C 157.074219 364.726562 156.691406 364.761719 156.308594 364.761719 Z M 156.308594 364.761719 " fill-opacity="1" fill-rule="nonzero"/><path fill="#49e6b4" d="M 156.308594 385.59375 L 122.050781 385.59375 C 121.667969 385.59375 121.289062 385.554688 120.910156 385.480469 C 120.535156 385.40625 120.167969 385.292969 119.8125 385.148438 C 119.460938 385 119.121094 384.820312 118.804688 384.609375 C 118.484375 384.394531 118.1875 384.152344 117.917969 383.882812 C 117.644531 383.609375 117.402344 383.316406 117.191406 382.996094 C 116.976562 382.675781 116.796875 382.339844 116.648438 381.984375 C 116.503906 381.632812 116.390625 381.265625 116.316406 380.890625 C 116.242188 380.515625 116.203125 380.132812 116.203125 379.75 C 116.203125 379.367188 116.242188 378.988281 116.316406 378.613281 C 116.390625 378.234375 116.503906 377.871094 116.648438 377.515625 C 116.796875 377.160156 116.976562 376.824219 117.191406 376.503906 C 117.402344 376.1875 117.644531 375.890625 117.917969 375.621094 C 118.1875 375.347656 118.484375 375.105469 118.804688 374.894531 C 119.121094 374.679688 119.460938 374.5 119.8125 374.355469 C 120.167969 374.207031 120.535156 374.097656 120.910156 374.023438 C 121.289062 373.945312 121.667969 373.910156 122.050781 373.910156 L 156.308594 373.910156 C 156.691406 373.910156 157.074219 373.945312 157.449219 374.023438 C 157.824219 374.097656 158.191406 374.207031 158.546875 374.355469 C 158.902344 374.5 159.238281 374.679688 159.558594 374.894531 C 159.875 375.105469 160.171875 375.347656 160.441406 375.621094 C 160.714844 375.890625 160.957031 376.1875 161.171875 376.503906 C 161.382812 376.824219 161.5625 377.160156 161.710938 377.515625 C 161.855469 377.871094 161.96875 378.234375 162.042969 378.613281 C 162.117188 378.988281 162.15625 379.367188 162.15625 379.75 C 162.15625 380.132812 162.117188 380.515625 162.042969 380.890625 C 161.96875 381.265625 161.855469 381.632812 161.710938 381.984375 C 161.5625 382.339844 161.382812 382.675781 161.171875 382.996094 C 160.957031 383.316406 160.714844 383.609375 160.441406 383.882812 C 160.171875 384.152344 159.875 384.394531 159.558594 384.609375 C 159.238281 384.820312 158.902344 385 158.546875 385.148438 C 158.191406 385.292969 157.824219 385.40625 157.449219 385.480469 C 157.074219 385.554688 156.691406 385.59375 156.308594 385.59375 Z M 156.308594 385.59375 " fill-opacity="1" fill-rule="nonzero"/><g clip-path="url(#d4c8363a21)"><path fill="#ffffff" d="M 258.300781 224.375 L 500.847656 224.375 L 500.847656 411.296875 L 258.300781 411.296875 Z M 258.300781 224.375 " fill-opacity="1" fill-rule="nonzero"/></g><g clip-path="url(#2c5f2be1d2)"><path fill="#6c38d4" d="M 444.640625 235.976562 C 446.03125 234 444.640625 231.273438 442.238281 231.273438 L 434.371094 231.273438 C 433.417969 231.273438 432.523438 231.738281 431.96875 232.515625 L 416.40625 254.398438 C 415.222656 256.058594 412.785156 256.058594 411.601562 254.398438 L 396.039062 232.515625 C 395.480469 231.738281 394.585938 231.273438 393.636719 231.273438 L 385.769531 231.273438 C 383.367188 231.273438 381.972656 234 383.367188 235.976562 L 386.117188 239.851562 L 392.207031 248.417969 L 405.207031 266.691406 C 405.9375 267.722656 405.9375 269.117188 405.207031 270.148438 L 383.367188 300.863281 C 381.972656 302.839844 383.367188 305.566406 385.769531 305.566406 L 393.636719 305.566406 C 394.585938 305.566406 395.480469 305.101562 396.039062 304.324219 L 411.601562 282.441406 C 412.785156 280.78125 415.222656 280.78125 416.40625 282.441406 L 431.96875 304.324219 C 432.523438 305.101562 433.417969 305.566406 434.371094 305.566406 L 442.238281 305.566406 C 444.640625 305.566406 446.03125 302.839844 444.640625 300.863281 L 422.800781 270.148438 C 422.066406 269.117188 422.066406 267.722656 422.800781 266.691406 L 444.640625 235.976562 " fill-opacity="1" fill-rule="nonzero"/></g><g clip-path="url(#1533970658)"><path fill="#6c38d4" d="M 326.363281 231.273438 L 317.449219 231.273438 C 315.8125 231.273438 314.480469 232.609375 314.480469 234.246094 L 314.480469 278.820312 C 314.480469 294.179688 327.429688 306.519531 343.003906 305.507812 C 357.207031 304.578125 367.953125 292.148438 367.953125 277.902344 L 367.953125 234.246094 C 367.953125 232.609375 366.621094 231.273438 364.984375 231.273438 L 356.070312 231.273438 C 354.433594 231.273438 353.101562 232.609375 353.101562 234.246094 L 353.101562 278.820312 C 353.101562 285.773438 347.148438 291.324219 340.054688 290.648438 C 333.871094 290.070312 329.332031 284.519531 329.332031 278.308594 L 329.332031 234.246094 C 329.332031 232.609375 328 231.273438 326.363281 231.273438 " fill-opacity="1" fill-rule="nonzero"/></g><path fill="#6c38d4" d="M 364.984375 329.339844 L 356.070312 329.339844 C 354.433594 329.339844 353.101562 330.675781 353.101562 332.3125 L 353.101562 376.886719 C 353.101562 383.839844 347.148438 389.386719 340.054688 388.714844 C 333.871094 388.136719 329.332031 382.585938 329.332031 376.375 L 329.332031 332.3125 C 329.332031 330.675781 328 329.339844 326.363281 329.339844 L 317.449219 329.339844 C 315.8125 329.339844 314.480469 330.675781 314.480469 332.3125 L 314.480469 376.886719 C 314.480469 392.246094 327.429688 404.582031 343.003906 403.574219 C 357.207031 402.644531 367.953125 390.210938 367.953125 375.96875 L 367.953125 332.3125 C 367.953125 330.675781 366.621094 329.339844 364.984375 329.339844 " fill-opacity="1" fill-rule="nonzero"/><path fill="#6c38d4" d="M 442.226562 329.339844 L 388.75 329.339844 C 387.113281 329.339844 385.78125 330.675781 385.78125 332.3125 L 385.78125 341.226562 C 385.78125 342.863281 387.113281 344.199219 388.75 344.199219 L 406.574219 344.199219 C 408.210938 344.199219 409.546875 345.53125 409.546875 347.167969 L 409.546875 385.800781 C 409.546875 387.4375 408.210938 388.773438 406.574219 388.773438 L 388.75 388.773438 C 387.113281 388.773438 385.78125 390.109375 385.78125 391.746094 L 385.78125 400.660156 C 385.78125 402.296875 387.113281 403.632812 388.75 403.632812 L 442.226562 403.632812 C 443.863281 403.632812 445.195312 402.296875 445.195312 400.660156 L 445.195312 391.746094 C 445.195312 390.109375 443.863281 388.773438 442.226562 388.773438 L 424.402344 388.773438 C 422.765625 388.773438 421.429688 387.4375 421.429688 385.800781 L 421.429688 347.167969 C 421.429688 345.53125 422.765625 344.199219 424.402344 344.199219 L 442.226562 344.199219 C 443.863281 344.199219 445.195312 342.863281 445.195312 341.226562 L 445.195312 332.3125 C 445.195312 330.675781 443.863281 329.339844 442.226562 329.339844 " fill-opacity="1" fill-rule="nonzero"/><g clip-path="url(#4f72304057)"><path fill="#6c38d4" d="M 465.992188 314.480469 L 293.683594 314.480469 C 292.046875 314.480469 290.710938 315.816406 290.710938 317.453125 C 290.710938 319.089844 292.046875 320.425781 293.683594 320.425781 L 465.992188 320.425781 C 467.628906 320.425781 468.964844 319.089844 468.964844 317.453125 C 468.964844 315.816406 467.628906 314.480469 465.992188 314.480469 " fill-opacity="1" fill-rule="nonzero"/></g><g clip-path="url(#04e5cd3ebb)"><path fill="#ffffff" d="M 290.214844 420.867188 L 458.132812 420.867188 L 458.132812 483.179688 L 290.214844 483.179688 Z M 290.214844 420.867188 " fill-opacity="1" fill-rule="nonzero"/></g><g clip-path="url(#c69dae8fb2)"><g clip-path="url(#3e1d1a59b9)"><path stroke-linecap="butt" transform="matrix(0.7498, 0, 0, 0.748295, 314.983199, 415.191239)" fill="none" stroke-linejoin="miter" d="M 26.998341 0.000222898 L 149.04647 0.000222898 C 156.204626 0.000222898 163.071038 2.845233 168.134887 7.908828 C 173.198736 12.972424 176.043243 19.836989 176.043243 26.999105 L 176.043243 69.220096 C 176.043243 84.128991 163.956691 96.218978 149.04647 96.218978 L 26.998341 96.218978 C 12.08812 96.218978 0.00156786 84.128991 0.00156786 69.220096 L 0.00156786 26.999105 C 0.00156786 12.09021 12.08812 0.000222898 26.998341 0.000222898 Z M 26.998341 0.000222898 " stroke="#6c38d4" stroke-width="24" stroke-opacity="1" stroke-miterlimit="4"/></g></g><path stroke-linecap="round" transform="matrix(0.754124, -0.000000000000000748, 0.000000000000000744, 0.75, 116.619996, 353.125023)" fill="none" stroke-linejoin="miter" d="M 8.501592 8.49997 L 51.178384 8.49997 " stroke="#6c38d4" stroke-width="17" stroke-opacity="1" stroke-miterlimit="4"/><path stroke-linecap="round" transform="matrix(0.754124, -0.000000000000000748, 0.000000000000000744, 0.75, 116.619996, 373.500002)" fill="none" stroke-linejoin="miter" d="M 8.501592 8.499998 L 51.178384 8.499998 " stroke="#6c38d4" stroke-width="17" stroke-opacity="1" stroke-miterlimit="4"/><path stroke-linecap="round" transform="matrix(0.754124, -0.000000000000000748, 0.000000000000000744, 0.75, 606.754485, 261.273377)" fill="none" stroke-linejoin="miter" d="M 8.499368 8.500082 L 51.181341 8.500082 " stroke="#6c38d4" stroke-width="17" stroke-opacity="1" stroke-miterlimit="4"/><path stroke-linecap="round" transform="matrix(0.754124, -0.000000000000000748, 0.000000000000000744, 0.75, 606.754485, 241.023378)" fill="none" stroke-linejoin="miter" d="M 8.499368 8.50008 L 51.181341 8.50008 " stroke="#6c38d4" stroke-width="17" stroke-opacity="1" stroke-miterlimit="4"/><path stroke-linecap="round" transform="matrix(0.748248, 0.00746523, -0.00748233, 0.749963, 483.781323, 251.523759)" fill="none" stroke-linejoin="miter" d="M 8.500381 8.498718 L 141.853592 8.499494 " stroke="#49e6b4" stroke-width="17" stroke-opacity="1" stroke-miterlimit="4"/><path stroke-linecap="round" transform="matrix(0.748248, 0.00746523, -0.00748233, 0.749963, 176.703057, 362.625676)" fill="none" stroke-linejoin="miter" d="M 8.500566 8.498243 L 141.853777 8.499019 " stroke="#49e6b4" stroke-width="17" stroke-opacity="1" stroke-miterlimit="4"/><path stroke-linecap="round" transform="matrix(0.750535, -0.000000000000000279, 0.000000000000000279, 0.75, 266.703095, 524.249994)" fill="none" stroke-linejoin="miter" d="M 7.999545 8.000008 L 298.792236 8.000008 " stroke="#6c38d4" stroke-width="16" stroke-opacity="1" stroke-miterlimit="4"/><path stroke-linecap="round" transform="matrix(0.751726, 0, 0, 0.75, 302.80361, 494.249996)" fill="none" stroke-linejoin="miter" d="M 7.998658 8.000006 L 202.525047 8.000006 " stroke="#6c38d4" stroke-width="16" stroke-opacity="1" stroke-miterlimit="4"/></svg>