<svg xmlns="http://www.w3.org/2000/svg" xmlns:xlink="http://www.w3.org/1999/xlink" width="1024" zoomAndPan="magnify" viewBox="0 0 768 767.999994" height="1024" preserveAspectRatio="xMidYMid meet" version="1.0"><defs><clipPath id="708482921d"><path d="M 0 0 L 188 0 L 188 187 L 0 187 Z M 0 0 " clip-rule="nonzero"/></clipPath><clipPath id="119ac529f2"><path d="M 79.324219 -138.722656 L 210.316406 -7.734375 L -7.121094 209.703125 L -138.113281 78.710938 Z M 79.324219 -138.722656 " clip-rule="nonzero"/></clipPath><clipPath id="ac756dd71f"><path d="M 79.324219 -138.722656 L 210.316406 -7.734375 L -7.121094 209.703125 L -138.113281 78.710938 Z M 79.324219 -138.722656 " clip-rule="nonzero"/></clipPath><clipPath id="3dfb183a22"><path d="M 579 578 L 768 578 L 768 768 L 579 768 Z M 579 578 " clip-rule="nonzero"/></clipPath><clipPath id="72bcfc0d4d"><path d="M 687.910156 903.441406 L 556.917969 772.449219 L 774.351562 555.015625 L 905.34375 686.003906 Z M 687.910156 903.441406 " clip-rule="nonzero"/></clipPath><clipPath id="b5f72a1439"><path d="M 687.910156 903.441406 L 556.917969 772.449219 L 774.351562 555.015625 L 905.34375 686.003906 Z M 687.910156 903.441406 " clip-rule="nonzero"/></clipPath><clipPath id="6672a85960"><path d="M 0 577 L 188 577 L 188 768 L 0 768 Z M 0 577 " clip-rule="nonzero"/></clipPath><clipPath id="4775057f32"><path d="M -137.894531 686.222656 L -6.90625 555.230469 L 210.53125 772.664062 L 79.539062 903.65625 Z M -137.894531 686.222656 " clip-rule="nonzero"/></clipPath><clipPath id="e6286c6797"><path d="M -137.894531 686.222656 L -6.90625 555.230469 L 210.53125 772.664062 L 79.539062 903.65625 Z M -137.894531 686.222656 " clip-rule="nonzero"/></clipPath><clipPath id="fa41228106"><path d="M 579 0 L 768 0 L 768 188 L 579 188 Z M 579 0 " clip-rule="nonzero"/></clipPath><clipPath id="4bdaa3d320"><path d="M 905.128906 78.496094 L 774.136719 209.488281 L 556.703125 -7.949219 L 687.695312 -138.941406 Z M 905.128906 78.496094 " clip-rule="nonzero"/></clipPath><clipPath id="13daef9a45"><path d="M 905.128906 78.496094 L 774.136719 209.488281 L 556.703125 -7.949219 L 687.695312 -138.941406 Z M 905.128906 78.496094 " clip-rule="nonzero"/></clipPath><clipPath id="8916e597ff"><path d="M 134.949219 180.457031 L 639.699219 180.457031 L 639.699219 622.207031 L 134.949219 622.207031 Z M 134.949219 180.457031 " clip-rule="nonzero"/></clipPath><clipPath id="4a95a17163"><path d="M 464.3125 180.457031 L 310.324219 180.457031 C 213.460938 180.457031 134.949219 257.175781 134.949219 351.808594 C 134.949219 420.320312 176.109375 479.414062 235.574219 506.832031 L 235.574219 622.207031 L 354.6875 523.15625 L 464.3125 523.15625 C 561.183594 523.15625 639.699219 446.4375 639.699219 351.804688 C 639.707031 257.175781 561.183594 180.457031 464.3125 180.457031 Z M 464.3125 180.457031 " clip-rule="nonzero"/></clipPath><clipPath id="e2def79233"><path d="M 256 256.03125 L 518.660156 256.03125 L 518.660156 297.972656 L 256 297.972656 Z M 256 256.03125 " clip-rule="nonzero"/></clipPath><clipPath id="c593a59db9"><path d="M 273.753906 259.332031 C 310.207031 260.765625 319.394531 260.480469 327.71875 260.191406 C 335.179688 259.90625 342.070312 259.90625 349.246094 259.617188 C 356.710938 259.332031 363.886719 259.042969 371.347656 258.757812 C 379.386719 258.46875 387.710938 258.183594 396.035156 258.183594 C 404.933594 257.894531 414.691406 258.183594 423.300781 257.894531 C 431.339844 257.894531 439.089844 257.609375 446.554688 257.324219 C 453.730469 257.324219 460.617188 257.324219 467.507812 257.035156 C 474.394531 257.035156 482.433594 256.460938 487.886719 256.460938 C 491.617188 256.460938 494.777344 256.175781 497.644531 256.460938 C 499.941406 256.75 502.238281 257.035156 504.246094 257.609375 C 506.257812 258.46875 508.554688 259.332031 510.277344 260.765625 C 511.996094 262.203125 513.71875 263.925781 514.867188 265.648438 C 516.015625 267.367188 517.164062 269.664062 517.738281 271.675781 C 518.3125 273.683594 518.3125 275.980469 518.3125 278.277344 C 518.3125 280.574219 517.738281 282.867188 516.878906 284.878906 C 516.015625 286.886719 514.867188 288.898438 513.433594 290.617188 C 511.996094 292.339844 510.277344 293.777344 508.265625 294.925781 C 506.542969 296.074219 504.246094 296.648438 502.238281 297.222656 C 499.941406 297.796875 497.644531 297.796875 495.347656 297.507812 C 493.054688 297.222656 491.042969 296.648438 489.035156 295.785156 C 487.027344 294.925781 485.304688 293.488281 483.582031 292.054688 C 482.144531 290.617188 480.710938 288.898438 479.5625 286.886719 C 478.414062 284.878906 477.554688 282.867188 477.265625 280.574219 C 476.980469 278.277344 476.980469 275.980469 477.265625 273.683594 C 477.554688 271.386719 478.414062 269.378906 479.5625 267.367188 C 480.710938 265.359375 482.144531 263.636719 483.582031 262.203125 C 485.304688 260.765625 487.027344 259.332031 489.035156 258.46875 C 491.042969 257.609375 493.339844 257.035156 495.636719 256.75 C 497.933594 256.460938 500.230469 256.460938 502.238281 257.035156 C 504.246094 257.609375 506.542969 258.183594 508.265625 259.332031 C 510.277344 260.480469 511.996094 261.914062 513.433594 263.636719 C 514.867188 265.359375 516.015625 267.367188 516.878906 269.378906 C 517.738281 271.386719 518.3125 273.683594 518.3125 275.980469 C 518.3125 278.277344 518.3125 280.574219 517.738281 282.582031 C 517.164062 284.589844 516.015625 286.886719 514.867188 288.609375 C 513.71875 290.332031 511.996094 292.054688 510.277344 293.488281 C 508.554688 294.925781 506.257812 295.785156 504.246094 296.648438 C 502.238281 297.222656 497.644531 297.796875 497.644531 297.796875 C 497.644531 297.796875 491.617188 297.796875 487.886719 297.796875 C 482.433594 297.796875 474.394531 297.222656 467.507812 297.222656 C 460.617188 296.933594 453.730469 296.933594 446.554688 296.933594 C 439.089844 296.648438 431.339844 296.359375 423.300781 296.359375 C 414.691406 296.074219 404.933594 296.359375 396.035156 296.074219 C 387.710938 296.074219 379.386719 295.785156 371.347656 295.5 C 363.886719 295.210938 356.710938 294.925781 349.246094 294.636719 C 342.070312 294.351562 335.179688 294.351562 327.71875 294.0625 C 319.394531 293.777344 310.207031 293.488281 301.308594 293.488281 C 292.125 293.488281 278.921875 295.210938 273.753906 294.925781 C 271.746094 294.925781 270.882812 294.636719 269.449219 294.351562 C 268.011719 294.0625 266.578125 293.488281 265.429688 292.914062 C 264.28125 292.339844 263.132812 291.191406 261.984375 290.332031 C 260.835938 289.472656 259.976562 288.324219 259.117188 287.175781 C 258.253906 286.027344 257.679688 284.878906 257.105469 283.441406 C 256.53125 282.007812 256.246094 280.574219 256.246094 279.136719 C 256.246094 277.703125 256.246094 276.554688 256.246094 275.117188 C 256.246094 273.683594 256.53125 272.25 257.105469 270.8125 C 257.679688 269.378906 258.253906 268.230469 259.117188 267.082031 C 259.976562 265.933594 260.835938 264.785156 261.984375 263.925781 C 263.132812 263.0625 264.28125 261.914062 265.429688 261.339844 C 266.578125 260.765625 268.011719 260.191406 269.449219 259.90625 C 270.882812 259.617188 273.753906 259.332031 273.753906 259.332031 " clip-rule="nonzero"/></clipPath><clipPath id="80f9dce64d"><path d="M 256 320.328125 L 518.660156 320.328125 L 518.660156 362.269531 L 256 362.269531 Z M 256 320.328125 " clip-rule="nonzero"/></clipPath><clipPath id="b09387ceaf"><path d="M 273.753906 323.628906 C 310.207031 325.0625 319.394531 324.777344 327.71875 324.488281 C 335.179688 324.203125 342.070312 324.203125 349.246094 323.914062 C 356.710938 323.628906 363.886719 323.339844 371.347656 323.054688 C 379.386719 322.765625 387.710938 322.480469 396.035156 322.480469 C 404.933594 322.195312 414.691406 322.480469 423.300781 322.195312 C 431.339844 322.195312 439.089844 321.90625 446.554688 321.621094 C 453.730469 321.621094 460.617188 321.621094 467.507812 321.332031 C 474.394531 321.332031 482.433594 320.757812 487.886719 320.757812 C 491.617188 320.757812 494.777344 320.472656 497.644531 320.757812 C 499.941406 321.046875 502.238281 321.332031 504.246094 321.90625 C 506.257812 322.765625 508.554688 323.628906 510.277344 325.0625 C 511.996094 326.5 513.71875 328.222656 514.867188 329.945312 C 516.015625 331.664062 517.164062 333.960938 517.738281 335.972656 C 518.3125 337.980469 518.3125 340.277344 518.3125 342.574219 C 518.3125 344.871094 517.738281 347.164062 516.878906 349.175781 C 516.015625 351.183594 514.867188 353.195312 513.433594 354.917969 C 511.996094 356.636719 510.277344 358.074219 508.265625 359.222656 C 506.542969 360.371094 504.246094 360.945312 502.238281 361.519531 C 499.941406 362.09375 497.644531 362.09375 495.347656 361.804688 C 493.054688 361.519531 491.042969 360.945312 489.035156 360.082031 C 487.027344 359.222656 485.304688 357.785156 483.582031 356.351562 C 482.144531 354.917969 480.710938 353.195312 479.5625 351.183594 C 478.414062 349.175781 477.554688 347.164062 477.265625 344.871094 C 476.980469 342.574219 476.980469 340.277344 477.265625 337.980469 C 477.554688 335.683594 478.414062 333.675781 479.5625 331.664062 C 480.710938 329.65625 482.144531 327.933594 483.582031 326.5 C 485.304688 325.0625 487.027344 323.628906 489.035156 322.765625 C 491.042969 321.90625 493.339844 321.332031 495.636719 321.046875 C 497.933594 320.757812 500.230469 320.757812 502.238281 321.332031 C 504.246094 321.90625 506.542969 322.480469 508.265625 323.628906 C 510.277344 324.777344 511.996094 326.210938 513.433594 327.933594 C 514.867188 329.65625 516.015625 331.664062 516.878906 333.675781 C 517.738281 335.683594 518.3125 337.980469 518.3125 340.277344 C 518.3125 342.574219 518.3125 344.871094 517.738281 346.878906 C 517.164062 348.886719 516.015625 351.183594 514.867188 352.90625 C 513.71875 354.628906 511.996094 356.351562 510.277344 357.785156 C 508.554688 359.222656 506.257812 360.082031 504.246094 360.945312 C 502.238281 361.519531 497.644531 362.09375 497.644531 362.09375 C 497.644531 362.09375 491.617188 362.09375 487.886719 362.09375 C 482.433594 362.09375 474.394531 361.519531 467.507812 361.519531 C 460.617188 361.230469 453.730469 361.230469 446.554688 361.230469 C 439.089844 360.945312 431.339844 360.65625 423.300781 360.65625 C 414.691406 360.371094 404.933594 360.65625 396.035156 360.371094 C 387.710938 360.371094 379.386719 360.082031 371.347656 359.796875 C 363.886719 359.507812 356.710938 359.222656 349.246094 358.933594 C 342.070312 358.648438 335.179688 358.648438 327.71875 358.359375 C 319.394531 358.074219 310.207031 357.785156 301.308594 357.785156 C 292.125 357.785156 278.921875 359.507812 273.753906 359.222656 C 271.746094 359.222656 270.882812 358.933594 269.449219 358.648438 C 268.011719 358.359375 266.578125 357.785156 265.429688 357.210938 C 264.28125 356.636719 263.132812 355.488281 261.984375 354.628906 C 260.835938 353.769531 259.976562 352.621094 259.117188 351.472656 C 258.253906 350.324219 257.679688 349.175781 257.105469 347.738281 C 256.53125 346.304688 256.246094 344.871094 256.246094 343.433594 C 256.246094 342 256.246094 340.851562 256.246094 339.414062 C 256.246094 337.980469 256.53125 336.546875 257.105469 335.109375 C 257.679688 333.675781 258.253906 332.527344 259.117188 331.378906 C 259.976562 330.230469 260.835938 329.082031 261.984375 328.222656 C 263.132812 327.359375 264.28125 326.210938 265.429688 325.636719 C 266.578125 325.0625 268.011719 324.488281 269.449219 324.203125 C 270.882812 323.914062 273.753906 323.628906 273.753906 323.628906 " clip-rule="nonzero"/></clipPath><clipPath id="801230b27b"><path d="M 256 384.625 L 518.660156 384.625 L 518.660156 426.570312 L 256 426.570312 Z M 256 384.625 " clip-rule="nonzero"/></clipPath><clipPath id="552f89e373"><path d="M 273.753906 387.925781 C 310.207031 389.359375 319.394531 389.074219 327.71875 388.785156 C 335.179688 388.5 342.070312 388.5 349.246094 388.210938 C 356.710938 387.925781 363.886719 387.636719 371.347656 387.351562 C 379.386719 387.066406 387.710938 386.777344 396.035156 386.777344 C 404.933594 386.492188 414.691406 386.777344 423.300781 386.492188 C 431.339844 386.492188 439.089844 386.203125 446.554688 385.917969 C 453.730469 385.917969 460.617188 385.917969 467.507812 385.628906 C 474.394531 385.628906 482.433594 385.054688 487.886719 385.054688 C 491.617188 385.054688 494.777344 384.769531 497.644531 385.054688 C 499.941406 385.34375 502.238281 385.628906 504.246094 386.203125 C 506.257812 387.066406 508.554688 387.925781 510.277344 389.359375 C 511.996094 390.796875 513.71875 392.519531 514.867188 394.242188 C 516.015625 395.960938 517.164062 398.257812 517.738281 400.269531 C 518.3125 402.277344 518.3125 404.574219 518.3125 406.871094 C 518.3125 409.167969 517.738281 411.464844 516.878906 413.472656 C 516.015625 415.480469 514.867188 417.492188 513.433594 419.214844 C 511.996094 420.933594 510.277344 422.371094 508.265625 423.519531 C 506.542969 424.667969 504.246094 425.242188 502.238281 425.816406 C 499.941406 426.390625 497.644531 426.390625 495.347656 426.101562 C 493.054688 425.816406 491.042969 425.242188 489.035156 424.378906 C 487.027344 423.519531 485.304688 422.082031 483.582031 420.648438 C 482.144531 419.214844 480.710938 417.492188 479.5625 415.480469 C 478.414062 413.472656 477.554688 411.464844 477.265625 409.167969 C 476.980469 406.871094 476.980469 404.574219 477.265625 402.277344 C 477.554688 399.980469 478.414062 397.972656 479.5625 395.960938 C 480.710938 393.953125 482.144531 392.230469 483.582031 390.796875 C 485.304688 389.359375 487.027344 387.925781 489.035156 387.066406 C 491.042969 386.203125 493.339844 385.628906 495.636719 385.34375 C 497.933594 385.054688 500.230469 385.054688 502.238281 385.628906 C 504.246094 386.203125 506.542969 386.777344 508.265625 387.925781 C 510.277344 389.074219 511.996094 390.507812 513.433594 392.230469 C 514.867188 393.953125 516.015625 395.960938 516.878906 397.972656 C 517.738281 399.980469 518.3125 402.277344 518.3125 404.574219 C 518.3125 406.871094 518.3125 409.167969 517.738281 411.175781 C 517.164062 413.183594 516.015625 415.480469 514.867188 417.203125 C 513.71875 418.925781 511.996094 420.648438 510.277344 422.082031 C 508.554688 423.519531 506.257812 424.378906 504.246094 425.242188 C 502.238281 425.816406 497.644531 426.390625 497.644531 426.390625 C 497.644531 426.390625 491.617188 426.390625 487.886719 426.390625 C 482.433594 426.390625 474.394531 425.816406 467.507812 425.816406 C 460.617188 425.527344 453.730469 425.527344 446.554688 425.527344 C 439.089844 425.242188 431.339844 424.953125 423.300781 424.953125 C 414.691406 424.667969 404.933594 424.953125 396.035156 424.667969 C 387.710938 424.667969 379.386719 424.378906 371.347656 424.09375 C 363.886719 423.804688 356.710938 423.519531 349.246094 423.230469 C 342.070312 422.945312 335.179688 422.945312 327.71875 422.65625 C 319.394531 422.371094 310.207031 422.082031 301.308594 422.082031 C 292.125 422.082031 278.921875 423.804688 273.753906 423.519531 C 271.746094 423.519531 270.882812 423.230469 269.449219 422.945312 C 268.011719 422.65625 266.578125 422.082031 265.429688 421.507812 C 264.28125 420.933594 263.132812 419.789062 261.984375 418.925781 C 260.835938 418.066406 259.976562 416.917969 259.117188 415.769531 C 258.253906 414.621094 257.679688 413.472656 257.105469 412.035156 C 256.53125 410.601562 256.246094 409.167969 256.246094 407.730469 C 256.246094 406.296875 256.246094 405.148438 256.246094 403.710938 C 256.246094 402.277344 256.53125 400.84375 257.105469 399.40625 C 257.679688 397.972656 258.253906 396.824219 259.117188 395.675781 C 259.976562 394.527344 260.835938 393.378906 261.984375 392.519531 C 263.132812 391.65625 264.28125 390.507812 265.429688 389.933594 C 266.578125 389.359375 268.011719 388.785156 269.449219 388.5 C 270.882812 388.210938 273.753906 387.925781 273.753906 387.925781 " clip-rule="nonzero"/></clipPath><clipPath id="0ebdbdc42a"><path d="M 593 478 L 664 478 L 664 500 L 593 500 Z M 593 478 " clip-rule="nonzero"/></clipPath><clipPath id="104331d2cb"><path d="M 681.570312 538.089844 L 594.101562 569.691406 L 565.050781 489.277344 L 652.515625 457.675781 Z M 681.570312 538.089844 " clip-rule="nonzero"/></clipPath><clipPath id="7e06b23a6f"><path d="M 681.570312 538.089844 L 594.101562 569.691406 L 565.050781 489.277344 L 652.515625 457.675781 Z M 681.570312 538.089844 " clip-rule="nonzero"/></clipPath><clipPath id="3599e6fb04"><path d="M 586 490 L 642 490 L 642 544 L 586 544 Z M 586 490 " clip-rule="nonzero"/></clipPath><clipPath id="aab3da9350"><path d="M 681.570312 538.089844 L 594.101562 569.691406 L 565.050781 489.277344 L 652.515625 457.675781 Z M 681.570312 538.089844 " clip-rule="nonzero"/></clipPath><clipPath id="1d00ba39e9"><path d="M 681.570312 538.089844 L 594.101562 569.691406 L 565.050781 489.277344 L 652.515625 457.675781 Z M 681.570312 538.089844 " clip-rule="nonzero"/></clipPath><clipPath id="847335d59d"><path d="M 572 501 L 607 501 L 607 568 L 572 568 Z M 572 501 " clip-rule="nonzero"/></clipPath><clipPath id="412586359b"><path d="M 681.570312 538.089844 L 594.101562 569.691406 L 565.050781 489.277344 L 652.515625 457.675781 Z M 681.570312 538.089844 " clip-rule="nonzero"/></clipPath><clipPath id="5a722e1aee"><path d="M 681.570312 538.089844 L 594.101562 569.691406 L 565.050781 489.277344 L 652.515625 457.675781 Z M 681.570312 538.089844 " clip-rule="nonzero"/></clipPath><clipPath id="867d0159a5"><path d="M 93 200 L 160 200 L 160 234 L 93 234 Z M 93 200 " clip-rule="nonzero"/></clipPath><clipPath id="e273b4c00f"><path d="M 86.429688 156.851562 L 178.785156 145.914062 L 188.839844 230.824219 L 96.484375 241.757812 Z M 86.429688 156.851562 " clip-rule="nonzero"/></clipPath><clipPath id="d388037e56"><path d="M 86.429688 156.851562 L 178.785156 145.914062 L 188.839844 230.824219 L 96.484375 241.757812 Z M 86.429688 156.851562 " clip-rule="nonzero"/></clipPath><clipPath id="969a85e863"><path d="M 124 162 L 170 162 L 170 224 L 124 224 Z M 124 162 " clip-rule="nonzero"/></clipPath><clipPath id="b5abd3ee4c"><path d="M 86.429688 156.851562 L 178.785156 145.914062 L 188.839844 230.824219 L 96.484375 241.757812 Z M 86.429688 156.851562 " clip-rule="nonzero"/></clipPath><clipPath id="8a51646796"><path d="M 86.429688 156.851562 L 178.785156 145.914062 L 188.839844 230.824219 L 96.484375 241.757812 Z M 86.429688 156.851562 " clip-rule="nonzero"/></clipPath><clipPath id="4f1f717c81"><path d="M 164 147 L 186 147 L 186 216 L 164 216 Z M 164 147 " clip-rule="nonzero"/></clipPath><clipPath id="df69bcf550"><path d="M 86.429688 156.851562 L 178.785156 145.914062 L 188.839844 230.824219 L 96.484375 241.757812 Z M 86.429688 156.851562 " clip-rule="nonzero"/></clipPath><clipPath id="de755b7a8c"><path d="M 86.429688 156.851562 L 178.785156 145.914062 L 188.839844 230.824219 L 96.484375 241.757812 Z M 86.429688 156.851562 " clip-rule="nonzero"/></clipPath></defs><g clip-path="url(#708482921d)"><g clip-path="url(#119ac529f2)"><g clip-path="url(#ac756dd71f)"><path fill="#8447ff" d="M -29.746094 186.601562 L -29.734375 -29.628906 L 187.996094 -29.640625 L 187.996094 14.632812 L 14.539062 14.640625 L 14.527344 186.601562 L -29.746094 186.601562 " fill-opacity="1" fill-rule="nonzero"/></g></g></g><g clip-path="url(#3dfb183a22)"><g clip-path="url(#72bcfc0d4d)"><g clip-path="url(#b5f72a1439)"><path fill="#8447ff" d="M 796.980469 578.113281 L 796.964844 794.34375 L 579.234375 794.355469 L 579.234375 750.082031 L 752.695312 750.074219 L 752.707031 578.113281 L 796.980469 578.113281 " fill-opacity="1" fill-rule="nonzero"/></g></g></g><g clip-path="url(#6672a85960)"><g clip-path="url(#4775057f32)"><g clip-path="url(#e6286c6797)"><path fill="#8447ff" d="M 187.429688 795.292969 L -28.800781 795.277344 L -28.8125 577.546875 L 15.460938 577.546875 L 15.46875 751.007812 L 187.429688 751.019531 L 187.429688 795.292969 " fill-opacity="1" fill-rule="nonzero"/></g></g></g><g clip-path="url(#fa41228106)"><g clip-path="url(#4bdaa3d320)"><g clip-path="url(#13daef9a45)"><path fill="#8447ff" d="M 579.800781 -30.574219 L 796.03125 -30.5625 L 796.042969 187.167969 L 751.769531 187.167969 L 751.761719 13.710938 L 579.800781 13.699219 L 579.800781 -30.574219 " fill-opacity="1" fill-rule="nonzero"/></g></g></g><g clip-path="url(#8916e597ff)"><g clip-path="url(#4a95a17163)"><path stroke-linecap="butt" transform="matrix(0.750122, 0, 0, 0.750279, 134.950441, 180.458111)" fill="none" stroke-linejoin="miter" d="M 439.078015 -0.00143923 L 233.793687 -0.00143923 C 104.663643 -0.00143923 -0.00162957 102.25224 -0.00162957 228.382466 C -0.00162957 319.6975 54.869656 398.459906 134.143224 435.003622 L 134.143224 588.779827 L 292.935112 456.761164 L 439.078015 456.761164 C 568.218474 456.761164 672.888954 354.507485 672.888954 228.377259 C 672.899369 102.25224 568.218474 -0.00143923 439.078015 -0.00143923 Z M 439.078015 -0.00143923 " stroke="#8447ff" stroke-width="28" stroke-opacity="1" stroke-miterlimit="4"/></g></g><g clip-path="url(#e2def79233)"><g clip-path="url(#c593a59db9)"><path fill="#8cffda" d="M 529.792969 244.980469 L 529.792969 309.277344 L 244.761719 309.277344 L 244.761719 244.980469 Z M 529.792969 244.980469 " fill-opacity="1" fill-rule="nonzero"/></g></g><g clip-path="url(#80f9dce64d)"><g clip-path="url(#b09387ceaf)"><path fill="#8cffda" d="M 529.792969 309.277344 L 529.792969 373.574219 L 244.761719 373.574219 L 244.761719 309.277344 Z M 529.792969 309.277344 " fill-opacity="1" fill-rule="nonzero"/></g></g><g clip-path="url(#801230b27b)"><g clip-path="url(#552f89e373)"><path fill="#8cffda" d="M 529.792969 373.574219 L 529.792969 437.871094 L 244.761719 437.871094 L 244.761719 373.574219 Z M 529.792969 373.574219 " fill-opacity="1" fill-rule="nonzero"/></g></g><g clip-path="url(#0ebdbdc42a)"><g clip-path="url(#104331d2cb)"><g clip-path="url(#7e06b23a6f)"><path fill="#8447ff" d="M 600.210938 488.832031 C 617.835938 492.378906 635.488281 495.734375 653.167969 498.894531 C 657.261719 499.625 660.777344 497.917969 662.660156 494.085938 C 663.933594 491.484375 663.730469 488.824219 661.417969 486.503906 C 660.140625 485.210938 659.003906 483.839844 656.9375 483.542969 C 647.261719 482.160156 637.617188 480.265625 627.925781 479.265625 C 619.160156 478.359375 610.328125 478.058594 601.5625 478.140625 C 598.21875 478.171875 593.921875 478.84375 593.835938 483.773438 C 593.761719 487.96875 597.609375 488.308594 600.210938 488.832031 Z M 600.210938 488.832031 " fill-opacity="1" fill-rule="nonzero"/></g></g></g><g clip-path="url(#3599e6fb04)"><g clip-path="url(#aab3da9350)"><g clip-path="url(#1d00ba39e9)"><path fill="#8447ff" d="M 589.582031 501.136719 C 601.28125 514.273438 614.230469 526.464844 625.546875 540.183594 C 628.78125 544.105469 635.050781 545.605469 639.074219 540.578125 C 642.902344 535.800781 641.675781 530.824219 636.800781 526.554688 C 624.019531 515.363281 610.96875 504.527344 597.21875 494.523438 C 594.363281 492.445312 591.90625 489.019531 588.023438 492.355469 C 583.816406 495.976562 589.109375 497.980469 589.582031 501.136719 Z M 589.582031 501.136719 " fill-opacity="1" fill-rule="nonzero"/></g></g></g><g clip-path="url(#847335d59d)"><g clip-path="url(#412586359b)"><g clip-path="url(#5a722e1aee)"><path fill="#8447ff" d="M 592.601562 561.480469 C 594.570312 565.886719 597.964844 568.300781 602.28125 566.464844 C 606.75 564.5625 606.5625 559.875 605.308594 555.863281 C 601.074219 542.273438 596.015625 529.007812 588.863281 516.628906 C 586.992188 513.289062 585.175781 509.921875 583.234375 506.625 C 581.710938 504.03125 580.394531 500.726562 576.378906 502.09375 C 572.101562 503.546875 572.273438 507.496094 573.339844 510.449219 C 579.507812 527.550781 585.171875 544.851562 592.601562 561.480469 Z M 592.601562 561.480469 " fill-opacity="1" fill-rule="nonzero"/></g></g></g><g clip-path="url(#867d0159a5)"><g clip-path="url(#e273b4c00f)"><g clip-path="url(#d388037e56)"><path fill="#8447ff" d="M 154.492188 223.28125 C 138.132812 215.832031 121.699219 208.554688 105.199219 201.46875 C 101.375 199.828125 97.5625 200.695312 94.863281 203.996094 C 93.03125 206.242188 92.625 208.878906 94.351562 211.660156 C 95.304688 213.214844 96.097656 214.804688 98.042969 215.5625 C 107.152344 219.105469 116.117188 223.136719 125.328125 226.3125 C 133.660156 229.183594 142.195312 231.480469 150.75 233.386719 C 154.015625 234.117188 158.351562 234.433594 159.550781 229.65625 C 160.574219 225.585938 156.90625 224.378906 154.492188 223.28125 Z M 154.492188 223.28125 " fill-opacity="1" fill-rule="nonzero"/></g></g></g><g clip-path="url(#969a85e863)"><g clip-path="url(#b5abd3ee4c)"><g clip-path="url(#8a51646796)"><path fill="#8447ff" d="M 167.632812 213.707031 C 159.222656 198.261719 149.375 183.449219 141.46875 167.519531 C 139.207031 162.964844 133.441406 160.085938 128.382812 164.066406 C 123.570312 167.855469 123.636719 172.980469 127.414062 178.242188 C 137.324219 192.039062 147.574219 205.554688 158.695312 218.417969 C 161.007812 221.089844 162.625 224.984375 167.160156 222.613281 C 172.078125 220.042969 167.378906 216.890625 167.632812 213.707031 Z M 167.632812 213.707031 " fill-opacity="1" fill-rule="nonzero"/></g></g></g><g clip-path="url(#4f1f717c81)"><g clip-path="url(#df69bcf550)"><g clip-path="url(#de755b7a8c)"><path fill="#8447ff" d="M 178.382812 154.25 C 177.464844 149.511719 174.707031 146.394531 170.085938 147.203125 C 165.300781 148.042969 164.425781 152.648438 164.730469 156.839844 C 165.773438 171.035156 167.691406 185.105469 171.851562 198.785156 C 172.914062 202.460938 173.921875 206.152344 175.0625 209.804688 C 175.957031 212.675781 176.488281 216.191406 180.710938 215.773438 C 185.207031 215.324219 185.933594 211.441406 185.566406 208.324219 C 183.441406 190.269531 181.847656 172.136719 178.382812 154.25 Z M 178.382812 154.25 " fill-opacity="1" fill-rule="nonzero"/></g></g></g></svg>