<svg xmlns="http://www.w3.org/2000/svg" xmlns:xlink="http://www.w3.org/1999/xlink" width="1024" zoomAndPan="magnify" viewBox="0 0 768 767.999994" height="1024" preserveAspectRatio="xMidYMid meet" version="1.0"><defs><clipPath id="7501b17c66"><path d="M 277 174 L 490 174 L 490 502 L 277 502 Z M 277 174 " clip-rule="nonzero"/></clipPath><clipPath id="07a077e34c"><path d="M 167.566406 383.207031 L 383.410156 167.363281 L 600.847656 384.796875 L 385.003906 600.640625 Z M 167.566406 383.207031 " clip-rule="nonzero"/></clipPath><clipPath id="327daa050f"><path d="M 167.566406 383.207031 L 383.410156 167.363281 L 600.847656 384.796875 L 385.003906 600.640625 Z M 167.566406 383.207031 " clip-rule="nonzero"/></clipPath><clipPath id="8e18c303ec"><path d="M 185.734375 365.367188 L 384.015625 167.085938 L 582.304688 365.371094 L 384.019531 563.65625 Z M 185.734375 365.367188 " clip-rule="nonzero"/></clipPath><clipPath id="fe6fe1b870"><path d="M 185.734375 365.367188 L 383.566406 167.53125 L 581.855469 365.820312 L 384.019531 563.65625 Z M 185.734375 365.367188 " clip-rule="nonzero"/></clipPath><clipPath id="f2d02f74a2"><path d="M 353 271 L 414 271 L 414 332 L 353 332 Z M 353 271 " clip-rule="nonzero"/></clipPath><clipPath id="b3601364e5"><path d="M 167.566406 383.207031 L 383.410156 167.363281 L 600.847656 384.796875 L 385.003906 600.640625 Z M 167.566406 383.207031 " clip-rule="nonzero"/></clipPath><clipPath id="9ea098f733"><path d="M 167.566406 383.207031 L 383.410156 167.363281 L 600.847656 384.796875 L 385.003906 600.640625 Z M 167.566406 383.207031 " clip-rule="nonzero"/></clipPath><clipPath id="a4d133e0da"><path d="M 377 519 L 390 519 L 390 592 L 377 592 Z M 377 519 " clip-rule="nonzero"/></clipPath><clipPath id="b1aa05943b"><path d="M 167.566406 383.207031 L 383.410156 167.363281 L 600.847656 384.796875 L 385.003906 600.640625 Z M 167.566406 383.207031 " clip-rule="nonzero"/></clipPath><clipPath id="8a38ec300a"><path d="M 167.566406 383.207031 L 383.410156 167.363281 L 600.847656 384.796875 L 385.003906 600.640625 Z M 167.566406 383.207031 " clip-rule="nonzero"/></clipPath><clipPath id="f8f272705e"><path d="M 323 443 L 336 443 L 336 517 L 323 517 Z M 323 443 " clip-rule="nonzero"/></clipPath><clipPath id="047a525c24"><path d="M 167.566406 383.207031 L 383.410156 167.363281 L 600.847656 384.796875 L 385.003906 600.640625 Z M 167.566406 383.207031 " clip-rule="nonzero"/></clipPath><clipPath id="35c6b198c2"><path d="M 167.566406 383.207031 L 383.410156 167.363281 L 600.847656 384.796875 L 385.003906 600.640625 Z M 167.566406 383.207031 " clip-rule="nonzero"/></clipPath><clipPath id="74597070eb"><path d="M 349 494 L 361 494 L 361 568 L 349 568 Z M 349 494 " clip-rule="nonzero"/></clipPath><clipPath id="08fc238bce"><path d="M 167.566406 383.207031 L 383.410156 167.363281 L 600.847656 384.796875 L 385.003906 600.640625 Z M 167.566406 383.207031 " clip-rule="nonzero"/></clipPath><clipPath id="1a4bf65115"><path d="M 167.566406 383.207031 L 383.410156 167.363281 L 600.847656 384.796875 L 385.003906 600.640625 Z M 167.566406 383.207031 " clip-rule="nonzero"/></clipPath><clipPath id="afcca0aec2"><path d="M 434 443 L 447 443 L 447 517 L 434 517 Z M 434 443 " clip-rule="nonzero"/></clipPath><clipPath id="c5b423c8be"><path d="M 167.566406 383.207031 L 383.410156 167.363281 L 600.847656 384.796875 L 385.003906 600.640625 Z M 167.566406 383.207031 " clip-rule="nonzero"/></clipPath><clipPath id="a284ceca1f"><path d="M 167.566406 383.207031 L 383.410156 167.363281 L 600.847656 384.796875 L 385.003906 600.640625 Z M 167.566406 383.207031 " clip-rule="nonzero"/></clipPath><clipPath id="62ef1537ad"><path d="M 409 494 L 422 494 L 422 568 L 409 568 Z M 409 494 " clip-rule="nonzero"/></clipPath><clipPath id="7455bef6b3"><path d="M 167.566406 383.207031 L 383.410156 167.363281 L 600.847656 384.796875 L 385.003906 600.640625 Z M 167.566406 383.207031 " clip-rule="nonzero"/></clipPath><clipPath id="696e5cbcbf"><path d="M 167.566406 383.207031 L 383.410156 167.363281 L 600.847656 384.796875 L 385.003906 600.640625 Z M 167.566406 383.207031 " clip-rule="nonzero"/></clipPath><clipPath id="9a70dff0b7"><path d="M 375.835938 531.550781 L 415.492188 491.894531 L 454.523438 530.921875 L 414.867188 570.578125 Z M 375.835938 531.550781 " clip-rule="nonzero"/></clipPath><clipPath id="daeadba940"><path d="M 375.835938 531.550781 L 415.492188 491.894531 L 454.429688 530.828125 L 414.773438 570.484375 Z M 375.835938 531.550781 " clip-rule="nonzero"/></clipPath><clipPath id="ca5a96fcf1"><path d="M 354.515625 273.246094 L 412.265625 273.246094 L 412.265625 330.996094 L 354.515625 330.996094 Z M 354.515625 273.246094 " clip-rule="nonzero"/></clipPath><clipPath id="3c09a15975"><path d="M 360.515625 279.246094 L 406.265625 279.246094 L 406.265625 324.996094 L 360.515625 324.996094 Z M 360.515625 279.246094 " clip-rule="nonzero"/></clipPath><clipPath id="ffc062568c"><path d="M 0 0 L 188 0 L 188 187 L 0 187 Z M 0 0 " clip-rule="nonzero"/></clipPath><clipPath id="6169f1b4a7"><path d="M 79.324219 -138.722656 L 210.316406 -7.734375 L -7.121094 209.703125 L -138.113281 78.710938 Z M 79.324219 -138.722656 " clip-rule="nonzero"/></clipPath><clipPath id="ad7c990403"><path d="M 79.324219 -138.722656 L 210.316406 -7.734375 L -7.121094 209.703125 L -138.113281 78.710938 Z M 79.324219 -138.722656 " clip-rule="nonzero"/></clipPath><clipPath id="fc95f4d688"><path d="M 579 578 L 768 578 L 768 768 L 579 768 Z M 579 578 " clip-rule="nonzero"/></clipPath><clipPath id="412ad1fd56"><path d="M 687.910156 903.441406 L 556.917969 772.449219 L 774.351562 555.015625 L 905.34375 686.003906 Z M 687.910156 903.441406 " clip-rule="nonzero"/></clipPath><clipPath id="1db043d5b9"><path d="M 687.910156 903.441406 L 556.917969 772.449219 L 774.351562 555.015625 L 905.34375 686.003906 Z M 687.910156 903.441406 " clip-rule="nonzero"/></clipPath><clipPath id="7195f28ddc"><path d="M 0 577 L 188 577 L 188 768 L 0 768 Z M 0 577 " clip-rule="nonzero"/></clipPath><clipPath id="b1b7bb6a1e"><path d="M -137.894531 686.222656 L -6.90625 555.230469 L 210.53125 772.664062 L 79.539062 903.65625 Z M -137.894531 686.222656 " clip-rule="nonzero"/></clipPath><clipPath id="fafcb6748f"><path d="M -137.894531 686.222656 L -6.90625 555.230469 L 210.53125 772.664062 L 79.539062 903.65625 Z M -137.894531 686.222656 " clip-rule="nonzero"/></clipPath><clipPath id="2e236fa469"><path d="M 579 0 L 768 0 L 768 188 L 579 188 Z M 579 0 " clip-rule="nonzero"/></clipPath><clipPath id="02f51b6a5d"><path d="M 905.128906 78.496094 L 774.136719 209.488281 L 556.703125 -7.949219 L 687.695312 -138.941406 Z M 905.128906 78.496094 " clip-rule="nonzero"/></clipPath><clipPath id="36d86e2e45"><path d="M 905.128906 78.496094 L 774.136719 209.488281 L 556.703125 -7.949219 L 687.695312 -138.941406 Z M 905.128906 78.496094 " clip-rule="nonzero"/></clipPath><clipPath id="6c06cc5f59"><path d="M 320.074219 442.257812 L 331.527344 442.257812 L 331.527344 515.191406 L 320.074219 515.191406 Z M 320.074219 442.257812 " clip-rule="nonzero"/></clipPath><clipPath id="273b2bdc67"><path d="M 321.074219 510.226562 C 321.148438 503.25 321.148438 501.300781 321.074219 499.425781 C 321 497.476562 320.925781 495.523438 320.851562 493.648438 C 320.773438 491.851562 320.851562 490.050781 320.773438 488.25 C 320.773438 486.449219 320.625 484.726562 320.625 482.925781 C 320.550781 481.125 320.550781 479.324219 320.550781 477.523438 C 320.476562 475.726562 320.476562 473.925781 320.398438 472.125 C 320.398438 470.324219 320.324219 468.601562 320.324219 466.800781 C 320.324219 465 320.324219 463.199219 320.324219 461.398438 C 320.324219 459.601562 320.25 457.800781 320.25 456 C 320.25 454.199219 320.175781 452.101562 320.175781 450.675781 C 320.175781 449.699219 320.101562 448.875 320.175781 448.125 C 320.25 447.449219 320.324219 446.925781 320.476562 446.324219 C 320.699219 445.726562 320.925781 445.125 321.300781 444.675781 C 321.675781 444.226562 322.125 443.773438 322.648438 443.476562 C 323.175781 443.101562 323.699219 442.800781 324.300781 442.648438 C 324.898438 442.5 325.5 442.5 326.101562 442.5 C 326.699219 442.5 327.375 442.648438 327.898438 442.875 C 328.5 443.101562 329.023438 443.476562 329.476562 443.851562 C 329.925781 444.226562 330.375 444.675781 330.675781 445.199219 C 330.976562 445.726562 331.199219 446.324219 331.351562 446.925781 C 331.5 447.523438 331.5 448.125 331.425781 448.726562 C 331.351562 449.324219 331.125 449.925781 330.898438 450.449219 C 330.675781 450.976562 330.375 451.574219 329.925781 452.023438 C 329.550781 452.476562 328.949219 452.773438 328.425781 453.074219 C 327.898438 453.375 327.300781 453.601562 326.699219 453.675781 C 326.101562 453.75 325.5 453.75 324.898438 453.675781 C 324.300781 453.601562 323.699219 453.375 323.175781 453.074219 C 322.648438 452.773438 322.125 452.476562 321.75 452.023438 C 321.300781 451.574219 320.925781 450.976562 320.699219 450.449219 C 320.476562 449.925781 320.324219 449.324219 320.25 448.726562 C 320.175781 448.125 320.175781 447.523438 320.324219 446.925781 C 320.476562 446.324219 320.699219 445.726562 321 445.199219 C 321.300781 444.675781 321.75 444.226562 322.199219 443.851562 C 322.648438 443.476562 323.175781 443.101562 323.699219 442.875 C 324.226562 442.648438 324.898438 442.5 325.5 442.5 C 326.101562 442.5 326.699219 442.5 327.300781 442.648438 C 327.898438 442.800781 328.425781 443.101562 328.949219 443.476562 C 329.476562 443.773438 329.925781 444.226562 330.300781 444.675781 C 330.675781 445.125 330.898438 445.726562 331.125 446.324219 C 331.273438 446.925781 331.425781 448.125 331.425781 448.125 C 331.425781 448.125 331.425781 449.699219 331.425781 450.675781 C 331.425781 452.101562 331.425781 454.199219 331.425781 456 C 331.425781 457.800781 331.351562 459.601562 331.351562 461.398438 C 331.351562 463.199219 331.273438 465 331.273438 466.800781 C 331.273438 468.601562 331.199219 470.324219 331.199219 472.125 C 331.199219 473.925781 331.125 475.726562 331.125 477.523438 C 331.125 479.324219 331.125 481.125 331.050781 482.925781 C 331.050781 484.726562 330.976562 486.449219 330.898438 488.25 C 330.824219 490.050781 330.824219 491.851562 330.75 493.648438 C 330.675781 495.523438 330.675781 497.550781 330.601562 499.425781 C 330.523438 501.300781 330.449219 503.25 330.449219 505.050781 C 330.449219 506.773438 330.675781 509.101562 330.601562 510.226562 C 330.601562 510.75 330.523438 510.976562 330.449219 511.351562 C 330.375 511.726562 330.148438 512.101562 330 512.398438 C 329.851562 512.773438 329.625 513.074219 329.398438 513.375 C 329.175781 513.675781 328.800781 513.898438 328.5 514.125 C 328.199219 514.351562 327.898438 514.5 327.523438 514.648438 C 327.148438 514.800781 326.773438 514.875 326.398438 514.949219 C 326.023438 515.023438 325.648438 515.023438 325.273438 514.949219 C 324.898438 514.875 324.523438 514.800781 324.148438 514.648438 C 323.773438 514.5 323.398438 514.351562 323.101562 514.125 C 322.800781 513.898438 322.5 513.675781 322.273438 513.375 C 322.050781 513.074219 321.75 512.773438 321.601562 512.398438 C 321.449219 512.101562 321.300781 511.726562 321.226562 511.351562 C 321.148438 510.976562 321.074219 510.226562 321.074219 510.226562 " clip-rule="nonzero"/></clipPath><clipPath id="49a399a174"><path d="M 346.933594 496.125 L 358.371094 496.125 L 358.371094 565.125 L 346.933594 565.125 Z M 346.933594 496.125 " clip-rule="nonzero"/></clipPath><clipPath id="61207a8dd2"><path d="M 347.925781 560.324219 C 347.925781 554.625 347.851562 552.976562 347.773438 551.25 C 347.699219 549.449219 347.699219 547.425781 347.625 545.550781 C 347.625 543.75 347.625 541.949219 347.550781 540.148438 C 347.550781 538.351562 347.398438 536.625 347.398438 534.824219 C 347.324219 533.023438 347.324219 531.226562 347.324219 529.425781 C 347.324219 527.625 347.25 525.898438 347.25 524.101562 C 347.25 522.300781 347.175781 520.5 347.175781 518.699219 C 347.175781 516.898438 347.101562 515.101562 347.101562 513.300781 C 347.101562 511.5 347.101562 509.851562 347.101562 507.976562 C 347.101562 506.023438 346.949219 503.25 347.023438 501.824219 C 347.101562 501.074219 347.175781 500.625 347.324219 500.023438 C 347.550781 499.425781 347.773438 498.824219 348.148438 498.375 C 348.523438 497.925781 348.976562 497.476562 349.5 497.175781 C 350.023438 496.800781 350.550781 496.5 351.148438 496.351562 C 351.75 496.199219 352.351562 496.199219 352.949219 496.199219 C 353.550781 496.199219 354.226562 496.351562 354.75 496.574219 C 355.351562 496.800781 355.875 497.175781 356.324219 497.550781 C 356.773438 497.925781 357.226562 498.375 357.523438 498.898438 C 357.824219 499.425781 358.050781 500.023438 358.199219 500.625 C 358.351562 501.226562 358.351562 501.824219 358.273438 502.425781 C 358.199219 503.023438 358.050781 503.699219 357.824219 504.226562 C 357.601562 504.75 357.226562 505.273438 356.773438 505.726562 C 356.398438 506.175781 355.875 506.476562 355.351562 506.773438 C 354.824219 507.074219 354.148438 507.300781 353.550781 507.375 C 352.949219 507.449219 352.351562 507.449219 351.75 507.375 C 351.148438 507.300781 350.550781 507.074219 350.023438 506.773438 C 349.5 506.476562 348.976562 506.175781 348.601562 505.726562 C 348.148438 505.273438 347.773438 504.75 347.550781 504.226562 C 347.25 503.699219 347.101562 503.023438 347.023438 502.425781 C 346.949219 501.824219 347.023438 501.226562 347.175781 500.625 C 347.324219 500.023438 347.550781 499.425781 347.851562 498.898438 C 348.148438 498.375 348.601562 497.925781 349.050781 497.550781 C 349.5 497.175781 350.023438 496.800781 350.550781 496.574219 C 351.074219 496.351562 351.75 496.199219 352.351562 496.199219 C 352.949219 496.199219 353.550781 496.199219 354.148438 496.351562 C 354.75 496.5 355.351562 496.800781 355.875 497.175781 C 356.324219 497.476562 356.773438 497.925781 357.148438 498.375 C 357.523438 498.824219 357.824219 499.425781 358.050781 500.023438 C 358.273438 500.625 358.351562 501.824219 358.351562 501.824219 C 358.351562 501.824219 358.273438 506.023438 358.273438 507.976562 C 358.273438 509.851562 358.199219 511.5 358.199219 513.300781 C 358.199219 515.101562 358.199219 516.898438 358.199219 518.699219 C 358.199219 520.5 358.125 522.300781 358.125 524.101562 C 358.125 525.898438 358.050781 527.625 358.050781 529.425781 C 357.976562 531.226562 357.976562 533.023438 357.898438 534.824219 C 357.898438 536.625 357.824219 538.351562 357.824219 540.148438 C 357.75 541.949219 357.75 543.75 357.675781 545.550781 C 357.601562 547.425781 357.601562 549.449219 357.523438 551.25 C 357.523438 552.976562 357.449219 554.625 357.449219 556.199219 C 357.449219 557.625 357.523438 559.351562 357.449219 560.324219 C 357.449219 560.851562 357.375 561.074219 357.300781 561.449219 C 357.226562 561.824219 357.074219 562.199219 356.925781 562.574219 C 356.773438 562.875 356.476562 563.175781 356.25 563.476562 C 355.949219 563.773438 355.648438 564.074219 355.351562 564.300781 C 355.050781 564.523438 354.75 564.675781 354.375 564.824219 C 354 564.976562 353.625 565.050781 353.25 565.050781 C 352.875 565.050781 352.5 565.050781 352.125 565.050781 C 351.75 565.050781 351.375 564.976562 351 564.824219 C 350.625 564.675781 350.25 564.523438 349.949219 564.300781 C 349.648438 564.074219 349.351562 563.773438 349.125 563.476562 C 348.898438 563.175781 348.601562 562.875 348.449219 562.574219 C 348.226562 562.199219 348.074219 561.824219 348 561.449219 C 347.925781 561.074219 347.925781 560.324219 347.925781 560.324219 " clip-rule="nonzero"/></clipPath><clipPath id="847fb79bd1"><path d="M 375.585938 519.445312 L 387 519.445312 L 387 590.476562 L 375.585938 590.476562 Z M 375.585938 519.445312 " clip-rule="nonzero"/></clipPath><clipPath id="d33a2a8524"><path d="M 376.5 585.375 C 376.574219 579.675781 376.5 578.023438 376.425781 576.300781 C 376.351562 574.5 376.351562 572.476562 376.273438 570.601562 C 376.199219 568.800781 376.125 567.074219 376.125 565.273438 C 376.050781 563.476562 376.050781 561.675781 376.050781 559.875 C 376.050781 558.074219 375.976562 556.273438 375.976562 554.476562 C 375.976562 552.675781 375.898438 550.949219 375.898438 549.148438 C 375.898438 547.351562 375.824219 545.550781 375.824219 543.75 C 375.824219 541.949219 375.75 540.148438 375.75 538.351562 C 375.75 536.550781 375.75 534.824219 375.75 533.023438 C 375.75 531.226562 375.675781 529.125 375.675781 527.625 C 375.675781 526.648438 375.601562 525.824219 375.675781 525.074219 C 375.75 524.398438 375.75 523.875 375.976562 523.273438 C 376.125 522.75 376.425781 522.148438 376.800781 521.699219 C 377.175781 521.25 377.625 520.800781 378.148438 520.425781 C 378.675781 520.125 379.199219 519.824219 379.800781 519.675781 C 380.398438 519.523438 381 519.449219 381.601562 519.449219 C 382.199219 519.449219 382.875 519.601562 383.398438 519.824219 C 384 520.050781 384.523438 520.425781 384.976562 520.800781 C 385.425781 521.175781 385.875 521.625 386.175781 522.148438 C 386.476562 522.675781 386.699219 523.273438 386.851562 523.875 C 387 524.476562 387 525.074219 386.925781 525.675781 C 386.851562 526.273438 386.699219 526.949219 386.476562 527.476562 C 386.25 528 385.875 528.523438 385.425781 528.976562 C 385.050781 529.425781 384.523438 529.800781 384 530.101562 C 383.476562 530.398438 382.800781 530.625 382.199219 530.699219 C 381.601562 530.773438 381 530.773438 380.398438 530.699219 C 379.800781 530.625 379.199219 530.398438 378.675781 530.101562 C 378.148438 529.800781 377.625 529.425781 377.175781 528.976562 C 376.800781 528.523438 376.425781 528 376.199219 527.476562 C 375.976562 526.949219 375.75 526.273438 375.675781 525.675781 C 375.601562 525.074219 375.675781 524.476562 375.824219 523.875 C 375.976562 523.273438 376.199219 522.675781 376.5 522.148438 C 376.800781 521.625 377.175781 521.175781 377.625 520.800781 C 378.074219 520.425781 378.601562 520.050781 379.199219 519.824219 C 379.726562 519.601562 380.398438 519.449219 381 519.449219 C 381.601562 519.449219 382.199219 519.523438 382.800781 519.675781 C 383.398438 519.824219 384 520.050781 384.523438 520.425781 C 385.050781 520.726562 385.425781 521.25 385.800781 521.699219 C 386.175781 522.148438 386.476562 522.75 386.699219 523.273438 C 386.925781 523.875 387 525.074219 387 525.074219 C 387 525.074219 386.925781 526.648438 386.925781 527.625 C 386.925781 529.125 386.925781 531.226562 386.925781 533.023438 C 386.925781 534.824219 386.851562 536.550781 386.851562 538.351562 C 386.851562 540.148438 386.851562 541.949219 386.851562 543.75 C 386.851562 545.550781 386.773438 547.351562 386.773438 549.148438 C 386.773438 550.949219 386.699219 552.675781 386.699219 554.476562 C 386.625 556.273438 386.625 558.074219 386.550781 559.875 C 386.550781 561.675781 386.550781 563.476562 386.476562 565.273438 C 386.476562 567.074219 386.398438 568.800781 386.324219 570.601562 C 386.25 572.476562 386.25 574.5 386.175781 576.300781 C 386.175781 578.023438 386.101562 579.675781 386.101562 581.25 C 386.101562 582.675781 386.175781 584.398438 386.101562 585.375 C 386.101562 585.898438 386.023438 586.199219 385.949219 586.574219 C 385.875 586.949219 385.726562 587.324219 385.574219 587.625 C 385.425781 588 385.199219 588.300781 384.898438 588.601562 C 384.675781 588.898438 384.300781 589.125 384 589.351562 C 383.699219 589.574219 383.398438 589.726562 383.023438 589.875 C 382.648438 590.023438 382.273438 590.101562 381.898438 590.175781 C 381.523438 590.25 381.148438 590.25 380.773438 590.175781 C 380.398438 590.101562 380.023438 590.023438 379.648438 589.875 C 379.273438 589.726562 378.898438 589.574219 378.601562 589.351562 C 378.300781 589.125 377.925781 588.898438 377.699219 588.601562 C 377.476562 588.300781 377.25 588 377.101562 587.625 C 376.949219 587.324219 376.726562 586.949219 376.648438 586.574219 C 376.574219 586.199219 376.5 585.375 376.5 585.375 " clip-rule="nonzero"/></clipPath><clipPath id="ab64bd61b7"><path d="M 407.761719 492.421875 L 420.167969 492.421875 L 420.167969 567 L 407.761719 567 Z M 407.761719 492.421875 " clip-rule="nonzero"/></clipPath><clipPath id="8285b8f100"><path d="M 410.625 562.125 C 410.699219 555.148438 410.851562 553.125 410.550781 551.398438 C 410.25 549.75 409.5 548.324219 409.125 546.75 C 408.824219 545.25 408.675781 543.75 408.523438 542.175781 C 408.375 540.523438 408.449219 538.726562 408.449219 536.925781 C 408.375 535.050781 408.375 533.101562 408.300781 531.226562 C 408.300781 529.425781 408.226562 527.625 408.226562 525.824219 C 408.226562 524.023438 408.148438 522.300781 408.148438 520.5 C 408.148438 518.699219 408.074219 516.898438 408.074219 515.101562 C 408.074219 513.300781 408 511.574219 408 509.773438 C 408 507.976562 407.925781 506.25 407.925781 504.375 C 407.925781 502.425781 407.773438 499.648438 407.925781 498.226562 C 408 497.476562 408 497.023438 408.226562 496.425781 C 408.375 495.898438 408.675781 495.300781 409.050781 494.851562 C 409.425781 494.398438 409.875 493.949219 410.398438 493.574219 C 410.925781 493.273438 411.449219 492.976562 412.050781 492.824219 C 412.648438 492.675781 413.25 492.601562 413.851562 492.601562 C 414.449219 492.601562 415.125 492.75 415.648438 492.976562 C 416.25 493.199219 416.773438 493.574219 417.226562 493.949219 C 417.675781 494.324219 418.050781 494.773438 418.351562 495.300781 C 418.648438 495.824219 418.875 496.425781 419.023438 497.023438 C 419.175781 497.625 419.25 498.226562 419.175781 498.824219 C 419.101562 499.425781 418.949219 500.101562 418.648438 500.625 C 418.425781 501.148438 418.050781 501.675781 417.601562 502.125 C 417.226562 502.574219 416.699219 502.949219 416.175781 503.25 C 415.648438 503.550781 415.050781 503.699219 414.449219 503.773438 C 413.851562 503.851562 413.25 503.851562 412.648438 503.773438 C 412.050781 503.699219 411.449219 503.550781 410.925781 503.25 C 410.398438 502.949219 409.875 502.574219 409.425781 502.125 C 409.050781 501.675781 408.675781 501.148438 408.449219 500.625 C 408.226562 500.101562 408 499.425781 407.925781 498.824219 C 407.851562 498.226562 407.851562 497.625 408 497.023438 C 408.148438 496.425781 408.375 495.824219 408.675781 495.300781 C 408.976562 494.773438 409.425781 494.324219 409.875 493.949219 C 410.324219 493.574219 410.851562 493.199219 411.449219 492.976562 C 411.976562 492.75 412.648438 492.601562 413.25 492.601562 C 413.851562 492.601562 414.449219 492.675781 415.050781 492.824219 C 415.648438 492.976562 416.175781 493.273438 416.699219 493.574219 C 417.226562 493.949219 417.675781 494.398438 418.050781 494.851562 C 418.425781 495.300781 418.726562 495.898438 418.875 496.425781 C 419.101562 497.023438 419.175781 498.226562 419.175781 498.226562 C 419.175781 498.226562 419.175781 499.800781 419.175781 500.773438 C 419.175781 502.273438 419.101562 504.375 419.101562 506.175781 C 419.101562 507.976562 419.101562 509.699219 419.101562 511.5 C 419.101562 513.300781 419.023438 515.101562 419.023438 516.898438 C 419.023438 518.699219 418.949219 520.5 418.949219 522.300781 C 418.949219 524.101562 418.875 525.824219 418.875 527.625 C 418.800781 529.425781 418.726562 531.226562 418.726562 533.101562 C 418.648438 535.050781 418.574219 537 418.648438 539.023438 C 418.800781 541.273438 419.25 543.75 419.476562 545.925781 C 419.699219 547.875 420 549.601562 420.074219 551.398438 C 420.148438 553.273438 420 555.148438 420 556.949219 C 420 558.675781 420.148438 561 420.074219 562.125 C 420.074219 562.648438 420 562.875 419.925781 563.25 C 419.851562 563.625 419.699219 564 419.550781 564.300781 C 419.398438 564.675781 419.101562 564.976562 418.875 565.273438 C 418.648438 565.574219 418.351562 565.800781 418.050781 566.023438 C 417.75 566.25 417.375 566.398438 417 566.550781 C 416.625 566.699219 416.25 566.773438 415.875 566.851562 C 415.5 566.925781 415.125 566.925781 414.75 566.851562 C 414.375 566.773438 414 566.699219 413.625 566.550781 C 413.25 566.398438 412.949219 566.25 412.648438 566.023438 C 412.351562 565.800781 411.976562 565.574219 411.75 565.273438 C 411.523438 564.976562 411.300781 564.675781 411.148438 564.300781 C 411 564 410.773438 563.625 410.699219 563.25 C 410.625 562.875 410.625 562.125 410.625 562.125 " clip-rule="nonzero"/></clipPath><clipPath id="7450bd59f4"><path d="M 433.085938 444.433594 L 444 444.433594 L 444 513 L 433.085938 513 Z M 433.085938 444.433594 " clip-rule="nonzero"/></clipPath><clipPath id="5870a700d9"><path d="M 433.949219 508.425781 C 434.324219 498.898438 434.25 496.5 434.175781 494.324219 C 434.101562 492.375 434.101562 490.574219 434.023438 488.699219 C 433.949219 486.75 433.875 484.875 433.800781 482.925781 C 433.726562 480.824219 433.648438 478.648438 433.648438 476.476562 C 433.574219 474.148438 433.648438 471.601562 433.574219 469.351562 C 433.574219 467.25 433.5 465.226562 433.425781 463.273438 C 433.425781 461.398438 433.425781 459.601562 433.351562 457.800781 C 433.351562 456 433.199219 453.898438 433.199219 452.476562 C 433.199219 451.5 433.125 450.675781 433.199219 449.925781 C 433.273438 449.324219 433.351562 448.726562 433.5 448.199219 C 433.726562 447.675781 433.949219 447.074219 434.324219 446.625 C 434.699219 446.175781 435.148438 445.726562 435.601562 445.425781 C 436.050781 445.125 436.648438 444.824219 437.175781 444.675781 C 437.699219 444.523438 438.300781 444.523438 438.898438 444.523438 C 439.5 444.523438 440.101562 444.675781 440.625 444.898438 C 441.148438 445.125 441.675781 445.425781 442.125 445.800781 C 442.574219 446.175781 442.949219 446.625 443.25 447.148438 C 443.550781 447.601562 443.699219 448.199219 443.851562 448.726562 C 444 449.324219 444 449.925781 443.925781 450.523438 C 443.851562 451.125 443.699219 451.648438 443.476562 452.175781 C 443.25 452.699219 442.875 453.148438 442.5 453.601562 C 442.125 453.976562 441.675781 454.351562 441.148438 454.648438 C 440.625 454.949219 440.101562 455.175781 439.5 455.25 C 438.898438 455.324219 438.300781 455.324219 437.699219 455.25 C 437.101562 455.175781 436.574219 454.949219 436.050781 454.648438 C 435.523438 454.351562 435.074219 453.976562 434.699219 453.601562 C 434.324219 453.148438 433.949219 452.699219 433.726562 452.175781 C 433.5 451.648438 433.351562 451.050781 433.273438 450.449219 C 433.199219 449.851562 433.199219 449.25 433.351562 448.726562 C 433.5 448.199219 433.648438 447.601562 433.949219 447.148438 C 434.25 446.625 434.625 446.175781 435.074219 445.800781 C 435.523438 445.425781 436.050781 445.125 436.574219 444.898438 C 437.101562 444.675781 437.699219 444.523438 438.300781 444.523438 C 438.898438 444.523438 439.5 444.523438 440.023438 444.675781 C 440.550781 444.824219 441.148438 445.125 441.601562 445.425781 C 442.050781 445.726562 442.5 446.175781 442.875 446.625 C 443.25 447.074219 443.476562 447.675781 443.699219 448.199219 C 443.851562 448.726562 444 449.925781 444 449.925781 C 444 449.925781 444 451.5 444 452.476562 C 444 453.898438 443.851562 456 443.851562 457.800781 C 443.773438 459.601562 443.773438 461.398438 443.773438 463.273438 C 443.699219 465.226562 443.625 467.25 443.625 469.351562 C 443.550781 471.601562 443.625 474.148438 443.550781 476.476562 C 443.550781 478.648438 443.476562 480.824219 443.398438 482.925781 C 443.324219 484.875 443.25 486.75 443.175781 488.699219 C 443.101562 490.574219 443.101562 492.375 443.023438 494.324219 C 442.949219 496.5 442.875 498.898438 442.875 501.226562 C 442.875 503.625 443.324219 507.074219 443.25 508.425781 C 443.25 508.949219 443.175781 509.175781 443.101562 509.550781 C 443.023438 509.925781 442.875 510.300781 442.726562 510.601562 C 442.574219 510.898438 442.273438 511.199219 442.050781 511.5 C 441.824219 511.800781 441.523438 512.023438 441.226562 512.25 C 440.925781 512.476562 440.625 512.625 440.25 512.773438 C 439.875 512.925781 439.5 513 439.125 513 C 438.75 513 438.449219 513 438.074219 513 C 437.699219 513 437.324219 512.925781 436.949219 512.773438 C 436.574219 512.625 436.273438 512.476562 435.976562 512.25 C 435.675781 512.023438 435.375 511.800781 435.148438 511.5 C 434.925781 511.199219 434.625 510.898438 434.476562 510.601562 C 434.324219 510.300781 434.175781 509.925781 434.101562 509.550781 C 434.023438 509.175781 433.949219 508.425781 433.949219 508.425781 " clip-rule="nonzero"/></clipPath></defs><rect x="-76.8" width="921.6" fill="#ffffff" y="-76.799999" height="921.599993" fill-opacity="1"/><rect x="-76.8" width="921.6" fill="#ffffff" y="-76.799999" height="921.599993" fill-opacity="1"/><g clip-path="url(#7501b17c66)"><g clip-path="url(#07a077e34c)"><g clip-path="url(#327daa050f)"><g clip-path="url(#8e18c303ec)"><g clip-path="url(#fe6fe1b870)"><path fill="#8447ff" d="M 426.078125 410.179688 C 430.296875 397.113281 433.945312 382.339844 436.859375 366.773438 C 460.703125 383.277344 476.585938 410.507812 477.417969 441.433594 C 462.765625 427.160156 445.207031 416.535156 426.078125 410.179688 Z M 400.296875 450.804688 C 400.300781 466.453125 389.539062 480.410156 383.566406 486.953125 C 377.597656 480.4375 366.851562 466.523438 366.855469 450.804688 C 366.851562 443.804688 367.742188 437.367188 369.203125 431.832031 L 397.945312 431.832031 C 399.410156 437.367188 400.296875 443.804688 400.296875 450.804688 Z M 289.730469 441.429688 C 290.5625 410.5 306.445312 383.273438 330.285156 366.769531 C 333.203125 382.335938 336.847656 397.109375 341.070312 410.175781 C 321.941406 416.53125 304.386719 427.15625 289.730469 441.429688 Z M 383.582031 187.144531 C 390.34375 191.441406 408.292969 204.601562 420.539062 229.605469 L 346.609375 229.605469 C 358.820312 204.714844 376.832031 191.464844 383.582031 187.144531 Z M 410.84375 418.09375 C 410.585938 418.765625 410.328125 419.441406 410.066406 420.097656 L 406.4375 420.101562 L 357.082031 420.097656 C 356.820312 419.441406 356.5625 418.765625 356.304688 418.09375 C 354.941406 414.5625 353.621094 410.847656 352.359375 406.96875 C 347.839844 393.09375 343.992188 377.15625 341.023438 360.351562 C 340.316406 356.355469 339.660156 352.3125 339.054688 348.234375 C 336 327.613281 334.289062 306.160156 334.289062 285.929688 C 334.285156 269.984375 336.761719 255.007812 341.652344 241.34375 L 425.488281 241.339844 C 430.378906 255.007812 432.855469 269.988281 432.859375 285.933594 C 432.859375 306.15625 431.148438 327.617188 428.09375 348.238281 C 427.492188 352.3125 426.832031 356.355469 426.125 360.351562 C 423.152344 377.15625 419.3125 393.09375 414.792969 406.96875 C 413.523438 410.847656 412.210938 414.566406 410.84375 418.09375 Z M 439.03125 354.152344 C 442.585938 331.652344 444.589844 308.054688 444.59375 285.933594 C 444.59375 267.042969 441.363281 249.339844 435 233.308594 C 418.691406 192.242188 387.582031 175.789062 386.265625 175.105469 C 384.574219 174.234375 382.570312 174.234375 380.878906 175.109375 C 379.5625 175.789062 348.453125 192.246094 332.144531 233.308594 C 325.78125 249.339844 322.550781 267.042969 322.554688 285.929688 C 322.550781 308.054688 324.5625 331.648438 328.113281 354.148438 C 298.039062 372.785156 277.960938 406.082031 277.960938 443.988281 C 277.964844 447.980469 278.214844 452.144531 278.710938 456.375 C 278.984375 458.707031 280.617188 460.648438 282.871094 461.320312 C 285.117188 461.984375 287.550781 461.246094 289.050781 459.441406 C 303.972656 441.472656 323.371094 428.398438 344.945312 421.257812 C 345.863281 423.675781 346.800781 426.015625 347.757812 428.265625 C 348.683594 430.429688 350.804688 431.832031 353.15625 431.832031 L 357.070312 431.832031 C 355.808594 437.636719 355.117188 444.019531 355.117188 450.804688 C 355.117188 477.707031 378.691406 498.792969 379.695312 499.675781 C 380.804688 500.65625 382.191406 501.144531 383.574219 501.140625 C 384.960938 501.140625 386.347656 500.65625 387.453125 499.675781 C 388.457031 498.792969 412.035156 477.703125 412.035156 450.804688 C 412.03125 444.023438 411.34375 437.636719 410.082031 431.832031 L 413.992188 431.832031 C 416.347656 431.835938 418.46875 430.429688 419.390625 428.265625 C 420.347656 426.019531 421.285156 423.675781 422.199219 421.261719 C 443.78125 428.398438 463.175781 441.476562 478.101562 459.441406 C 479.234375 460.808594 480.898438 461.566406 482.613281 461.566406 C 483.167969 461.566406 483.730469 461.484375 484.28125 461.320312 C 486.53125 460.652344 488.167969 458.710938 488.441406 456.378906 C 488.933594 452.148438 489.1875 447.980469 489.1875 443.992188 C 489.1875 406.085938 469.109375 372.785156 439.03125 354.152344 " fill-opacity="1" fill-rule="nonzero"/></g></g></g></g></g><g clip-path="url(#f2d02f74a2)"><g clip-path="url(#b3601364e5)"><g clip-path="url(#9ea098f733)"><path fill="#8447ff" d="M 383.570312 319.574219 C 373.652344 319.570312 365.582031 311.5 365.578125 301.582031 C 365.578125 291.65625 373.648438 283.585938 383.574219 283.585938 C 393.492188 283.585938 401.566406 291.660156 401.566406 301.578125 C 401.566406 311.503906 393.496094 319.574219 383.570312 319.574219 Z M 383.570312 271.851562 C 367.179688 271.851562 353.84375 285.1875 353.84375 301.578125 C 353.847656 317.972656 367.179688 331.304688 383.570312 331.304688 C 399.964844 331.304688 413.300781 317.96875 413.300781 301.578125 C 413.300781 285.1875 399.964844 271.851562 383.570312 271.851562 " fill-opacity="1" fill-rule="nonzero"/></g></g></g><g clip-path="url(#a4d133e0da)"><g clip-path="url(#b1aa05943b)"><g clip-path="url(#8a38ec300a)"><path fill="#8447ff" d="M 383.574219 519.0625 C 380.335938 519.0625 377.707031 521.6875 377.707031 524.929688 L 377.710938 585.949219 C 377.710938 589.191406 380.335938 591.816406 383.578125 591.816406 C 386.816406 591.816406 389.441406 589.191406 389.441406 585.949219 L 389.441406 524.929688 C 389.441406 521.6875 386.816406 519.0625 383.574219 519.0625 " fill-opacity="1" fill-rule="nonzero"/></g></g></g><g clip-path="url(#f8f272705e)"><g clip-path="url(#047a525c24)"><g clip-path="url(#35c6b198c2)"><path fill="#8447ff" d="M 329.59375 443.960938 C 326.355469 443.957031 323.726562 446.585938 323.726562 449.828125 L 323.726562 510.847656 C 323.726562 514.085938 326.355469 516.714844 329.59375 516.714844 C 332.835938 516.714844 335.464844 514.089844 335.460938 510.847656 L 335.460938 449.828125 C 335.464844 446.589844 332.835938 443.960938 329.59375 443.960938 " fill-opacity="1" fill-rule="nonzero"/></g></g></g><g clip-path="url(#74597070eb)"><g clip-path="url(#08fc238bce)"><g clip-path="url(#1a4bf65115)"><path fill="#8447ff" d="M 355.109375 494.808594 C 351.871094 494.808594 349.242188 497.4375 349.242188 500.675781 L 349.242188 561.695312 C 349.242188 564.9375 351.871094 567.566406 355.109375 567.5625 C 358.351562 567.5625 360.976562 564.9375 360.976562 561.695312 L 360.976562 500.675781 C 360.976562 497.4375 358.347656 494.808594 355.109375 494.808594 " fill-opacity="1" fill-rule="nonzero"/></g></g></g><g clip-path="url(#afcca0aec2)"><g clip-path="url(#c5b423c8be)"><g clip-path="url(#a284ceca1f)"><path fill="#8447ff" d="M 440.769531 443.960938 C 437.53125 443.960938 434.902344 446.585938 434.902344 449.828125 L 434.90625 510.847656 C 434.90625 514.089844 437.53125 516.71875 440.769531 516.714844 C 444.011719 516.714844 446.636719 514.089844 446.636719 510.847656 L 446.640625 449.832031 C 446.640625 446.589844 444.011719 443.960938 440.769531 443.960938 " fill-opacity="1" fill-rule="nonzero"/></g></g></g><g clip-path="url(#62ef1537ad)"><g clip-path="url(#7455bef6b3)"><g clip-path="url(#696e5cbcbf)"><g clip-path="url(#9a70dff0b7)"><g clip-path="url(#daeadba940)"><path fill="#8447ff" d="M 415.257812 494.8125 C 412.019531 494.808594 409.390625 497.4375 409.390625 500.679688 L 409.390625 561.699219 C 409.390625 564.9375 412.019531 567.566406 415.257812 567.566406 C 418.503906 567.566406 421.128906 564.9375 421.128906 561.695312 L 421.128906 500.679688 C 421.128906 497.441406 418.5 494.8125 415.257812 494.8125 " fill-opacity="1" fill-rule="nonzero"/></g></g></g></g></g><g clip-path="url(#ca5a96fcf1)"><path fill="#8cffda" d="M 383.390625 273.246094 C 367.4375 273.246094 354.515625 286.164062 354.515625 302.121094 C 354.515625 318.074219 367.4375 330.996094 383.390625 330.996094 C 399.34375 330.996094 412.265625 318.074219 412.265625 302.121094 C 412.265625 286.164062 399.34375 273.246094 383.390625 273.246094 Z M 383.390625 325.21875 C 370.628906 325.21875 360.292969 314.882812 360.292969 302.121094 C 360.292969 289.355469 370.628906 279.019531 383.390625 279.019531 C 396.15625 279.019531 406.492188 289.355469 406.492188 302.121094 C 406.492188 314.882812 396.15625 325.21875 383.390625 325.21875 Z M 383.390625 325.21875 " fill-opacity="1" fill-rule="nonzero"/></g><g clip-path="url(#3c09a15975)"><path fill="#8cffda" d="M 383.390625 279.246094 C 370.753906 279.246094 360.515625 289.480469 360.515625 302.121094 C 360.515625 314.757812 370.753906 324.996094 383.390625 324.996094 C 396.03125 324.996094 406.265625 314.757812 406.265625 302.121094 C 406.265625 289.480469 396.03125 279.246094 383.390625 279.246094 Z M 383.390625 320.417969 C 373.28125 320.417969 365.09375 312.230469 365.09375 302.121094 C 365.09375 292.007812 373.28125 283.820312 383.390625 283.820312 C 393.503906 283.820312 401.691406 292.007812 401.691406 302.121094 C 401.691406 312.230469 393.503906 320.417969 383.390625 320.417969 Z M 383.390625 320.417969 " fill-opacity="1" fill-rule="nonzero"/></g><g clip-path="url(#ffc062568c)"><g clip-path="url(#6169f1b4a7)"><g clip-path="url(#ad7c990403)"><path fill="#8447ff" d="M -29.746094 186.601562 L -29.734375 -29.628906 L 187.996094 -29.640625 L 187.996094 14.632812 L 14.539062 14.640625 L 14.527344 186.601562 L -29.746094 186.601562 " fill-opacity="1" fill-rule="nonzero"/></g></g></g><g clip-path="url(#fc95f4d688)"><g clip-path="url(#412ad1fd56)"><g clip-path="url(#1db043d5b9)"><path fill="#8447ff" d="M 796.980469 578.113281 L 796.964844 794.34375 L 579.234375 794.355469 L 579.234375 750.082031 L 752.695312 750.074219 L 752.707031 578.113281 L 796.980469 578.113281 " fill-opacity="1" fill-rule="nonzero"/></g></g></g><g clip-path="url(#7195f28ddc)"><g clip-path="url(#b1b7bb6a1e)"><g clip-path="url(#fafcb6748f)"><path fill="#8447ff" d="M 187.429688 795.292969 L -28.800781 795.277344 L -28.8125 577.546875 L 15.460938 577.546875 L 15.46875 751.007812 L 187.429688 751.019531 L 187.429688 795.292969 " fill-opacity="1" fill-rule="nonzero"/></g></g></g><g clip-path="url(#2e236fa469)"><g clip-path="url(#02f51b6a5d)"><g clip-path="url(#36d86e2e45)"><path fill="#8447ff" d="M 579.800781 -30.574219 L 796.03125 -30.5625 L 796.042969 187.167969 L 751.769531 187.167969 L 751.761719 13.710938 L 579.800781 13.699219 L 579.800781 -30.574219 " fill-opacity="1" fill-rule="nonzero"/></g></g></g><g clip-path="url(#6c06cc5f59)"><g clip-path="url(#273b2bdc67)"><path fill="#8cffda" d="M 317.175781 439.5 L 334.425781 439.5 L 334.425781 517.949219 L 317.175781 517.949219 Z M 317.175781 439.5 " fill-opacity="1" fill-rule="nonzero"/></g></g><g clip-path="url(#49a399a174)"><g clip-path="url(#61207a8dd2)"><path fill="#8cffda" d="M 344.023438 493.199219 L 361.351562 493.199219 L 361.351562 568.050781 L 344.023438 568.050781 Z M 344.023438 493.199219 " fill-opacity="1" fill-rule="nonzero"/></g></g><g clip-path="url(#847fb79bd1)"><g clip-path="url(#d33a2a8524)"><path fill="#8cffda" d="M 372.675781 516.449219 L 390 516.449219 L 390 593.175781 L 372.675781 593.175781 Z M 372.675781 516.449219 " fill-opacity="1" fill-rule="nonzero"/></g></g><g clip-path="url(#ab64bd61b7)"><g clip-path="url(#8285b8f100)"><path fill="#8cffda" d="M 404.925781 489.601562 L 423.074219 489.601562 L 423.074219 569.851562 L 404.925781 569.851562 Z M 404.925781 489.601562 " fill-opacity="1" fill-rule="nonzero"/></g></g><g clip-path="url(#7450bd59f4)"><g clip-path="url(#5870a700d9)"><path fill="#8cffda" d="M 430.199219 441.523438 L 447 441.523438 L 447 516 L 430.199219 516 Z M 430.199219 441.523438 " fill-opacity="1" fill-rule="nonzero"/></g></g></svg>