<svg xmlns="http://www.w3.org/2000/svg" xmlns:xlink="http://www.w3.org/1999/xlink" width="1024" zoomAndPan="magnify" viewBox="0 0 768 767.999994" height="1024" preserveAspectRatio="xMidYMid meet" version="1.0"><defs><clipPath id="0cee830181"><path d="M 0 0 L 188 0 L 188 187 L 0 187 Z M 0 0 " clip-rule="nonzero"/></clipPath><clipPath id="fd6f256966"><path d="M 79.324219 -138.722656 L 210.316406 -7.734375 L -7.121094 209.703125 L -138.113281 78.710938 Z M 79.324219 -138.722656 " clip-rule="nonzero"/></clipPath><clipPath id="4fa889cd0c"><path d="M 79.324219 -138.722656 L 210.316406 -7.734375 L -7.121094 209.703125 L -138.113281 78.710938 Z M 79.324219 -138.722656 " clip-rule="nonzero"/></clipPath><clipPath id="68457fd3c3"><path d="M 579 578 L 768 578 L 768 768 L 579 768 Z M 579 578 " clip-rule="nonzero"/></clipPath><clipPath id="9f1831dc89"><path d="M 687.910156 903.441406 L 556.917969 772.449219 L 774.351562 555.015625 L 905.34375 686.003906 Z M 687.910156 903.441406 " clip-rule="nonzero"/></clipPath><clipPath id="da919ff417"><path d="M 687.910156 903.441406 L 556.917969 772.449219 L 774.351562 555.015625 L 905.34375 686.003906 Z M 687.910156 903.441406 " clip-rule="nonzero"/></clipPath><clipPath id="e7a7db9a3a"><path d="M 0 577 L 188 577 L 188 768 L 0 768 Z M 0 577 " clip-rule="nonzero"/></clipPath><clipPath id="578cb1b705"><path d="M -137.894531 686.222656 L -6.90625 555.230469 L 210.53125 772.664062 L 79.539062 903.65625 Z M -137.894531 686.222656 " clip-rule="nonzero"/></clipPath><clipPath id="522aa73179"><path d="M -137.894531 686.222656 L -6.90625 555.230469 L 210.53125 772.664062 L 79.539062 903.65625 Z M -137.894531 686.222656 " clip-rule="nonzero"/></clipPath><clipPath id="7940c06ff7"><path d="M 579 0 L 768 0 L 768 188 L 579 188 Z M 579 0 " clip-rule="nonzero"/></clipPath><clipPath id="772ca67a95"><path d="M 905.128906 78.496094 L 774.136719 209.488281 L 556.703125 -7.949219 L 687.695312 -138.941406 Z M 905.128906 78.496094 " clip-rule="nonzero"/></clipPath><clipPath id="762d606f79"><path d="M 905.128906 78.496094 L 774.136719 209.488281 L 556.703125 -7.949219 L 687.695312 -138.941406 Z M 905.128906 78.496094 " clip-rule="nonzero"/></clipPath><clipPath id="e666c43972"><path d="M 181.8125 181.8125 L 586.0625 181.8125 L 586.0625 586.0625 L 181.8125 586.0625 Z M 181.8125 181.8125 " clip-rule="nonzero"/></clipPath></defs><g clip-path="url(#0cee830181)"><g clip-path="url(#fd6f256966)"><g clip-path="url(#4fa889cd0c)"><path fill="#8447ff" d="M -29.746094 186.601562 L -29.734375 -29.628906 L 187.996094 -29.640625 L 187.996094 14.632812 L 14.539062 14.640625 L 14.527344 186.601562 L -29.746094 186.601562 " fill-opacity="1" fill-rule="nonzero"/></g></g></g><g clip-path="url(#68457fd3c3)"><g clip-path="url(#9f1831dc89)"><g clip-path="url(#da919ff417)"><path fill="#8447ff" d="M 796.980469 578.113281 L 796.964844 794.34375 L 579.234375 794.355469 L 579.234375 750.082031 L 752.695312 750.074219 L 752.707031 578.113281 L 796.980469 578.113281 " fill-opacity="1" fill-rule="nonzero"/></g></g></g><g clip-path="url(#e7a7db9a3a)"><g clip-path="url(#578cb1b705)"><g clip-path="url(#522aa73179)"><path fill="#8447ff" d="M 187.429688 795.292969 L -28.800781 795.277344 L -28.8125 577.546875 L 15.460938 577.546875 L 15.46875 751.007812 L 187.429688 751.019531 L 187.429688 795.292969 " fill-opacity="1" fill-rule="nonzero"/></g></g></g><g clip-path="url(#7940c06ff7)"><g clip-path="url(#772ca67a95)"><g clip-path="url(#762d606f79)"><path fill="#8447ff" d="M 579.800781 -30.574219 L 796.03125 -30.5625 L 796.042969 187.167969 L 751.769531 187.167969 L 751.761719 13.710938 L 579.800781 13.699219 L 579.800781 -30.574219 " fill-opacity="1" fill-rule="nonzero"/></g></g></g><g clip-path="url(#e666c43972)"><path fill="#8cffda" d="M 586.058594 383.9375 C 586.058594 387.246094 585.976562 390.550781 585.8125 393.855469 C 585.652344 397.160156 585.40625 400.457031 585.082031 403.75 C 584.757812 407.042969 584.355469 410.324219 583.871094 413.59375 C 583.382812 416.867188 582.820312 420.125 582.171875 423.371094 C 581.527344 426.613281 580.804688 429.839844 580 433.050781 C 579.195312 436.257812 578.3125 439.445312 577.355469 442.609375 C 576.394531 445.777344 575.355469 448.914062 574.242188 452.03125 C 573.128906 455.144531 571.9375 458.230469 570.671875 461.285156 C 569.40625 464.34375 568.066406 467.363281 566.652344 470.355469 C 565.238281 473.34375 563.75 476.300781 562.191406 479.214844 C 560.632812 482.132812 559 485.011719 557.300781 487.847656 C 555.601562 490.683594 553.832031 493.480469 551.992188 496.230469 C 550.15625 498.980469 548.25 501.683594 546.28125 504.339844 C 544.3125 506.996094 542.277344 509.605469 540.179688 512.160156 C 538.078125 514.71875 535.917969 517.222656 533.699219 519.671875 C 531.476562 522.125 529.195312 524.519531 526.859375 526.859375 C 524.519531 529.195312 522.125 531.476562 519.671875 533.699219 C 517.222656 535.917969 514.71875 538.078125 512.160156 540.179688 C 509.605469 542.277344 506.996094 544.3125 504.339844 546.28125 C 501.683594 548.25 498.980469 550.15625 496.230469 551.992188 C 493.480469 553.832031 490.683594 555.601562 487.847656 557.300781 C 485.011719 559 482.132812 560.632812 479.214844 562.191406 C 476.300781 563.75 473.34375 565.238281 470.355469 566.652344 C 467.363281 568.066406 464.34375 569.40625 461.285156 570.671875 C 458.230469 571.9375 455.144531 573.128906 452.03125 574.242188 C 448.914062 575.355469 445.777344 576.394531 442.609375 577.355469 C 439.445312 578.3125 436.257812 579.195312 433.050781 580 C 429.839844 580.804688 426.613281 581.527344 423.371094 582.171875 C 420.125 582.820312 416.867188 583.382812 413.59375 583.867188 C 410.324219 584.355469 407.042969 584.757812 403.75 585.082031 C 400.457031 585.40625 397.160156 585.652344 393.855469 585.8125 C 390.550781 585.976562 387.246094 586.058594 383.9375 586.058594 C 380.632812 586.058594 377.324219 585.976562 374.019531 585.8125 C 370.71875 585.652344 367.417969 585.40625 364.128906 585.082031 C 360.835938 584.757812 357.554688 584.355469 354.28125 583.871094 C 351.011719 583.382812 347.75 582.820312 344.507812 582.171875 C 341.261719 581.527344 338.035156 580.804688 334.828125 580 C 331.621094 579.195312 328.433594 578.3125 325.265625 577.355469 C 322.101562 576.394531 318.960938 575.355469 315.847656 574.242188 C 312.734375 573.128906 309.648438 571.9375 306.589844 570.671875 C 303.535156 569.40625 300.511719 568.066406 297.523438 566.652344 C 294.53125 565.238281 291.578125 563.75 288.660156 562.191406 C 285.742188 560.632812 282.867188 559 280.027344 557.300781 C 277.191406 555.601562 274.398438 553.832031 271.648438 551.992188 C 268.898438 550.15625 266.195312 548.25 263.535156 546.28125 C 260.878906 544.3125 258.273438 542.277344 255.714844 540.179688 C 253.160156 538.078125 250.65625 535.917969 248.203125 533.699219 C 245.753906 531.476562 243.359375 529.195312 241.019531 526.859375 C 238.679688 524.519531 236.402344 522.125 234.179688 519.671875 C 231.957031 517.222656 229.796875 514.71875 227.699219 512.160156 C 225.601562 509.605469 223.566406 506.996094 221.597656 504.339844 C 219.625 501.683594 217.722656 498.980469 215.882812 496.230469 C 214.046875 493.480469 212.277344 490.683594 210.574219 487.847656 C 208.875 485.011719 207.246094 482.132812 205.6875 479.214844 C 204.128906 476.300781 202.640625 473.34375 201.226562 470.355469 C 199.8125 467.363281 198.472656 464.34375 197.207031 461.285156 C 195.941406 458.230469 194.75 455.144531 193.636719 452.03125 C 192.519531 448.914062 191.484375 445.777344 190.523438 442.609375 C 189.5625 439.445312 188.679688 436.257812 187.878906 433.050781 C 187.074219 429.839844 186.347656 426.613281 185.703125 423.371094 C 185.058594 420.125 184.492188 416.867188 184.007812 413.59375 C 183.523438 410.324219 183.117188 407.042969 182.792969 403.75 C 182.46875 400.457031 182.226562 397.160156 182.0625 393.855469 C 181.902344 390.550781 181.820312 387.246094 181.820312 383.9375 C 181.820312 380.632812 181.902344 377.324219 182.0625 374.019531 C 182.226562 370.71875 182.46875 367.417969 182.792969 364.128906 C 183.117188 360.835938 183.523438 357.554688 184.007812 354.28125 C 184.492188 351.011719 185.058594 347.75 185.703125 344.507812 C 186.347656 341.261719 187.074219 338.035156 187.878906 334.828125 C 188.679688 331.621094 189.5625 328.433594 190.523438 325.265625 C 191.484375 322.101562 192.519531 318.960938 193.636719 315.847656 C 194.75 312.734375 195.941406 309.648438 197.207031 306.589844 C 198.472656 303.535156 199.8125 300.511719 201.226562 297.523438 C 202.640625 294.53125 204.128906 291.578125 205.6875 288.660156 C 207.246094 285.742188 208.875 282.867188 210.574219 280.027344 C 212.277344 277.191406 214.046875 274.398438 215.882812 271.648438 C 217.722656 268.898438 219.625 266.195312 221.597656 263.535156 C 223.566406 260.878906 225.601562 258.273438 227.699219 255.714844 C 229.796875 253.160156 231.957031 250.65625 234.179688 248.203125 C 236.402344 245.753906 238.679688 243.359375 241.019531 241.019531 C 243.359375 238.679688 245.753906 236.402344 248.203125 234.179688 C 250.65625 231.957031 253.160156 229.796875 255.714844 227.699219 C 258.273438 225.601562 260.878906 223.566406 263.535156 221.597656 C 266.195312 219.625 268.898438 217.722656 271.648438 215.882812 C 274.398438 214.046875 277.191406 212.277344 280.027344 210.578125 C 282.867188 208.875 285.742188 207.246094 288.660156 205.6875 C 291.578125 204.128906 294.53125 202.640625 297.523438 201.226562 C 300.511719 199.8125 303.535156 198.472656 306.589844 197.207031 C 309.648438 195.941406 312.734375 194.75 315.847656 193.636719 C 318.960938 192.519531 322.101562 191.484375 325.265625 190.523438 C 328.433594 189.5625 331.621094 188.679688 334.828125 187.878906 C 338.035156 187.074219 341.261719 186.347656 344.507812 185.703125 C 347.75 185.058594 351.011719 184.492188 354.28125 184.007812 C 357.554688 183.523438 360.835938 183.117188 364.128906 182.792969 C 367.417969 182.46875 370.71875 182.226562 374.019531 182.0625 C 377.324219 181.902344 380.632812 181.820312 383.9375 181.820312 C 387.246094 181.820312 390.550781 181.902344 393.855469 182.0625 C 397.160156 182.226562 400.457031 182.46875 403.75 182.792969 C 407.042969 183.117188 410.324219 183.523438 413.59375 184.007812 C 416.867188 184.492188 420.125 185.058594 423.371094 185.703125 C 426.613281 186.347656 429.839844 187.074219 433.050781 187.878906 C 436.257812 188.679688 439.445312 189.5625 442.609375 190.523438 C 445.777344 191.484375 448.914062 192.519531 452.03125 193.636719 C 455.144531 194.75 458.230469 195.941406 461.285156 197.207031 C 464.34375 198.472656 467.363281 199.8125 470.355469 201.226562 C 473.34375 202.640625 476.300781 204.128906 479.214844 205.6875 C 482.132812 207.246094 485.011719 208.875 487.847656 210.578125 C 490.683594 212.277344 493.480469 214.046875 496.230469 215.882812 C 498.980469 217.722656 501.683594 219.625 504.339844 221.597656 C 506.996094 223.566406 509.605469 225.601562 512.160156 227.699219 C 514.71875 229.796875 517.222656 231.957031 519.671875 234.179688 C 522.125 236.402344 524.519531 238.679688 526.859375 241.019531 C 529.195312 243.359375 531.476562 245.753906 533.699219 248.203125 C 535.917969 250.65625 538.078125 253.160156 540.179688 255.714844 C 542.277344 258.273438 544.3125 260.878906 546.28125 263.535156 C 548.25 266.195312 550.15625 268.898438 551.992188 271.648438 C 553.832031 274.398438 555.601562 277.191406 557.300781 280.027344 C 559 282.867188 560.632812 285.742188 562.191406 288.660156 C 563.75 291.578125 565.238281 294.53125 566.652344 297.523438 C 568.066406 300.511719 569.40625 303.535156 570.671875 306.589844 C 571.9375 309.648438 573.128906 312.734375 574.242188 315.847656 C 575.355469 318.960938 576.394531 322.101562 577.355469 325.265625 C 578.3125 328.433594 579.195312 331.621094 580 334.828125 C 580.804688 338.035156 581.527344 341.261719 582.171875 344.507812 C 582.820312 347.75 583.382812 351.011719 583.867188 354.28125 C 584.355469 357.554688 584.757812 360.835938 585.082031 364.128906 C 585.40625 367.417969 585.652344 370.71875 585.8125 374.019531 C 585.976562 377.324219 586.058594 380.632812 586.058594 383.9375 Z M 586.058594 383.9375 " fill-opacity="1" fill-rule="nonzero"/></g><path fill="#8447ff" d="M 291.332031 263.058594 L 291.332031 504.816406 L 476.242188 504.816406 L 476.546875 378.894531 L 476.546875 332.746094 L 476.320312 327.90625 L 471.042969 322.632812 L 457.902344 310.652344 L 422.144531 277.703125 L 409.917969 266.664062 L 405.917969 263.246094 L 395.859375 263.058594 L 291.332031 263.058594 M 405.945312 274.675781 L 405.945312 296.070312 L 405.640625 329.6875 L 464.933594 329.6875 L 464.625 493.507812 L 302.945312 493.507812 L 302.945312 274.980469 L 405.945312 274.675781 M 325.867188 334.882812 L 325.867188 426.574219 L 449.039062 426.269531 L 449.039062 425.046875 L 445.25 424.554688 L 444.761719 421.378906 L 444.761719 413.125 L 450.261719 412.515625 L 450.261719 412.210938 L 445.25 411.414062 L 444.761719 408.238281 L 444.761719 400.597656 L 445.25 397.417969 L 450.261719 396.929688 L 450.261719 396.011719 L 444.761719 395.707031 L 444.761719 381.953125 L 445.25 376.941406 L 449.648438 376.449219 C 449.054688 374.660156 446.632812 375.226562 445.066406 375.226562 L 445.066406 362.695312 L 449.34375 362.695312 L 449.34375 361.167969 L 445.066406 361.167969 L 445.066406 355.667969 L 429.476562 355.667969 L 429.476562 361.167969 L 420.613281 361.472656 L 421.53125 363.613281 C 422.722656 362.488281 428.082031 361.785156 429.164062 363.40625 C 430.382812 365.234375 429.40625 369.753906 429.328125 371.867188 C 429.300781 372.691406 429.632812 373.777344 429.160156 374.519531 C 428.160156 376.082031 422.890625 375.226562 421.226562 375.226562 L 397.691406 375.226562 L 397.386719 366.058594 L 398.128906 362.707031 L 405.640625 362.390625 C 405.207031 359.808594 399.757812 360.863281 397.691406 360.863281 L 397.386719 334.882812 L 325.867188 334.882812 M 381.492188 348.945312 L 365.90625 348.636719 L 365.90625 340.082031 L 366.21875 336.902344 L 369.574219 336.40625 L 378.132812 336.105469 L 381.472656 336.597656 L 381.644531 339.761719 L 381.492188 348.945312 M 348.789062 336.414062 L 348.789062 344.96875 L 348.476562 348.453125 L 342.984375 348.945312 L 327.089844 348.945312 L 327.089844 336.414062 L 348.789062 336.414062 M 364.683594 336.414062 L 364.683594 348.636719 L 353.988281 348.824219 L 350.328125 348.453125 L 350.011719 344.96875 L 350.011719 336.414062 L 364.683594 336.414062 M 326.785156 361.167969 L 327.089844 350.472656 L 342.066406 350.472656 C 343.792969 350.472656 346.824219 349.886719 348.386719 350.65625 C 349.210938 351.0625 349.089844 352.148438 349.097656 352.917969 C 349.105469 354.542969 349.957031 360.101562 348.605469 361.160156 C 347.554688 361.984375 344.308594 361.171875 342.984375 361.171875 L 326.785156 361.171875 M 364.683594 350.472656 L 364.683594 360.863281 L 353.988281 361.476562 L 350.328125 360.988281 L 350.011719 358.113281 L 350.011719 350.472656 L 364.683594 350.472656 M 381.800781 350.472656 L 381.800781 360.863281 L 365.90625 360.863281 C 365.90625 358.664062 364.847656 352.699219 366.21875 350.964844 C 366.9375 350.0625 369.171875 350.472656 370.183594 350.472656 L 381.800781 350.472656 M 373.851562 375.535156 L 373.851562 362.085938 L 381.308594 362.402344 L 381.800781 365.144531 L 381.800781 372.480469 L 381.308594 375.222656 L 373.851562 375.535156 M 349.097656 363.003906 L 349.097656 371.5625 L 348.78125 375.046875 L 344.511719 375.535156 L 331.980469 375.535156 L 327.097656 375.046875 L 326.785156 371.5625 L 326.785156 363.003906 L 349.097656 363.003906 M 358.265625 363.003906 L 358.265625 371.5625 L 357.953125 375.046875 L 353.988281 375.535156 L 350.503906 375.222656 L 350.011719 371.867188 L 350.011719 363.003906 L 358.265625 363.003906 M 358.265625 376.453125 L 358.265625 390.511719 L 357.777344 395.394531 L 350.011719 395.707031 L 350.011719 380.425781 L 339.011719 380.425781 C 337.777344 380.425781 335.8125 380.066406 334.914062 381.132812 C 333.277344 383.082031 334.425781 389.550781 334.425781 392.039062 C 334.425781 393.519531 334.835938 395.511719 332.890625 395.6875 C 331.667969 395.800781 327.929688 396.269531 327.097656 395.21875 C 326.425781 394.367188 326.785156 392.445312 326.785156 391.429688 L 326.785156 377.0625 C 328.683594 375.625 333.011719 376.453125 335.34375 376.453125 L 358.265625 376.453125 M 429.171875 376.453125 L 429.171875 396.011719 L 421.410156 395.699219 L 420.921875 391.121094 L 420.921875 377.371094 L 405.332031 377.371094 L 405.332031 395.707031 L 397.691406 395.707031 L 397.691406 376.453125 L 429.171875 376.453125 M 374.160156 395.707031 C 372.527344 390.191406 373.851562 382.519531 373.851562 376.757812 L 381.308594 377.074219 L 381.800781 381.035156 L 381.800781 391.429688 L 381.484375 395.175781 L 374.160156 395.707031 M 334.121094 411.292969 L 326.785156 411.292969 L 326.785156 396.929688 L 333.933594 397.246094 L 334.234375 401.207031 L 334.121094 411.292969 M 350.320312 411.292969 C 350.320312 408.019531 350.011719 404.78125 350.011719 401.515625 C 350.011719 400.398438 349.691406 398.664062 350.199219 397.636719 C 350.785156 396.441406 357.148438 396.40625 357.949219 397.421875 C 358.5 398.113281 358.265625 399.46875 358.265625 400.292969 L 358.265625 407.933594 C 358.265625 408.789062 358.546875 410.371094 357.773438 410.980469 C 356.378906 412.085938 352.058594 411.292969 350.320312 411.292969 M 381.800781 396.929688 L 381.800781 407.628906 L 381.308594 411.285156 L 373.851562 411.601562 L 373.851562 396.929688 L 381.800781 396.929688 M 405.332031 396.929688 L 405.332031 411.601562 L 397.691406 411.601562 L 397.691406 396.929688 L 405.332031 396.929688 M 429.171875 397.234375 L 429.171875 411.601562 L 421.226562 411.601562 L 420.921875 397.234375 L 429.171875 397.234375 M 334.121094 412.515625 L 334.121094 425.355469 L 326.96875 425.039062 L 326.480469 421.6875 L 326.480469 412.515625 L 334.121094 412.515625 M 350.320312 425.046875 L 350.320312 412.515625 C 352.058594 412.515625 356.378906 411.726562 357.773438 412.832031 C 358.496094 413.402344 358.265625 414.773438 358.265625 415.574219 C 358.265625 417.347656 359.222656 423.589844 357.773438 424.734375 C 356.378906 425.839844 352.058594 425.046875 350.320312 425.046875 M 381.800781 412.824219 L 381.800781 425.046875 L 373.851562 425.046875 L 373.851562 412.824219 L 381.800781 412.824219 M 405.332031 412.824219 L 405.332031 425.046875 L 397.386719 425.046875 L 397.441406 416.316406 L 397.9375 413.136719 L 405.332031 412.824219 M 429.171875 412.824219 L 429.171875 425.046875 L 421.226562 425.046875 L 421.226562 412.824219 L 429.171875 412.824219 " fill-opacity="1" fill-rule="nonzero"/></svg>