<svg xmlns="http://www.w3.org/2000/svg" xmlns:xlink="http://www.w3.org/1999/xlink" width="1024" zoomAndPan="magnify" viewBox="0 0 768 767.999994" height="1024" preserveAspectRatio="xMidYMid meet" version="1.0"><defs><clipPath id="a832c509b8"><path d="M 0 0 L 188 0 L 188 187 L 0 187 Z M 0 0 " clip-rule="nonzero"/></clipPath><clipPath id="8ba0856d0a"><path d="M 79.324219 -138.722656 L 210.316406 -7.734375 L -7.121094 209.703125 L -138.113281 78.710938 Z M 79.324219 -138.722656 " clip-rule="nonzero"/></clipPath><clipPath id="3925d5b58e"><path d="M 79.324219 -138.722656 L 210.316406 -7.734375 L -7.121094 209.703125 L -138.113281 78.710938 Z M 79.324219 -138.722656 " clip-rule="nonzero"/></clipPath><clipPath id="4d94d30657"><path d="M 579 578 L 768 578 L 768 768 L 579 768 Z M 579 578 " clip-rule="nonzero"/></clipPath><clipPath id="75bd9df2bb"><path d="M 687.910156 903.441406 L 556.917969 772.449219 L 774.351562 555.015625 L 905.34375 686.003906 Z M 687.910156 903.441406 " clip-rule="nonzero"/></clipPath><clipPath id="0a7c28edcf"><path d="M 687.910156 903.441406 L 556.917969 772.449219 L 774.351562 555.015625 L 905.34375 686.003906 Z M 687.910156 903.441406 " clip-rule="nonzero"/></clipPath><clipPath id="b343c6af6e"><path d="M 0 577 L 188 577 L 188 768 L 0 768 Z M 0 577 " clip-rule="nonzero"/></clipPath><clipPath id="b430dfc525"><path d="M -137.894531 686.222656 L -6.90625 555.230469 L 210.53125 772.664062 L 79.539062 903.65625 Z M -137.894531 686.222656 " clip-rule="nonzero"/></clipPath><clipPath id="3ac19b305c"><path d="M -137.894531 686.222656 L -6.90625 555.230469 L 210.53125 772.664062 L 79.539062 903.65625 Z M -137.894531 686.222656 " clip-rule="nonzero"/></clipPath><clipPath id="aeeaf8c8dd"><path d="M 579 0 L 768 0 L 768 188 L 579 188 Z M 579 0 " clip-rule="nonzero"/></clipPath><clipPath id="6a8e03fcb8"><path d="M 905.128906 78.496094 L 774.136719 209.488281 L 556.703125 -7.949219 L 687.695312 -138.941406 Z M 905.128906 78.496094 " clip-rule="nonzero"/></clipPath><clipPath id="4f8dd1fc5c"><path d="M 905.128906 78.496094 L 774.136719 209.488281 L 556.703125 -7.949219 L 687.695312 -138.941406 Z M 905.128906 78.496094 " clip-rule="nonzero"/></clipPath><clipPath id="3337883b15"><path d="M 274 484 L 306 484 L 306 552 L 274 552 Z M 274 484 " clip-rule="nonzero"/></clipPath><clipPath id="efe9b5fe9b"><path d="M 336.492188 541.644531 L 141.140625 662.09375 L 83.671875 568.886719 L 279.027344 448.4375 Z M 336.492188 541.644531 " clip-rule="nonzero"/></clipPath><clipPath id="325902fd0a"><path d="M 336.492188 541.644531 L 141.140625 662.09375 L 83.671875 568.886719 L 279.027344 448.4375 Z M 336.492188 541.644531 " clip-rule="nonzero"/></clipPath><clipPath id="44dfd73d91"><path d="M 90 474 L 315 474 L 315 586 L 90 586 Z M 90 474 " clip-rule="nonzero"/></clipPath><clipPath id="04be3a8cf6"><path d="M 336.492188 541.644531 L 141.140625 662.09375 L 83.671875 568.886719 L 279.027344 448.4375 Z M 336.492188 541.644531 " clip-rule="nonzero"/></clipPath><clipPath id="bdce6e6ff4"><path d="M 336.492188 541.644531 L 141.140625 662.09375 L 83.671875 568.886719 L 279.027344 448.4375 Z M 336.492188 541.644531 " clip-rule="nonzero"/></clipPath><clipPath id="fd86a9f1cb"><path d="M 291 525 L 297 525 L 297 539 L 291 539 Z M 291 525 " clip-rule="nonzero"/></clipPath><clipPath id="d70eae410f"><path d="M 336.492188 541.644531 L 141.140625 662.09375 L 83.671875 568.886719 L 279.027344 448.4375 Z M 336.492188 541.644531 " clip-rule="nonzero"/></clipPath><clipPath id="a09570a501"><path d="M 336.492188 541.644531 L 141.140625 662.09375 L 83.671875 568.886719 L 279.027344 448.4375 Z M 336.492188 541.644531 " clip-rule="nonzero"/></clipPath><clipPath id="eca2cb4829"><path d="M 343 642 L 695 642 L 695 654.476562 L 343 654.476562 Z M 343 642 " clip-rule="nonzero"/></clipPath><clipPath id="7e7f0ef408"><path d="M 580 236.726562 L 655 236.726562 L 655 316 L 580 316 Z M 580 236.726562 " clip-rule="nonzero"/></clipPath><clipPath id="a48c62ac45"><path d="M 107.222656 388.078125 L 228.375 388.078125 L 228.375 509.234375 L 107.222656 509.234375 Z M 107.222656 388.078125 " clip-rule="nonzero"/></clipPath><clipPath id="e3a905c731"><path d="M 167.800781 388.078125 C 134.34375 388.078125 107.222656 415.199219 107.222656 448.65625 C 107.222656 482.113281 134.34375 509.234375 167.800781 509.234375 C 201.253906 509.234375 228.375 482.113281 228.375 448.65625 C 228.375 415.199219 201.253906 388.078125 167.800781 388.078125 Z M 167.800781 388.078125 " clip-rule="nonzero"/></clipPath><clipPath id="b841dab541"><path d="M 162.464844 485.433594 L 172.554688 485.433594 L 172.554688 491 L 162.464844 491 Z M 162.464844 485.433594 " clip-rule="nonzero"/></clipPath><clipPath id="87f925d0d0"><path d="M 166 397.035156 L 169 397.035156 L 169 403 L 166 403 Z M 166 397.035156 " clip-rule="nonzero"/></clipPath><clipPath id="7111d88106"><path d="M 210.820312 448.261719 L 219.140625 448.261719 L 219.140625 449.730469 L 210.820312 449.730469 Z M 210.820312 448.261719 " clip-rule="nonzero"/></clipPath><clipPath id="d2f2425d0d"><path d="M 115.574219 447 L 124 447 L 124 450 L 115.574219 450 Z M 115.574219 447 " clip-rule="nonzero"/></clipPath><clipPath id="33f15bd7e6"><path d="M 104 123.960938 L 144 123.960938 L 144 147 L 104 147 Z M 104 123.960938 " clip-rule="nonzero"/></clipPath><clipPath id="e5c82059f0"><path d="M 427 251 L 449.90625 251 L 449.90625 291 L 427 291 Z M 427 251 " clip-rule="nonzero"/></clipPath><clipPath id="85fb65b47a"><path d="M 83.90625 269 L 447 269 L 447 274 L 83.90625 274 Z M 83.90625 269 " clip-rule="nonzero"/></clipPath><clipPath id="38b98f8128"><path d="M 122 126 L 126 126 L 126 349.710938 L 122 349.710938 Z M 122 126 " clip-rule="nonzero"/></clipPath></defs><rect x="-76.8" width="921.6" fill="#ffffff" y="-76.799999" height="921.599993" fill-opacity="1"/><rect x="-76.8" width="921.6" fill="#ffffff" y="-76.799999" height="921.599993" fill-opacity="1"/><g clip-path="url(#a832c509b8)"><g clip-path="url(#8ba0856d0a)"><g clip-path="url(#3925d5b58e)"><path fill="#8447ff" d="M -29.746094 186.601562 L -29.734375 -29.628906 L 187.996094 -29.640625 L 187.996094 14.632812 L 14.539062 14.640625 L 14.527344 186.601562 L -29.746094 186.601562 " fill-opacity="1" fill-rule="nonzero"/></g></g></g><g clip-path="url(#4d94d30657)"><g clip-path="url(#75bd9df2bb)"><g clip-path="url(#0a7c28edcf)"><path fill="#8447ff" d="M 796.980469 578.113281 L 796.964844 794.34375 L 579.234375 794.355469 L 579.234375 750.082031 L 752.695312 750.074219 L 752.707031 578.113281 L 796.980469 578.113281 " fill-opacity="1" fill-rule="nonzero"/></g></g></g><g clip-path="url(#b343c6af6e)"><g clip-path="url(#b430dfc525)"><g clip-path="url(#3ac19b305c)"><path fill="#8447ff" d="M 187.429688 795.292969 L -28.800781 795.277344 L -28.8125 577.546875 L 15.460938 577.546875 L 15.46875 751.007812 L 187.429688 751.019531 L 187.429688 795.292969 " fill-opacity="1" fill-rule="nonzero"/></g></g></g><g clip-path="url(#aeeaf8c8dd)"><g clip-path="url(#6a8e03fcb8)"><g clip-path="url(#4f8dd1fc5c)"><path fill="#8447ff" d="M 579.800781 -30.574219 L 796.03125 -30.5625 L 796.042969 187.167969 L 751.769531 187.167969 L 751.761719 13.710938 L 579.800781 13.699219 L 579.800781 -30.574219 " fill-opacity="1" fill-rule="nonzero"/></g></g></g><g clip-path="url(#3337883b15)"><g clip-path="url(#efe9b5fe9b)"><g clip-path="url(#325902fd0a)"><path fill="#8447ff" d="M 279.550781 485.679688 C 271.515625 490.632812 273.613281 513.601562 280.519531 531.113281 L 280.871094 532 C 283.105469 537.730469 287.269531 548.398438 293.972656 550.648438 C 296.390625 551.460938 298.832031 551.121094 301.234375 549.640625 L 301.496094 549.476562 C 307.667969 545.449219 306.113281 529.847656 303.71875 517.46875 C 303.671875 517.222656 296.824219 491.753906 287.28125 485.96875 C 285.210938 484.710938 283.121094 484.386719 281.070312 485 C 280.53125 485.160156 280.027344 485.386719 279.550781 485.679688 Z M 285.070312 489.433594 C 292.371094 493.707031 299.152344 515.890625 299.6875 518.246094 C 302.511719 532.851562 302.332031 544.019531 299.078125 546.140625 C 297.722656 546.976562 296.515625 547.167969 295.273438 546.753906 C 290.394531 545.113281 286.402344 534.878906 284.695312 530.507812 L 284.34375 529.609375 C 277.160156 511.390625 276.890625 492.15625 281.710938 489.183594 C 281.878906 489.078125 282.0625 488.996094 282.253906 488.9375 C 282.8125 488.769531 283.714844 488.640625 285.070312 489.433594 Z M 285.070312 489.433594 " fill-opacity="1" fill-rule="nonzero"/></g></g></g><g clip-path="url(#44dfd73d91)"><g clip-path="url(#04be3a8cf6)"><g clip-path="url(#bdce6e6ff4)"><path fill="#8447ff" d="M 95.25 582.933594 L 96.066406 583.699219 L 104.675781 581.570312 C 106.164062 583.089844 107.917969 584.167969 109.945312 584.796875 L 110.070312 585.417969 C 118.425781 583.742188 129.402344 580.816406 139.089844 578.230469 C 144.378906 576.820312 149.402344 575.480469 153.121094 574.585938 C 154.921875 576.871094 156.964844 578.660156 159.214844 579.671875 L 159.382812 580.382812 C 167.511719 578.480469 173.59375 577.230469 179.476562 576.023438 C 187.566406 574.363281 195.261719 572.773438 206.511719 569.785156 C 209.640625 572.421875 213.191406 573.90625 217.050781 574.089844 L 217.195312 574.738281 C 231.554688 571.625 242.210938 569.226562 251.65625 567.105469 C 257.316406 565.832031 262.550781 564.652344 267.882812 563.480469 C 269.023438 564.632812 270.230469 565.71875 271.496094 566.738281 C 271.5 566.828125 271.511719 566.917969 271.527344 567.003906 C 271.578125 567.273438 271.675781 567.523438 271.824219 567.75 C 271.972656 567.980469 272.160156 568.171875 272.382812 568.324219 C 272.609375 568.480469 272.855469 568.585938 273.121094 568.644531 C 273.386719 568.699219 273.65625 568.703125 273.921875 568.652344 L 274.269531 568.582031 C 274.628906 568.660156 274.984375 568.640625 275.335938 568.527344 C 275.6875 568.410156 275.984375 568.214844 276.230469 567.941406 C 282.628906 566.546875 289.265625 565.128906 296.789062 563.582031 C 297.074219 563.515625 297.335938 563.398438 297.570312 563.222656 C 298.488281 563.078125 299.390625 562.859375 300.269531 562.5625 C 301.164062 562.257812 302.019531 561.878906 302.847656 561.421875 C 303.1875 561.539062 303.53125 561.566406 303.882812 561.503906 C 304.238281 561.4375 304.550781 561.292969 304.828125 561.0625 C 307.257812 559.050781 309.25 556.3125 310.765625 552.933594 C 312.464844 549.582031 313.632812 545.367188 313.921875 540.207031 C 313.945312 540.003906 313.964844 539.800781 313.980469 539.597656 C 315.65625 521.046875 309.121094 497.742188 298.773438 485.398438 C 292.003906 477.316406 284.070312 473.546875 277.003906 475.050781 C 276.644531 474.964844 276.289062 474.976562 275.933594 475.089844 C 272.769531 476.191406 270.003906 477.191406 267.300781 478.171875 C 263.601562 479.511719 260.035156 480.796875 255.730469 482.246094 C 255.390625 482.253906 255.074219 482.34375 254.78125 482.515625 C 254.734375 482.542969 254.691406 482.574219 254.644531 482.609375 C 254.40625 482.6875 254.195312 482.761719 253.953125 482.839844 C 253.800781 482.890625 253.65625 482.960938 253.519531 483.042969 C 253.003906 483.371094 252.699219 483.835938 252.605469 484.4375 C 250.304688 486.894531 248.84375 490.050781 247.945312 493.488281 C 242.480469 495.296875 236.785156 497.195312 230.949219 499.210938 C 230.914062 499.1875 230.878906 499.164062 230.839844 499.144531 C 230.546875 499.03125 230.253906 499.019531 229.957031 499.113281 C 229.65625 499.207031 229.421875 499.386719 229.25 499.648438 C 229.210938 499.707031 229.1875 499.777344 229.148438 499.835938 C 220.507812 502.847656 211.632812 506.117188 202.875 509.757812 L 202.445312 509.257812 C 200.066406 511.34375 198.160156 513.792969 196.722656 516.613281 C 193.515625 517.640625 190.113281 518.6875 186.589844 519.769531 C 175.097656 523.296875 162.066406 527.289062 152.777344 531.75 C 152.703125 531.792969 152.625 531.839844 152.546875 531.886719 C 149.453125 533.796875 147.265625 537.035156 146.050781 541.195312 C 129.675781 546.457031 123.097656 548.96875 110.535156 553.953125 L 110.3125 553.761719 C 110.210938 553.882812 110.117188 554.015625 110.03125 554.152344 L 107.097656 555.316406 L 103.164062 556.890625 C 103.0625 556.945312 102.960938 557.003906 102.863281 557.066406 C 101.050781 558.183594 99.839844 560.273438 99.28125 562.96875 L 90.816406 566.890625 L 90.625 567.9375 C 88.988281 576.945312 94.996094 582.695312 95.25 582.933594 Z M 120.71875 578.765625 L 121.148438 578.132812 C 119.5 576.863281 118.089844 575.363281 116.925781 573.640625 C 115.757812 571.914062 114.886719 570.050781 114.320312 568.046875 C 112.621094 561.953125 112.851562 558.742188 113.152344 557.339844 C 116.632812 555.960938 119.675781 554.765625 122.621094 553.648438 C 122.523438 555.074219 120.832031 558.316406 119.777344 560.335938 C 119.121094 561.589844 118.5 562.777344 118.128906 563.679688 C 118.0625 563.84375 118.03125 564.011719 118.03125 564.1875 C 118.03125 564.363281 118.066406 564.535156 118.132812 564.699219 C 118.199219 564.859375 118.296875 565.003906 118.421875 565.128906 C 118.546875 565.253906 118.691406 565.351562 118.855469 565.417969 C 119.019531 565.484375 119.1875 565.519531 119.363281 565.519531 C 119.539062 565.519531 119.710938 565.484375 119.875 565.417969 C 120.035156 565.347656 120.179688 565.253906 120.304688 565.128906 C 120.429688 565.003906 120.523438 564.859375 120.589844 564.695312 C 120.925781 563.875 121.503906 562.777344 122.132812 561.574219 C 124.191406 557.644531 125.613281 554.714844 125.234375 552.777344 C 125.226562 552.738281 125.203125 552.710938 125.195312 552.679688 C 127.246094 551.914062 129.3125 551.164062 131.515625 550.386719 C 131.519531 550.570312 131.558594 550.742188 131.640625 550.90625 C 131.414062 551.457031 131.191406 552.015625 130.96875 552.578125 C 130.078125 554.839844 129.152344 557.175781 127.878906 559.050781 C 127.777344 559.199219 127.710938 559.359375 127.671875 559.53125 C 127.636719 559.703125 127.632812 559.878906 127.664062 560.050781 C 127.699219 560.226562 127.761719 560.386719 127.859375 560.535156 C 127.957031 560.683594 128.078125 560.808594 128.226562 560.910156 C 128.371094 561.007812 128.53125 561.078125 128.707031 561.113281 C 128.878906 561.148438 129.050781 561.148438 129.226562 561.117188 C 129.398438 561.082031 129.5625 561.015625 129.707031 560.917969 C 129.855469 560.820312 129.980469 560.699219 130.078125 560.550781 C 131.519531 558.429688 132.496094 555.957031 133.445312 553.5625 C 133.882812 552.445312 134.316406 551.34375 134.792969 550.300781 C 134.9375 549.949219 134.925781 549.601562 134.761719 549.261719 C 136.0625 548.8125 137.421875 548.355469 138.863281 547.871094 C 138.71875 548.429688 138.574219 548.988281 138.429688 549.550781 C 137.875 551.742188 137.304688 554.011719 136.390625 556.019531 C 136.316406 556.179688 136.277344 556.347656 136.269531 556.523438 C 136.265625 556.699219 136.292969 556.871094 136.355469 557.035156 C 136.414062 557.203125 136.507812 557.351562 136.628906 557.480469 C 136.746094 557.609375 136.886719 557.710938 137.046875 557.785156 C 137.210938 557.859375 137.378906 557.898438 137.554688 557.902344 C 137.730469 557.910156 137.902344 557.882812 138.066406 557.820312 C 138.230469 557.757812 138.378906 557.667969 138.507812 557.546875 C 138.636719 557.425781 138.738281 557.285156 138.8125 557.125 C 139.824219 554.902344 140.425781 552.515625 141.007812 550.207031 C 141.292969 549.082031 141.582031 547.960938 141.910156 546.867188 C 142.945312 546.527344 144.027344 546.175781 145.148438 545.8125 C 144.941406 547.78125 144.898438 549.753906 145.023438 551.730469 C 145.421875 558.117188 147.460938 565.324219 150.679688 570.949219 C 147.179688 571.816406 142.859375 572.96875 138.023438 574.257812 C 132.429688 575.75 126.40625 577.355469 120.71875 578.765625 Z M 252.773438 520.226562 C 250.007812 508.199219 249.4375 492.253906 256.707031 486.253906 C 260.496094 484.984375 263.714844 483.839844 266.898438 482.691406 C 265.632812 484.800781 264.675781 487.042969 264.027344 489.414062 C 259.023438 507.1875 263.167969 531.964844 274.105469 549.671875 C 277.550781 555.257812 281.914062 559.296875 286.566406 561.515625 C 282.480469 562.378906 278.582031 563.21875 274.789062 564.046875 C 261.523438 554.035156 256.453125 536.230469 252.773438 520.226562 Z M 295.625 488.035156 C 303.671875 497.636719 309.382812 515.078125 310.058594 530.667969 C 309.679688 531.117188 309.519531 531.636719 309.585938 532.222656 C 309.871094 534.75 309.953125 537.289062 309.832031 539.832031 C 309.386719 544.203125 308.457031 547.996094 307.085938 551.105469 C 304.996094 555.1875 301.992188 557.632812 298.9375 558.675781 C 291.691406 561.152344 283.316406 556.773438 277.597656 547.515625 C 267.386719 530.980469 263.339844 507.019531 267.980469 490.535156 C 269.785156 484.117188 273.300781 480.039062 277.855469 479.070312 C 283.304688 477.90625 289.949219 481.257812 295.625 488.035156 Z M 209.867188 509.796875 C 207.355469 516.386719 204.753906 524.125 203.023438 530.210938 C 202.972656 530.378906 202.957031 530.550781 202.976562 530.730469 C 202.996094 530.90625 203.050781 531.070312 203.136719 531.226562 C 203.222656 531.382812 203.332031 531.515625 203.472656 531.625 C 203.609375 531.734375 203.765625 531.816406 203.933594 531.863281 C 204.105469 531.914062 204.277344 531.925781 204.453125 531.90625 C 204.628906 531.886719 204.792969 531.832031 204.949219 531.746094 C 205.105469 531.660156 205.234375 531.546875 205.34375 531.410156 C 205.453125 531.269531 205.53125 531.113281 205.578125 530.945312 C 207.496094 524.210938 210.484375 515.441406 213.226562 508.492188 C 215.40625 507.652344 217.582031 506.832031 219.753906 506.03125 C 219.910156 508.953125 217.203125 515.765625 215.503906 520.035156 C 214.40625 522.785156 213.457031 525.164062 213.03125 526.792969 C 212.980469 526.964844 212.96875 527.136719 212.992188 527.316406 C 213.015625 527.492188 213.070312 527.65625 213.15625 527.8125 C 213.246094 527.964844 213.363281 528.097656 213.503906 528.207031 C 213.644531 528.3125 213.800781 528.390625 213.972656 528.4375 C 214.144531 528.480469 214.316406 528.492188 214.492188 528.46875 C 214.667969 528.445312 214.835938 528.386719 214.988281 528.296875 C 215.140625 528.207031 215.269531 528.089844 215.375 527.949219 C 215.480469 527.804688 215.558594 527.648438 215.601562 527.476562 C 215.988281 526 216.953125 523.582031 217.972656 521.023438 C 220.839844 513.832031 222.875 508.308594 222.304688 505.09375 C 224.375 504.339844 226.4375 503.605469 228.488281 502.882812 C 228.199219 504.144531 227.890625 505.417969 227.566406 506.667969 C 227.328125 507.59375 227.085938 508.515625 226.867188 509.425781 C 226.625 510.4375 226.179688 511.71875 225.707031 513.070312 C 224.503906 516.542969 223.140625 520.472656 223.847656 523.304688 C 223.890625 523.476562 223.960938 523.636719 224.066406 523.777344 C 224.171875 523.921875 224.300781 524.039062 224.449219 524.132812 C 224.601562 524.222656 224.765625 524.285156 224.941406 524.308594 C 225.117188 524.335938 225.289062 524.328125 225.460938 524.285156 C 225.632812 524.246094 225.789062 524.171875 225.933594 524.066406 C 226.074219 523.960938 226.191406 523.832031 226.28125 523.679688 C 226.371094 523.527344 226.429688 523.363281 226.453125 523.1875 C 226.480469 523.011719 226.46875 522.839844 226.425781 522.667969 C 225.914062 520.601562 227.195312 516.910156 228.21875 513.945312 C 228.710938 512.53125 229.175781 511.191406 229.449219 510.054688 C 229.667969 509.15625 229.902344 508.246094 230.140625 507.335938 C 230.601562 505.539062 231.050781 503.695312 231.410156 501.867188 C 233.890625 501.003906 236.359375 500.164062 238.789062 499.34375 C 238.339844 500.953125 237.734375 503.402344 236.789062 507.304688 C 235.101562 514.289062 234.296875 518.601562 234.398438 520.128906 C 234.417969 520.300781 234.464844 520.464844 234.546875 520.617188 C 234.625 520.769531 234.734375 520.902344 234.863281 521.015625 C 234.996094 521.125 235.144531 521.210938 235.308594 521.265625 C 235.472656 521.316406 235.640625 521.339844 235.8125 521.328125 C 235.984375 521.316406 236.148438 521.273438 236.304688 521.199219 C 236.457031 521.125 236.59375 521.023438 236.710938 520.894531 C 236.824219 520.765625 236.914062 520.621094 236.972656 520.460938 C 237.03125 520.296875 237.058594 520.132812 237.054688 519.957031 C 236.875 517.289062 241.222656 500.285156 241.898438 498.300781 C 243.71875 497.691406 245.519531 497.09375 247.296875 496.503906 C 246.71875 500.332031 246.566406 504.175781 246.84375 508.039062 C 245.769531 511.511719 244.21875 518.746094 243.574219 522.269531 C 243.539062 522.445312 243.535156 522.621094 243.570312 522.796875 C 243.605469 522.972656 243.671875 523.136719 243.769531 523.285156 C 243.871094 523.433594 243.996094 523.558594 244.144531 523.65625 C 244.296875 523.757812 244.457031 523.820312 244.636719 523.855469 C 244.8125 523.886719 244.988281 523.882812 245.164062 523.84375 C 245.335938 523.808594 245.496094 523.734375 245.644531 523.632812 C 245.789062 523.527344 245.910156 523.398438 246.003906 523.246094 C 246.097656 523.09375 246.160156 522.929688 246.1875 522.753906 C 246.546875 520.792969 247.101562 518.121094 247.683594 515.539062 C 248.054688 517.863281 248.457031 519.8125 248.761719 521.140625 C 251.839844 534.511719 255.855469 549.113281 264.679688 559.96875 C 260.128906 560.976562 255.59375 562 250.746094 563.089844 C 241.746094 565.113281 231.621094 567.390625 218.265625 570.292969 L 218.257812 570.015625 C 204.964844 570.414062 200.027344 551.625 198.832031 545.859375 C 195.574219 530.128906 197.699219 518.859375 205.140625 512.359375 L 204.71875 511.878906 C 206.4375 511.171875 208.152344 510.476562 209.867188 509.796875 Z M 154.574219 535.460938 C 154.621094 535.429688 154.664062 535.402344 154.710938 535.375 C 155.699219 534.902344 156.753906 534.433594 157.835938 533.96875 C 157.84375 534.199219 157.910156 534.414062 158.03125 534.613281 C 156.675781 538.789062 155.410156 542.769531 154.636719 547.199219 C 154.601562 547.375 154.605469 547.550781 154.644531 547.722656 C 154.679688 547.894531 154.75 548.054688 154.851562 548.203125 C 154.953125 548.347656 155.078125 548.46875 155.226562 548.5625 C 155.375 548.660156 155.539062 548.722656 155.710938 548.753906 C 155.886719 548.785156 156.0625 548.78125 156.234375 548.742188 C 156.40625 548.703125 156.566406 548.632812 156.710938 548.53125 C 156.855469 548.429688 156.972656 548.304688 157.070312 548.152344 C 157.164062 548.003906 157.222656 547.839844 157.253906 547.664062 C 158.03125 543.214844 159.351562 539.152344 160.75 534.855469 L 161.527344 532.453125 C 163.625 531.628906 165.835938 530.820312 168.109375 530.027344 C 167.121094 533.78125 165.375 538.328125 162.738281 543.894531 C 162.660156 544.054688 162.621094 544.222656 162.609375 544.398438 C 162.601562 544.574219 162.628906 544.746094 162.6875 544.914062 C 162.746094 545.078125 162.835938 545.226562 162.953125 545.359375 C 163.070312 545.488281 163.210938 545.59375 163.371094 545.667969 C 163.527344 545.746094 163.695312 545.785156 163.871094 545.796875 C 164.046875 545.804688 164.21875 545.78125 164.386719 545.722656 C 164.550781 545.664062 164.699219 545.574219 164.832031 545.457031 C 164.960938 545.335938 165.066406 545.199219 165.140625 545.039062 C 168.242188 538.488281 170.199219 533.226562 171.113281 528.992188 C 173.460938 528.199219 175.847656 527.425781 178.242188 526.667969 C 177.578125 528.957031 176.796875 531.21875 175.992188 533.421875 C 175.238281 535.492188 174.457031 537.632812 173.804688 539.800781 C 173.753906 539.972656 173.734375 540.144531 173.753906 540.320312 C 173.769531 540.492188 173.820312 540.660156 173.90625 540.816406 C 173.988281 540.972656 174.097656 541.105469 174.234375 541.214844 C 174.371094 541.328125 174.523438 541.410156 174.691406 541.460938 C 174.863281 541.511719 175.035156 541.53125 175.207031 541.511719 C 175.382812 541.496094 175.550781 541.445312 175.703125 541.363281 C 175.859375 541.277344 175.992188 541.167969 176.105469 541.03125 C 176.21875 540.894531 176.296875 540.742188 176.347656 540.574219 C 176.980469 538.476562 177.75 536.375 178.492188 534.339844 C 179.574219 531.511719 180.5 528.640625 181.28125 525.714844 C 183.328125 525.078125 185.359375 524.453125 187.347656 523.84375 C 187.210938 525.4375 186.550781 527.113281 185.839844 528.863281 C 184.769531 531.511719 183.660156 534.253906 184.230469 537.183594 C 184.265625 537.359375 184.332031 537.519531 184.429688 537.664062 C 184.523438 537.8125 184.648438 537.9375 184.792969 538.035156 C 184.9375 538.132812 185.097656 538.199219 185.269531 538.234375 C 185.445312 538.273438 185.617188 538.273438 185.789062 538.238281 C 185.964844 538.207031 186.125 538.140625 186.269531 538.042969 C 186.417969 537.945312 186.539062 537.824219 186.640625 537.679688 C 186.738281 537.53125 186.804688 537.371094 186.839844 537.199219 C 186.875 537.027344 186.875 536.855469 186.839844 536.679688 C 186.421875 534.527344 187.339844 532.261719 188.304688 529.867188 C 189.195312 527.671875 190.054688 525.398438 189.992188 523.03125 C 191.609375 522.535156 193.195312 522.042969 194.75 521.554688 C 192.742188 528.332031 192.753906 536.726562 194.820312 546.691406 C 196.546875 555.03125 199.464844 561.707031 203.238281 566.394531 C 193.339844 568.972656 186.457031 570.390625 178.644531 571.996094 C 173.308594 573.09375 167.792969 574.226562 160.746094 575.847656 C 155.078125 573.152344 149.785156 562.113281 149.125 551.484375 C 148.640625 543.714844 150.679688 537.863281 154.574219 535.460938 Z M 104.835938 560.652344 C 104.859375 560.636719 104.878906 560.625 104.898438 560.613281 L 108.613281 559.136719 L 108.863281 559.039062 C 108.78125 561.386719 109.109375 564.648438 110.359375 569.144531 C 111.53125 573.242188 113.652344 576.773438 116.71875 579.734375 C 114.886719 580.167969 113.125 580.5625 111.441406 580.925781 C 106.785156 579.679688 103.960938 574.1875 103.234375 569.152344 C 102.652344 565.117188 103.410156 561.53125 104.835938 560.652344 Z M 94.519531 569.707031 L 98.960938 567.652344 C 99 568.328125 99.066406 569.023438 99.167969 569.734375 C 99.585938 572.664062 100.523438 575.417969 101.96875 578 L 97.351562 579.144531 C 96.285156 577.816406 95.503906 576.335938 95.015625 574.703125 C 94.523438 573.070312 94.359375 571.402344 94.523438 569.707031 Z M 94.519531 569.707031 " fill-opacity="1" fill-rule="nonzero"/></g></g></g><g clip-path="url(#fd86a9f1cb)"><g clip-path="url(#d70eae410f)"><g clip-path="url(#a09570a501)"><path fill="#8447ff" d="M 293.492188 538.789062 C 293.863281 538.609375 294.121094 538.511719 294.359375 538.367188 C 294.429688 538.609375 294.589844 538.746094 294.839844 538.785156 C 297.144531 535.320312 296.804688 529.339844 294.925781 525.691406 C 289.976562 527.617188 291.773438 535.257812 293.492188 538.789062 Z M 293.492188 538.789062 " fill-opacity="1" fill-rule="nonzero"/></g></g></g><path fill="#8cffda" d="M 382.121094 501.71875 L 451.617188 501.71875 L 451.617188 648.253906 L 382.121094 648.253906 Z M 382.121094 501.71875 " fill-opacity="1" fill-rule="nonzero"/><path fill="#8cffda" d="M 486.367188 434.664062 L 555.863281 434.664062 L 555.863281 648.253906 L 486.367188 648.253906 Z M 486.367188 434.664062 " fill-opacity="1" fill-rule="nonzero"/><path fill="#8cffda" d="M 590.613281 351.050781 L 660.117188 351.050781 L 660.117188 648.253906 L 590.613281 648.253906 Z M 590.613281 351.050781 " fill-opacity="1" fill-rule="nonzero"/><g clip-path="url(#eca2cb4829)"><path fill="#8447ff" d="M 688.65625 654.433594 L 349.230469 654.433594 C 345.820312 654.433594 343.054688 651.664062 343.054688 648.253906 C 343.054688 644.839844 345.820312 642.074219 349.230469 642.074219 L 688.65625 642.074219 C 692.070312 642.074219 694.835938 644.839844 694.835938 648.253906 C 694.835938 651.664062 692.070312 654.433594 688.65625 654.433594 Z M 688.65625 654.433594 " fill-opacity="1" fill-rule="nonzero"/></g><path fill="#8447ff" d="M 326.902344 511.9375 C 325.492188 511.9375 324.078125 511.460938 322.917969 510.480469 C 320.3125 508.277344 319.984375 504.378906 322.183594 501.769531 L 372.433594 442.261719 C 374.421875 439.914062 377.824219 439.382812 380.425781 441.007812 L 407.328125 457.832031 L 481.632812 369.015625 C 483.5625 366.707031 486.878906 366.128906 489.480469 367.644531 L 519.738281 385.308594 L 613.652344 273.59375 C 615.847656 270.980469 619.742188 270.644531 622.355469 272.84375 C 624.964844 275.039062 625.300781 278.9375 623.105469 281.550781 L 525.839844 397.246094 C 523.90625 399.546875 520.597656 400.121094 518.003906 398.605469 L 487.757812 380.949219 L 413.347656 469.890625 C 411.367188 472.253906 407.953125 472.792969 405.339844 471.164062 L 378.417969 454.328125 L 331.621094 509.75 C 330.402344 511.195312 328.65625 511.9375 326.902344 511.9375 Z M 326.902344 511.9375 " fill-opacity="1" fill-rule="nonzero"/><g clip-path="url(#7e7f0ef408)"><path fill="#8447ff" d="M 654.121094 236.726562 L 628.695312 315.753906 L 616.410156 281.582031 L 580.667969 275.328125 Z M 654.121094 236.726562 " fill-opacity="1" fill-rule="nonzero"/></g><g clip-path="url(#a48c62ac45)"><g clip-path="url(#e3a905c731)"><path fill="#8447ff" d="M 107.222656 388.078125 L 228.375 388.078125 L 228.375 509.234375 L 107.222656 509.234375 Z M 107.222656 388.078125 " fill-opacity="1" fill-rule="nonzero"/></g></g><path fill="#8cffda" d="M 159.128906 425.480469 C 155.363281 425.480469 152.203125 428.425781 151.9375 432.183594 L 151.910156 432.574219 L 151.554688 432.75 C 147.847656 434.550781 145.546875 438.230469 145.546875 442.347656 C 145.546875 444.542969 146.210938 446.65625 147.464844 448.453125 L 147.628906 448.6875 L 147.578125 448.96875 C 147.558594 449.066406 147.542969 449.164062 147.53125 449.261719 L 147.503906 449.457031 L 147.378906 449.609375 C 145.527344 451.859375 144.507812 454.710938 144.507812 457.632812 C 144.507812 463.859375 149.140625 469.234375 155.289062 470.140625 L 155.558594 470.179688 L 155.726562 470.394531 C 157.390625 472.503906 160 473.882812 163.078125 474.273438 C 163.5625 474.335938 164.035156 474.1875 164.40625 473.863281 C 164.773438 473.539062 164.984375 473.070312 164.984375 472.582031 L 164.984375 425.574219 C 164.984375 424.46875 164.179688 423.972656 163.492188 423.882812 C 162.8125 423.792969 161.917969 424.0625 161.636719 425.121094 L 161.457031 425.832031 L 160.800781 425.679688 C 160.25 425.546875 159.6875 425.480469 159.128906 425.480469 Z M 163.289062 475.65625 C 163.160156 475.65625 163.03125 475.648438 162.90625 475.632812 C 159.570312 475.207031 156.714844 473.730469 154.824219 471.453125 C 151.632812 470.917969 148.714844 469.285156 146.578125 466.832031 C 144.359375 464.28125 143.140625 461.015625 143.140625 457.632812 C 143.140625 454.488281 144.207031 451.414062 146.152344 448.953125 C 144.859375 446.988281 144.179688 444.710938 144.179688 442.347656 C 144.179688 440.046875 144.828125 437.808594 146.0625 435.878906 C 147.191406 434.109375 148.757812 432.667969 150.609375 431.691406 C 151.109375 427.410156 154.777344 424.113281 159.128906 424.113281 C 159.589844 424.113281 160.054688 424.148438 160.511719 424.226562 C 161.066406 423.03125 162.296875 422.347656 163.667969 422.523438 C 164.960938 422.691406 166.351562 423.71875 166.351562 425.574219 L 166.351562 472.582031 C 166.351562 473.464844 165.972656 474.304688 165.308594 474.890625 C 164.746094 475.386719 164.027344 475.65625 163.289062 475.65625 " fill-opacity="1" fill-rule="nonzero"/><path fill="#8cffda" d="M 155.914062 471.476562 C 155.519531 471.476562 155.121094 471.449219 154.726562 471.394531 L 154.914062 470.039062 C 156.363281 470.242188 157.859375 470 159.132812 469.359375 L 159.75 470.582031 C 158.578125 471.171875 157.25 471.476562 155.914062 471.476562 " fill-opacity="1" fill-rule="nonzero"/><path fill="#8cffda" d="M 160.042969 471.097656 C 160.652344 470.734375 160.847656 469.941406 160.484375 469.332031 C 160.121094 468.722656 159.328125 468.523438 158.71875 468.890625 C 158.109375 469.253906 157.914062 470.042969 158.277344 470.65625 C 158.640625 471.265625 159.433594 471.460938 160.042969 471.097656 " fill-opacity="1" fill-rule="nonzero"/><path fill="#8cffda" d="M 152.695312 454.390625 C 149.96875 453.242188 147.707031 451.359375 146.15625 448.941406 L 147.304688 448.203125 C 148.707031 450.382812 150.753906 452.085938 153.226562 453.128906 L 152.695312 454.390625 " fill-opacity="1" fill-rule="nonzero"/><path fill="#8cffda" d="M 152.449219 454.9375 C 153.113281 455.1875 153.855469 454.847656 154.105469 454.183594 C 154.355469 453.519531 154.019531 452.777344 153.351562 452.527344 C 152.6875 452.277344 151.945312 452.613281 151.695312 453.277344 C 151.449219 453.945312 151.785156 454.6875 152.449219 454.9375 " fill-opacity="1" fill-rule="nonzero"/><path fill="#8cffda" d="M 149.421875 434.117188 L 148.601562 433.023438 C 150.902344 431.304688 153.679688 430.332031 156.632812 430.210938 L 156.6875 431.578125 C 154.011719 431.6875 151.496094 432.566406 149.421875 434.117188 " fill-opacity="1" fill-rule="nonzero"/><path fill="#8cffda" d="M 156.597656 432.1875 C 157.308594 432.183594 157.882812 431.609375 157.882812 430.898438 C 157.882812 430.1875 157.304688 429.613281 156.59375 429.613281 C 155.886719 429.613281 155.308594 430.191406 155.3125 430.902344 C 155.3125 431.613281 155.890625 432.1875 156.597656 432.1875 " fill-opacity="1" fill-rule="nonzero"/><path fill="#8cffda" d="M 158.660156 439.511719 L 157.863281 438.398438 C 159.789062 437.019531 161.183594 434.921875 161.695312 432.644531 C 162.296875 429.972656 161.691406 427.054688 160.082031 424.839844 L 161.1875 424.035156 C 163.027344 426.5625 163.71875 429.890625 163.03125 432.941406 C 162.449219 435.542969 160.855469 437.9375 158.660156 439.511719 " fill-opacity="1" fill-rule="nonzero"/><path fill="#8cffda" d="M 157.621094 437.828125 C 157.023438 438.210938 156.84375 439.007812 157.226562 439.605469 C 157.605469 440.203125 158.402344 440.382812 159 440 C 159.601562 439.621094 159.777344 438.824219 159.398438 438.222656 C 159.015625 437.625 158.21875 437.449219 157.621094 437.828125 " fill-opacity="1" fill-rule="nonzero"/><path fill="#8cffda" d="M 165.480469 461.5625 C 163.5 460.992188 161.71875 459.386719 160.332031 456.914062 C 159.851562 456.058594 159.4375 455.164062 159.035156 454.296875 C 158.507812 453.160156 158.011719 452.085938 157.371094 451.074219 C 156.203125 449.238281 154.574219 447.699219 152.664062 446.621094 L 153.335938 445.429688 C 155.441406 446.617188 157.234375 448.316406 158.523438 450.339844 C 159.214844 451.425781 159.753906 452.59375 160.277344 453.722656 C 160.667969 454.566406 161.070312 455.433594 161.523438 456.242188 C 162.367188 457.742188 163.804688 459.65625 165.859375 460.246094 L 165.480469 461.5625 " fill-opacity="1" fill-rule="nonzero"/><path fill="#8cffda" d="M 152.464844 447.207031 C 151.832031 446.878906 151.585938 446.105469 151.910156 445.472656 C 152.238281 444.839844 153.015625 444.59375 153.644531 444.921875 C 154.277344 445.246094 154.523438 446.023438 154.195312 446.652344 C 153.871094 447.285156 153.09375 447.53125 152.464844 447.207031 " fill-opacity="1" fill-rule="nonzero"/><path fill="#8cffda" d="M 171.808594 423.867188 C 171.726562 423.867188 171.644531 423.871094 171.566406 423.882812 C 170.878906 423.972656 170.074219 424.46875 170.074219 425.574219 L 170.074219 472.582031 C 170.074219 473.070312 170.285156 473.539062 170.65625 473.863281 C 171.023438 474.1875 171.496094 474.335938 171.980469 474.273438 C 175.058594 473.882812 177.671875 472.503906 179.332031 470.394531 L 179.5 470.179688 L 179.769531 470.140625 C 185.917969 469.234375 190.550781 463.859375 190.550781 457.632812 C 190.550781 454.710938 189.53125 451.859375 187.679688 449.609375 L 187.554688 449.457031 L 187.527344 449.261719 C 187.515625 449.164062 187.5 449.066406 187.480469 448.96875 L 187.429688 448.6875 L 187.59375 448.453125 C 188.847656 446.65625 189.511719 444.542969 189.511719 442.347656 C 189.511719 438.230469 187.210938 434.550781 183.503906 432.75 L 183.148438 432.574219 L 183.121094 432.183594 C 182.855469 428.425781 179.695312 425.480469 175.929688 425.480469 C 175.371094 425.480469 174.808594 425.546875 174.257812 425.679688 L 173.601562 425.832031 L 173.421875 425.121094 C 173.175781 424.1875 172.445312 423.867188 171.808594 423.867188 Z M 171.773438 475.65625 C 171.03125 475.65625 170.3125 475.386719 169.75 474.890625 C 169.085938 474.304688 168.707031 473.464844 168.707031 472.582031 L 168.707031 425.574219 C 168.707031 423.71875 170.097656 422.691406 171.390625 422.523438 C 172.761719 422.34375 173.992188 423.027344 174.546875 424.226562 C 175.007812 424.148438 175.46875 424.113281 175.929688 424.113281 C 180.28125 424.113281 183.949219 427.410156 184.449219 431.691406 C 186.300781 432.667969 187.867188 434.109375 188.996094 435.878906 C 190.230469 437.808594 190.882812 440.046875 190.882812 442.347656 C 190.882812 444.710938 190.199219 446.988281 188.90625 448.953125 C 190.851562 451.414062 191.917969 454.488281 191.917969 457.632812 C 191.917969 461.015625 190.699219 464.28125 188.480469 466.832031 C 186.34375 469.285156 183.425781 470.917969 180.238281 471.453125 C 178.347656 473.730469 175.488281 475.207031 172.152344 475.632812 C 172.027344 475.648438 171.898438 475.65625 171.773438 475.65625 " fill-opacity="1" fill-rule="nonzero"/><path fill="#8cffda" d="M 179.144531 471.476562 C 177.808594 471.476562 176.480469 471.171875 175.3125 470.582031 L 175.925781 469.359375 C 177.199219 470 178.699219 470.242188 180.144531 470.039062 L 180.332031 471.394531 C 179.9375 471.449219 179.542969 471.476562 179.144531 471.476562 " fill-opacity="1" fill-rule="nonzero"/><path fill="#8cffda" d="M 176.339844 468.890625 C 175.730469 468.523438 174.941406 468.722656 174.574219 469.332031 C 174.210938 469.941406 174.410156 470.734375 175.019531 471.097656 C 175.628906 471.460938 176.417969 471.265625 176.78125 470.65625 C 177.148438 470.042969 176.949219 469.253906 176.339844 468.890625 " fill-opacity="1" fill-rule="nonzero"/><path fill="#8cffda" d="M 182.363281 454.390625 L 181.835938 453.128906 C 184.304688 452.085938 186.351562 450.382812 187.753906 448.203125 L 188.902344 448.941406 C 187.351562 451.359375 185.089844 453.242188 182.363281 454.390625 " fill-opacity="1" fill-rule="nonzero"/><path fill="#8cffda" d="M 181.707031 452.527344 C 181.042969 452.777344 180.703125 453.519531 180.953125 454.183594 C 181.203125 454.847656 181.945312 455.1875 182.609375 454.9375 C 183.273438 454.6875 183.613281 453.945312 183.363281 453.277344 C 183.113281 452.613281 182.371094 452.277344 181.707031 452.527344 " fill-opacity="1" fill-rule="nonzero"/><path fill="#8cffda" d="M 185.636719 434.117188 C 183.5625 432.566406 181.046875 431.6875 178.371094 431.578125 L 178.425781 430.210938 C 181.378906 430.332031 184.15625 431.304688 186.457031 433.023438 L 185.636719 434.117188 " fill-opacity="1" fill-rule="nonzero"/><path fill="#8cffda" d="M 178.464844 429.613281 C 177.753906 429.613281 177.175781 430.1875 177.175781 430.898438 C 177.175781 431.609375 177.75 432.183594 178.460938 432.1875 C 179.171875 432.1875 179.746094 431.613281 179.75 430.902344 C 179.75 430.191406 179.175781 429.613281 178.464844 429.613281 " fill-opacity="1" fill-rule="nonzero"/><path fill="#8cffda" d="M 176.398438 439.511719 C 174.207031 437.9375 172.613281 435.542969 172.027344 432.941406 C 171.34375 429.890625 172.03125 426.5625 173.871094 424.035156 L 174.980469 424.839844 C 173.367188 427.054688 172.761719 429.972656 173.363281 432.644531 C 173.875 434.921875 175.273438 437.019531 177.195312 438.398438 L 176.398438 439.511719 " fill-opacity="1" fill-rule="nonzero"/><path fill="#8cffda" d="M 176.058594 440 C 176.65625 440.382812 177.453125 440.203125 177.832031 439.605469 C 178.214844 439.007812 178.039062 438.210938 177.4375 437.828125 C 176.839844 437.449219 176.042969 437.625 175.664062 438.222656 C 175.28125 438.824219 175.457031 439.621094 176.058594 440 " fill-opacity="1" fill-rule="nonzero"/><path fill="#8cffda" d="M 169.578125 461.5625 L 169.203125 460.246094 C 171.253906 459.65625 172.691406 457.742188 173.535156 456.242188 C 173.988281 455.433594 174.390625 454.566406 174.78125 453.722656 C 175.304688 452.59375 175.84375 451.425781 176.535156 450.339844 C 177.824219 448.316406 179.617188 446.617188 181.722656 445.429688 L 182.394531 446.621094 C 180.484375 447.699219 178.855469 449.238281 177.6875 451.074219 C 177.046875 452.085938 176.550781 453.160156 176.023438 454.296875 C 175.621094 455.164062 175.207031 456.058594 174.726562 456.914062 C 173.339844 459.386719 171.558594 460.992188 169.578125 461.5625 " fill-opacity="1" fill-rule="nonzero"/><path fill="#8cffda" d="M 181.414062 444.921875 C 182.046875 444.59375 182.820312 444.839844 183.148438 445.472656 C 183.472656 446.105469 183.226562 446.878906 182.59375 447.207031 C 181.964844 447.53125 181.1875 447.285156 180.863281 446.652344 C 180.535156 446.023438 180.785156 445.246094 181.414062 444.921875 " fill-opacity="1" fill-rule="nonzero"/><path fill="#8cffda" d="M 173.789062 478.183594 L 161.269531 478.183594 C 160.890625 478.183594 160.585938 477.878906 160.585938 477.5 C 160.585938 477.121094 160.890625 476.816406 161.269531 476.816406 L 173.789062 476.816406 C 174.167969 476.816406 174.472656 477.121094 174.472656 477.5 C 174.472656 477.878906 174.167969 478.183594 173.789062 478.183594 " fill-opacity="1" fill-rule="nonzero"/><path fill="#8cffda" d="M 173.789062 480.878906 L 161.269531 480.878906 C 160.890625 480.878906 160.585938 480.574219 160.585938 480.195312 C 160.585938 479.816406 160.890625 479.511719 161.269531 479.511719 L 173.789062 479.511719 C 174.167969 479.511719 174.472656 479.816406 174.472656 480.195312 C 174.472656 480.574219 174.167969 480.878906 173.789062 480.878906 " fill-opacity="1" fill-rule="nonzero"/><path fill="#8cffda" d="M 173.789062 483.578125 L 161.269531 483.578125 C 160.890625 483.578125 160.585938 483.269531 160.585938 482.894531 C 160.585938 482.515625 160.890625 482.207031 161.269531 482.207031 L 173.789062 482.207031 C 174.167969 482.207031 174.472656 482.515625 174.472656 482.894531 C 174.472656 483.269531 174.167969 483.578125 173.789062 483.578125 " fill-opacity="1" fill-rule="nonzero"/><path fill="#8cffda" d="M 173.789062 486.273438 L 161.269531 486.273438 C 160.890625 486.273438 160.585938 485.96875 160.585938 485.589844 C 160.585938 485.210938 160.890625 484.90625 161.269531 484.90625 L 173.789062 484.90625 C 174.167969 484.90625 174.472656 485.210938 174.472656 485.589844 C 174.472656 485.96875 174.167969 486.273438 173.789062 486.273438 " fill-opacity="1" fill-rule="nonzero"/><g clip-path="url(#b841dab541)"><path fill="#8cffda" d="M 167.53125 491 C 164.773438 491 162.527344 488.757812 162.527344 485.996094 L 162.53125 485.910156 L 163.898438 485.929688 L 163.898438 485.996094 C 163.898438 488 165.527344 489.632812 167.53125 489.632812 C 169.53125 489.632812 171.164062 488 171.164062 485.996094 C 171.164062 485.882812 171.15625 485.765625 171.144531 485.652344 L 172.507812 485.527344 C 172.523438 485.683594 172.53125 485.839844 172.53125 485.996094 C 172.53125 488.757812 170.289062 491 167.53125 491 " fill-opacity="1" fill-rule="nonzero"/></g><path fill="#8cffda" d="M 167.53125 415.859375 C 167.152344 415.859375 166.84375 415.554688 166.84375 415.175781 L 166.84375 410.441406 C 166.84375 410.0625 167.152344 409.757812 167.53125 409.757812 C 167.90625 409.757812 168.214844 410.0625 168.214844 410.441406 L 168.214844 415.175781 C 168.214844 415.554688 167.90625 415.859375 167.53125 415.859375 " fill-opacity="1" fill-rule="nonzero"/><g clip-path="url(#87f925d0d0)"><path fill="#8cffda" d="M 167.53125 402.792969 C 167.152344 402.792969 166.84375 402.488281 166.84375 402.109375 L 166.84375 397.726562 C 166.84375 397.347656 167.152344 397.042969 167.53125 397.042969 C 167.90625 397.042969 168.214844 397.347656 168.214844 397.726562 L 168.214844 402.109375 C 168.214844 402.488281 167.90625 402.792969 167.53125 402.792969 " fill-opacity="1" fill-rule="nonzero"/></g><path fill="#8cffda" d="M 191.277344 425.84375 C 191.101562 425.84375 190.925781 425.773438 190.792969 425.640625 C 190.527344 425.375 190.527344 424.941406 190.792969 424.675781 L 197.113281 418.351562 C 197.378906 418.085938 197.8125 418.085938 198.078125 418.351562 C 198.347656 418.621094 198.347656 419.054688 198.078125 419.320312 L 191.761719 425.640625 C 191.628906 425.773438 191.453125 425.84375 191.277344 425.84375 " fill-opacity="1" fill-rule="nonzero"/><path fill="#8cffda" d="M 199.730469 417.386719 C 199.554688 417.386719 199.378906 417.320312 199.246094 417.1875 C 198.976562 416.917969 198.976562 416.484375 199.246094 416.21875 L 203.128906 412.335938 C 203.394531 412.066406 203.828125 412.066406 204.09375 412.335938 C 204.363281 412.601562 204.363281 413.035156 204.09375 413.304688 L 200.210938 417.1875 C 200.078125 417.320312 199.902344 417.386719 199.730469 417.386719 " fill-opacity="1" fill-rule="nonzero"/><path fill="#8cffda" d="M 206.871094 449.699219 L 201.011719 449.699219 C 200.636719 449.699219 200.328125 449.390625 200.328125 449.015625 C 200.328125 448.636719 200.636719 448.332031 201.011719 448.332031 L 206.871094 448.332031 C 207.25 448.332031 207.558594 448.636719 207.558594 449.015625 C 207.558594 449.390625 207.25 449.699219 206.871094 449.699219 " fill-opacity="1" fill-rule="nonzero"/><g clip-path="url(#7111d88106)"><path fill="#8cffda" d="M 218.457031 449.699219 L 211.546875 449.699219 C 211.167969 449.699219 210.859375 449.390625 210.859375 449.015625 C 210.859375 448.636719 211.167969 448.332031 211.546875 448.332031 L 218.457031 448.332031 C 218.832031 448.332031 219.140625 448.636719 219.140625 449.015625 C 219.140625 449.390625 218.832031 449.699219 218.457031 449.699219 " fill-opacity="1" fill-rule="nonzero"/></g><path fill="#8cffda" d="M 194.203125 476.625 C 194.027344 476.625 193.855469 476.558594 193.71875 476.425781 L 190.550781 473.253906 C 190.28125 472.988281 190.28125 472.554688 190.550781 472.285156 C 190.816406 472.019531 191.25 472.019531 191.515625 472.285156 L 194.6875 475.457031 C 194.953125 475.726562 194.953125 476.15625 194.6875 476.425781 C 194.554688 476.558594 194.378906 476.625 194.203125 476.625 " fill-opacity="1" fill-rule="nonzero"/><path fill="#8cffda" d="M 202.882812 485.59375 L 196.460938 479.167969 C 196.195312 478.902344 196.195312 478.46875 196.460938 478.199219 C 196.730469 477.933594 197.164062 477.933594 197.429688 478.199219 L 203.851562 484.625 L 202.882812 485.59375 " fill-opacity="1" fill-rule="nonzero"/><path fill="#8cffda" d="M 141.902344 474.746094 C 141.726562 474.746094 141.550781 474.679688 141.417969 474.546875 C 141.152344 474.28125 141.152344 473.847656 141.417969 473.578125 L 142.953125 472.042969 C 143.222656 471.777344 143.65625 471.777344 143.921875 472.042969 C 144.1875 472.308594 144.1875 472.742188 143.921875 473.011719 L 142.386719 474.546875 C 142.253906 474.679688 142.078125 474.746094 141.902344 474.746094 " fill-opacity="1" fill-rule="nonzero"/><path fill="#8cffda" d="M 131.105469 485.550781 C 130.929688 485.550781 130.753906 485.484375 130.621094 485.347656 C 130.351562 485.082031 130.351562 484.648438 130.621094 484.382812 L 136.238281 478.761719 C 136.507812 478.492188 136.941406 478.492188 137.207031 478.761719 C 137.472656 479.027344 137.472656 479.460938 137.207031 479.726562 L 131.585938 485.347656 C 131.453125 485.484375 131.277344 485.550781 131.105469 485.550781 " fill-opacity="1" fill-rule="nonzero"/><path fill="#8cffda" d="M 133.703125 449.355469 L 127.457031 449.355469 C 127.078125 449.355469 126.773438 449.046875 126.773438 448.671875 C 126.773438 448.292969 127.078125 447.984375 127.457031 447.984375 L 133.703125 447.984375 C 134.082031 447.984375 134.386719 448.292969 134.386719 448.671875 C 134.386719 449.046875 134.082031 449.355469 133.703125 449.355469 " fill-opacity="1" fill-rule="nonzero"/><g clip-path="url(#d2f2425d0d)"><path fill="#8cffda" d="M 122.988281 449.355469 L 116.257812 449.355469 C 115.882812 449.355469 115.574219 449.046875 115.574219 448.671875 C 115.574219 448.292969 115.882812 447.984375 116.257812 447.984375 L 122.988281 447.984375 C 123.363281 447.984375 123.671875 448.292969 123.671875 448.671875 C 123.671875 449.046875 123.363281 449.355469 122.988281 449.355469 " fill-opacity="1" fill-rule="nonzero"/></g><path fill="#8cffda" d="M 143.679688 425.597656 C 143.507812 425.597656 143.332031 425.53125 143.199219 425.398438 L 139.734375 421.933594 C 139.464844 421.664062 139.464844 421.230469 139.734375 420.964844 C 140 420.695312 140.433594 420.695312 140.699219 420.964844 L 144.164062 424.429688 C 144.433594 424.699219 144.433594 425.132812 144.164062 425.398438 C 144.03125 425.53125 143.855469 425.597656 143.679688 425.597656 " fill-opacity="1" fill-rule="nonzero"/><path fill="#8cffda" d="M 136.457031 418.375 C 136.285156 418.375 136.109375 418.304688 135.976562 418.171875 L 130.863281 413.058594 C 130.597656 412.792969 130.597656 412.359375 130.863281 412.089844 C 131.128906 411.824219 131.5625 411.824219 131.832031 412.089844 L 136.941406 417.207031 C 137.210938 417.472656 137.210938 417.90625 136.941406 418.171875 C 136.808594 418.304688 136.632812 418.375 136.457031 418.375 " fill-opacity="1" fill-rule="nonzero"/><path fill="#8cffda" d="M 156.453125 419.671875 C 156.226562 419.671875 156.003906 419.558594 155.875 419.351562 L 153.886719 416.195312 C 153.6875 415.875 153.78125 415.453125 154.101562 415.253906 C 154.421875 415.050781 154.84375 415.148438 155.046875 415.46875 L 157.03125 418.625 C 157.234375 418.945312 157.136719 419.367188 156.816406 419.566406 C 156.703125 419.640625 156.578125 419.671875 156.453125 419.671875 " fill-opacity="1" fill-rule="nonzero"/><path fill="#8cffda" d="M 152.191406 412.898438 C 151.964844 412.898438 151.742188 412.785156 151.609375 412.578125 L 148.824219 408.148438 C 148.621094 407.828125 148.71875 407.40625 149.039062 407.207031 C 149.359375 407.003906 149.78125 407.101562 149.980469 407.421875 L 152.769531 411.851562 C 152.96875 412.167969 152.875 412.59375 152.554688 412.792969 C 152.441406 412.863281 152.316406 412.898438 152.191406 412.898438 " fill-opacity="1" fill-rule="nonzero"/><path fill="#8cffda" d="M 178.917969 419.671875 C 178.792969 419.671875 178.667969 419.640625 178.554688 419.566406 C 178.234375 419.367188 178.136719 418.945312 178.339844 418.625 L 180.597656 415.035156 C 180.796875 414.714844 181.21875 414.621094 181.539062 414.820312 C 181.859375 415.023438 181.957031 415.445312 181.753906 415.765625 L 179.496094 419.351562 C 179.367188 419.558594 179.144531 419.671875 178.917969 419.671875 " fill-opacity="1" fill-rule="nonzero"/><path fill="#8cffda" d="M 183.761719 411.976562 C 183.636719 411.976562 183.507812 411.945312 183.394531 411.871094 C 183.078125 411.671875 182.980469 411.25 183.183594 410.929688 L 185.390625 407.421875 C 185.589844 407.101562 186.011719 407.003906 186.332031 407.207031 C 186.652344 407.40625 186.75 407.828125 186.546875 408.148438 L 184.339844 411.660156 C 184.210938 411.863281 183.988281 411.976562 183.761719 411.976562 " fill-opacity="1" fill-rule="nonzero"/><path fill="#8cffda" d="M 137.230469 437.167969 L 131.296875 434.457031 C 130.953125 434.296875 130.800781 433.890625 130.960938 433.546875 C 131.117188 433.203125 131.523438 433.054688 131.867188 433.210938 L 137.796875 435.925781 L 137.230469 437.167969 " fill-opacity="1" fill-rule="nonzero"/><path fill="#8cffda" d="M 127.515625 432.65625 C 127.417969 432.65625 127.324219 432.636719 127.230469 432.59375 L 121.925781 430.167969 C 121.582031 430.011719 121.429688 429.605469 121.589844 429.261719 C 121.746094 428.917969 122.152344 428.765625 122.496094 428.921875 L 127.800781 431.351562 C 128.144531 431.507812 128.292969 431.914062 128.136719 432.257812 C 128.023438 432.507812 127.773438 432.65625 127.515625 432.65625 " fill-opacity="1" fill-rule="nonzero"/><path fill="#8cffda" d="M 197.484375 437.167969 L 196.917969 435.925781 L 203.035156 433.125 C 203.375 432.96875 203.78125 433.121094 203.941406 433.464844 C 204.097656 433.808594 203.945312 434.214844 203.601562 434.371094 L 197.484375 437.167969 " fill-opacity="1" fill-rule="nonzero"/><path fill="#8cffda" d="M 210.109375 431.324219 C 209.851562 431.324219 209.605469 431.175781 209.488281 430.925781 C 209.332031 430.582031 209.484375 430.175781 209.828125 430.019531 L 212.21875 428.921875 C 212.5625 428.765625 212.96875 428.917969 213.128906 429.261719 C 213.285156 429.605469 213.132812 430.011719 212.789062 430.167969 L 210.394531 431.261719 C 210.304688 431.304688 210.207031 431.324219 210.109375 431.324219 " fill-opacity="1" fill-rule="nonzero"/><path fill="#8cffda" d="M 133.207031 463.214844 C 132.964844 463.214844 132.726562 463.082031 132.605469 462.851562 C 132.425781 462.515625 132.554688 462.101562 132.886719 461.925781 L 136.949219 459.765625 C 137.285156 459.589844 137.699219 459.714844 137.875 460.050781 C 138.050781 460.382812 137.925781 460.796875 137.589844 460.976562 L 133.527344 463.132812 C 133.425781 463.1875 133.316406 463.214844 133.207031 463.214844 " fill-opacity="1" fill-rule="nonzero"/><path fill="#8cffda" d="M 123.761719 468.320312 L 123.121094 467.113281 L 129.144531 463.914062 C 129.476562 463.734375 129.890625 463.863281 130.070312 464.195312 C 130.246094 464.53125 130.121094 464.945312 129.785156 465.121094 L 123.761719 468.320312 " fill-opacity="1" fill-rule="nonzero"/><path fill="#8cffda" d="M 200.722656 462.535156 C 200.613281 462.535156 200.503906 462.507812 200.402344 462.453125 L 197.617188 460.976562 C 197.285156 460.796875 197.15625 460.382812 197.332031 460.050781 C 197.511719 459.714844 197.925781 459.589844 198.257812 459.765625 L 201.042969 461.246094 C 201.375 461.421875 201.503906 461.835938 201.324219 462.171875 C 201.203125 462.402344 200.964844 462.535156 200.722656 462.535156 " fill-opacity="1" fill-rule="nonzero"/><path fill="#8cffda" d="M 211.765625 468.402344 C 211.660156 468.402344 211.550781 468.375 211.445312 468.320312 L 204.726562 464.75 C 204.394531 464.574219 204.265625 464.160156 204.441406 463.828125 C 204.621094 463.492188 205.035156 463.367188 205.367188 463.542969 L 212.089844 467.113281 C 212.421875 467.289062 212.550781 467.703125 212.371094 468.039062 C 212.25 468.269531 212.011719 468.402344 211.765625 468.402344 " fill-opacity="1" fill-rule="nonzero"/><path fill="#8cffda" d="M 330.035156 341.871094 C 327.625 341.871094 325.214844 341.488281 322.816406 340.726562 C 301.277344 333.910156 286.132812 297.65625 275.058594 271.191406 C 273.507812 267.492188 271.972656 263.734375 270.363281 259.8125 C 254.367188 220.738281 230.167969 161.699219 199.714844 171.300781 C 185.511719 175.804688 176.726562 196.78125 168.222656 217.082031 C 157.980469 241.515625 147.402344 266.742188 125.699219 265.0625 C 123.582031 264.894531 122.003906 263.042969 122.171875 260.925781 C 122.339844 258.808594 124.160156 257.226562 126.304688 257.398438 C 142.507812 258.738281 151.550781 237.027344 161.140625 214.101562 C 170.324219 192.191406 179.816406 169.535156 197.429688 163.972656 C 234.625 152.214844 259.390625 212.71875 277.484375 256.902344 C 279.078125 260.800781 280.617188 264.539062 282.082031 268.054688 C 292.054688 291.882812 307.003906 327.65625 325.144531 333.402344 C 330.136719 334.984375 335.144531 334.148438 340.417969 330.832031 C 352.855469 322.996094 360.628906 307.3125 368.851562 290.726562 C 381.304688 265.597656 395.421875 237.113281 429.796875 225.847656 C 431.824219 225.167969 433.984375 226.285156 434.632812 228.304688 C 435.296875 230.320312 434.195312 232.480469 432.179688 233.144531 C 400.867188 243.40625 388.089844 269.199219 375.71875 294.144531 C 367.003906 311.730469 358.765625 328.347656 344.492188 337.339844 C 339.699219 340.359375 334.859375 341.871094 330.035156 341.871094 Z M 330.035156 341.871094 " fill-opacity="1" fill-rule="nonzero"/><path fill="#49e6b4" d="M 286.964844 341.886719 C 285.371094 341.886719 283.789062 341.644531 282.195312 341.179688 C 263.890625 335.703125 251.421875 298.238281 242.308594 270.894531 C 241.097656 267.25 239.871094 263.496094 238.601562 259.585938 C 228.304688 228.007812 212.746094 180.292969 194.214844 171.582031 C 190.6875 169.929688 187.234375 169.816406 183.636719 171.230469 C 172.507812 175.648438 165.835938 194.480469 159.390625 212.703125 C 151.675781 234.5 143.707031 257.03125 126.234375 257.03125 C 126.136719 257.03125 126.035156 257.03125 125.9375 257.03125 C 123.820312 257.003906 122.128906 255.25 122.15625 253.132812 C 122.1875 251.015625 123.976562 249.265625 126.050781 249.351562 C 126.105469 249.351562 126.148438 249.351562 126.207031 249.351562 C 138.277344 249.351562 145.34375 229.417969 152.15625 210.136719 C 159.179688 190.300781 166.429688 169.777344 180.816406 164.085938 C 186.402344 161.871094 192 162.054688 197.472656 164.625 C 219.011719 174.746094 233.917969 220.453125 245.890625 257.1875 C 247.160156 261.082031 248.390625 264.824219 249.558594 268.339844 C 257.191406 291.277344 269.910156 329.476562 284.394531 333.8125 C 287.613281 334.769531 290.898438 333.882812 294.4375 331.070312 C 302.703125 324.535156 308.203125 308.613281 314.566406 290.164062 C 326.878906 254.476562 342.207031 210.066406 388.933594 200.296875 C 390.996094 199.859375 393.039062 201.199219 393.476562 203.273438 C 393.914062 205.347656 392.589844 207.382812 390.5 207.820312 C 348.035156 216.699219 333.492188 258.824219 321.8125 292.675781 C 315.058594 312.253906 309.21875 329.167969 299.191406 337.101562 C 295.1875 340.277344 291.082031 341.886719 286.964844 341.886719 Z M 286.964844 341.886719 " fill-opacity="1" fill-rule="nonzero"/><path fill="#6c38d4" d="M 360.515625 338.992188 L 354.140625 338.992188 L 354.140625 337.070312 L 360.515625 337.070312 Z M 350.320312 338.992188 L 342.644531 338.992188 L 342.644531 337.070312 L 350.320312 337.070312 Z M 338.808594 338.992188 L 331.136719 338.992188 L 331.136719 337.070312 L 338.808594 337.070312 Z M 327.300781 338.992188 L 319.628906 338.992188 L 319.628906 337.070312 L 327.300781 337.070312 Z M 315.792969 338.992188 L 308.121094 338.992188 L 308.121094 337.070312 L 315.792969 337.070312 Z M 304.28125 338.992188 L 296.609375 338.992188 L 296.609375 337.070312 L 304.28125 337.070312 Z M 292.773438 338.992188 L 285.101562 338.992188 L 285.101562 337.070312 L 292.773438 337.070312 Z M 281.265625 338.992188 L 273.59375 338.992188 L 273.59375 337.070312 L 281.265625 337.070312 Z M 269.757812 338.992188 L 262.082031 338.992188 L 262.082031 337.070312 L 269.757812 337.070312 Z M 258.246094 338.992188 L 250.574219 338.992188 L 250.574219 337.070312 L 258.246094 337.070312 Z M 246.738281 338.992188 L 239.066406 338.992188 L 239.066406 337.070312 L 246.738281 337.070312 Z M 235.230469 338.992188 L 227.558594 338.992188 L 227.558594 337.070312 L 235.230469 337.070312 Z M 223.722656 338.992188 L 216.046875 338.992188 L 216.046875 337.070312 L 223.722656 337.070312 Z M 212.210938 338.992188 L 204.539062 338.992188 L 204.539062 337.070312 L 212.210938 337.070312 Z M 200.703125 338.992188 L 193.03125 338.992188 L 193.03125 337.070312 L 200.703125 337.070312 Z M 189.195312 338.992188 L 181.519531 338.992188 L 181.519531 337.070312 L 189.195312 337.070312 Z M 177.683594 338.992188 L 170.011719 338.992188 L 170.011719 337.070312 L 177.683594 337.070312 Z M 166.175781 338.992188 L 158.503906 338.992188 L 158.503906 337.070312 L 166.175781 337.070312 Z M 154.667969 338.992188 L 146.996094 338.992188 L 146.996094 337.070312 L 154.667969 337.070312 Z M 143.160156 338.992188 L 135.484375 338.992188 L 135.484375 337.070312 L 143.160156 337.070312 Z M 131.648438 338.992188 L 123.976562 338.992188 L 123.976562 337.070312 L 131.648438 337.070312 Z M 131.648438 338.992188 " fill-opacity="1" fill-rule="nonzero"/><path fill="#6c38d4" d="M 311.363281 167.347656 L 308.121094 167.347656 L 308.121094 165.429688 L 311.363281 165.429688 Z M 304.28125 167.347656 L 296.609375 167.347656 L 296.609375 165.429688 L 304.28125 165.429688 Z M 292.773438 167.347656 L 285.101562 167.347656 L 285.101562 165.429688 L 292.773438 165.429688 Z M 281.265625 167.347656 L 273.59375 167.347656 L 273.59375 165.429688 L 281.265625 165.429688 Z M 269.757812 167.347656 L 262.082031 167.347656 L 262.082031 165.429688 L 269.757812 165.429688 Z M 258.246094 167.347656 L 250.574219 167.347656 L 250.574219 165.429688 L 258.246094 165.429688 Z M 246.738281 167.347656 L 239.066406 167.347656 L 239.066406 165.429688 L 246.738281 165.429688 Z M 235.230469 167.347656 L 227.558594 167.347656 L 227.558594 165.429688 L 235.230469 165.429688 Z M 223.722656 167.347656 L 216.046875 167.347656 L 216.046875 165.429688 L 223.722656 165.429688 Z M 212.210938 167.347656 L 204.539062 167.347656 L 204.539062 165.429688 L 212.210938 165.429688 Z M 200.703125 167.347656 L 193.03125 167.347656 L 193.03125 165.429688 L 200.703125 165.429688 Z M 189.195312 167.347656 L 181.519531 167.347656 L 181.519531 165.429688 L 189.195312 165.429688 Z M 177.683594 167.347656 L 170.011719 167.347656 L 170.011719 165.429688 L 177.683594 165.429688 Z M 166.175781 167.347656 L 158.503906 167.347656 L 158.503906 165.429688 L 166.175781 165.429688 Z M 154.667969 167.347656 L 146.996094 167.347656 L 146.996094 165.429688 L 154.667969 165.429688 Z M 143.160156 167.347656 L 135.484375 167.347656 L 135.484375 165.429688 L 143.160156 165.429688 Z M 131.648438 167.347656 L 123.976562 167.347656 L 123.976562 165.429688 L 131.648438 165.429688 Z M 131.648438 167.347656 " fill-opacity="1" fill-rule="nonzero"/><path fill="#6c38d4" d="M 328.695312 336.464844 L 326.777344 336.464844 L 326.777344 328.785156 L 328.695312 328.785156 Z M 328.695312 324.945312 L 326.777344 324.945312 L 326.777344 317.265625 L 328.695312 317.265625 Z M 328.695312 313.425781 L 326.777344 313.425781 L 326.777344 305.746094 L 328.695312 305.746094 Z M 328.695312 301.90625 L 326.777344 301.90625 L 326.777344 294.226562 L 328.695312 294.226562 Z M 328.695312 290.386719 L 326.777344 290.386719 L 326.777344 282.707031 L 328.695312 282.707031 Z M 328.695312 278.867188 L 326.777344 278.867188 L 326.777344 271.1875 L 328.695312 271.1875 Z M 328.695312 278.867188 " fill-opacity="1" fill-rule="nonzero"/><path fill="#6c38d4" d="M 190.832031 270.765625 L 188.910156 270.765625 L 188.910156 270.058594 L 190.832031 270.058594 Z M 190.832031 266.21875 L 188.910156 266.21875 L 188.910156 258.539062 L 190.832031 258.539062 Z M 190.832031 254.703125 L 188.910156 254.703125 L 188.910156 247.023438 L 190.832031 247.023438 Z M 190.832031 243.183594 L 188.910156 243.183594 L 188.910156 235.503906 L 190.832031 235.503906 Z M 190.832031 231.664062 L 188.910156 231.664062 L 188.910156 223.984375 L 190.832031 223.984375 Z M 190.832031 220.144531 L 188.910156 220.144531 L 188.910156 212.464844 L 190.832031 212.464844 Z M 190.832031 208.625 L 188.910156 208.625 L 188.910156 200.945312 L 190.832031 200.945312 Z M 190.832031 197.105469 L 188.910156 197.105469 L 188.910156 189.425781 L 190.832031 189.425781 Z M 190.832031 185.585938 L 188.910156 185.585938 L 188.910156 177.90625 L 190.832031 177.90625 Z M 190.832031 174.066406 L 188.910156 174.066406 L 188.910156 166.386719 L 190.832031 166.386719 Z M 190.832031 174.066406 " fill-opacity="1" fill-rule="nonzero"/><g clip-path="url(#33f15bd7e6)"><path fill="#8447ff" d="M 107.757812 146.566406 L 104.949219 143.941406 L 123.695312 123.980469 L 143.636719 142.742188 L 141 145.550781 L 123.863281 129.417969 Z M 107.757812 146.566406 " fill-opacity="1" fill-rule="nonzero"/></g><g clip-path="url(#e5c82059f0)"><path fill="#8447ff" d="M 429.976562 290.570312 L 427.355469 287.777344 L 444.492188 271.65625 L 428.382812 254.503906 L 431.175781 251.878906 L 449.90625 271.824219 Z M 429.976562 290.570312 " fill-opacity="1" fill-rule="nonzero"/></g><g clip-path="url(#85fb65b47a)"><path fill="#8447ff" d="M 83.90625 269.269531 L 446.464844 269.269531 L 446.464844 273.109375 L 83.90625 273.109375 Z M 83.90625 269.269531 " fill-opacity="1" fill-rule="nonzero"/></g><g clip-path="url(#38b98f8128)"><path fill="#8447ff" d="M 122.058594 126.707031 L 125.894531 126.707031 L 125.894531 349.691406 L 122.058594 349.691406 Z M 122.058594 126.707031 " fill-opacity="1" fill-rule="nonzero"/></g></svg>