<svg xmlns="http://www.w3.org/2000/svg" xmlns:xlink="http://www.w3.org/1999/xlink" width="1024" zoomAndPan="magnify" viewBox="0 0 768 767.999994" height="1024" preserveAspectRatio="xMidYMid meet" version="1.0"><defs><clipPath id="042bdf7d9c"><path d="M 0 0 L 188 0 L 188 187 L 0 187 Z M 0 0 " clip-rule="nonzero"/></clipPath><clipPath id="74ae9273c7"><path d="M 79.324219 -138.722656 L 210.316406 -7.734375 L -7.121094 209.703125 L -138.113281 78.710938 Z M 79.324219 -138.722656 " clip-rule="nonzero"/></clipPath><clipPath id="010dcd4dcf"><path d="M 79.324219 -138.722656 L 210.316406 -7.734375 L -7.121094 209.703125 L -138.113281 78.710938 Z M 79.324219 -138.722656 " clip-rule="nonzero"/></clipPath><clipPath id="ca961a45ca"><path d="M 579 578 L 768 578 L 768 768 L 579 768 Z M 579 578 " clip-rule="nonzero"/></clipPath><clipPath id="93b342f98e"><path d="M 687.910156 903.441406 L 556.917969 772.449219 L 774.351562 555.015625 L 905.34375 686.003906 Z M 687.910156 903.441406 " clip-rule="nonzero"/></clipPath><clipPath id="e42ce32707"><path d="M 687.910156 903.441406 L 556.917969 772.449219 L 774.351562 555.015625 L 905.34375 686.003906 Z M 687.910156 903.441406 " clip-rule="nonzero"/></clipPath><clipPath id="f2f3e8d841"><path d="M 0 577 L 188 577 L 188 768 L 0 768 Z M 0 577 " clip-rule="nonzero"/></clipPath><clipPath id="76bab98ec3"><path d="M -137.894531 686.222656 L -6.90625 555.230469 L 210.53125 772.664062 L 79.539062 903.65625 Z M -137.894531 686.222656 " clip-rule="nonzero"/></clipPath><clipPath id="47e3550729"><path d="M -137.894531 686.222656 L -6.90625 555.230469 L 210.53125 772.664062 L 79.539062 903.65625 Z M -137.894531 686.222656 " clip-rule="nonzero"/></clipPath><clipPath id="ae77c95b3c"><path d="M 579 0 L 768 0 L 768 188 L 579 188 Z M 579 0 " clip-rule="nonzero"/></clipPath><clipPath id="eb8a3af0a2"><path d="M 905.128906 78.496094 L 774.136719 209.488281 L 556.703125 -7.949219 L 687.695312 -138.941406 Z M 905.128906 78.496094 " clip-rule="nonzero"/></clipPath><clipPath id="358f0f09b1"><path d="M 905.128906 78.496094 L 774.136719 209.488281 L 556.703125 -7.949219 L 687.695312 -138.941406 Z M 905.128906 78.496094 " clip-rule="nonzero"/></clipPath><clipPath id="1a1b003c90"><path d="M 155.550781 174.257812 L 612.300781 174.257812 L 612.300781 631.007812 L 155.550781 631.007812 Z M 155.550781 174.257812 " clip-rule="nonzero"/></clipPath><clipPath id="927fe87f91"><path d="M 155.570312 178.722656 L 612.277344 178.722656 L 612.277344 227.472656 L 155.570312 227.472656 Z M 155.570312 178.722656 " clip-rule="nonzero"/></clipPath><clipPath id="ea96d5ec2f"><path d="M 210.953125 278.964844 L 271.703125 278.964844 L 271.703125 362.214844 L 210.953125 362.214844 Z M 210.953125 278.964844 " clip-rule="nonzero"/></clipPath><clipPath id="7b98ef961b"><path d="M 307.328125 278.964844 L 368.078125 278.964844 L 368.078125 362.214844 L 307.328125 362.214844 Z M 307.328125 278.964844 " clip-rule="nonzero"/></clipPath><clipPath id="75e699a046"><path d="M 274.71875 278.519531 L 303.21875 278.519531 L 303.21875 361.769531 L 274.71875 361.769531 Z M 274.71875 278.519531 " clip-rule="nonzero"/></clipPath><clipPath id="02e5a216ff"><path d="M 472.515625 362.035156 L 557.207031 362.035156 L 557.207031 467.035156 L 472.515625 467.035156 Z M 472.515625 362.035156 " clip-rule="nonzero"/></clipPath></defs><g clip-path="url(#042bdf7d9c)"><g clip-path="url(#74ae9273c7)"><g clip-path="url(#010dcd4dcf)"><path fill="#8447ff" d="M -29.746094 186.601562 L -29.734375 -29.628906 L 187.996094 -29.640625 L 187.996094 14.632812 L 14.539062 14.640625 L 14.527344 186.601562 L -29.746094 186.601562 " fill-opacity="1" fill-rule="nonzero"/></g></g></g><g clip-path="url(#ca961a45ca)"><g clip-path="url(#93b342f98e)"><g clip-path="url(#e42ce32707)"><path fill="#8447ff" d="M 796.980469 578.113281 L 796.964844 794.34375 L 579.234375 794.355469 L 579.234375 750.082031 L 752.695312 750.074219 L 752.707031 578.113281 L 796.980469 578.113281 " fill-opacity="1" fill-rule="nonzero"/></g></g></g><g clip-path="url(#f2f3e8d841)"><g clip-path="url(#76bab98ec3)"><g clip-path="url(#47e3550729)"><path fill="#8447ff" d="M 187.429688 795.292969 L -28.800781 795.277344 L -28.8125 577.546875 L 15.460938 577.546875 L 15.46875 751.007812 L 187.429688 751.019531 L 187.429688 795.292969 " fill-opacity="1" fill-rule="nonzero"/></g></g></g><g clip-path="url(#ae77c95b3c)"><g clip-path="url(#eb8a3af0a2)"><g clip-path="url(#358f0f09b1)"><path fill="#8447ff" d="M 579.800781 -30.574219 L 796.03125 -30.5625 L 796.042969 187.167969 L 751.769531 187.167969 L 751.761719 13.710938 L 579.800781 13.699219 L 579.800781 -30.574219 " fill-opacity="1" fill-rule="nonzero"/></g></g></g><g clip-path="url(#1a1b003c90)"><path stroke-linecap="butt" transform="matrix(0.749769, 0, 0, 0.749769, 155.549995, 174.258967)" fill="none" stroke-linejoin="miter" d="M 0.00104825 -0.00153924 L 609.188572 -0.00153924 L 609.188572 609.185984 L 0.00104825 609.185984 Z M 0.00104825 -0.00153924 " stroke="#8447ff" stroke-width="20" stroke-opacity="1" stroke-miterlimit="4"/></g><g clip-path="url(#927fe87f91)"><path stroke-linecap="butt" transform="matrix(0.749769, 0, 0, 0.75, 155.570707, 178.720881)" fill="none" stroke-linejoin="miter" d="M -0.000526565 0.00236732 L 609.129727 0.00236732 L 609.129727 65.002371 L -0.000526565 65.002371 Z M -0.000526565 0.00236732 " stroke="#8447ff" stroke-width="20" stroke-opacity="1" stroke-miterlimit="4"/></g><path stroke-linecap="round" transform="matrix(-0.766585, 0, 0, -0.75, 530.222137, 209.848574)" fill="none" stroke-linejoin="miter" d="M 8.998247 9.001225 L 3.724245 9.001225 " stroke="#8cffda" stroke-width="18" stroke-opacity="1" stroke-miterlimit="4"/><path stroke-linecap="round" transform="matrix(-0.766585, 0, 0, -0.75, 555.506352, 209.848574)" fill="none" stroke-linejoin="miter" d="M 9.002114 9.001225 L 3.728113 9.001225 " stroke="#8cffda" stroke-width="18" stroke-opacity="1" stroke-miterlimit="4"/><path stroke-linecap="round" transform="matrix(-0.766585, 0, 0, -0.75, 581.410822, 209.848574)" fill="none" stroke-linejoin="miter" d="M 8.999793 9.001225 L 3.725792 9.001225 " stroke="#8cffda" stroke-width="18" stroke-opacity="1" stroke-miterlimit="4"/><g clip-path="url(#ea96d5ec2f)"><path fill="#8447ff" d="M 210.988281 323.992188 L 271.667969 362.214844 L 271.667969 341.785156 L 238.222656 320.589844 L 271.667969 299.394531 L 271.667969 278.964844 L 210.988281 317.1875 Z M 210.988281 323.992188 " fill-opacity="1" fill-rule="nonzero"/></g><g clip-path="url(#7b98ef961b)"><path fill="#8447ff" d="M 307.359375 299.398438 L 340.8125 320.582031 L 307.359375 341.777344 L 307.359375 362.214844 L 368.042969 323.976562 L 368.042969 317.183594 L 307.359375 278.964844 Z M 307.359375 299.398438 " fill-opacity="1" fill-rule="nonzero"/></g><g clip-path="url(#75e699a046)"><path fill="#8447ff" d="M 289.785156 278.59375 L 303.21875 278.59375 L 288.152344 361.695312 L 274.71875 361.695312 Z M 289.785156 278.59375 " fill-opacity="1" fill-rule="nonzero"/></g><path stroke-linecap="butt" transform="matrix(0.749066, 0, 0, 0.75, 179.367388, 402.532529)" fill="none" stroke-linejoin="miter" d="M -0.0002673 14.498296 L 213.265366 14.498296 " stroke="#8cffda" stroke-width="29" stroke-opacity="1" stroke-miterlimit="4"/><path stroke-linecap="butt" transform="matrix(-0.748658, 0, 0, -0.75, 415.477782, 538.076129)" fill="none" stroke-linejoin="miter" d="M 0.00162951 15.002548 L 183.329758 15.002548 " stroke="#8cffda" stroke-width="30" stroke-opacity="1" stroke-miterlimit="4"/><path stroke-linecap="butt" transform="matrix(-0.751756, 0, 0, -0.75, 415.476534, 582.439335)" fill="none" stroke-linejoin="miter" d="M -0.0000373225 15.002448 L 213.505183 15.002448 " stroke="#8cffda" stroke-width="30" stroke-opacity="1" stroke-miterlimit="4"/><path stroke-linecap="butt" transform="matrix(0.752813, 0, 0, 0.75, 179.367388, 515.57613)" fill="none" stroke-linejoin="miter" d="M -0.000265969 14.997452 L 91.666363 14.997452 " stroke="#8cffda" stroke-width="30" stroke-opacity="1" stroke-miterlimit="4"/><path stroke-linecap="butt" transform="matrix(-0.748405, 0, 0, -0.75, 228.972853, 582.439335)" fill="none" stroke-linejoin="miter" d="M 0.000263254 15.002448 L 66.140891 15.002448 " stroke="#8cffda" stroke-width="30" stroke-opacity="1" stroke-miterlimit="4"/><path stroke-linecap="butt" transform="matrix(0.749488, 0, 0, 0.75, 277.872001, 435.564526)" fill="none" stroke-linejoin="miter" d="M -0.00121083 14.502507 L 183.12901 14.502507 " stroke="#8cffda" stroke-width="29" stroke-opacity="1" stroke-miterlimit="4"/><path stroke-linecap="butt" transform="matrix(-0.753584, 0, 0, -0.75, 248.039259, 457.314525)" fill="none" stroke-linejoin="miter" d="M 0.000260392 14.497493 L 91.562766 14.497493 " stroke="#8cffda" stroke-width="29" stroke-opacity="1" stroke-miterlimit="4"/><path stroke-linecap="butt" transform="matrix(0.74929, 0, 0, 0.75, 365.666411, 402.532529)" fill="none" stroke-linejoin="miter" d="M 0.00207856 14.498296 L 66.069793 14.498296 " stroke="#8cffda" stroke-width="29" stroke-opacity="1" stroke-miterlimit="4"/><path stroke-linecap="butt" transform="matrix(-0.747322, 0, 0, -0.75, 261.410352, 490.928468)" fill="none" stroke-linejoin="miter" d="M 0.000261488 14.498374 L 109.396122 14.498374 " stroke="#8cffda" stroke-width="29" stroke-opacity="1" stroke-miterlimit="4"/><path stroke-linecap="butt" transform="matrix(-0.751611, 0, 0, -0.75, 415.429854, 490.928468)" fill="none" stroke-linejoin="miter" d="M 0.000222116 14.498374 L 174.630428 14.498374 " stroke="#8cffda" stroke-width="29" stroke-opacity="1" stroke-miterlimit="4"/><g clip-path="url(#02e5a216ff)"><path fill="#8447ff" d="M 557.207031 410.210938 L 472.515625 362.03125 L 484.113281 457.730469 L 507.246094 431.507812 L 507.367188 431.425781 L 530.554688 467.046875 L 546.914062 456.421875 L 523.621094 420.640625 L 523.722656 420.570312 L 557.207031 410.210938 " fill-opacity="1" fill-rule="nonzero"/></g></svg>