<?xml version="1.0" encoding="utf-8"?>
<!-- Generator: Adobe Illustrator 24.2.1, SVG Export Plug-In . SVG Version: 6.00 Build 0)  -->
<svg version="1.1" id="Camada_1" xmlns="http://www.w3.org/2000/svg" xmlns:xlink="http://www.w3.org/1999/xlink" x="0px" y="0px"
	 viewBox="0 0 520 190" style="enable-background:new 0 0 520 190;" xml:space="preserve">
<style type="text/css">
	.st0{fill:#FFFFFF;}
	.st1{fill:#009E59;}
	.st2{fill:#1D1D1B;}
</style>
<g>
	<rect class="st0" width="520" height="190"/>
	<g>
		<path class="st1" d="M93,72.4l-6.6-6.6V119l-8.6,8.6l-5.5-5.4V3.2l-7.1,7.1V120l-7.4,7.4l-6.4-6.4V23.9L44.3,31v89.9l-6.2,6.2
			L31,120V44.2l-7.1,7.1V120l-7,7l-7.1-7.1V65l-7.2,7.2l-0.1,50.3l10.4,10.3L2.6,143.1l9.7,9.7l-9.8,9.8l24.9,24.9l9.8-9.8
			l10.6,10.6l10.4-10.4l9.7,9.7l24.7-24.7l-10.4-10.4l10.3-10.3l-9.5-9.5l10-10L93,72.4L93,72.4z M68.9,127.4l5.3,5.3l-5.3,5.3
			l-5.3-5.3L68.9,127.4z M73.8,153.4l-5.3,5.3l-5.3-5.3l5.3-5.3L73.8,153.4z M58,137.5l5.3,5.3l-5.3,5.3l-5.3-5.3L58,137.5z
			 M52.8,153.4l-5.3,5.3l-5.3-5.3l5.3-5.3L52.8,153.4z M47.8,127.3l5.2,5.3l-5.2,5.3l-5.3-5.3L47.8,127.3z M42.8,142.8l-5.2,5.3
			l-5.3-5.3l5.3-5.3L42.8,142.8z M32.8,153.4l-5.3,5.3l-5.2-5.3l5.2-5.3L32.8,153.4z M27.4,127.7l5.3,5.3l-5.3,5.3l-5.2-5.3
			L27.4,127.7z M11.8,142.9l5.3-5.3l5.3,5.3l-5.3,5.3L11.8,142.9z M12.1,162.6l5.3-5.3l5.3,5.3l-5.3,5.3L12.1,162.6z M27.4,178.6
			l-5.3-5.3l5.3-5.3l5.3,5.3L27.4,178.6z M32.3,162.6l5.3-5.3l5.3,5.3l-5.3,5.3L32.3,162.6z M47.4,178.8l-5.3-5.3l5.3-5.3l5.3,5.3
			L47.4,178.8z M58,167.8l-5.3-5.3l5.3-5.3l5.3,5.3L58,167.8z M68.7,178.6l-5.3-5.3l5.3-5.3l5.3,5.3L68.7,178.6z M83.2,162.6
			l-5.3,5.3l-5.3-5.3l5.3-5.3L83.2,162.6z M83.2,142.9l-5.3,5.3l-5.2-5.3l5.2-5.3L83.2,142.9z"/>
		<g>
			<path class="st2" d="M114.7,121.1v-22h-3.8v-0.9H131l0.3,7.2h-0.8c0-0.2-0.2-1-0.6-2.4c-0.4-1.4-1-2.4-1.8-3
				c-0.8-0.6-2.1-0.9-4-0.9h-5.2v10.3h1c1,0,1.9-0.1,2.5-0.2c0.6-0.1,1.1-0.5,1.6-1.2c0.4-0.7,0.7-1.7,0.8-3.1h0.9V115h-0.9
				c-0.1-1.5-0.3-2.6-0.7-3.3s-0.9-1.1-1.5-1.3s-1.5-0.2-2.7-0.2h-1v10.9h4.2v0.9h-12.2v-0.9L114.7,121.1L114.7,121.1z"/>
			<path class="st2" d="M154.2,99.1h-3.9v-0.9h8.5v0.9H155v14.4c0,2.1-0.2,3.6-0.5,4.6s-0.9,1.8-1.7,2.5s-1.8,1.2-3,1.5
				s-2.3,0.5-3.6,0.5c-2.6,0-4.5-0.4-5.7-1.2s-2-1.8-2.2-3c-0.3-1.2-0.4-2.8-0.4-4.8V99.2h-3.4v-0.9h11.4v0.9h-3.8v14
				c0,1.9,0.1,3.4,0.3,4.6c0.2,1.1,0.7,2,1.4,2.8c0.8,0.7,2,1.1,3.7,1.1c1.4,0,2.6-0.3,3.7-0.8c1.1-0.6,1.9-1.3,2.3-2.3
				c0.4-0.9,0.6-2.7,0.6-5.3V99.1H154.2z"/>
			<path class="st2" d="M182.7,99.1v23.5H182L166.3,99h-0.1v22.1h4v0.9h-8.5v-0.9h3.5v-22h-3.8v-0.9h9.1l11.1,16.7h0.1V99.1h-3.8
				v-0.9h8.5v0.9H182.7z"/>
			<path class="st2" d="M193.1,121.1v-22h-3.7v-0.9h11.3c2.5,0,4.6,0.4,6.4,1.1c1.8,0.7,3.2,2.1,4.4,4.1c1.2,2.1,1.8,4.3,1.8,6.7
				c0,2.5-0.7,4.8-2,6.8c-1.3,2-2.8,3.4-4.5,4.1c-1.7,0.7-3.8,1.1-6.2,1.1h-11.2v-0.9h3.7V121.1z M197.3,99.1v22h3.1
				c1.6,0,2.9-0.1,4-0.4c1-0.3,1.9-0.9,2.5-1.9c0.7-1,1.1-2.3,1.4-3.8c0.2-1.5,0.4-3.5,0.4-6c0-3-0.4-5.2-1.1-6.6
				c-0.8-1.5-1.7-2.4-2.8-2.7s-2.5-0.5-4.3-0.5h-3.2V99.1z"/>
			<path class="st2" d="M227.6,114.6H220l-2.4,6.5h4.4v0.9h-8.6v-0.9h3.3l8.7-23.5h0.6l8.3,23.5h3.2v0.9h-11.4v-0.9h3.9L227.6,114.6
				z M220.4,113.7h6.9l-3.4-9.5l0,0L220.4,113.7z"/>
			<path class="st2" d="M246.6,128.5v-0.8c0.7,0.1,1.4,0.2,1.9,0.2s1-0.1,1.3-0.3c0.4-0.2,0.5-0.5,0.5-0.9c0-0.7-0.7-1.1-2-1.1
				c0.1-0.6,0.1-1.6,0.1-3c-2.4-0.5-4.4-1.9-6.1-4.2s-2.5-4.9-2.5-8c0-3.5,1-6.5,3.1-8.9c2-2.5,4.4-3.7,7.1-3.7
				c2.1,0,3.9,0.7,5.5,2.2c0.5-0.7,0.8-1.4,1-1.9h0.8v7.1h-0.8c-0.9-4.3-3-6.5-6.4-6.5c-1.9,0-3.2,0.7-4.1,2.1
				c-0.9,1.4-1.3,4.5-1.3,9.3c0,3.9,0.2,6.5,0.6,7.9s1,2.4,1.9,3s1.9,0.9,3,0.9c1.4,0,2.8-0.5,4-1.6c1.3-1.1,2.2-2.8,2.9-5.2h0.8
				l-0.3,7.3h-0.7c-0.3-0.8-0.7-1.4-1.3-1.9c-1.9,1.6-3.8,2.3-5.9,2.3h-0.4v1c1-0.1,1.8,0.1,2.4,0.6c0.6,0.4,0.8,1,0.8,1.7
				c0,0.9-0.4,1.6-1.1,2.1c-0.7,0.5-1.6,0.8-2.6,0.8C248.3,128.7,247.6,128.7,246.6,128.5z"/>
			<path class="st2" d="M275,114.6h-7.6l-2.4,6.5h4.4v0.9h-8.6v-0.9h3.3l8.7-23.5h0.6l8.3,23.5h3.2v0.9h-11.4v-0.9h3.9L275,114.6z
				 M277.6,90.9h0.7c0,1.3-0.4,2.3-1.1,3s-1.5,1-2.3,1s-1.8-0.3-3-0.8s-2-0.8-2.4-0.8c-0.9,0-1.5,0.5-1.7,1.6h-0.7
				c0-1.3,0.3-2.3,1-3s1.5-1,2.4-1c0.8,0,1.8,0.3,3,0.8s2,0.8,2.5,0.8C276.6,92.4,277.3,91.9,277.6,90.9z M267.8,113.7h6.9l-3.4-9.5
				h-0.1L267.8,113.7z"/>
			<path class="st2" d="M298.4,122.6c-3.1,0-5.7-1.3-7.8-3.9c-2.2-2.6-3.2-5.3-3.2-8.3c0-3.5,1.1-6.5,3.4-9s4.9-3.7,7.9-3.7
				c2.8,0,5.3,1.3,7.6,3.8c2.2,2.5,3.3,5.4,3.3,8.6c0,3.3-1.1,6.2-3.4,8.7C303.9,121.3,301.4,122.6,298.4,122.6z M298.5,98.5
				c-1.3,0-2.5,0.3-3.5,0.9c-1,0.6-1.7,1.6-2.1,3.1s-0.6,4.1-0.6,7.8c0,2.5,0.1,4.6,0.3,6.1c0.2,1.5,0.8,2.8,1.6,3.8
				c0.9,1,2.2,1.5,4.1,1.5c1.1,0,2.3-0.3,3.4-0.9c1.1-0.6,1.9-1.8,2.2-3.6c0.3-1.8,0.5-4.5,0.5-8.2c0-3.3-0.2-5.6-0.6-6.9
				c-0.4-1.3-1.1-2.2-2.1-2.7C300.9,98.8,299.8,98.5,298.5,98.5z"/>
			<path class="st2" d="M335.5,114.6h-7.6l-2.4,6.5h4.4v0.9h-8.6v-0.9h3.3l8.7-23.5h0.6l8.3,23.5h3.2v0.9H334v-0.9h3.9L335.5,114.6z
				 M328.3,113.7h6.9l-3.4-9.5h-0.1L328.3,113.7z"/>
			<path class="st2" d="M362.1,114h-4v-0.9h12.3v0.9H367c0,3-1,5.2-2.9,6.6c-2,1.3-4,2-6.1,2c-3.1,0-5.7-1.2-7.8-3.7
				c-2.1-2.5-3.1-5.4-3.1-8.7c0-3.4,1.1-6.3,3.2-8.8s4.8-3.7,7.9-3.7c1.6,0,3.2,0.5,4.7,1.4c0.5,0.3,0.8,0.4,0.9,0.4
				c0.4,0,0.8-0.3,1.1-1h0.8l0.2,6.5H365c-1-4.3-3.3-6.4-7-6.4c-1.9,0-3.3,0.4-4.2,1.3c-0.9,0.9-1.4,1.9-1.6,3.3
				c-0.2,1.3-0.3,3.2-0.3,5.6c0,4.4,0.1,7.3,0.4,8.7s0.9,2.5,1.8,3.2s2,1.1,3.3,1.1c1,0,2-0.2,2.8-0.6c0.8-0.4,1.3-1.1,1.5-1.9
				c0.2-0.8,0.3-2.1,0.3-3.8V114H362.1z"/>
			<path class="st2" d="M386.4,114.6h-7.6l-2.4,6.5h4.4v0.9h-8.6v-0.9h3.3l8.7-23.5h0.6l8.3,23.5h3.2v0.9h-11.4v-0.9h3.9
				L386.4,114.6z M379.1,113.7h6.9l-3.4-9.5h-0.1L379.1,113.7z"/>
			<path class="st2" d="M412.1,121.1v-22h-3.7v-0.9h11.7v0.9h-3.8v22h3.8v0.9h-11.7v-0.9H412.1z M422.6,98.2h9v0.9H428l-7.9,8.1
				l11.5,13.9h2.3v0.9h-11.7v-0.9h4.1l-9.6-11.8l9.9-10.3h-4.1v-0.8H422.6z"/>
			<path class="st2" d="M440.1,121.1v-22h-3.8v-0.9h11.8v0.9h-3.8v10.2h10.3V99.1h-3.7v-0.9h11.7v0.9h-3.8v22h3.8v0.9h-11.7v-0.9
				h3.7v-10.9h-10.3v10.9h3.8v0.9h-11.8v-0.9H440.1z"/>
			<path class="st2" d="M479.4,114.6h-7.6l-2.4,6.5h4.4v0.9h-8.6v-0.9h3.3l8.7-23.5h0.6l8.3,23.5h3.2v0.9h-11.4v-0.9h3.9
				L479.4,114.6z M472.1,113.7h6.9l-3.4-9.5h-0.1L472.1,113.7z"/>
			<path class="st2" d="M512.6,99.1v23.5h-0.8L496.1,99h-0.1v22.1h4v0.9h-8.5v-0.9h3.5v-22h-3.8v-0.9h9.1l11.1,16.7h0.1V99.1h-3.9
				v-0.9h8.5v0.9H512.6z"/>
		</g>
		<g>
			<path class="st2" d="M119,153.4v10h3.9v0.9H111v-0.9h3.8v-22H111v-0.9h12.3c2.8,0,4.9,0.6,6.3,1.8c1.4,1.2,2.1,2.7,2.1,4.6
				c0,1.8-0.7,3.4-2.1,4.6c-1.4,1.3-3.8,1.9-7.1,1.9L119,153.4L119,153.4z M119,141.4v11.1h2.3c1.2,0,2.2-0.1,3-0.3s1.5-0.7,2.1-1.6
				c0.6-0.9,0.9-2.2,0.9-4c0-1.6-0.3-2.8-0.8-3.5c-0.5-0.8-1.1-1.2-1.8-1.4s-1.5-0.3-2.6-0.3H119z"/>
			<path class="st2" d="M133,157.3c0-2,0.7-3.8,2.1-5.2c1.4-1.4,3.2-2.2,5.2-2.2s3.8,0.7,5.2,2.1c1.4,1.4,2.1,3.1,2.1,5.2
				c0,2.1-0.7,3.9-2.2,5.4s-3.2,2.2-5.2,2.2s-3.7-0.7-5.1-2.2C133.7,161.2,133,159.4,133,157.3z M143.7,157.3c0-2.2-0.1-3.6-0.2-4.3
				c-0.1-0.7-0.5-1.3-1-1.7s-1.2-0.6-2.1-0.6c-0.9,0-1.6,0.2-2.1,0.6c-0.6,0.4-0.9,1-1,1.7s-0.2,2.1-0.2,4.3s0.1,3.6,0.2,4.4
				c0.2,0.7,0.5,1.3,1,1.7s1.2,0.6,2,0.6s1.5-0.2,2.1-0.6c0.6-0.4,0.9-1,1-1.7C143.6,160.9,143.7,159.5,143.7,157.3z"/>
			<path class="st2" d="M152.8,163.4v-12.2h-2.9v-0.9h2.9c1.5,0,2.6-0.1,3.4-0.2v3.4h0.1c0.8-2.2,2.1-3.4,3.7-3.4
				c0.7,0,1.3,0.2,1.7,0.6c0.4,0.4,0.6,1,0.6,1.6s-0.2,1-0.5,1.4c-0.3,0.3-0.8,0.5-1.4,0.5c-1,0-1.5-0.5-1.5-1.5l0.1-0.8
				c0-0.3-0.1-0.4-0.4-0.4c-0.4,0-0.9,0.5-1.5,1.6s-0.9,2.7-0.9,4.8v5.5h3v0.9h-9.3v-0.9L152.8,163.4L152.8,163.4z"/>
			<path class="st2" d="M171.4,146.3v4.1h4.2v0.9h-4.2v8.8c0,1.3,0.1,2.2,0.3,2.6c0.2,0.5,0.6,0.7,1.4,0.7c0.6,0,1.1-0.2,1.6-0.6
				c0.5-0.4,0.9-1,1.2-1.8h0.8c-0.5,2.3-2.2,3.4-5,3.4c-1.2,0-2-0.2-2.6-0.6c-0.5-0.4-0.9-0.9-1-1.6c-0.1-0.6-0.2-1.5-0.2-2.5V151
				h-3.2v-0.9h3.2v-3.8C169.1,146.6,170.3,146.5,171.4,146.3z"/>
			<path class="st2" d="M193.9,150.4v13.1h2.4v0.9h-2.4c-1.8,0-3,0.1-3.5,0.2v-3.3h-0.1c-1.1,2.2-2.7,3.3-5,3.3
				c-1.3,0-2.4-0.3-3.2-1s-1.2-2.2-1.2-4.4v-7.9h-2.6v-0.9h6v9.4c0,1.5,0.1,2.5,0.3,3c0.2,0.6,0.6,0.8,1.4,0.8c1.1,0,2.1-0.6,3-1.8
				s1.4-2.9,1.4-5.3v-5.4h-2.8v-0.9h6.3V150.4z"/>
			<path class="st2" d="M210.7,152.2c0.7,1,1,2,1,2.9c0,1.6-0.7,2.9-2,3.7c-1.3,0.8-2.4,1.3-3.2,1.3l-0.9,0.1c-0.4,0-1,0-1.7-0.1
				s-1.1-0.1-1.1-0.1c-0.5,0-1,0.2-1.6,0.6c-0.6,0.4-0.9,0.9-0.9,1.3c0,0.4,0.2,0.7,0.5,0.9s1.1,0.3,2.4,0.3l6.1-0.2
				c1.3,0,2.3,0.4,3.1,1.2c0.8,0.8,1.2,2,1.2,3.4c0,1.7-0.7,3.2-2.2,4.4c-1.4,1.2-3.4,1.8-6,1.8c-2,0-3.5-0.4-4.7-1.2
				s-1.7-1.7-1.7-2.8c0-0.7,0.2-1.2,0.6-1.6c0.4-0.4,1.2-1,2.5-1.8c-2-0.5-3-1.6-3-3.3c0-2.3,1.2-3.6,3.7-3.9v-0.1
				c-1.9-0.9-2.8-2.3-2.8-4.1c0-1.5,0.6-2.7,1.8-3.7s2.6-1.5,4.1-1.5c1.7,0,3.2,0.6,4.3,1.8c0.9-1.2,1.8-1.8,2.8-1.8
				c0.4,0,0.8,0.1,1,0.4c0.3,0.3,0.4,0.6,0.4,1.1c0,0.4-0.1,0.7-0.4,1c-0.3,0.2-0.5,0.4-0.9,0.4c-0.5,0-0.8-0.2-1-0.6
				c-0.2-0.4-0.4-0.6-0.6-0.6C211.4,151.6,211,151.8,210.7,152.2z M203,166.4c-1.1,0.7-1.7,1.8-1.7,3.2c0,2.2,1.5,3.3,4.5,3.3
				c1.9,0,3.5-0.5,4.8-1.4c1.2-0.9,1.9-2,1.9-3.2c0-0.7-0.3-1.3-0.9-1.7s-1.3-0.6-2.1-0.6c-0.3,0-1,0-2.1,0.1s-1.9,0.1-2.4,0.1
				L203,166.4z M205.7,150.8c-1.1,0-1.9,0.3-2.1,0.9c-0.3,0.6-0.4,1.6-0.4,2.9c0,2,0.1,3.2,0.4,3.8c0.3,0.6,1,0.9,2.2,0.9
				s2-0.3,2.2-0.9c0.2-0.6,0.4-2,0.4-4.2c0-1.4-0.2-2.3-0.7-2.7C207.2,151,206.6,150.8,205.7,150.8z"/>
			<path class="st2" d="M225.9,156.4v-1.8c0-1.5-0.1-2.5-0.4-2.9c-0.2-0.5-0.9-0.7-2-0.7c-1.9,0-2.9,0.4-2.9,1.1
				c0,0.2,0.1,0.4,0.2,0.7c0.2,0.3,0.2,0.6,0.2,0.9c0,0.5-0.2,0.9-0.5,1.1c-0.3,0.3-0.7,0.4-1.1,0.4c-0.5,0-0.9-0.2-1.2-0.5
				c-0.3-0.3-0.4-0.7-0.4-1.1c0-0.9,0.6-1.7,1.7-2.4c1.1-0.6,2.7-1,4.6-1c1.6,0,2.7,0.2,3.5,0.6c0.7,0.4,1.2,0.8,1.4,1.4
				c0.2,0.5,0.3,1.3,0.3,2.3v6.5c0,1,0.1,1.6,0.2,1.8s0.3,0.4,0.6,0.4c0.4,0,0.8-0.3,1.2-0.9h0.4c-0.3,1.7-1.3,2.6-3,2.6
				c-1.6,0-2.6-0.9-3-2.8c-1.4,1.9-3,2.8-4.9,2.8c-1.2,0-2.2-0.3-3-1c-0.7-0.7-1.1-1.5-1.1-2.5C217,158.3,220,156.6,225.9,156.4z
				 M225.9,159.1v-1.9c-2.2,0.1-3.6,0.4-4.3,1c-0.7,0.6-1,1.4-1,2.5c0,0.8,0.2,1.4,0.6,1.8c0.4,0.4,0.9,0.7,1.4,0.7
				c0.7,0,1.3-0.2,1.9-0.7s0.9-0.9,1.1-1.4C225.8,160.6,225.9,159.9,225.9,159.1z"/>
			<path class="st2" d="M236.3,163.4v-22h-2.5v-0.9h2.4c1.6,0,2.8-0.1,3.6-0.3v23.2h2.5v0.9h-8.5v-0.9H236.3z"/>
		</g>
	</g>
</g>
</svg>
