<svg xmlns="http://www.w3.org/2000/svg" xmlns:xlink="http://www.w3.org/1999/xlink" width="1024" zoomAndPan="magnify" viewBox="0 0 768 767.999994" height="1024" preserveAspectRatio="xMidYMid meet" version="1.0"><defs><clipPath id="295edf4904"><path d="M 0 0 L 188 0 L 188 187 L 0 187 Z M 0 0 " clip-rule="nonzero"/></clipPath><clipPath id="a4ab81a345"><path d="M 79.324219 -138.722656 L 210.316406 -7.734375 L -7.121094 209.703125 L -138.113281 78.710938 Z M 79.324219 -138.722656 " clip-rule="nonzero"/></clipPath><clipPath id="d96af25273"><path d="M 79.324219 -138.722656 L 210.316406 -7.734375 L -7.121094 209.703125 L -138.113281 78.710938 Z M 79.324219 -138.722656 " clip-rule="nonzero"/></clipPath><clipPath id="3758bcdc54"><path d="M 579 578 L 768 578 L 768 768 L 579 768 Z M 579 578 " clip-rule="nonzero"/></clipPath><clipPath id="cf62e9d87d"><path d="M 687.910156 903.441406 L 556.917969 772.449219 L 774.351562 555.015625 L 905.34375 686.003906 Z M 687.910156 903.441406 " clip-rule="nonzero"/></clipPath><clipPath id="239f09ce91"><path d="M 687.910156 903.441406 L 556.917969 772.449219 L 774.351562 555.015625 L 905.34375 686.003906 Z M 687.910156 903.441406 " clip-rule="nonzero"/></clipPath><clipPath id="d8924d9fce"><path d="M 0 577 L 188 577 L 188 768 L 0 768 Z M 0 577 " clip-rule="nonzero"/></clipPath><clipPath id="3313aca4ea"><path d="M -137.894531 686.222656 L -6.90625 555.230469 L 210.53125 772.664062 L 79.539062 903.65625 Z M -137.894531 686.222656 " clip-rule="nonzero"/></clipPath><clipPath id="8dc076e92e"><path d="M -137.894531 686.222656 L -6.90625 555.230469 L 210.53125 772.664062 L 79.539062 903.65625 Z M -137.894531 686.222656 " clip-rule="nonzero"/></clipPath><clipPath id="43c24c6d04"><path d="M 579 0 L 768 0 L 768 188 L 579 188 Z M 579 0 " clip-rule="nonzero"/></clipPath><clipPath id="8c197d5398"><path d="M 905.128906 78.496094 L 774.136719 209.488281 L 556.703125 -7.949219 L 687.695312 -138.941406 Z M 905.128906 78.496094 " clip-rule="nonzero"/></clipPath><clipPath id="e1cf1ca4dd"><path d="M 905.128906 78.496094 L 774.136719 209.488281 L 556.703125 -7.949219 L 687.695312 -138.941406 Z M 905.128906 78.496094 " clip-rule="nonzero"/></clipPath><clipPath id="70c9bfa049"><path d="M 287.839844 176 L 467 176 L 467 420 L 287.839844 420 Z M 287.839844 176 " clip-rule="nonzero"/></clipPath><clipPath id="21f3fdc75f"><path d="M 479.605469 506.074219 L 674.546875 506.074219 L 674.546875 592.339844 L 479.605469 592.339844 Z M 479.605469 506.074219 " clip-rule="nonzero"/></clipPath><clipPath id="d8a9c5f841"><path d="M 93.765625 473.675781 L 273.003906 473.675781 L 273.003906 591.316406 L 93.765625 591.316406 Z M 93.765625 473.675781 " clip-rule="nonzero"/></clipPath><clipPath id="40518f8301"><path d="M 263.117188 420.03125 L 491.664062 420.03125 L 491.664062 592.5625 L 263.117188 592.5625 Z M 263.117188 420.03125 " clip-rule="nonzero"/></clipPath><clipPath id="4268bce507"><path d="M 438 467.894531 L 482.183594 467.894531 L 482.183594 583.09375 L 438 583.09375 Z M 438 467.894531 " clip-rule="nonzero"/></clipPath></defs><g clip-path="url(#295edf4904)"><g clip-path="url(#a4ab81a345)"><g clip-path="url(#d96af25273)"><path fill="#8447ff" d="M -29.746094 186.601562 L -29.734375 -29.628906 L 187.996094 -29.640625 L 187.996094 14.632812 L 14.539062 14.640625 L 14.527344 186.601562 L -29.746094 186.601562 " fill-opacity="1" fill-rule="nonzero"/></g></g></g><g clip-path="url(#3758bcdc54)"><g clip-path="url(#cf62e9d87d)"><g clip-path="url(#239f09ce91)"><path fill="#8447ff" d="M 796.980469 578.113281 L 796.964844 794.34375 L 579.234375 794.355469 L 579.234375 750.082031 L 752.695312 750.074219 L 752.707031 578.113281 L 796.980469 578.113281 " fill-opacity="1" fill-rule="nonzero"/></g></g></g><g clip-path="url(#d8924d9fce)"><g clip-path="url(#3313aca4ea)"><g clip-path="url(#8dc076e92e)"><path fill="#8447ff" d="M 187.429688 795.292969 L -28.800781 795.277344 L -28.8125 577.546875 L 15.460938 577.546875 L 15.46875 751.007812 L 187.429688 751.019531 L 187.429688 795.292969 " fill-opacity="1" fill-rule="nonzero"/></g></g></g><g clip-path="url(#43c24c6d04)"><g clip-path="url(#8c197d5398)"><g clip-path="url(#e1cf1ca4dd)"><path fill="#8447ff" d="M 579.800781 -30.574219 L 796.03125 -30.5625 L 796.042969 187.167969 L 751.769531 187.167969 L 751.761719 13.710938 L 579.800781 13.699219 L 579.800781 -30.574219 " fill-opacity="1" fill-rule="nonzero"/></g></g></g><g clip-path="url(#70c9bfa049)"><path fill="#8447ff" d="M 378.984375 176.777344 C 400.679688 176.777344 418.261719 194.164062 418.261719 215.601562 C 418.261719 221.433594 416.964844 226.960938 414.636719 231.921875 L 445.230469 214.300781 L 446.167969 213.792969 C 449.898438 211.890625 453.535156 211.496094 456.722656 212.296875 C 460.152344 213.15625 462.894531 215.359375 464.53125 218.183594 C 466.164062 221.011719 466.710938 224.480469 465.742188 227.878906 C 464.839844 231.03125 462.679688 233.972656 459.160156 236.242188 L 458.253906 236.796875 L 413.703125 262.449219 L 413.691406 330.207031 L 422.703125 402.113281 C 423.84375 411.199219 416.738281 419.230469 407.554688 419.230469 C 400.3125 419.230469 394.109375 414.160156 392.625 407.167969 L 392.472656 406.355469 L 384.34375 354.441406 C 383.9375 351.859375 381.707031 349.957031 379.085938 349.957031 C 376.582031 349.957031 374.445312 351.691406 373.902344 354.082031 L 373.808594 354.601562 L 367.375 405.953125 C 366.425781 413.527344 359.902344 419.230469 352.230469 419.230469 C 343.5 419.230469 336.5625 411.941406 336.964844 403.371094 L 337.023438 402.566406 L 344.261719 330.472656 L 344.257812 272.027344 L 302.425781 272.027344 C 297.742188 272.027344 294.027344 270.507812 291.46875 268.035156 C 288.929688 265.574219 287.660156 262.300781 287.660156 259.035156 C 287.660156 255.773438 288.929688 252.5 291.46875 250.039062 C 294.027344 247.566406 297.742188 246.046875 302.425781 246.046875 L 354.609375 246.050781 C 345.53125 238.941406 339.710938 227.941406 339.710938 215.601562 C 339.710938 194.164062 357.292969 176.777344 378.984375 176.777344 Z M 448.199219 217.621094 L 447.402344 218.050781 L 409.765625 239.726562 C 402.570312 248.6875 391.457031 254.433594 378.984375 254.433594 C 372.703125 254.433594 366.761719 252.976562 361.496094 250.382812 L 302.425781 250.378906 C 298.714844 250.378906 296.132812 251.5625 294.488281 253.148438 C 292.832031 254.75 292 256.890625 292 259.035156 C 292 261.183594 292.832031 263.324219 294.488281 264.925781 C 295.996094 266.378906 298.289062 267.496094 301.519531 267.671875 L 302.425781 267.695312 L 346.433594 267.695312 C 347.5 267.695312 348.382812 268.460938 348.570312 269.472656 L 348.601562 269.859375 L 348.59375 330.6875 L 341.34375 402.996094 C 340.707031 409.351562 345.789062 414.898438 352.230469 414.898438 C 357.480469 414.898438 361.984375 411.164062 362.957031 406.113281 L 363.066406 405.417969 L 369.503906 354.066406 C 370.105469 349.246094 374.214844 345.628906 379.085938 345.628906 C 383.609375 345.628906 387.488281 348.746094 388.496094 353.082031 L 388.628906 353.773438 L 396.761719 405.683594 C 397.59375 410.988281 402.171875 414.898438 407.554688 414.898438 C 413.890625 414.898438 418.847656 409.554688 418.460938 403.34375 L 418.394531 402.652344 L 409.367188 330.472656 L 409.367188 261.203125 C 409.367188 261.019531 409.390625 260.84375 409.433594 260.675781 C 409.511719 260.367188 409.660156 260.070312 409.871094 259.816406 C 409.976562 259.6875 410.101562 259.570312 410.234375 259.46875 L 410.453125 259.328125 L 456.082031 233.046875 L 456.855469 232.574219 C 459.566406 230.8125 460.992188 228.699219 461.566406 226.691406 C 462.199219 224.476562 461.847656 222.210938 460.769531 220.347656 C 459.691406 218.492188 457.902344 217.054688 455.664062 216.496094 C 453.835938 216.035156 451.589844 216.132812 449.054688 217.21875 Z M 378.984375 181.105469 C 359.683594 181.105469 344.050781 196.5625 344.050781 215.601562 C 344.050781 234.648438 359.679688 250.105469 378.984375 250.105469 C 398.289062 250.105469 413.921875 234.648438 413.921875 215.601562 C 413.921875 196.5625 398.289062 181.105469 378.984375 181.105469 Z M 378.984375 181.105469 " fill-opacity="1" fill-rule="nonzero"/></g><g clip-path="url(#21f3fdc75f)"><path stroke-linecap="butt" transform="matrix(1.122171, 0, 0, 1.12332, 479.606307, 506.073571)" fill="none" stroke-linejoin="miter" d="M -0.00074723 0.000576674 L 173.717403 0.000576674 L 173.717403 76.795801 L -0.00074723 76.795801 Z M -0.00074723 0.000576674 " stroke="#8447ff" stroke-width="9.372014" stroke-opacity="1" stroke-miterlimit="4"/></g><g clip-path="url(#d8a9c5f841)"><path stroke-linecap="butt" transform="matrix(1.1185, 0, 0, 1.123533, 93.765862, 473.677053)" fill="none" stroke-linejoin="miter" d="M -0.000212213 -0.00113153 L 160.248597 -0.00113153 L 160.248597 104.704814 L -0.000212213 104.704814 Z M -0.000212213 -0.00113153 " stroke="#8447ff" stroke-width="9.372014" stroke-opacity="1" stroke-miterlimit="4"/></g><g clip-path="url(#40518f8301)"><path stroke-linecap="butt" transform="matrix(1.121473, 0, 0, 1.12332, 263.116396, 420.029375)" fill="none" stroke-linejoin="miter" d="M 0.000705428 0.00166897 L 203.792332 0.00166897 L 203.792332 153.592117 L 0.000705428 153.592117 Z M 0.000705428 0.00166897 " stroke="#8cffda" stroke-width="17.405169" stroke-opacity="1" stroke-miterlimit="4"/></g><path stroke-linecap="butt" transform="matrix(1.118103, 0, 0, 1.120357, 257.081124, 420.653255)" fill="none" stroke-linejoin="miter" d="M 0.000811527 4.500403 L 217.441588 4.500403 " stroke="#6c38d4" stroke-width="9" stroke-opacity="1" stroke-miterlimit="4"/><g clip-path="url(#4268bce507)"><path fill="#ffffff" d="M 438 467.894531 L 482.183594 467.894531 L 482.183594 583.09375 L 438 583.09375 Z M 438 467.894531 " fill-opacity="1" fill-rule="nonzero"/></g></svg>