<svg xmlns="http://www.w3.org/2000/svg" xmlns:xlink="http://www.w3.org/1999/xlink" width="1024" zoomAndPan="magnify" viewBox="0 0 768 767.999994" height="1024" preserveAspectRatio="xMidYMid meet" version="1.0"><defs><clipPath id="4b6ea5abe8"><path d="M 0 0 L 188 0 L 188 187 L 0 187 Z M 0 0 " clip-rule="nonzero"/></clipPath><clipPath id="473647716c"><path d="M 79.324219 -138.722656 L 210.316406 -7.734375 L -7.121094 209.703125 L -138.113281 78.710938 Z M 79.324219 -138.722656 " clip-rule="nonzero"/></clipPath><clipPath id="af99f60ba8"><path d="M 79.324219 -138.722656 L 210.316406 -7.734375 L -7.121094 209.703125 L -138.113281 78.710938 Z M 79.324219 -138.722656 " clip-rule="nonzero"/></clipPath><clipPath id="228a97bb09"><path d="M 579 578 L 768 578 L 768 768 L 579 768 Z M 579 578 " clip-rule="nonzero"/></clipPath><clipPath id="21d2386ca0"><path d="M 687.910156 903.441406 L 556.917969 772.449219 L 774.351562 555.015625 L 905.34375 686.003906 Z M 687.910156 903.441406 " clip-rule="nonzero"/></clipPath><clipPath id="cd2ac0d125"><path d="M 687.910156 903.441406 L 556.917969 772.449219 L 774.351562 555.015625 L 905.34375 686.003906 Z M 687.910156 903.441406 " clip-rule="nonzero"/></clipPath><clipPath id="79b406ce94"><path d="M 0 577 L 188 577 L 188 768 L 0 768 Z M 0 577 " clip-rule="nonzero"/></clipPath><clipPath id="e9d2839211"><path d="M -137.894531 686.222656 L -6.90625 555.230469 L 210.53125 772.664062 L 79.539062 903.65625 Z M -137.894531 686.222656 " clip-rule="nonzero"/></clipPath><clipPath id="f199097514"><path d="M -137.894531 686.222656 L -6.90625 555.230469 L 210.53125 772.664062 L 79.539062 903.65625 Z M -137.894531 686.222656 " clip-rule="nonzero"/></clipPath><clipPath id="9df358e098"><path d="M 579 0 L 768 0 L 768 188 L 579 188 Z M 579 0 " clip-rule="nonzero"/></clipPath><clipPath id="d766e4bd9f"><path d="M 905.128906 78.496094 L 774.136719 209.488281 L 556.703125 -7.949219 L 687.695312 -138.941406 Z M 905.128906 78.496094 " clip-rule="nonzero"/></clipPath><clipPath id="97f3afb9f4"><path d="M 905.128906 78.496094 L 774.136719 209.488281 L 556.703125 -7.949219 L 687.695312 -138.941406 Z M 905.128906 78.496094 " clip-rule="nonzero"/></clipPath><clipPath id="21812a7027"><path d="M 176.683594 176.683594 L 591.433594 176.683594 L 591.433594 591.433594 L 176.683594 591.433594 Z M 176.683594 176.683594 " clip-rule="nonzero"/></clipPath><clipPath id="4bdfff8f54"><path d="M 77.550781 27.75 L 307.949219 27.75 L 307.949219 258.148438 L 77.550781 258.148438 Z M 77.550781 27.75 " clip-rule="nonzero"/></clipPath><clipPath id="12c83b22df"><path d="M 268.800781 0 L 499.199219 0 L 499.199219 209.375 L 268.800781 209.375 Z M 268.800781 0 " clip-rule="nonzero"/></clipPath><clipPath id="fb882725fc"><path d="M 460.800781 27 L 691.199219 27 L 691.199219 257.398438 L 460.800781 257.398438 Z M 460.800781 27 " clip-rule="nonzero"/></clipPath></defs><rect x="-76.8" width="921.6" fill="#ffffff" y="-76.799999" height="921.599993" fill-opacity="1"/><rect x="-76.8" width="921.6" fill="#ffffff" y="-76.799999" height="921.599993" fill-opacity="1"/><g clip-path="url(#4b6ea5abe8)"><g clip-path="url(#473647716c)"><g clip-path="url(#af99f60ba8)"><path fill="#8447ff" d="M -29.746094 186.601562 L -29.734375 -29.628906 L 187.996094 -29.640625 L 187.996094 14.632812 L 14.539062 14.640625 L 14.527344 186.601562 L -29.746094 186.601562 " fill-opacity="1" fill-rule="nonzero"/></g></g></g><g clip-path="url(#228a97bb09)"><g clip-path="url(#21d2386ca0)"><g clip-path="url(#cd2ac0d125)"><path fill="#8447ff" d="M 796.980469 578.113281 L 796.964844 794.34375 L 579.234375 794.355469 L 579.234375 750.082031 L 752.695312 750.074219 L 752.707031 578.113281 L 796.980469 578.113281 " fill-opacity="1" fill-rule="nonzero"/></g></g></g><g clip-path="url(#79b406ce94)"><g clip-path="url(#e9d2839211)"><g clip-path="url(#f199097514)"><path fill="#8447ff" d="M 187.429688 795.292969 L -28.800781 795.277344 L -28.8125 577.546875 L 15.460938 577.546875 L 15.46875 751.007812 L 187.429688 751.019531 L 187.429688 795.292969 " fill-opacity="1" fill-rule="nonzero"/></g></g></g><g clip-path="url(#9df358e098)"><g clip-path="url(#d766e4bd9f)"><g clip-path="url(#97f3afb9f4)"><path fill="#8447ff" d="M 579.800781 -30.574219 L 796.03125 -30.5625 L 796.042969 187.167969 L 751.769531 187.167969 L 751.761719 13.710938 L 579.800781 13.699219 L 579.800781 -30.574219 " fill-opacity="1" fill-rule="nonzero"/></g></g></g><g clip-path="url(#21812a7027)"><path fill="#8447ff" d="M 558.902344 258.007812 L 477.582031 258.007812 L 477.582031 209.210938 C 477.582031 191.277344 462.988281 176.683594 445.050781 176.683594 L 323.066406 176.683594 C 305.128906 176.683594 290.535156 191.277344 290.535156 209.210938 L 290.535156 258.007812 L 209.210938 258.007812 C 191.277344 258.007812 176.683594 272.597656 176.683594 290.535156 C 176.683594 304.671875 176.683594 546.96875 176.683594 558.902344 C 176.683594 576.839844 191.277344 591.433594 209.210938 591.433594 L 558.902344 591.433594 C 576.839844 591.433594 591.433594 576.839844 591.433594 558.902344 C 591.433594 547.023438 591.433594 304.660156 591.433594 290.535156 C 591.433594 272.597656 576.839844 258.007812 558.902344 258.007812 Z M 306.800781 209.210938 C 306.800781 200.246094 314.097656 192.949219 323.066406 192.949219 L 445.050781 192.949219 C 454.019531 192.949219 461.316406 200.246094 461.316406 209.210938 L 461.316406 258.007812 L 445.050781 258.007812 L 445.050781 241.742188 C 445.050781 223.804688 430.457031 209.210938 412.519531 209.210938 L 355.59375 209.210938 C 337.65625 209.210938 323.066406 223.804688 323.066406 241.742188 L 323.066406 258.007812 L 306.800781 258.007812 Z M 428.785156 258.007812 L 339.332031 258.007812 L 339.332031 241.742188 C 339.332031 232.773438 346.625 225.476562 355.59375 225.476562 L 412.519531 225.476562 C 421.488281 225.476562 428.785156 232.773438 428.785156 241.742188 Z M 209.210938 274.269531 C 246.242188 274.269531 523.75 274.269531 558.902344 274.269531 C 567.871094 274.269531 575.167969 281.566406 575.167969 290.535156 L 575.167969 396.257812 C 575.167969 405.226562 567.871094 412.519531 558.902344 412.519531 L 420.652344 412.519531 L 420.652344 388.125 C 420.652344 383.632812 417.011719 379.992188 412.519531 379.992188 L 355.59375 379.992188 C 351.101562 379.992188 347.460938 383.632812 347.460938 388.125 L 347.460938 412.519531 L 209.210938 412.519531 C 200.242188 412.519531 192.949219 405.226562 192.949219 396.257812 L 192.949219 290.535156 C 192.949219 281.566406 200.242188 274.269531 209.210938 274.269531 Z M 363.726562 396.257812 L 404.390625 396.257812 L 404.390625 424.71875 C 404.390625 435.929688 395.269531 445.050781 384.058594 445.050781 C 372.847656 445.050781 363.726562 435.929688 363.726562 424.71875 Z M 558.902344 575.167969 L 209.210938 575.167969 C 200.242188 575.167969 192.949219 567.871094 192.949219 558.902344 L 192.949219 424.410156 C 197.734375 427.1875 203.289062 428.785156 209.210938 428.785156 L 347.695312 428.785156 C 349.722656 447.058594 365.253906 461.316406 384.058594 461.316406 C 402.863281 461.316406 418.394531 447.058594 420.421875 428.785156 L 558.902344 428.785156 C 564.828125 428.785156 570.378906 427.1875 575.167969 424.410156 L 575.167969 558.902344 C 575.167969 567.871094 567.871094 575.167969 558.902344 575.167969 Z M 558.902344 575.167969 " fill-opacity="1" fill-rule="nonzero"/></g><g clip-path="url(#4bdfff8f54)"><path fill="#ffffff" d="M 77.550781 27.75 L 307.949219 27.75 L 307.949219 258.148438 L 77.550781 258.148438 Z M 77.550781 27.75 " fill-opacity="1" fill-rule="nonzero"/></g><g clip-path="url(#12c83b22df)"><path fill="#ffffff" d="M 268.800781 -21.023438 L 499.199219 -21.023438 L 499.199219 209.375 L 268.800781 209.375 Z M 268.800781 -21.023438 " fill-opacity="1" fill-rule="nonzero"/></g><g clip-path="url(#fb882725fc)"><path fill="#ffffff" d="M 460.800781 27 L 691.199219 27 L 691.199219 257.398438 L 460.800781 257.398438 Z M 460.800781 27 " fill-opacity="1" fill-rule="nonzero"/></g><path stroke-linecap="butt" transform="matrix(0.750751, 0, 0, 0.75, 192.749993, 545.970401)" fill="none" stroke-linejoin="miter" d="M 0.00000870743 6.997799 L 327.682319 6.997799 " stroke="#8cffda" stroke-width="14" stroke-opacity="1" stroke-miterlimit="4"/><path stroke-linecap="butt" transform="matrix(-0.752753, 0, 0, -0.75, 495.441074, 556.4704)" fill="none" stroke-linejoin="miter" d="M -0.000440734 7.002201 L 46.838065 7.002201 " stroke="#8cffda" stroke-width="14" stroke-opacity="1" stroke-miterlimit="4"/><path stroke-linecap="butt" transform="matrix(-0.7517, 0, 0, -0.75, 574.821071, 556.4704)" fill="none" stroke-linejoin="miter" d="M 0.00100846 7.002201 L 75.839531 7.002201 " stroke="#8cffda" stroke-width="14" stroke-opacity="1" stroke-miterlimit="4"/></svg>