<svg xmlns="http://www.w3.org/2000/svg" xmlns:xlink="http://www.w3.org/1999/xlink" width="1024" zoomAndPan="magnify" viewBox="0 0 768 767.999994" height="1024" preserveAspectRatio="xMidYMid meet" version="1.0"><defs><clipPath id="9dedabfb75"><path d="M 0 0 L 188 0 L 188 187 L 0 187 Z M 0 0 " clip-rule="nonzero"/></clipPath><clipPath id="fe94d61012"><path d="M 79.324219 -138.722656 L 210.316406 -7.734375 L -7.121094 209.703125 L -138.113281 78.710938 Z M 79.324219 -138.722656 " clip-rule="nonzero"/></clipPath><clipPath id="5447d13250"><path d="M 79.324219 -138.722656 L 210.316406 -7.734375 L -7.121094 209.703125 L -138.113281 78.710938 Z M 79.324219 -138.722656 " clip-rule="nonzero"/></clipPath><clipPath id="f701967771"><path d="M 579 578 L 768 578 L 768 768 L 579 768 Z M 579 578 " clip-rule="nonzero"/></clipPath><clipPath id="4e0bffedbd"><path d="M 687.910156 903.441406 L 556.917969 772.449219 L 774.351562 555.015625 L 905.34375 686.003906 Z M 687.910156 903.441406 " clip-rule="nonzero"/></clipPath><clipPath id="f4cf48f6a1"><path d="M 687.910156 903.441406 L 556.917969 772.449219 L 774.351562 555.015625 L 905.34375 686.003906 Z M 687.910156 903.441406 " clip-rule="nonzero"/></clipPath><clipPath id="0f364c6b59"><path d="M 0 577 L 188 577 L 188 768 L 0 768 Z M 0 577 " clip-rule="nonzero"/></clipPath><clipPath id="19c508d25c"><path d="M -137.894531 686.222656 L -6.90625 555.230469 L 210.53125 772.664062 L 79.539062 903.65625 Z M -137.894531 686.222656 " clip-rule="nonzero"/></clipPath><clipPath id="a7c66422dc"><path d="M -137.894531 686.222656 L -6.90625 555.230469 L 210.53125 772.664062 L 79.539062 903.65625 Z M -137.894531 686.222656 " clip-rule="nonzero"/></clipPath><clipPath id="dc57c54093"><path d="M 579 0 L 768 0 L 768 188 L 579 188 Z M 579 0 " clip-rule="nonzero"/></clipPath><clipPath id="68aef5d1cd"><path d="M 905.128906 78.496094 L 774.136719 209.488281 L 556.703125 -7.949219 L 687.695312 -138.941406 Z M 905.128906 78.496094 " clip-rule="nonzero"/></clipPath><clipPath id="85fbcf9131"><path d="M 905.128906 78.496094 L 774.136719 209.488281 L 556.703125 -7.949219 L 687.695312 -138.941406 Z M 905.128906 78.496094 " clip-rule="nonzero"/></clipPath><clipPath id="cbd1fc644b"><path d="M 201.683594 228.457031 L 516.683594 228.457031 L 516.683594 628.207031 L 201.683594 628.207031 Z M 201.683594 228.457031 " clip-rule="nonzero"/></clipPath><clipPath id="f6806e6053"><path d="M 225.703125 228.457031 L 492.660156 228.457031 C 505.925781 228.457031 516.679688 239.207031 516.679688 252.464844 L 516.679688 604.195312 C 516.679688 617.457031 505.925781 628.207031 492.660156 628.207031 L 225.703125 628.207031 C 212.4375 628.207031 201.683594 617.457031 201.683594 604.195312 L 201.683594 252.464844 C 201.683594 239.207031 212.4375 228.457031 225.703125 228.457031 Z M 225.703125 228.457031 " clip-rule="nonzero"/></clipPath><clipPath id="5c3ae2bd38"><path d="M 108.640625 435.414062 L 302.140625 435.414062 L 302.140625 638.664062 L 108.640625 638.664062 Z M 108.640625 435.414062 " clip-rule="nonzero"/></clipPath><clipPath id="cd9975a8b1"><path d="M 492 129.082031 L 659.203125 129.082031 L 659.203125 276.082031 L 492 276.082031 Z M 492 129.082031 " clip-rule="nonzero"/></clipPath><clipPath id="b45770596c"><path d="M 519.707031 169.839844 L 553 169.839844 L 553 202.089844 L 519.707031 202.089844 Z M 519.707031 169.839844 " clip-rule="nonzero"/></clipPath><clipPath id="bcbd25dfd4"><path d="M 559 169.839844 L 592 169.839844 L 592 202.089844 L 559 202.089844 Z M 559 169.839844 " clip-rule="nonzero"/></clipPath><clipPath id="12b4e2f40d"><path d="M 598 169.839844 L 631.457031 169.839844 L 631.457031 202.089844 L 598 202.089844 Z M 598 169.839844 " clip-rule="nonzero"/></clipPath><clipPath id="7fb39ef320"><path d="M 394 246.617188 L 483.980469 246.617188 L 483.980469 364 L 394 364 Z M 394 246.617188 " clip-rule="nonzero"/></clipPath><clipPath id="5f2cac43da"><path d="M 423 387 L 455 387 L 455 393.617188 L 423 393.617188 Z M 423 387 " clip-rule="nonzero"/></clipPath><clipPath id="fada1a3490"><path d="M 415.160156 271.613281 L 457.910156 271.613281 L 457.910156 314.363281 L 415.160156 314.363281 Z M 415.160156 271.613281 " clip-rule="nonzero"/></clipPath><clipPath id="cb27419dc9"><path d="M 243.175781 306.105469 L 361.675781 306.105469 L 361.675781 424.605469 L 243.175781 424.605469 Z M 243.175781 306.105469 " clip-rule="nonzero"/></clipPath><clipPath id="6a3f9c88b3"><path d="M 396 432 L 473 432 L 473 552 L 396 552 Z M 396 432 " clip-rule="nonzero"/></clipPath><clipPath id="03f68874c5"><path d="M 370.546875 503.394531 L 421.808594 418.699219 L 507.785156 470.734375 L 456.523438 555.429688 Z M 370.546875 503.394531 " clip-rule="nonzero"/></clipPath><clipPath id="a4ba31d9ec"><path d="M 370.546875 503.394531 L 421.808594 418.699219 L 507.785156 470.734375 L 456.523438 555.429688 Z M 370.546875 503.394531 " clip-rule="nonzero"/></clipPath><clipPath id="5bf4ef06df"><path d="M 403 439 L 466 439 L 466 502 L 403 502 Z M 403 439 " clip-rule="nonzero"/></clipPath><clipPath id="1efbe1b4e7"><path d="M 370.546875 503.394531 L 421.808594 418.699219 L 507.785156 470.734375 L 456.523438 555.429688 Z M 370.546875 503.394531 " clip-rule="nonzero"/></clipPath><clipPath id="48d020a529"><path d="M 370.546875 503.394531 L 421.808594 418.699219 L 507.785156 470.734375 L 456.523438 555.429688 Z M 370.546875 503.394531 " clip-rule="nonzero"/></clipPath><clipPath id="3a83a5d989"><path d="M 341 571 L 349 571 L 349 595 L 341 595 Z M 341 571 " clip-rule="nonzero"/></clipPath><clipPath id="6e2031c38a"><path d="M 288.695312 561.496094 L 359.761719 490.429688 L 415.445312 546.117188 L 344.378906 617.179688 Z M 288.695312 561.496094 " clip-rule="nonzero"/></clipPath><clipPath id="9974add685"><path d="M 288.695312 561.496094 L 359.761719 490.429688 L 415.445312 546.117188 L 344.378906 617.179688 Z M 288.695312 561.496094 " clip-rule="nonzero"/></clipPath><clipPath id="d90e3e2ee3"><path d="M 376 515 L 387 515 L 387 526 L 376 526 Z M 376 515 " clip-rule="nonzero"/></clipPath><clipPath id="f6f56db9d5"><path d="M 288.695312 561.496094 L 359.761719 490.429688 L 415.445312 546.117188 L 344.378906 617.179688 Z M 288.695312 561.496094 " clip-rule="nonzero"/></clipPath><clipPath id="8ac7e67ca3"><path d="M 288.695312 561.496094 L 359.761719 490.429688 L 415.445312 546.117188 L 344.378906 617.179688 Z M 288.695312 561.496094 " clip-rule="nonzero"/></clipPath><clipPath id="232d3e73cf"><path d="M 382 527 L 396 527 L 396 531 L 382 531 Z M 382 527 " clip-rule="nonzero"/></clipPath><clipPath id="b15057eb75"><path d="M 288.695312 561.496094 L 359.761719 490.429688 L 415.445312 546.117188 L 344.378906 617.179688 Z M 288.695312 561.496094 " clip-rule="nonzero"/></clipPath><clipPath id="017d8c7634"><path d="M 288.695312 561.496094 L 359.761719 490.429688 L 415.445312 546.117188 L 344.378906 617.179688 Z M 288.695312 561.496094 " clip-rule="nonzero"/></clipPath><clipPath id="8e5a3f8870"><path d="M 370 507 L 375 507 L 375 520 L 370 520 Z M 370 507 " clip-rule="nonzero"/></clipPath><clipPath id="58594c405b"><path d="M 288.695312 561.496094 L 359.761719 490.429688 L 415.445312 546.117188 L 344.378906 617.179688 Z M 288.695312 561.496094 " clip-rule="nonzero"/></clipPath><clipPath id="92e19fb85c"><path d="M 288.695312 561.496094 L 359.761719 490.429688 L 415.445312 546.117188 L 344.378906 617.179688 Z M 288.695312 561.496094 " clip-rule="nonzero"/></clipPath><clipPath id="954056c03b"><path d="M 323 579 L 357 579 L 357 613 L 323 613 Z M 323 579 " clip-rule="nonzero"/></clipPath><clipPath id="8af513818f"><path d="M 288.695312 561.496094 L 359.761719 490.429688 L 415.445312 546.117188 L 344.378906 617.179688 Z M 288.695312 561.496094 " clip-rule="nonzero"/></clipPath><clipPath id="27e390bc63"><path d="M 288.695312 561.496094 L 359.761719 490.429688 L 415.445312 546.117188 L 344.378906 617.179688 Z M 288.695312 561.496094 " clip-rule="nonzero"/></clipPath><clipPath id="243d7a79bc"><path d="M 348 534 L 367 534 L 367 554 L 348 554 Z M 348 534 " clip-rule="nonzero"/></clipPath><clipPath id="3a2cb4b47e"><path d="M 288.695312 561.496094 L 359.761719 490.429688 L 415.445312 546.117188 L 344.378906 617.179688 Z M 288.695312 561.496094 " clip-rule="nonzero"/></clipPath><clipPath id="6df6bbc90f"><path d="M 288.695312 561.496094 L 359.761719 490.429688 L 415.445312 546.117188 L 344.378906 617.179688 Z M 288.695312 561.496094 " clip-rule="nonzero"/></clipPath><clipPath id="9e2817bb65"><path d="M 336 509 L 393 509 L 393 566 L 336 566 Z M 336 509 " clip-rule="nonzero"/></clipPath><clipPath id="4aae1d0ade"><path d="M 288.695312 561.496094 L 359.761719 490.429688 L 415.445312 546.117188 L 344.378906 617.179688 Z M 288.695312 561.496094 " clip-rule="nonzero"/></clipPath><clipPath id="ea45f88310"><path d="M 288.695312 561.496094 L 359.761719 490.429688 L 415.445312 546.117188 L 344.378906 617.179688 Z M 288.695312 561.496094 " clip-rule="nonzero"/></clipPath><clipPath id="443a100b81"><path d="M 307 563 L 339 563 L 339 594 L 307 594 Z M 307 563 " clip-rule="nonzero"/></clipPath><clipPath id="926d4b01b4"><path d="M 288.695312 561.496094 L 359.761719 490.429688 L 415.445312 546.117188 L 344.378906 617.179688 Z M 288.695312 561.496094 " clip-rule="nonzero"/></clipPath><clipPath id="49a501075d"><path d="M 288.695312 561.496094 L 359.761719 490.429688 L 415.445312 546.117188 L 344.378906 617.179688 Z M 288.695312 561.496094 " clip-rule="nonzero"/></clipPath><clipPath id="222c1ecd57"><path d="M 320 525 L 344 525 L 344 568 L 320 568 Z M 320 525 " clip-rule="nonzero"/></clipPath><clipPath id="720001a99b"><path d="M 288.695312 561.496094 L 359.761719 490.429688 L 415.445312 546.117188 L 344.378906 617.179688 Z M 288.695312 561.496094 " clip-rule="nonzero"/></clipPath><clipPath id="ff17014d30"><path d="M 288.695312 561.496094 L 359.761719 490.429688 L 415.445312 546.117188 L 344.378906 617.179688 Z M 288.695312 561.496094 " clip-rule="nonzero"/></clipPath><clipPath id="53c8dd83b2"><path d="M 334 557 L 377 557 L 377 581 L 334 581 Z M 334 557 " clip-rule="nonzero"/></clipPath><clipPath id="90e181791e"><path d="M 288.695312 561.496094 L 359.761719 490.429688 L 415.445312 546.117188 L 344.378906 617.179688 Z M 288.695312 561.496094 " clip-rule="nonzero"/></clipPath><clipPath id="5b6c883a76"><path d="M 288.695312 561.496094 L 359.761719 490.429688 L 415.445312 546.117188 L 344.378906 617.179688 Z M 288.695312 561.496094 " clip-rule="nonzero"/></clipPath></defs><g clip-path="url(#9dedabfb75)"><g clip-path="url(#fe94d61012)"><g clip-path="url(#5447d13250)"><path fill="#8447ff" d="M -29.746094 186.601562 L -29.734375 -29.628906 L 187.996094 -29.640625 L 187.996094 14.632812 L 14.539062 14.640625 L 14.527344 186.601562 L -29.746094 186.601562 " fill-opacity="1" fill-rule="nonzero"/></g></g></g><g clip-path="url(#f701967771)"><g clip-path="url(#4e0bffedbd)"><g clip-path="url(#f4cf48f6a1)"><path fill="#8447ff" d="M 796.980469 578.113281 L 796.964844 794.34375 L 579.234375 794.355469 L 579.234375 750.082031 L 752.695312 750.074219 L 752.707031 578.113281 L 796.980469 578.113281 " fill-opacity="1" fill-rule="nonzero"/></g></g></g><g clip-path="url(#0f364c6b59)"><g clip-path="url(#19c508d25c)"><g clip-path="url(#a7c66422dc)"><path fill="#8447ff" d="M 187.429688 795.292969 L -28.800781 795.277344 L -28.8125 577.546875 L 15.460938 577.546875 L 15.46875 751.007812 L 187.429688 751.019531 L 187.429688 795.292969 " fill-opacity="1" fill-rule="nonzero"/></g></g></g><g clip-path="url(#dc57c54093)"><g clip-path="url(#68aef5d1cd)"><g clip-path="url(#85fbcf9131)"><path fill="#8447ff" d="M 579.800781 -30.574219 L 796.03125 -30.5625 L 796.042969 187.167969 L 751.769531 187.167969 L 751.761719 13.710938 L 579.800781 13.699219 L 579.800781 -30.574219 " fill-opacity="1" fill-rule="nonzero"/></g></g></g><g clip-path="url(#cbd1fc644b)"><g clip-path="url(#f6806e6053)"><path stroke-linecap="butt" transform="matrix(0.750642, 0, 0, 0.750352, 201.685056, 228.455341)" fill="none" stroke-linejoin="miter" d="M 31.996692 0.00225195 L 387.634855 0.00225195 C 405.307221 0.00225195 419.633495 14.328865 419.633495 31.997661 L 419.633495 500.75174 C 419.633495 518.425741 405.307221 532.752355 387.634855 532.752355 L 31.996692 532.752355 C 14.324325 532.752355 -0.00194829 518.425741 -0.00194829 500.75174 L -0.00194829 31.997661 C -0.00194829 14.328865 14.324325 0.00225195 31.996692 0.00225195 Z M 31.996692 0.00225195 " stroke="#49e6b4" stroke-width="26" stroke-opacity="1" stroke-miterlimit="4"/></g></g><path fill="#8cffda" d="M 205.398438 485.722656 C 184.023438 485.722656 166.695312 503.90625 166.695312 526.339844 C 166.695312 548.773438 184.023438 566.957031 205.398438 566.957031 C 226.773438 566.957031 244.097656 548.773438 244.097656 526.339844 C 244.097656 503.90625 226.773438 485.722656 205.398438 485.722656 " fill-opacity="1" fill-rule="nonzero"/><g clip-path="url(#5c3ae2bd38)"><path fill="#8cffda" d="M 269.675781 607.140625 C 261.101562 586.234375 243.109375 573.160156 205.339844 573.160156 C 167.617188 573.160156 149.625 586.199219 141.039062 607.058594 C 123.566406 589.363281 112.699219 564.535156 112.699219 537.039062 C 112.699219 483.3125 154.199219 439.757812 205.398438 439.757812 C 256.59375 439.757812 298.097656 483.3125 298.097656 537.039062 C 298.097656 564.578125 287.195312 589.441406 269.675781 607.140625 Z M 205.398438 435.5 C 151.960938 435.5 108.640625 480.960938 108.640625 537.039062 C 108.640625 566.371094 120.492188 592.800781 139.445312 611.335938 C 156.722656 628.238281 179.910156 638.582031 205.398438 638.582031 C 230.839844 638.582031 253.992188 628.273438 271.265625 611.421875 C 290.265625 592.882812 302.152344 566.417969 302.152344 537.039062 C 302.152344 480.960938 258.832031 435.5 205.398438 435.5 " fill-opacity="1" fill-rule="nonzero"/></g><g clip-path="url(#cd9975a8b1)"><path fill="#8447ff" d="M 492.003906 137.867188 L 492.003906 225.6875 C 492.003906 230.546875 495.917969 234.472656 500.765625 234.472656 L 525.402344 234.472656 L 511.761719 276.082031 L 567.855469 234.472656 L 650.390625 234.472656 C 655.238281 234.472656 659.148438 230.546875 659.148438 225.6875 L 659.148438 137.867188 C 659.148438 133.007812 655.238281 129.082031 650.390625 129.082031 L 500.765625 129.082031 C 495.917969 129.082031 492.003906 133.007812 492.003906 137.867188 Z M 492.003906 137.867188 " fill-opacity="1" fill-rule="nonzero"/></g><g clip-path="url(#b45770596c)"><path fill="#ffffff" d="M 536.019531 202.078125 C 544.992188 202.078125 552.289062 194.84375 552.289062 185.953125 C 552.289062 177.0625 544.992188 169.832031 536.019531 169.832031 C 527.050781 169.832031 519.753906 177.0625 519.753906 185.953125 C 519.753906 194.84375 527.050781 202.078125 536.019531 202.078125 " fill-opacity="1" fill-rule="nonzero"/></g><g clip-path="url(#bcbd25dfd4)"><path fill="#ffffff" d="M 575.582031 202.078125 C 584.554688 202.078125 591.847656 194.84375 591.847656 185.953125 C 591.847656 177.0625 584.554688 169.832031 575.582031 169.832031 C 566.613281 169.832031 559.316406 177.0625 559.316406 185.953125 C 559.316406 194.84375 566.613281 202.078125 575.582031 202.078125 " fill-opacity="1" fill-rule="nonzero"/></g><g clip-path="url(#12b4e2f40d)"><path fill="#ffffff" d="M 615.144531 202.078125 C 624.113281 202.078125 631.414062 194.84375 631.414062 185.953125 C 631.414062 177.0625 624.113281 169.832031 615.144531 169.832031 C 606.175781 169.832031 598.878906 177.0625 598.878906 185.953125 C 598.878906 194.84375 606.175781 202.078125 615.144531 202.078125 " fill-opacity="1" fill-rule="nonzero"/></g><g clip-path="url(#7fb39ef320)"><path fill="#8cffda" d="M 439 251.390625 C 416.851562 251.390625 398.832031 269.417969 398.832031 291.574219 C 398.832031 301.003906 402.710938 309.535156 406.5 316.636719 C 407.859375 319.171875 409.328125 321.691406 410.871094 324.121094 C 411.417969 324.972656 412.03125 325.839844 412.683594 326.753906 C 415.859375 331.214844 419.8125 336.769531 420.050781 347.511719 L 420.050781 351.644531 C 420.050781 355.507812 423.195312 358.648438 427.054688 358.648438 L 450.949219 358.648438 C 454.8125 358.648438 457.953125 355.507812 457.953125 351.644531 L 457.953125 346.929688 C 458.320312 336.574219 462.1875 331.132812 465.300781 326.765625 C 465.953125 325.84375 466.570312 324.976562 467.117188 324.117188 C 470.976562 318.0625 473.671875 313.042969 475.589844 308.328125 C 476.917969 305.054688 477.855469 301.996094 478.453125 298.976562 C 478.929688 296.601562 479.171875 294.109375 479.171875 291.574219 C 479.171875 269.417969 461.148438 251.390625 439 251.390625 Z M 450.949219 363.445312 L 427.054688 363.445312 C 420.550781 363.445312 415.257812 358.152344 415.257812 351.644531 L 415.257812 347.566406 C 415.050781 338.351562 411.863281 333.867188 408.777344 329.535156 C 408.089844 328.570312 407.441406 327.65625 406.828125 326.699219 C 405.21875 324.167969 403.683594 321.542969 402.269531 318.898438 C 398.199219 311.269531 394.035156 302.0625 394.035156 291.574219 C 394.035156 266.769531 414.210938 246.59375 439 246.59375 C 463.792969 246.59375 483.964844 266.769531 483.964844 291.574219 C 483.964844 294.429688 483.691406 297.234375 483.15625 299.914062 C 482.5 303.230469 481.476562 306.574219 480.03125 310.132812 C 478 315.128906 475.179688 320.390625 471.160156 326.695312 C 470.546875 327.660156 469.894531 328.578125 469.207031 329.542969 C 466.1875 333.785156 463.066406 338.167969 462.75 347.054688 L 462.75 351.644531 C 462.75 358.152344 457.457031 363.445312 450.949219 363.445312 " fill-opacity="1" fill-rule="nonzero"/></g><g clip-path="url(#5f2cac43da)"><path fill="#8cffda" d="M 423.609375 387.507812 L 432.824219 391.957031 C 436.238281 393.601562 441.765625 393.601562 445.175781 391.957031 L 454.394531 387.507812 L 423.609375 387.507812 " fill-opacity="1" fill-rule="nonzero"/></g><path fill="#8cffda" d="M 456.273438 385.933594 C 456.273438 387.253906 455.203125 388.332031 453.871094 388.332031 L 424.132812 388.332031 C 422.804688 388.332031 421.730469 387.253906 421.730469 385.933594 C 421.730469 384.601562 422.804688 383.527344 424.132812 383.527344 L 453.871094 383.527344 C 455.203125 383.527344 456.273438 384.601562 456.273438 385.933594 " fill-opacity="1" fill-rule="nonzero"/><path fill="#8cffda" d="M 458.265625 379.015625 C 458.265625 380.34375 457.191406 381.421875 455.863281 381.421875 L 422.140625 381.421875 C 420.8125 381.421875 419.738281 380.34375 419.738281 379.015625 C 419.738281 377.691406 420.8125 376.613281 422.140625 376.613281 L 455.863281 376.613281 C 457.191406 376.613281 458.265625 377.691406 458.265625 379.015625 " fill-opacity="1" fill-rule="nonzero"/><path fill="#8cffda" d="M 458.265625 372.105469 C 458.265625 373.433594 457.191406 374.511719 455.863281 374.511719 L 422.140625 374.511719 C 420.8125 374.511719 419.738281 373.433594 419.738281 372.105469 C 419.738281 370.78125 420.8125 369.703125 422.140625 369.703125 L 455.863281 369.703125 C 457.191406 369.703125 458.265625 370.78125 458.265625 372.105469 " fill-opacity="1" fill-rule="nonzero"/><path fill="#8cffda" d="M 460.359375 365.195312 C 460.359375 366.519531 459.28125 367.59375 457.953125 367.59375 L 420.046875 367.59375 C 418.722656 367.59375 417.648438 366.519531 417.648438 365.195312 C 417.648438 363.871094 418.722656 362.792969 420.046875 362.792969 L 457.953125 362.792969 C 459.28125 362.792969 460.359375 363.871094 460.359375 365.195312 " fill-opacity="1" fill-rule="nonzero"/><g clip-path="url(#fada1a3490)"><path fill="#8447ff" d="M 440.90625 271.613281 C 437.421875 271.613281 434.589844 274.449219 434.589844 277.929688 C 434.589844 278.800781 434.816406 279.605469 435.136719 280.359375 L 424.386719 280.359375 C 424.253906 280.359375 424.140625 280.40625 424.046875 280.5 C 423.949219 280.597656 423.902344 280.710938 423.902344 280.84375 L 423.902344 291.578125 C 423.152344 291.257812 422.34375 291.046875 421.472656 291.046875 C 417.992188 291.046875 415.160156 293.878906 415.160156 297.363281 C 415.160156 300.84375 417.992188 303.675781 421.472656 303.675781 C 422.34375 303.675781 423.152344 303.449219 423.902344 303.128906 L 423.902344 313.878906 C 423.902344 314.011719 423.949219 314.128906 424.046875 314.222656 C 424.140625 314.316406 424.253906 314.363281 424.386719 314.363281 L 436.5625 314.363281 C 436.78125 314.371094 436.933594 314.273438 437.019531 314.074219 C 437.105469 313.878906 437.078125 313.703125 436.929688 313.542969 C 436.082031 312.597656 435.5625 311.363281 435.5625 309.992188 C 435.5625 307.035156 437.949219 304.648438 440.90625 304.648438 C 443.863281 304.648438 446.25 307.035156 446.25 309.992188 C 446.25 311.363281 445.730469 312.597656 444.882812 313.542969 C 444.734375 313.703125 444.703125 313.878906 444.792969 314.074219 C 444.878906 314.273438 445.03125 314.371094 445.246094 314.363281 L 457.421875 314.363281 C 457.558594 314.363281 457.671875 314.316406 457.765625 314.222656 C 457.859375 314.128906 457.910156 314.011719 457.910156 313.878906 L 457.910156 301.703125 C 457.90625 301.496094 457.8125 301.347656 457.625 301.261719 C 457.433594 301.175781 457.261719 301.203125 457.105469 301.339844 C 456.15625 302.1875 454.90625 302.707031 453.535156 302.707031 C 450.578125 302.707031 448.191406 300.320312 448.191406 297.363281 C 448.191406 294.40625 450.578125 292.019531 453.535156 292.019531 C 454.90625 292.019531 456.15625 292.519531 457.105469 293.367188 C 457.257812 293.503906 457.429688 293.53125 457.617188 293.449219 C 457.804688 293.367188 457.902344 293.222656 457.910156 293.019531 L 457.910156 280.84375 C 457.910156 280.710938 457.859375 280.597656 457.765625 280.5 C 457.671875 280.40625 457.558594 280.359375 457.421875 280.359375 L 446.675781 280.359375 C 446.996094 279.605469 447.222656 278.800781 447.222656 277.929688 C 447.222656 274.449219 444.386719 271.613281 440.90625 271.613281 Z M 440.90625 272.585938 C 443.863281 272.585938 446.25 274.972656 446.25 277.929688 C 446.25 278.90625 445.976562 279.8125 445.519531 280.601562 C 445.425781 280.765625 445.425781 280.925781 445.523438 281.089844 C 445.617188 281.25 445.757812 281.332031 445.945312 281.332031 L 456.9375 281.332031 L 456.9375 292.15625 C 455.941406 291.503906 454.8125 291.046875 453.535156 291.046875 C 450.054688 291.046875 447.222656 293.878906 447.222656 297.363281 C 447.222656 300.84375 450.054688 303.675781 453.535156 303.675781 C 454.8125 303.675781 455.941406 303.207031 456.9375 302.554688 L 456.9375 313.394531 L 446.113281 313.394531 C 446.765625 312.398438 447.222656 311.269531 447.222656 309.992188 C 447.222656 306.511719 444.386719 303.675781 440.90625 303.675781 C 437.421875 303.675781 434.589844 306.511719 434.589844 309.992188 C 434.589844 311.269531 435.046875 312.398438 435.699219 313.394531 L 424.875 313.394531 L 424.875 302.402344 C 424.875 302.214844 424.796875 302.074219 424.632812 301.976562 C 424.472656 301.882812 424.308594 301.882812 424.144531 301.976562 C 423.355469 302.433594 422.449219 302.707031 421.472656 302.707031 C 418.515625 302.707031 416.128906 300.320312 416.128906 297.363281 C 416.128906 294.40625 418.515625 292.019531 421.472656 292.019531 C 422.449219 292.019531 423.355469 292.273438 424.144531 292.730469 C 424.21875 292.773438 424.300781 292.796875 424.386719 292.796875 C 424.472656 292.796875 424.550781 292.777344 424.625 292.734375 C 424.703125 292.691406 424.761719 292.632812 424.804688 292.558594 C 424.847656 292.488281 424.871094 292.40625 424.875 292.320312 L 424.875 281.332031 L 435.867188 281.332031 C 436.054688 281.332031 436.195312 281.25 436.289062 281.089844 C 436.382812 280.925781 436.382812 280.765625 436.289062 280.601562 C 435.832031 279.8125 435.5625 278.90625 435.5625 277.929688 C 435.5625 274.972656 437.949219 272.585938 440.90625 272.585938 Z M 440.90625 272.585938 " fill-opacity="1" fill-rule="nonzero"/></g><g clip-path="url(#cb27419dc9)"><path fill="#8447ff" d="M 352.46875 352.996094 L 349.933594 352.996094 C 348.53125 352.996094 347.289062 352.085938 346.847656 350.765625 C 346.105469 348.53125 345.222656 346.355469 344.148438 344.289062 C 343.515625 343.019531 343.734375 341.503906 344.753906 340.484375 L 346.574219 338.667969 C 350.15625 335.082031 350.15625 329.214844 346.574219 325.632812 L 342.109375 321.222656 C 338.527344 317.640625 332.683594 317.640625 329.074219 321.222656 L 327.253906 323.039062 C 326.261719 324.03125 324.71875 324.28125 323.480469 323.648438 C 321.414062 322.601562 319.234375 321.691406 317.003906 320.945312 C 315.652344 320.503906 314.769531 319.265625 314.769531 317.859375 L 314.769531 315.324219 C 314.769531 310.253906 310.636719 306.121094 305.566406 306.121094 L 299.3125 306.121094 C 294.238281 306.121094 290.105469 310.253906 290.105469 315.324219 L 290.105469 317.859375 C 290.105469 319.265625 289.195312 320.503906 287.875 320.945312 C 285.640625 321.691406 283.464844 322.574219 281.398438 323.648438 C 280.128906 324.28125 278.613281 324.058594 277.59375 323.039062 L 275.777344 321.222656 C 272.195312 317.640625 266.324219 317.640625 262.742188 321.222656 L 258.304688 325.660156 C 254.722656 329.242188 254.722656 335.113281 258.304688 338.695312 L 260.125 340.511719 C 261.113281 341.503906 261.363281 343.019531 260.730469 344.289062 C 259.683594 346.355469 258.773438 348.53125 258.027344 350.765625 C 257.585938 352.113281 256.347656 352.996094 254.941406 352.996094 L 252.40625 352.996094 C 247.308594 352.996094 243.175781 357.128906 243.175781 362.230469 L 243.175781 368.484375 C 243.175781 373.554688 247.308594 377.6875 252.378906 377.6875 L 254.914062 377.6875 C 256.320312 377.6875 257.558594 378.597656 258 379.921875 C 258.746094 382.152344 259.628906 384.332031 260.703125 386.398438 C 261.335938 387.664062 261.113281 389.179688 260.09375 390.199219 L 258.277344 392.019531 C 254.695312 395.601562 254.695312 401.472656 258.277344 405.054688 L 262.742188 409.464844 C 266.324219 413.046875 272.167969 413.046875 275.777344 409.464844 L 277.59375 407.644531 C 278.585938 406.652344 280.128906 406.402344 281.371094 407.039062 C 283.4375 408.085938 285.613281 408.996094 287.847656 409.738281 C 289.195312 410.179688 290.078125 411.417969 290.078125 412.824219 L 290.078125 415.386719 C 290.078125 420.457031 294.210938 424.59375 299.285156 424.59375 L 305.539062 424.59375 C 310.609375 424.59375 314.742188 420.457031 314.742188 415.386719 L 314.742188 412.824219 C 314.742188 411.417969 315.652344 410.179688 316.976562 409.738281 C 319.207031 408.996094 321.386719 408.113281 323.453125 407.039062 C 324.71875 406.402344 326.234375 406.625 327.253906 407.644531 L 329.074219 409.464844 C 332.65625 413.046875 338.527344 413.046875 342.109375 409.464844 L 346.546875 405.027344 C 350.128906 401.445312 350.128906 395.574219 346.546875 391.992188 L 344.726562 390.171875 C 343.734375 389.179688 343.488281 387.664062 344.121094 386.398438 C 345.167969 384.332031 346.078125 382.152344 346.820312 379.921875 C 347.261719 378.570312 348.503906 377.6875 349.90625 377.6875 L 352.441406 377.6875 C 357.511719 377.6875 361.648438 373.554688 361.648438 368.484375 L 361.648438 362.230469 C 361.675781 357.128906 357.542969 352.996094 352.46875 352.996094 Z M 355.75 368.457031 C 355.75 370.277344 354.261719 371.734375 352.46875 371.734375 L 349.933594 371.734375 C 345.964844 371.734375 342.46875 374.269531 341.226562 378.046875 C 340.59375 379.976562 339.792969 381.878906 338.882812 383.695312 C 337.09375 387.25 337.753906 391.523438 340.566406 394.363281 L 342.382812 396.179688 C 343.679688 397.476562 343.679688 399.542969 342.382812 400.835938 L 337.949219 405.273438 C 336.652344 406.570312 334.558594 406.542969 333.289062 405.273438 L 331.472656 403.457031 C 328.660156 400.644531 324.390625 399.957031 320.804688 401.773438 C 318.988281 402.683594 317.113281 403.484375 315.15625 404.117188 C 311.382812 405.355469 308.847656 408.855469 308.847656 412.824219 L 308.847656 415.386719 C 308.847656 417.207031 307.359375 418.667969 305.566406 418.667969 L 299.3125 418.667969 C 297.492188 418.667969 296.03125 417.179688 296.03125 415.386719 L 296.03125 412.824219 C 296.03125 408.855469 293.496094 405.355469 289.71875 404.117188 C 287.792969 403.484375 285.890625 402.683594 284.070312 401.773438 C 282.75 401.113281 281.316406 400.78125 279.910156 400.78125 C 277.539062 400.78125 275.199219 401.71875 273.433594 403.484375 L 271.613281 405.300781 C 270.320312 406.570312 268.253906 406.597656 266.957031 405.300781 L 262.519531 400.863281 C 261.226562 399.570312 261.226562 397.503906 262.519531 396.207031 L 264.339844 394.390625 C 267.152344 391.578125 267.839844 387.304688 266.019531 383.722656 C 265.109375 381.90625 264.3125 380.03125 263.679688 378.074219 C 262.4375 374.300781 258.9375 371.761719 254.96875 371.761719 L 252.433594 371.761719 C 250.617188 371.761719 249.15625 370.277344 249.15625 368.484375 L 249.15625 362.230469 C 249.15625 360.410156 250.644531 358.949219 252.433594 358.949219 L 254.96875 358.949219 C 258.9375 358.949219 262.4375 356.414062 263.679688 352.636719 C 264.3125 350.710938 265.109375 348.808594 266.019531 346.988281 C 267.8125 343.433594 267.152344 339.164062 264.339844 336.324219 L 262.519531 334.503906 C 261.226562 333.210938 261.226562 331.144531 262.519531 329.847656 L 266.957031 325.410156 C 268.253906 324.117188 270.320312 324.117188 271.613281 325.410156 L 273.433594 327.230469 C 276.246094 330.039062 280.542969 330.730469 284.097656 328.910156 C 285.917969 328 287.792969 327.203125 289.75 326.566406 C 293.523438 325.328125 296.058594 321.828125 296.058594 317.859375 L 296.058594 315.324219 C 296.058594 313.503906 297.546875 312.046875 299.339844 312.046875 L 305.59375 312.046875 C 307.414062 312.046875 308.875 313.535156 308.875 315.324219 L 308.875 317.859375 C 308.875 321.828125 311.410156 325.328125 315.183594 326.566406 C 317.113281 327.203125 319.015625 328 320.832031 328.910156 C 324.390625 330.703125 328.660156 330.039062 331.5 327.230469 L 333.316406 325.410156 C 334.585938 324.117188 336.679688 324.117188 337.976562 325.410156 L 342.410156 329.847656 C 343.707031 331.144531 343.707031 333.210938 342.410156 334.503906 L 340.59375 336.324219 C 337.78125 339.136719 337.09375 343.40625 338.910156 346.988281 C 339.820312 348.808594 340.621094 350.683594 341.253906 352.636719 C 342.496094 356.414062 345.996094 358.949219 349.960938 358.949219 L 352.496094 358.949219 C 354.316406 358.949219 355.777344 360.4375 355.777344 362.230469 L 355.777344 368.457031 Z M 355.75 368.457031 " fill-opacity="1" fill-rule="nonzero"/></g><path fill="#8447ff" d="M 302.425781 334.230469 C 285.285156 334.230469 271.3125 348.175781 271.3125 365.34375 C 271.3125 382.511719 285.285156 396.457031 302.425781 396.457031 C 319.566406 396.457031 333.539062 382.484375 333.539062 365.34375 C 333.539062 348.203125 319.566406 334.230469 302.425781 334.230469 Z M 302.425781 390.53125 C 288.535156 390.53125 277.238281 379.230469 277.238281 365.34375 C 277.238281 351.453125 288.535156 340.15625 302.425781 340.15625 C 316.3125 340.15625 327.613281 351.453125 327.613281 365.34375 C 327.613281 379.230469 316.3125 390.53125 302.425781 390.53125 Z M 302.425781 390.53125 " fill-opacity="1" fill-rule="nonzero"/><g clip-path="url(#6a3f9c88b3)"><g clip-path="url(#03f68874c5)"><g clip-path="url(#a4ba31d9ec)"><path fill="#8cffda" d="M 445.726562 545.226562 C 445.394531 544.050781 445.144531 542.859375 444.871094 541.671875 C 442.742188 532.390625 440.84375 523.066406 439.953125 513.566406 C 439.777344 511.710938 439.714844 509.839844 439.644531 507.96875 C 437.496094 508.28125 435.339844 508.410156 433.171875 508.347656 C 431.003906 508.285156 428.859375 508.039062 426.734375 507.601562 C 424.609375 507.167969 422.539062 506.554688 420.523438 505.757812 C 418.503906 504.960938 416.570312 504 414.722656 502.867188 C 396.941406 491.980469 391.496094 468.777344 402.394531 450.964844 C 413.203125 433.304688 436.433594 427.570312 454.117188 438.410156 C 472.113281 449.445312 477.277344 472.753906 466.5 490.226562 C 464.582031 493.410156 462.242188 496.246094 459.480469 498.726562 C 456.71875 501.210938 453.652344 503.234375 450.28125 504.800781 C 452.378906 508.949219 454.007812 513.289062 455.511719 517.6875 C 458.152344 525.394531 460.308594 533.242188 462.242188 541.15625 C 462.527344 542.257812 462.574219 543.371094 462.386719 544.492188 C 462.195312 545.613281 461.785156 546.648438 461.152344 547.59375 C 459.15625 550.640625 456.261719 552.042969 452.679688 551.496094 C 449.09375 550.945312 446.722656 548.773438 445.726562 545.226562 Z M 460.738281 486.601562 C 469.628906 472.125 464.96875 453.109375 450.457031 444.242188 C 436.019531 435.417969 417.097656 440.085938 408.140625 454.683594 C 399.265625 469.148438 403.847656 488.21875 418.394531 497.03125 C 433.054688 505.917969 451.703125 501.304688 460.738281 486.601562 Z M 460.738281 486.601562 " fill-opacity="1" fill-rule="nonzero"/></g></g></g><g clip-path="url(#5bf4ef06df)"><g clip-path="url(#1efbe1b4e7)"><g clip-path="url(#48d020a529)"><path fill="#ffffff" d="M 408.140625 454.683594 C 417.097656 440.085938 436.019531 435.417969 450.457031 444.242188 C 464.96875 453.109375 469.636719 472.128906 460.738281 486.601562 C 451.703125 501.304688 433.054688 505.917969 418.394531 497.03125 C 403.847656 488.21875 399.265625 469.148438 408.140625 454.683594 Z M 408.140625 454.683594 " fill-opacity="1" fill-rule="nonzero"/></g></g></g><g clip-path="url(#3a83a5d989)"><g clip-path="url(#6e2031c38a)"><g clip-path="url(#9974add685)"><path fill="#6c38d4" d="M 345.328125 593.683594 C 345.152344 593.859375 344.953125 593.992188 344.730469 594.089844 C 344.503906 594.1875 344.265625 594.238281 344.023438 594.246094 C 343.777344 594.253906 343.539062 594.21875 343.308594 594.132812 C 343.078125 594.050781 342.871094 593.925781 342.6875 593.765625 C 342.503906 593.601562 342.355469 593.410156 342.246094 593.191406 C 342.136719 592.972656 342.070312 592.742188 342.046875 592.496094 C 342.027344 592.253906 342.050781 592.011719 342.121094 591.777344 C 342.1875 591.542969 342.300781 591.328125 342.449219 591.132812 C 346.21875 586.328125 345.839844 579.425781 341.566406 575.074219 C 341.390625 574.890625 341.253906 574.683594 341.15625 574.449219 C 341.0625 574.210938 341.015625 573.96875 341.015625 573.714844 C 341.019531 573.460938 341.070312 573.214844 341.167969 572.980469 C 341.265625 572.746094 341.40625 572.539062 341.585938 572.355469 L 341.597656 572.34375 C 341.78125 572.164062 341.992188 572.027344 342.226562 571.929688 C 342.464844 571.835938 342.710938 571.785156 342.96875 571.789062 C 343.222656 571.789062 343.46875 571.839844 343.707031 571.941406 C 343.941406 572.039062 344.148438 572.183594 344.328125 572.363281 C 349.949219 578.09375 350.445312 587.179688 345.484375 593.511719 C 345.4375 593.574219 345.382812 593.628906 345.328125 593.683594 Z M 345.328125 593.683594 " fill-opacity="1" fill-rule="nonzero"/></g></g></g><g clip-path="url(#d90e3e2ee3)"><g clip-path="url(#f6f56db9d5)"><g clip-path="url(#8ac7e67ca3)"><path fill="#6c38d4" d="M 385.511719 518.898438 L 379.617188 524.792969 C 379.433594 524.972656 379.226562 525.113281 378.988281 525.210938 C 378.753906 525.308594 378.507812 525.359375 378.25 525.359375 C 377.996094 525.359375 377.75 525.3125 377.511719 525.214844 C 377.277344 525.117188 377.066406 524.976562 376.886719 524.796875 C 376.707031 524.617188 376.566406 524.410156 376.46875 524.171875 C 376.371094 523.9375 376.324219 523.691406 376.324219 523.433594 C 376.324219 523.179688 376.375 522.933594 376.472656 522.695312 C 376.570312 522.457031 376.710938 522.25 376.890625 522.066406 L 382.785156 516.175781 C 382.96875 515.992188 383.175781 515.851562 383.414062 515.753906 C 383.648438 515.65625 383.894531 515.605469 384.152344 515.605469 C 384.40625 515.605469 384.652344 515.65625 384.890625 515.753906 C 385.125 515.851562 385.335938 515.988281 385.515625 516.167969 C 385.695312 516.351562 385.835938 516.558594 385.933594 516.792969 C 386.03125 517.03125 386.078125 517.277344 386.078125 517.53125 C 386.078125 517.789062 386.027344 518.035156 385.929688 518.273438 C 385.832031 518.507812 385.691406 518.71875 385.511719 518.898438 Z M 385.511719 518.898438 " fill-opacity="1" fill-rule="nonzero"/></g></g></g><g clip-path="url(#232d3e73cf)"><g clip-path="url(#b15057eb75)"><g clip-path="url(#017d8c7634)"><path fill="#6c38d4" d="M 394.4375 530.414062 C 394.058594 530.792969 393.605469 530.980469 393.070312 530.980469 L 384.746094 530.996094 C 384.496094 530.992188 384.25 530.941406 384.019531 530.839844 C 383.785156 530.742188 383.582031 530.601562 383.402344 530.421875 C 383.226562 530.242188 383.089844 530.035156 382.992188 529.800781 C 382.898438 529.566406 382.851562 529.320312 382.851562 529.070312 C 382.851562 528.816406 382.898438 528.570312 382.996094 528.335938 C 383.09375 528.101562 383.230469 527.894531 383.40625 527.714844 C 383.585938 527.53125 383.792969 527.390625 384.023438 527.292969 C 384.257812 527.191406 384.5 527.140625 384.753906 527.136719 L 393.078125 527.121094 C 393.46875 527.121094 393.824219 527.226562 394.148438 527.445312 C 394.472656 527.660156 394.710938 527.949219 394.859375 528.308594 C 395.007812 528.671875 395.042969 529.042969 394.96875 529.425781 C 394.890625 529.808594 394.714844 530.136719 394.4375 530.414062 Z M 394.4375 530.414062 " fill-opacity="1" fill-rule="nonzero"/></g></g></g><g clip-path="url(#8e5a3f8870)"><g clip-path="url(#58594c405b)"><g clip-path="url(#92e19fb85c)"><path fill="#6c38d4" d="M 373.550781 518.726562 C 373.273438 519.003906 372.945312 519.179688 372.5625 519.257812 C 372.179688 519.332031 371.808594 519.296875 371.449219 519.148438 C 371.085938 519 370.800781 518.761719 370.582031 518.4375 C 370.367188 518.113281 370.257812 517.757812 370.257812 517.367188 L 370.273438 509.046875 C 370.273438 508.792969 370.324219 508.546875 370.421875 508.308594 C 370.519531 508.070312 370.660156 507.863281 370.839844 507.683594 C 371.023438 507.5 371.230469 507.359375 371.46875 507.261719 C 371.703125 507.164062 371.949219 507.113281 372.207031 507.113281 C 372.460938 507.113281 372.707031 507.164062 372.945312 507.261719 C 373.179688 507.359375 373.390625 507.496094 373.570312 507.675781 C 373.75 507.859375 373.890625 508.066406 373.988281 508.304688 C 374.085938 508.539062 374.132812 508.785156 374.132812 509.042969 L 374.117188 517.359375 C 374.117188 517.894531 373.929688 518.347656 373.550781 518.726562 Z M 373.550781 518.726562 " fill-opacity="1" fill-rule="nonzero"/></g></g></g><g clip-path="url(#954056c03b)"><g clip-path="url(#8af513818f)"><g clip-path="url(#27e390bc63)"><path fill="#6c38d4" d="M 355 606.527344 L 350.046875 611.480469 C 349.851562 611.675781 349.640625 611.847656 349.414062 612 C 349.183594 612.152344 348.945312 612.28125 348.691406 612.386719 C 348.4375 612.488281 348.179688 612.570312 347.910156 612.625 C 347.640625 612.675781 347.371094 612.703125 347.097656 612.703125 C 346.824219 612.703125 346.550781 612.679688 346.285156 612.625 C 346.015625 612.574219 345.753906 612.496094 345.5 612.390625 C 345.25 612.285156 345.007812 612.160156 344.78125 612.007812 C 344.554688 611.855469 344.34375 611.683594 344.152344 611.488281 L 323.898438 591.238281 C 323.71875 591.058594 323.578125 590.847656 323.480469 590.613281 C 323.382812 590.375 323.335938 590.128906 323.335938 589.875 C 323.335938 589.617188 323.386719 589.371094 323.484375 589.136719 C 323.582031 588.898438 323.722656 588.691406 323.902344 588.507812 L 332.03125 580.378906 C 332.214844 580.199219 332.421875 580.058594 332.660156 579.960938 C 332.894531 579.863281 333.140625 579.8125 333.398438 579.8125 C 333.652344 579.8125 333.898438 579.859375 334.136719 579.957031 C 334.371094 580.054688 334.582031 580.195312 334.761719 580.375 L 355.011719 600.628906 C 355.207031 600.820312 355.378906 601.03125 355.53125 601.257812 C 355.683594 601.488281 355.808594 601.726562 355.914062 601.980469 C 356.019531 602.234375 356.097656 602.492188 356.148438 602.761719 C 356.203125 603.03125 356.226562 603.300781 356.226562 603.574219 C 356.226562 603.847656 356.199219 604.121094 356.144531 604.390625 C 356.089844 604.65625 356.011719 604.917969 355.90625 605.171875 C 355.800781 605.425781 355.671875 605.664062 355.519531 605.894531 C 355.367188 606.121094 355.195312 606.332031 355 606.527344 Z M 327.992188 589.871094 L 346.882812 608.757812 C 346.941406 608.820312 347.015625 608.847656 347.101562 608.847656 C 347.183594 608.847656 347.257812 608.820312 347.320312 608.757812 L 352.273438 603.804688 C 352.332031 603.742188 352.363281 603.671875 352.363281 603.585938 C 352.363281 603.5 352.335938 603.425781 352.273438 603.367188 L 333.386719 584.476562 Z M 327.992188 589.871094 " fill-opacity="1" fill-rule="nonzero"/></g></g></g><g clip-path="url(#243d7a79bc)"><g clip-path="url(#3a2cb4b47e)"><g clip-path="url(#6df6bbc90f)"><path fill="#6c38d4" d="M 363.886719 552.644531 C 363.734375 552.796875 363.570312 552.933594 363.386719 553.050781 C 363.175781 553.1875 362.945312 553.28125 362.699219 553.328125 C 362.453125 553.375 362.207031 553.371094 361.960938 553.324219 C 361.710938 553.273438 361.484375 553.179688 361.273438 553.042969 C 361.066406 552.902344 360.890625 552.730469 360.75 552.523438 C 360.605469 552.316406 360.507812 552.089844 360.457031 551.84375 C 360.402344 551.597656 360.398438 551.351562 360.441406 551.105469 C 360.484375 550.855469 360.574219 550.625 360.707031 550.410156 C 360.84375 550.199219 361.011719 550.015625 361.214844 549.871094 C 361.507812 549.570312 361.765625 549.246094 361.996094 548.898438 C 362.222656 548.546875 362.414062 548.179688 362.570312 547.792969 C 362.730469 547.40625 362.847656 547.007812 362.925781 546.601562 C 363.003906 546.191406 363.042969 545.777344 363.042969 545.363281 C 363.039062 544.945312 363 544.53125 362.917969 544.125 C 362.832031 543.714844 362.714844 543.320312 362.554688 542.933594 C 362.394531 542.550781 362.199219 542.1875 361.96875 541.839844 C 361.734375 541.496094 361.472656 541.175781 361.179688 540.878906 L 360.804688 540.503906 C 360.511719 540.210938 360.191406 539.949219 359.84375 539.71875 C 359.5 539.488281 359.132812 539.292969 358.75 539.132812 C 358.367188 538.972656 357.96875 538.851562 357.5625 538.769531 C 357.152344 538.6875 356.742188 538.644531 356.324219 538.644531 C 355.90625 538.640625 355.496094 538.679688 355.085938 538.757812 C 354.675781 538.839844 354.277344 538.957031 353.890625 539.113281 C 353.503906 539.269531 353.136719 539.460938 352.789062 539.691406 C 352.4375 539.917969 352.113281 540.179688 351.816406 540.46875 C 351.667969 540.671875 351.488281 540.84375 351.273438 540.976562 C 351.0625 541.109375 350.832031 541.199219 350.582031 541.242188 C 350.335938 541.285156 350.085938 541.28125 349.84375 541.226562 C 349.597656 541.175781 349.371094 541.078125 349.164062 540.9375 C 348.957031 540.792969 348.78125 540.617188 348.644531 540.410156 C 348.503906 540.199219 348.410156 539.972656 348.363281 539.726562 C 348.3125 539.480469 348.3125 539.230469 348.359375 538.984375 C 348.40625 538.738281 348.5 538.507812 348.636719 538.296875 C 348.753906 538.117188 348.886719 537.949219 349.039062 537.796875 C 349.515625 537.320312 350.035156 536.894531 350.597656 536.523438 C 351.15625 536.148438 351.746094 535.832031 352.371094 535.574219 C 352.992188 535.316406 353.632812 535.121094 354.292969 534.988281 C 354.953125 534.855469 355.621094 534.789062 356.292969 534.789062 C 356.964844 534.785156 357.632812 534.851562 358.292969 534.980469 C 358.953125 535.109375 359.59375 535.304688 360.214844 535.558594 C 360.835938 535.816406 361.425781 536.128906 361.984375 536.503906 C 362.542969 536.875 363.0625 537.296875 363.539062 537.773438 L 363.910156 538.148438 C 364.386719 538.625 364.808594 539.140625 365.183594 539.699219 C 365.554688 540.257812 365.867188 540.847656 366.125 541.46875 C 366.382812 542.089844 366.574219 542.730469 366.703125 543.390625 C 366.835938 544.050781 366.898438 544.71875 366.898438 545.390625 C 366.894531 546.0625 366.828125 546.730469 366.699219 547.390625 C 366.566406 548.050781 366.371094 548.691406 366.113281 549.3125 C 365.855469 549.9375 365.539062 550.527344 365.164062 551.089844 C 364.789062 551.648438 364.363281 552.167969 363.886719 552.644531 Z M 361.296875 549.8125 Z M 351.871094 540.386719 Z M 351.871094 540.386719 " fill-opacity="1" fill-rule="nonzero"/></g></g></g><g clip-path="url(#9e2817bb65)"><g clip-path="url(#4aae1d0ade)"><g clip-path="url(#ea45f88310)"><path fill="#6c38d4" d="M 390.078125 563.046875 C 388.523438 564.605469 386.261719 565.238281 383.355469 564.929688 C 380.914062 564.667969 378.050781 563.738281 374.847656 562.164062 C 368.488281 559.046875 361.328125 553.660156 354.675781 547.007812 C 348.027344 540.355469 342.644531 533.191406 339.523438 526.835938 C 337.949219 523.632812 337.019531 520.769531 336.761719 518.328125 C 336.449219 515.421875 337.082031 513.160156 338.640625 511.601562 C 340.199219 510.042969 342.460938 509.410156 345.367188 509.722656 C 347.808594 509.980469 350.671875 510.910156 353.875 512.484375 C 360.230469 515.605469 367.394531 520.984375 374.046875 527.636719 C 380.699219 534.289062 386.082031 541.453125 389.203125 547.8125 C 390.773438 551.015625 391.703125 553.878906 391.964844 556.320312 C 392.269531 559.226562 391.636719 561.492188 390.078125 563.046875 Z M 341.363281 514.328125 C 338.457031 517.234375 343.160156 530.03125 357.40625 544.277344 C 371.65625 558.527344 384.453125 563.226562 387.355469 560.324219 C 390.257812 557.421875 385.558594 544.621094 371.308594 530.375 C 357.0625 516.125 344.265625 511.425781 341.363281 514.328125 Z M 341.363281 514.328125 " fill-opacity="1" fill-rule="nonzero"/></g></g></g><g clip-path="url(#443a100b81)"><g clip-path="url(#926d4b01b4)"><g clip-path="url(#49a501075d)"><path fill="#6c38d4" d="M 337.480469 580.382812 L 324.917969 592.945312 C 324.601562 593.261719 324.238281 593.503906 323.824219 593.675781 C 323.410156 593.847656 322.980469 593.933594 322.535156 593.933594 C 322.085938 593.9375 321.65625 593.851562 321.242188 593.679688 C 320.832031 593.511719 320.46875 593.265625 320.152344 592.953125 L 308.734375 581.53125 C 308.417969 581.214844 308.175781 580.851562 308.003906 580.4375 C 307.835938 580.023438 307.753906 579.59375 307.753906 579.148438 C 307.753906 578.699219 307.839844 578.269531 308.011719 577.855469 C 308.183594 577.445312 308.429688 577.078125 308.746094 576.761719 L 321.304688 564.203125 C 321.484375 564.023438 321.695312 563.882812 321.929688 563.785156 C 322.167969 563.6875 322.414062 563.636719 322.667969 563.636719 C 322.925781 563.636719 323.171875 563.683594 323.40625 563.78125 C 323.644531 563.878906 323.851562 564.019531 324.03125 564.199219 L 337.484375 577.652344 C 337.664062 577.832031 337.804688 578.042969 337.902344 578.277344 C 338 578.515625 338.046875 578.761719 338.046875 579.015625 C 338.046875 579.273438 337.996094 579.519531 337.898438 579.753906 C 337.800781 579.992188 337.660156 580.199219 337.480469 580.382812 Z M 322.539062 589.871094 L 333.390625 579.023438 L 322.660156 568.296875 L 311.8125 579.144531 Z M 322.539062 589.871094 " fill-opacity="1" fill-rule="nonzero"/></g></g></g><g clip-path="url(#222c1ecd57)"><g clip-path="url(#720001a99b)"><g clip-path="url(#ff17014d30)"><path fill="#6c38d4" d="M 324.027344 566.929688 C 323.851562 567.105469 323.648438 567.242188 323.417969 567.34375 C 323.191406 567.441406 322.949219 567.492188 322.699219 567.496094 C 322.453125 567.503906 322.210938 567.460938 321.976562 567.375 C 321.746094 567.285156 321.535156 567.15625 321.351562 566.988281 C 321.171875 566.820312 321.027344 566.621094 320.917969 566.398438 C 320.8125 566.171875 320.753906 565.933594 320.738281 565.6875 C 320.722656 565.4375 320.757812 565.195312 320.835938 564.957031 C 320.914062 564.722656 321.035156 564.507812 321.199219 564.320312 C 321.386719 564.097656 340.003906 542.003906 340.027344 527.339844 C 340.027344 527.085938 340.078125 526.839844 340.175781 526.601562 C 340.273438 526.363281 340.414062 526.15625 340.59375 525.976562 C 340.773438 525.792969 340.984375 525.652344 341.21875 525.554688 C 341.457031 525.457031 341.703125 525.40625 341.957031 525.40625 C 342.214844 525.40625 342.460938 525.453125 342.699219 525.550781 C 342.933594 525.648438 343.140625 525.789062 343.324219 525.96875 C 343.503906 526.148438 343.644531 526.359375 343.742188 526.59375 C 343.839844 526.832031 343.886719 527.078125 343.886719 527.332031 C 343.875 534.15625 340.527344 542.894531 333.933594 553.3125 C 330.953125 558.019531 327.6875 562.519531 324.136719 566.8125 C 324.101562 566.851562 324.066406 566.890625 324.027344 566.929688 Z M 324.027344 566.929688 " fill-opacity="1" fill-rule="nonzero"/></g></g></g><g clip-path="url(#53c8dd83b2)"><g clip-path="url(#90e181791e)"><g clip-path="url(#5b6c883a76)"><path fill="#6c38d4" d="M 375.710938 561.089844 C 375.332031 561.46875 374.878906 561.660156 374.34375 561.660156 C 359.671875 561.6875 337.585938 580.296875 337.367188 580.488281 C 337.171875 580.652344 336.953125 580.773438 336.707031 580.855469 C 336.464844 580.933594 336.214844 580.960938 335.960938 580.941406 C 335.703125 580.921875 335.460938 580.855469 335.234375 580.738281 C 335.007812 580.621094 334.8125 580.464844 334.644531 580.269531 C 334.480469 580.074219 334.359375 579.855469 334.28125 579.613281 C 334.203125 579.367188 334.171875 579.121094 334.195312 578.863281 C 334.214844 578.609375 334.285156 578.367188 334.402344 578.140625 C 334.519531 577.910156 334.675781 577.714844 334.871094 577.546875 C 339.164062 574 343.664062 570.734375 348.371094 567.753906 C 358.789062 561.160156 367.53125 557.808594 374.351562 557.796875 C 374.742188 557.796875 375.101562 557.90625 375.425781 558.121094 C 375.746094 558.339844 375.984375 558.628906 376.132812 558.988281 C 376.28125 559.347656 376.316406 559.71875 376.242188 560.101562 C 376.164062 560.484375 375.988281 560.8125 375.710938 561.089844 Z M 375.710938 561.089844 " fill-opacity="1" fill-rule="nonzero"/></g></g></g></svg>