<svg xmlns="http://www.w3.org/2000/svg" xmlns:xlink="http://www.w3.org/1999/xlink" width="1024" zoomAndPan="magnify" viewBox="0 0 768 767.999994" height="1024" preserveAspectRatio="xMidYMid meet" version="1.0"><defs><g/><clipPath id="c72f138967"><path d="M 0 0 L 188 0 L 188 187 L 0 187 Z M 0 0 " clip-rule="nonzero"/></clipPath><clipPath id="354c2e0bc4"><path d="M 79.324219 -138.722656 L 210.316406 -7.734375 L -7.121094 209.703125 L -138.113281 78.710938 Z M 79.324219 -138.722656 " clip-rule="nonzero"/></clipPath><clipPath id="78f1bdf7dc"><path d="M 79.324219 -138.722656 L 210.316406 -7.734375 L -7.121094 209.703125 L -138.113281 78.710938 Z M 79.324219 -138.722656 " clip-rule="nonzero"/></clipPath><clipPath id="a6988a6325"><path d="M 579 578 L 768 578 L 768 768 L 579 768 Z M 579 578 " clip-rule="nonzero"/></clipPath><clipPath id="326d84e21e"><path d="M 687.910156 903.441406 L 556.917969 772.449219 L 774.351562 555.015625 L 905.34375 686.003906 Z M 687.910156 903.441406 " clip-rule="nonzero"/></clipPath><clipPath id="a4f981e7ad"><path d="M 687.910156 903.441406 L 556.917969 772.449219 L 774.351562 555.015625 L 905.34375 686.003906 Z M 687.910156 903.441406 " clip-rule="nonzero"/></clipPath><clipPath id="40608bba99"><path d="M 0 577 L 188 577 L 188 768 L 0 768 Z M 0 577 " clip-rule="nonzero"/></clipPath><clipPath id="4f15df7bd6"><path d="M -137.894531 686.222656 L -6.90625 555.230469 L 210.53125 772.664062 L 79.539062 903.65625 Z M -137.894531 686.222656 " clip-rule="nonzero"/></clipPath><clipPath id="1d789ee0d9"><path d="M -137.894531 686.222656 L -6.90625 555.230469 L 210.53125 772.664062 L 79.539062 903.65625 Z M -137.894531 686.222656 " clip-rule="nonzero"/></clipPath><clipPath id="68c70916a6"><path d="M 579 0 L 768 0 L 768 188 L 579 188 Z M 579 0 " clip-rule="nonzero"/></clipPath><clipPath id="68eb5984d9"><path d="M 905.128906 78.496094 L 774.136719 209.488281 L 556.703125 -7.949219 L 687.695312 -138.941406 Z M 905.128906 78.496094 " clip-rule="nonzero"/></clipPath><clipPath id="da23319f64"><path d="M 905.128906 78.496094 L 774.136719 209.488281 L 556.703125 -7.949219 L 687.695312 -138.941406 Z M 905.128906 78.496094 " clip-rule="nonzero"/></clipPath><clipPath id="a845f383a5"><path d="M 155.550781 155.550781 L 612.300781 155.550781 L 612.300781 612.300781 L 155.550781 612.300781 Z M 155.550781 155.550781 " clip-rule="nonzero"/></clipPath><clipPath id="af53007d78"><path d="M 155.570312 160.011719 L 612.277344 160.011719 L 612.277344 208.761719 L 155.570312 208.761719 Z M 155.570312 160.011719 " clip-rule="nonzero"/></clipPath><clipPath id="79f2f6e646"><path d="M 416.71875 401.847656 L 594.472656 401.847656 L 594.472656 595.347656 L 416.71875 595.347656 Z M 416.71875 401.847656 " clip-rule="nonzero"/></clipPath><clipPath id="3faaf8ae00"><path d="M 185.46875 222.152344 L 321.21875 222.152344 L 321.21875 398 L 185.46875 398 Z M 185.46875 222.152344 " clip-rule="nonzero"/></clipPath></defs><g clip-path="url(#c72f138967)"><g clip-path="url(#354c2e0bc4)"><g clip-path="url(#78f1bdf7dc)"><path fill="#8447ff" d="M -29.746094 186.601562 L -29.734375 -29.628906 L 187.996094 -29.640625 L 187.996094 14.632812 L 14.539062 14.640625 L 14.527344 186.601562 L -29.746094 186.601562 " fill-opacity="1" fill-rule="nonzero"/></g></g></g><g clip-path="url(#a6988a6325)"><g clip-path="url(#326d84e21e)"><g clip-path="url(#a4f981e7ad)"><path fill="#8447ff" d="M 796.980469 578.113281 L 796.964844 794.34375 L 579.234375 794.355469 L 579.234375 750.082031 L 752.695312 750.074219 L 752.707031 578.113281 L 796.980469 578.113281 " fill-opacity="1" fill-rule="nonzero"/></g></g></g><g clip-path="url(#40608bba99)"><g clip-path="url(#4f15df7bd6)"><g clip-path="url(#1d789ee0d9)"><path fill="#8447ff" d="M 187.429688 795.292969 L -28.800781 795.277344 L -28.8125 577.546875 L 15.460938 577.546875 L 15.46875 751.007812 L 187.429688 751.019531 L 187.429688 795.292969 " fill-opacity="1" fill-rule="nonzero"/></g></g></g><g clip-path="url(#68c70916a6)"><g clip-path="url(#68eb5984d9)"><g clip-path="url(#da23319f64)"><path fill="#8447ff" d="M 579.800781 -30.574219 L 796.03125 -30.5625 L 796.042969 187.167969 L 751.769531 187.167969 L 751.761719 13.710938 L 579.800781 13.699219 L 579.800781 -30.574219 " fill-opacity="1" fill-rule="nonzero"/></g></g></g><g clip-path="url(#a845f383a5)"><path stroke-linecap="butt" transform="matrix(0.749769, 0, 0, 0.749769, 155.549995, 155.550012)" fill="none" stroke-linejoin="miter" d="M 0.00104825 0.00102558 L 609.188572 0.00102558 L 609.188572 609.188549 L 0.00104825 609.188549 Z M 0.00104825 0.00102558 " stroke="#8447ff" stroke-width="20" stroke-opacity="1" stroke-miterlimit="4"/></g><g clip-path="url(#af53007d78)"><path stroke-linecap="butt" transform="matrix(0.749769, 0, 0, 0.75, 155.570707, 160.011926)" fill="none" stroke-linejoin="miter" d="M -0.000526565 -0.000276977 L 609.129727 -0.000276977 L 609.129727 64.999726 L -0.000526565 64.999726 Z M -0.000526565 -0.000276977 " stroke="#8447ff" stroke-width="20" stroke-opacity="1" stroke-miterlimit="4"/></g><g clip-path="url(#79f2f6e646)"><path fill="#8447ff" d="M 437.917969 465.824219 C 443.765625 465.824219 448.523438 461.058594 448.523438 455.199219 C 448.523438 449.339844 443.765625 444.574219 437.917969 444.574219 C 432.070312 444.574219 427.3125 449.339844 427.3125 455.199219 C 427.3125 461.058594 432.070312 465.824219 437.917969 465.824219 Z M 437.917969 450.8125 C 440.332031 450.8125 442.292969 452.78125 442.292969 455.199219 C 442.292969 457.613281 440.332031 459.582031 437.917969 459.582031 C 435.507812 459.582031 433.542969 457.613281 433.542969 455.199219 C 433.542969 452.78125 435.503906 450.8125 437.917969 450.8125 Z M 437.917969 503.765625 C 443.765625 503.765625 448.523438 499 448.523438 493.140625 C 448.523438 487.28125 443.765625 482.515625 437.917969 482.515625 C 432.070312 482.515625 427.3125 487.28125 427.3125 493.140625 C 427.3125 499 432.070312 503.765625 437.917969 503.765625 Z M 437.917969 488.757812 C 440.332031 488.757812 442.292969 490.722656 442.292969 493.140625 C 442.292969 495.558594 440.332031 497.523438 437.917969 497.523438 C 435.507812 497.523438 433.542969 495.558594 433.542969 493.140625 C 433.542969 490.722656 435.503906 488.757812 437.917969 488.757812 Z M 437.917969 520.457031 C 432.070312 520.457031 427.3125 525.222656 427.3125 531.082031 C 427.3125 536.941406 432.070312 541.707031 437.917969 541.707031 C 443.765625 541.707031 448.523438 536.941406 448.523438 531.082031 C 448.523438 525.222656 443.765625 520.457031 437.917969 520.457031 Z M 437.917969 535.46875 C 435.503906 535.46875 433.542969 533.5 433.542969 531.082031 C 433.542969 528.667969 435.507812 526.699219 437.917969 526.699219 C 440.332031 526.699219 442.292969 528.667969 442.292969 531.082031 C 442.292969 533.5 440.332031 535.46875 437.917969 535.46875 Z M 592.496094 526.039062 L 584.78125 523.0625 C 583.65625 518.9375 582.019531 514.980469 579.898438 511.257812 L 583.253906 503.683594 C 583.777344 502.503906 583.523438 501.125 582.609375 500.210938 L 571.964844 489.542969 C 571.054688 488.632812 569.675781 488.375 568.5 488.898438 L 560.933594 492.265625 C 557.222656 490.136719 553.273438 488.496094 549.15625 487.371094 L 546.1875 479.640625 C 545.726562 478.433594 544.570312 477.640625 543.28125 477.640625 L 538.867188 477.640625 L 538.867188 423.449219 C 538.867188 416.949219 532.25 411.402344 519.726562 407.40625 C 508.480469 403.824219 493.59375 401.847656 477.804688 401.847656 C 462.011719 401.847656 447.125 403.824219 435.882812 407.40625 C 423.359375 411.402344 416.738281 416.949219 416.738281 423.449219 L 416.738281 536.121094 C 416.738281 542.621094 423.359375 548.167969 435.882812 552.164062 C 447.125 555.746094 462.011719 557.722656 477.804688 557.722656 C 481.707031 557.722656 485.589844 557.59375 489.386719 557.351562 C 490.054688 558.84375 490.796875 560.304688 491.609375 561.726562 L 488.25 569.304688 C 487.730469 570.484375 487.984375 571.863281 488.894531 572.777344 L 499.542969 583.445312 C 500.453125 584.355469 501.832031 584.613281 503.007812 584.089844 L 510.570312 580.722656 C 514.285156 582.851562 518.230469 584.488281 522.347656 585.617188 L 525.320312 593.347656 C 525.78125 594.550781 526.9375 595.347656 528.226562 595.347656 L 543.28125 595.347656 C 544.570312 595.347656 545.726562 594.550781 546.1875 593.347656 L 549.15625 585.617188 C 553.277344 584.492188 557.226562 582.851562 560.9375 580.722656 L 568.496094 584.089844 C 569.675781 584.613281 571.054688 584.355469 571.964844 583.445312 L 582.609375 572.777344 C 583.519531 571.863281 583.777344 570.484375 583.253906 569.304688 L 579.894531 561.726562 C 582.019531 558.003906 583.65625 554.050781 584.777344 549.925781 L 592.496094 546.949219 C 593.699219 546.484375 594.492188 545.328125 594.492188 544.035156 L 594.492188 528.949219 C 594.492188 527.660156 593.699219 526.503906 592.496094 526.039062 Z M 437.773438 413.355469 C 448.417969 409.960938 462.636719 408.089844 477.804688 408.089844 C 492.972656 408.089844 507.1875 409.960938 517.835938 413.355469 C 528.75 416.835938 532.636719 420.851562 532.636719 423.449219 C 532.636719 426.046875 528.75 430.0625 517.835938 433.542969 C 507.1875 436.9375 492.972656 438.808594 477.804688 438.808594 C 462.636719 438.808594 448.417969 436.9375 437.773438 433.542969 C 426.859375 430.0625 422.96875 426.046875 422.96875 423.449219 C 422.96875 420.851562 426.859375 416.835938 437.773438 413.355469 Z M 422.96875 433.457031 C 426.121094 435.730469 430.445312 437.757812 435.882812 439.492188 C 447.125 443.074219 462.011719 445.050781 477.804688 445.050781 C 493.59375 445.050781 508.480469 443.074219 519.722656 439.492188 C 525.164062 437.757812 529.484375 435.730469 532.636719 433.457031 L 532.636719 461.007812 C 532.636719 463.605469 528.75 467.621094 517.835938 471.101562 C 507.1875 474.496094 492.96875 476.367188 477.804688 476.367188 C 462.636719 476.367188 448.417969 474.496094 437.769531 471.101562 C 426.859375 467.621094 422.96875 463.605469 422.96875 461.007812 Z M 422.96875 471.015625 C 426.121094 473.285156 430.445312 475.3125 435.882812 477.046875 C 447.125 480.632812 462.011719 482.609375 477.804688 482.609375 C 493.59375 482.609375 508.480469 480.632812 519.726562 477.046875 C 525.164062 475.3125 529.484375 473.285156 532.636719 471.015625 L 532.636719 477.640625 L 528.226562 477.640625 C 526.9375 477.640625 525.78125 478.433594 525.320312 479.640625 L 522.347656 487.371094 C 518.230469 488.496094 514.285156 490.136719 510.570312 492.265625 L 503.007812 488.898438 C 501.832031 488.375 500.453125 488.632812 499.542969 489.542969 L 488.894531 500.210938 C 487.984375 501.125 487.730469 502.503906 488.253906 503.683594 L 491.609375 511.261719 C 491.195312 511.988281 490.808594 512.722656 490.429688 513.464844 C 486.308594 513.761719 482.074219 513.921875 477.804688 513.921875 C 462.636719 513.921875 448.421875 512.054688 437.773438 508.65625 C 426.859375 505.175781 422.96875 501.160156 422.96875 498.5625 Z M 477.804688 551.480469 C 462.636719 551.480469 448.417969 549.609375 437.773438 546.214844 C 426.859375 542.734375 422.96875 538.71875 422.96875 536.121094 L 422.96875 508.574219 C 426.121094 510.84375 430.445312 512.871094 435.882812 514.605469 C 447.125 518.191406 462.011719 520.164062 477.804688 520.164062 C 481.132812 520.164062 484.445312 520.070312 487.703125 519.890625 C 487.34375 520.9375 487.019531 521.996094 486.726562 523.0625 L 479.011719 526.039062 C 477.808594 526.503906 477.015625 527.660156 477.015625 528.953125 L 477.015625 544.035156 C 477.015625 545.328125 477.808594 546.484375 479.011719 546.949219 L 486.726562 549.925781 C 486.84375 550.363281 486.972656 550.800781 487.105469 551.234375 C 484.042969 551.394531 480.929688 551.480469 477.804688 551.480469 Z M 588.261719 541.894531 L 581.039062 544.679688 C 580.082031 545.046875 579.367188 545.867188 579.128906 546.867188 C 578.035156 551.46875 576.222656 555.84375 573.742188 559.882812 C 573.203125 560.757812 573.132812 561.84375 573.550781 562.785156 L 576.691406 569.878906 L 569.070312 577.515625 L 561.996094 574.367188 C 561.058594 573.945312 559.972656 574.019531 559.097656 574.558594 C 555.070312 577.046875 550.699219 578.863281 546.105469 579.957031 C 545.105469 580.195312 544.289062 580.910156 543.921875 581.871094 L 541.140625 589.105469 L 530.363281 589.105469 L 527.585938 581.871094 C 527.214844 580.910156 526.398438 580.191406 525.398438 579.953125 C 520.808594 578.859375 516.441406 577.046875 512.410156 574.558594 C 511.535156 574.019531 510.449219 573.945312 509.511719 574.363281 L 502.433594 577.515625 L 494.8125 569.878906 L 497.957031 562.789062 C 498.371094 561.847656 498.300781 560.761719 497.761719 559.886719 C 495.28125 555.851562 493.46875 551.472656 492.375 546.867188 C 492.136719 545.867188 491.421875 545.046875 490.464844 544.679688 L 483.246094 541.894531 L 483.246094 531.09375 L 490.464844 528.308594 C 491.421875 527.941406 492.140625 527.121094 492.375 526.121094 C 493.46875 521.519531 495.28125 517.140625 497.761719 513.105469 C 498.300781 512.226562 498.375 511.140625 497.957031 510.203125 L 494.8125 503.109375 L 502.433594 495.472656 L 509.511719 498.625 C 510.449219 499.042969 511.535156 498.96875 512.410156 498.429688 C 516.4375 495.941406 520.808594 494.128906 525.398438 493.03125 C 526.398438 492.792969 527.214844 492.078125 527.582031 491.117188 L 530.363281 483.882812 L 541.140625 483.882812 L 543.921875 491.117188 C 544.289062 492.078125 545.109375 492.792969 546.105469 493.03125 C 550.695312 494.128906 555.066406 495.941406 559.09375 498.429688 C 559.96875 498.96875 561.054688 499.042969 561.992188 498.625 L 569.070312 495.472656 L 576.691406 503.109375 L 573.550781 510.199219 C 573.132812 511.140625 573.207031 512.226562 573.746094 513.101562 C 576.226562 517.140625 578.039062 521.519531 579.128906 526.121094 C 579.367188 527.121094 580.082031 527.941406 581.042969 528.308594 L 588.261719 531.09375 Z M 535.753906 501.832031 C 516.679688 501.832031 501.160156 517.378906 501.160156 536.496094 C 501.160156 555.605469 516.679688 571.15625 535.753906 571.15625 C 554.828125 571.15625 570.347656 555.609375 570.347656 536.496094 C 570.347656 517.378906 554.828125 501.832031 535.753906 501.832031 Z M 535.753906 564.914062 C 520.113281 564.914062 507.386719 552.164062 507.386719 536.492188 C 507.386719 520.824219 520.113281 508.074219 535.753906 508.074219 C 551.394531 508.074219 564.117188 520.824219 564.117188 536.492188 C 564.117188 552.164062 551.394531 564.914062 535.753906 564.914062 Z M 542.371094 549.191406 C 542.816406 550.855469 541.832031 552.566406 540.171875 553.011719 C 539.902344 553.085938 539.628906 553.117188 539.363281 553.117188 C 537.988281 553.117188 536.726562 552.199219 536.355469 550.804688 L 529.132812 523.796875 C 528.6875 522.132812 529.675781 520.421875 531.335938 519.976562 C 532.996094 519.53125 534.707031 520.519531 535.152344 522.183594 Z M 548.441406 524.171875 L 560.207031 534.109375 C 560.910156 534.699219 561.316406 535.574219 561.316406 536.492188 C 561.316406 537.414062 560.910156 538.289062 560.207031 538.878906 L 548.441406 548.816406 C 547.855469 549.308594 547.144531 549.550781 546.433594 549.550781 C 545.546875 549.550781 544.667969 549.171875 544.050781 548.441406 C 542.941406 547.121094 543.109375 545.152344 544.425781 544.042969 L 553.367188 536.492188 L 544.425781 528.945312 C 543.109375 527.832031 542.941406 525.863281 544.050781 524.546875 C 545.160156 523.230469 547.125 523.0625 548.441406 524.171875 Z M 527.078125 528.945312 L 518.140625 536.492188 L 527.078125 544.042969 C 528.394531 545.152344 528.5625 547.125 527.453125 548.441406 C 526.839844 549.171875 525.957031 549.550781 525.070312 549.550781 C 524.363281 549.550781 523.648438 549.308594 523.066406 548.816406 L 511.296875 538.878906 C 510.59375 538.289062 510.191406 537.414062 510.191406 536.492188 C 510.191406 535.574219 510.59375 534.699219 511.296875 534.109375 L 523.066406 524.171875 C 524.378906 523.0625 526.34375 523.230469 527.453125 524.546875 C 528.5625 525.863281 528.394531 527.832031 527.078125 528.945312 Z M 527.078125 528.945312 " fill-opacity="1" fill-rule="nonzero"/></g><g clip-path="url(#3faaf8ae00)"><path fill="#8cffda" d="M 253.378906 229.339844 C 219.972656 229.339844 192.792969 256.472656 192.792969 289.820312 C 192.792969 304.011719 198.640625 316.851562 204.359375 327.539062 C 206.40625 331.359375 208.625 335.148438 210.953125 338.800781 C 211.777344 340.089844 212.703125 341.390625 213.683594 342.769531 C 218.476562 349.484375 224.4375 357.84375 224.800781 374.011719 L 224.800781 380.230469 C 224.800781 386.042969 229.535156 390.773438 235.363281 390.773438 L 271.398438 390.773438 C 277.222656 390.773438 281.960938 386.042969 281.960938 380.230469 L 281.960938 373.257812 L 281.964844 373.132812 C 282.511719 357.546875 288.347656 349.359375 293.042969 342.785156 C 294.027344 341.402344 294.957031 340.09375 295.785156 338.800781 C 301.605469 329.6875 305.664062 322.132812 308.5625 315.03125 C 310.566406 310.105469 311.980469 305.503906 312.878906 300.960938 C 313.601562 297.382812 313.964844 293.636719 313.964844 289.820312 C 313.964844 256.472656 286.785156 229.339844 253.378906 229.339844 Z M 271.398438 397.992188 L 235.363281 397.992188 C 225.546875 397.992188 217.566406 390.027344 217.566406 380.230469 L 217.566406 374.09375 C 217.253906 360.222656 212.445312 353.476562 207.796875 346.953125 C 206.757812 345.5 205.777344 344.128906 204.851562 342.683594 C 202.425781 338.875 200.113281 334.925781 197.980469 330.945312 C 191.839844 319.464844 185.5625 305.605469 185.5625 289.820312 C 185.5625 252.488281 215.984375 222.121094 253.378906 222.121094 C 290.773438 222.121094 321.195312 252.488281 321.195312 289.820312 C 321.195312 294.113281 320.78125 298.335938 319.972656 302.371094 C 318.980469 307.359375 317.441406 312.394531 315.261719 317.753906 C 312.195312 325.273438 307.945312 333.191406 301.882812 342.679688 C 300.953125 344.132812 299.972656 345.511719 298.933594 346.96875 C 294.382812 353.351562 289.675781 359.949219 289.191406 373.324219 L 289.191406 380.230469 C 289.191406 390.027344 281.210938 397.992188 271.398438 397.992188 " fill-opacity="1" fill-rule="nonzero"/></g><path fill="#8cffda" d="M 230.164062 434.207031 L 244.0625 440.902344 C 249.210938 443.378906 257.550781 443.378906 262.691406 440.902344 L 276.59375 434.207031 L 230.164062 434.207031 " fill-opacity="1" fill-rule="nonzero"/><path fill="#8cffda" d="M 279.425781 431.835938 C 279.425781 433.828125 277.8125 435.449219 275.804688 435.449219 L 230.953125 435.449219 C 228.949219 435.449219 227.332031 433.828125 227.332031 431.835938 C 227.332031 429.835938 228.949219 428.21875 230.953125 428.21875 L 275.804688 428.21875 C 277.8125 428.21875 279.425781 429.835938 279.425781 431.835938 " fill-opacity="1" fill-rule="nonzero"/><path fill="#8cffda" d="M 282.433594 421.429688 C 282.433594 423.429688 280.808594 425.046875 278.8125 425.046875 L 227.949219 425.046875 C 225.945312 425.046875 224.324219 423.429688 224.324219 421.429688 C 224.324219 419.429688 225.945312 417.8125 227.949219 417.8125 L 278.8125 417.8125 C 280.808594 417.8125 282.433594 419.429688 282.433594 421.429688 " fill-opacity="1" fill-rule="nonzero"/><path fill="#8cffda" d="M 282.433594 411.027344 C 282.433594 413.023438 280.808594 414.648438 278.8125 414.648438 L 227.949219 414.648438 C 225.945312 414.648438 224.324219 413.023438 224.324219 411.027344 C 224.324219 409.03125 225.945312 407.410156 227.949219 407.410156 L 278.8125 407.410156 C 280.808594 407.410156 282.433594 409.03125 282.433594 411.027344 " fill-opacity="1" fill-rule="nonzero"/><path fill="#8cffda" d="M 285.585938 400.625 C 285.585938 402.621094 283.964844 404.238281 281.964844 404.238281 L 224.789062 404.238281 C 222.796875 404.238281 221.171875 402.621094 221.171875 400.625 C 221.171875 398.632812 222.796875 397.011719 224.789062 397.011719 L 281.964844 397.011719 C 283.964844 397.011719 285.585938 398.632812 285.585938 400.625 " fill-opacity="1" fill-rule="nonzero"/><path stroke-linecap="butt" transform="matrix(-0.751446, 0, 0, -0.75, 379.528578, 510.752635)" fill="none" stroke-linejoin="miter" d="M 0.00164226 10.998305 L 137.746419 10.998305 " stroke="#8cffda" stroke-width="22" stroke-opacity="1" stroke-miterlimit="4"/><path stroke-linecap="butt" transform="matrix(-0.7481, 0, 0, -0.75, 379.529163, 544.085153)" fill="none" stroke-linejoin="miter" d="M 0.00243239 10.998955 L 160.419135 10.998955 " stroke="#8cffda" stroke-width="22" stroke-opacity="1" stroke-miterlimit="4"/><path stroke-linecap="butt" transform="matrix(0.751532, 0, 0, 0.75, 202.133371, 494.252636)" fill="none" stroke-linejoin="miter" d="M -0.000743679 11.001695 L 68.87423 11.001695 " stroke="#8cffda" stroke-width="22" stroke-opacity="1" stroke-miterlimit="4"/><path stroke-linecap="butt" transform="matrix(-0.754717, 0, 0, -0.75, 239.398995, 544.085153)" fill="none" stroke-linejoin="miter" d="M 0.000738893 10.998955 L 49.693414 10.998955 " stroke="#8cffda" stroke-width="22" stroke-opacity="1" stroke-miterlimit="4"/><path stroke-linecap="butt" transform="matrix(0.749772, 0, 0, 0.75, 447.226469, 299.037339)" fill="none" stroke-linejoin="miter" d="M 0.000124876 12.002299 L 154.052212 12.002299 " stroke="#8cffda" stroke-width="24" stroke-opacity="1" stroke-miterlimit="4"/><path stroke-linecap="butt" transform="matrix(0.748302, 0, 0, 0.75, 364.360883, 271.249636)" fill="none" stroke-linejoin="miter" d="M -0.00201573 12.000486 L 179.409464 12.000486 " stroke="#8cffda" stroke-width="24" stroke-opacity="1" stroke-miterlimit="4"/><path stroke-linecap="butt" transform="matrix(-0.749848, 0, 0, -0.75, 422.122638, 317.037338)" fill="none" stroke-linejoin="miter" d="M 0.00205957 11.997701 L 77.028107 11.997701 " stroke="#8cffda" stroke-width="24" stroke-opacity="1" stroke-miterlimit="4"/><path stroke-linecap="butt" transform="matrix(0.755693, 0, 0, 0.75, 521.082289, 271.249636)" fill="none" stroke-linejoin="miter" d="M -0.000341365 12.000486 L 55.577789 12.000486 " stroke="#8cffda" stroke-width="24" stroke-opacity="1" stroke-miterlimit="4"/><path stroke-linecap="butt" transform="matrix(-0.749873, 0, 0, -0.75, 433.372638, 345.314593)" fill="none" stroke-linejoin="miter" d="M 0.00205876 11.997582 L 92.028108 11.997582 " stroke="#8cffda" stroke-width="24" stroke-opacity="1" stroke-miterlimit="4"/><path stroke-linecap="butt" transform="matrix(-0.750558, 0, 0, -0.75, 562.937447, 345.314593)" fill="none" stroke-linejoin="miter" d="M -0.0000704191 11.997582 L 146.906184 11.997582 " stroke="#8cffda" stroke-width="24" stroke-opacity="1" stroke-miterlimit="4"/><path stroke-linecap="round" transform="matrix(-0.766585, 0, 0, -0.75, 530.222137, 191.139635)" fill="none" stroke-linejoin="miter" d="M 8.998247 8.99868 L 3.724245 8.99868 " stroke="#8cffda" stroke-width="18" stroke-opacity="1" stroke-miterlimit="4"/><path stroke-linecap="round" transform="matrix(-0.766585, 0, 0, -0.75, 555.50628, 191.139635)" fill="none" stroke-linejoin="miter" d="M 9.00202 8.99868 L 3.728019 8.99868 " stroke="#8cffda" stroke-width="18" stroke-opacity="1" stroke-miterlimit="4"/><path stroke-linecap="round" transform="matrix(-0.766585, 0, 0, -0.75, 581.41087, 191.139635)" fill="none" stroke-linejoin="miter" d="M 8.999856 8.99868 L 3.725854 8.99868 " stroke="#8cffda" stroke-width="18" stroke-opacity="1" stroke-miterlimit="4"/><g fill="#8447ff" fill-opacity="1"><g transform="translate(198.744367, 296.749606)"><g><path d="M 9.078125 0 L 4.328125 -14.5 C 4.390625 -14.101562 4.457031 -13.628906 4.53125 -13.078125 C 4.601562 -12.535156 4.671875 -11.925781 4.734375 -11.25 C 4.804688 -10.582031 4.863281 -9.867188 4.90625 -9.109375 C 4.957031 -8.359375 4.984375 -7.585938 4.984375 -6.796875 L 4.984375 0 L 1.359375 0 L 1.359375 -18.015625 L 6.671875 -18.015625 L 11.265625 -3.59375 C 11.171875 -4.144531 11.070312 -4.796875 10.96875 -5.546875 C 10.875 -6.304688 10.789062 -7.15625 10.71875 -8.09375 C 10.65625 -9.03125 10.625 -10.035156 10.625 -11.109375 L 10.625 -18.015625 L 14.25 -18.015625 L 14.25 0 Z M 9.078125 0 "/></g></g></g><g fill="#8447ff" fill-opacity="1"><g transform="translate(214.339585, 296.749606)"><g><path d="M 7.796875 -14.265625 C 9.222656 -14.265625 10.429688 -13.957031 11.421875 -13.34375 C 12.421875 -12.738281 13.1875 -11.890625 13.71875 -10.796875 C 14.25 -9.703125 14.515625 -8.414062 14.515625 -6.9375 C 14.515625 -5.40625 14.242188 -4.085938 13.703125 -2.984375 C 13.171875 -1.878906 12.40625 -1.03125 11.40625 -0.4375 C 10.414062 0.144531 9.210938 0.4375 7.796875 0.4375 C 6.390625 0.4375 5.1875 0.148438 4.1875 -0.421875 C 3.1875 -1.003906 2.421875 -1.847656 1.890625 -2.953125 C 1.359375 -4.054688 1.09375 -5.378906 1.09375 -6.921875 C 1.09375 -8.378906 1.359375 -9.660156 1.890625 -10.765625 C 2.421875 -11.867188 3.1875 -12.726562 4.1875 -13.34375 C 5.1875 -13.957031 6.390625 -14.265625 7.796875 -14.265625 Z M 7.796875 -11.234375 C 6.953125 -11.234375 6.328125 -10.890625 5.921875 -10.203125 C 5.523438 -9.515625 5.328125 -8.421875 5.328125 -6.921875 C 5.328125 -5.390625 5.523438 -4.28125 5.921875 -3.59375 C 6.328125 -2.914062 6.953125 -2.578125 7.796875 -2.578125 C 8.640625 -2.578125 9.257812 -2.914062 9.65625 -3.59375 C 10.0625 -4.28125 10.265625 -5.394531 10.265625 -6.9375 C 10.265625 -8.425781 10.0625 -9.515625 9.65625 -10.203125 C 9.257812 -10.890625 8.640625 -11.234375 7.796875 -11.234375 Z M 7.796875 -11.234375 "/></g></g></g><g fill="#8447ff" fill-opacity="1"><g transform="translate(229.934803, 296.749606)"><g/></g></g><g fill="#8447ff" fill-opacity="1"><g transform="translate(245.530021, 296.749606)"><g><path d="M 9.3125 -18.46875 C 10.601562 -18.46875 11.703125 -18.296875 12.609375 -17.953125 C 13.515625 -17.617188 14.34375 -17.140625 15.09375 -16.515625 L 13 -13.984375 C 12.507812 -14.390625 11.960938 -14.710938 11.359375 -14.953125 C 10.765625 -15.191406 10.113281 -15.3125 9.40625 -15.3125 C 8.65625 -15.3125 7.96875 -15.097656 7.34375 -14.671875 C 6.71875 -14.242188 6.21875 -13.566406 5.84375 -12.640625 C 5.476562 -11.722656 5.296875 -10.523438 5.296875 -9.046875 C 5.296875 -7.597656 5.472656 -6.414062 5.828125 -5.5 C 6.191406 -4.59375 6.6875 -3.921875 7.3125 -3.484375 C 7.945312 -3.054688 8.671875 -2.84375 9.484375 -2.84375 C 10.390625 -2.84375 11.140625 -3.007812 11.734375 -3.34375 C 12.335938 -3.6875 12.890625 -4.054688 13.390625 -4.453125 L 15.328125 -1.984375 C 14.648438 -1.316406 13.816406 -0.742188 12.828125 -0.265625 C 11.835938 0.203125 10.644531 0.4375 9.25 0.4375 C 7.625 0.4375 6.179688 0.078125 4.921875 -0.640625 C 3.660156 -1.367188 2.671875 -2.4375 1.953125 -3.84375 C 1.242188 -5.25 0.890625 -6.984375 0.890625 -9.046875 C 0.890625 -11.054688 1.257812 -12.765625 2 -14.171875 C 2.738281 -15.578125 3.742188 -16.644531 5.015625 -17.375 C 6.285156 -18.101562 7.71875 -18.46875 9.3125 -18.46875 Z M 9.3125 -18.46875 "/></g></g></g><g fill="#8447ff" fill-opacity="1"><g transform="translate(261.125239, 296.749606)"><g><path d="M 7.796875 -14.265625 C 9.222656 -14.265625 10.429688 -13.957031 11.421875 -13.34375 C 12.421875 -12.738281 13.1875 -11.890625 13.71875 -10.796875 C 14.25 -9.703125 14.515625 -8.414062 14.515625 -6.9375 C 14.515625 -5.40625 14.242188 -4.085938 13.703125 -2.984375 C 13.171875 -1.878906 12.40625 -1.03125 11.40625 -0.4375 C 10.414062 0.144531 9.210938 0.4375 7.796875 0.4375 C 6.390625 0.4375 5.1875 0.148438 4.1875 -0.421875 C 3.1875 -1.003906 2.421875 -1.847656 1.890625 -2.953125 C 1.359375 -4.054688 1.09375 -5.378906 1.09375 -6.921875 C 1.09375 -8.378906 1.359375 -9.660156 1.890625 -10.765625 C 2.421875 -11.867188 3.1875 -12.726562 4.1875 -13.34375 C 5.1875 -13.957031 6.390625 -14.265625 7.796875 -14.265625 Z M 7.796875 -11.234375 C 6.953125 -11.234375 6.328125 -10.890625 5.921875 -10.203125 C 5.523438 -9.515625 5.328125 -8.421875 5.328125 -6.921875 C 5.328125 -5.390625 5.523438 -4.28125 5.921875 -3.59375 C 6.328125 -2.914062 6.953125 -2.578125 7.796875 -2.578125 C 8.640625 -2.578125 9.257812 -2.914062 9.65625 -3.59375 C 10.0625 -4.28125 10.265625 -5.394531 10.265625 -6.9375 C 10.265625 -8.425781 10.0625 -9.515625 9.65625 -10.203125 C 9.257812 -10.890625 8.640625 -11.234375 7.796875 -11.234375 Z M 7.796875 -11.234375 "/></g></g></g><g fill="#8447ff" fill-opacity="1"><g transform="translate(276.720457, 296.749606)"><g><path d="M 9.671875 -19.71875 L 13.78125 -19.296875 L 13.78125 0 L 10.140625 0 L 9.9375 -1.515625 C 9.550781 -0.984375 9.039062 -0.523438 8.40625 -0.140625 C 7.78125 0.242188 7.015625 0.4375 6.109375 0.4375 C 4.960938 0.4375 4.015625 0.128906 3.265625 -0.484375 C 2.515625 -1.097656 1.957031 -1.957031 1.59375 -3.0625 C 1.226562 -4.164062 1.046875 -5.457031 1.046875 -6.9375 C 1.046875 -8.363281 1.265625 -9.625 1.703125 -10.71875 C 2.140625 -11.820312 2.769531 -12.6875 3.59375 -13.3125 C 4.425781 -13.945312 5.40625 -14.265625 6.53125 -14.265625 C 7.15625 -14.265625 7.726562 -14.15625 8.25 -13.9375 C 8.78125 -13.71875 9.253906 -13.398438 9.671875 -12.984375 Z M 7.640625 -11.265625 C 6.929688 -11.265625 6.359375 -10.925781 5.921875 -10.25 C 5.492188 -9.582031 5.28125 -8.472656 5.28125 -6.921875 C 5.28125 -5.785156 5.367188 -4.898438 5.546875 -4.265625 C 5.734375 -3.640625 5.984375 -3.203125 6.296875 -2.953125 C 6.617188 -2.703125 6.988281 -2.578125 7.40625 -2.578125 C 7.863281 -2.578125 8.28125 -2.71875 8.65625 -3 C 9.039062 -3.289062 9.378906 -3.679688 9.671875 -4.171875 L 9.671875 -10.125 C 9.390625 -10.476562 9.085938 -10.753906 8.765625 -10.953125 C 8.441406 -11.160156 8.066406 -11.265625 7.640625 -11.265625 Z M 7.640625 -11.265625 "/></g></g></g><g fill="#8447ff" fill-opacity="1"><g transform="translate(292.315675, 296.749606)"><g><path d="M 5.375 -5.703125 C 5.476562 -4.953125 5.675781 -4.34375 5.96875 -3.875 C 6.269531 -3.414062 6.65625 -3.078125 7.125 -2.859375 C 7.59375 -2.648438 8.117188 -2.546875 8.703125 -2.546875 C 9.328125 -2.546875 9.929688 -2.648438 10.515625 -2.859375 C 11.109375 -3.066406 11.679688 -3.34375 12.234375 -3.6875 L 13.890625 -1.453125 C 13.234375 -0.898438 12.441406 -0.445312 11.515625 -0.09375 C 10.597656 0.257812 9.550781 0.4375 8.375 0.4375 C 6.789062 0.4375 5.46875 0.125 4.40625 -0.5 C 3.34375 -1.125 2.539062 -1.988281 2 -3.09375 C 1.46875 -4.195312 1.203125 -5.460938 1.203125 -6.890625 C 1.203125 -8.253906 1.457031 -9.488281 1.96875 -10.59375 C 2.488281 -11.707031 3.25 -12.597656 4.25 -13.265625 C 5.257812 -13.929688 6.488281 -14.265625 7.9375 -14.265625 C 9.25 -14.265625 10.390625 -13.984375 11.359375 -13.421875 C 12.328125 -12.859375 13.078125 -12.046875 13.609375 -10.984375 C 14.140625 -9.929688 14.40625 -8.660156 14.40625 -7.171875 C 14.40625 -6.941406 14.394531 -6.691406 14.375 -6.421875 C 14.363281 -6.148438 14.347656 -5.910156 14.328125 -5.703125 Z M 7.9375 -11.5 C 7.195312 -11.5 6.597656 -11.234375 6.140625 -10.703125 C 5.691406 -10.179688 5.421875 -9.335938 5.328125 -8.171875 L 10.40625 -8.171875 C 10.394531 -9.179688 10.195312 -9.988281 9.8125 -10.59375 C 9.4375 -11.195312 8.8125 -11.5 7.9375 -11.5 Z M 7.9375 -11.5 "/></g></g></g></svg>