<svg xmlns="http://www.w3.org/2000/svg" xmlns:xlink="http://www.w3.org/1999/xlink" width="1024" zoomAndPan="magnify" viewBox="0 0 768 767.999994" height="1024" preserveAspectRatio="xMidYMid meet" version="1.0"><defs><filter x="0%" y="0%" width="100%" height="100%" id="543b6987ff"><feColorMatrix values="0 0 0 0 1 0 0 0 0 1 0 0 0 0 1 0 0 0 1 0" color-interpolation-filters="sRGB"/></filter><clipPath id="bd1d2f71d3"><path d="M 0 0 L 188 0 L 188 187 L 0 187 Z M 0 0 " clip-rule="nonzero"/></clipPath><clipPath id="5fd7ca62ae"><path d="M 79.324219 -138.722656 L 210.316406 -7.734375 L -7.121094 209.703125 L -138.113281 78.710938 Z M 79.324219 -138.722656 " clip-rule="nonzero"/></clipPath><clipPath id="b42a18e89e"><path d="M 79.324219 -138.722656 L 210.316406 -7.734375 L -7.121094 209.703125 L -138.113281 78.710938 Z M 79.324219 -138.722656 " clip-rule="nonzero"/></clipPath><clipPath id="4090281f69"><path d="M 579 578 L 768 578 L 768 768 L 579 768 Z M 579 578 " clip-rule="nonzero"/></clipPath><clipPath id="a1614bece4"><path d="M 687.910156 903.441406 L 556.917969 772.449219 L 774.351562 555.015625 L 905.34375 686.003906 Z M 687.910156 903.441406 " clip-rule="nonzero"/></clipPath><clipPath id="da8b9331d2"><path d="M 687.910156 903.441406 L 556.917969 772.449219 L 774.351562 555.015625 L 905.34375 686.003906 Z M 687.910156 903.441406 " clip-rule="nonzero"/></clipPath><clipPath id="71bdeb71a0"><path d="M 0 577 L 188 577 L 188 768 L 0 768 Z M 0 577 " clip-rule="nonzero"/></clipPath><clipPath id="9de9ba0dde"><path d="M -137.894531 686.222656 L -6.90625 555.230469 L 210.53125 772.664062 L 79.539062 903.65625 Z M -137.894531 686.222656 " clip-rule="nonzero"/></clipPath><clipPath id="47f5441a7d"><path d="M -137.894531 686.222656 L -6.90625 555.230469 L 210.53125 772.664062 L 79.539062 903.65625 Z M -137.894531 686.222656 " clip-rule="nonzero"/></clipPath><clipPath id="6fb3bb6927"><path d="M 579 0 L 768 0 L 768 188 L 579 188 Z M 579 0 " clip-rule="nonzero"/></clipPath><clipPath id="6cdc18eee2"><path d="M 905.128906 78.496094 L 774.136719 209.488281 L 556.703125 -7.949219 L 687.695312 -138.941406 Z M 905.128906 78.496094 " clip-rule="nonzero"/></clipPath><clipPath id="1393c803f0"><path d="M 905.128906 78.496094 L 774.136719 209.488281 L 556.703125 -7.949219 L 687.695312 -138.941406 Z M 905.128906 78.496094 " clip-rule="nonzero"/></clipPath><clipPath id="5492bf942c"><path d="M 155.550781 155.550781 L 612.300781 155.550781 L 612.300781 612.300781 L 155.550781 612.300781 Z M 155.550781 155.550781 " clip-rule="nonzero"/></clipPath><clipPath id="697b603e7a"><path d="M 155.570312 160.011719 L 612.277344 160.011719 L 612.277344 208.761719 L 155.570312 208.761719 Z M 155.570312 160.011719 " clip-rule="nonzero"/></clipPath><clipPath id="fa519aace5"><path d="M 196.457031 262.667969 L 264.8125 262.667969 L 264.8125 330.441406 L 196.457031 330.441406 Z M 196.457031 262.667969 " clip-rule="nonzero"/></clipPath><clipPath id="e03f541817"><path d="M 299.292969 262.667969 L 367.648438 262.667969 L 367.648438 330.441406 L 299.292969 330.441406 Z M 299.292969 262.667969 " clip-rule="nonzero"/></clipPath><mask id="92da3332ce"><g filter="url(#543b6987ff)"><rect x="-76.8" width="921.6" fill="#000000" y="-76.799999" height="921.599993" fill-opacity="0.18"/></g></mask><clipPath id="fff0b69c12"><path d="M 0.839844 0.667969 L 173.871094 0.667969 L 173.871094 68.441406 L 0.839844 68.441406 Z M 0.839844 0.667969 " clip-rule="nonzero"/></clipPath><clipPath id="bc5c881302"><rect x="0" width="174" y="0" height="69"/></clipPath><clipPath id="83646f3087"><path d="M 406.132812 252.917969 L 579.167969 252.917969 L 579.167969 320.691406 L 406.132812 320.691406 Z M 406.132812 252.917969 " clip-rule="nonzero"/></clipPath><clipPath id="6419bbf574"><path d="M 559.226562 299.839844 L 581.726562 299.839844 L 581.726562 330.589844 L 559.226562 330.589844 Z M 559.226562 299.839844 " clip-rule="nonzero"/></clipPath><clipPath id="e9e3fa023c"><path d="M 196.457031 378.460938 L 367.453125 378.460938 L 367.453125 445.960938 L 196.457031 445.960938 Z M 196.457031 378.460938 " clip-rule="nonzero"/></clipPath><clipPath id="fed2754674"><path d="M 399.761719 378.460938 L 570.757812 378.460938 L 570.757812 445.960938 L 399.761719 445.960938 Z M 399.761719 378.460938 " clip-rule="nonzero"/></clipPath><clipPath id="317cc9375b"><path d="M 196.457031 487.574219 L 570.953125 487.574219 L 570.953125 555.34375 L 196.457031 555.34375 Z M 196.457031 487.574219 " clip-rule="nonzero"/></clipPath><clipPath id="4aafa3fdab"><path d="M 196.460938 487.574219 L 570.703125 487.574219 L 570.703125 555.074219 L 196.460938 555.074219 Z M 196.460938 487.574219 " clip-rule="nonzero"/></clipPath></defs><g clip-path="url(#bd1d2f71d3)"><g clip-path="url(#5fd7ca62ae)"><g clip-path="url(#b42a18e89e)"><path fill="#8447ff" d="M -29.746094 186.601562 L -29.734375 -29.628906 L 187.996094 -29.640625 L 187.996094 14.632812 L 14.539062 14.640625 L 14.527344 186.601562 L -29.746094 186.601562 " fill-opacity="1" fill-rule="nonzero"/></g></g></g><g clip-path="url(#4090281f69)"><g clip-path="url(#a1614bece4)"><g clip-path="url(#da8b9331d2)"><path fill="#8447ff" d="M 796.980469 578.113281 L 796.964844 794.34375 L 579.234375 794.355469 L 579.234375 750.082031 L 752.695312 750.074219 L 752.707031 578.113281 L 796.980469 578.113281 " fill-opacity="1" fill-rule="nonzero"/></g></g></g><g clip-path="url(#71bdeb71a0)"><g clip-path="url(#9de9ba0dde)"><g clip-path="url(#47f5441a7d)"><path fill="#8447ff" d="M 187.429688 795.292969 L -28.800781 795.277344 L -28.8125 577.546875 L 15.460938 577.546875 L 15.46875 751.007812 L 187.429688 751.019531 L 187.429688 795.292969 " fill-opacity="1" fill-rule="nonzero"/></g></g></g><g clip-path="url(#6fb3bb6927)"><g clip-path="url(#6cdc18eee2)"><g clip-path="url(#1393c803f0)"><path fill="#8447ff" d="M 579.800781 -30.574219 L 796.03125 -30.5625 L 796.042969 187.167969 L 751.769531 187.167969 L 751.761719 13.710938 L 579.800781 13.699219 L 579.800781 -30.574219 " fill-opacity="1" fill-rule="nonzero"/></g></g></g><g clip-path="url(#5492bf942c)"><path stroke-linecap="butt" transform="matrix(0.749769, 0, 0, 0.749769, 155.549995, 155.550012)" fill="none" stroke-linejoin="miter" d="M 0.00104825 0.00102558 L 609.188572 0.00102558 L 609.188572 609.188549 L 0.00104825 609.188549 Z M 0.00104825 0.00102558 " stroke="#8447ff" stroke-width="20" stroke-opacity="1" stroke-miterlimit="4"/></g><g clip-path="url(#697b603e7a)"><path stroke-linecap="butt" transform="matrix(0.749769, 0, 0, 0.75, 155.570707, 160.011926)" fill="none" stroke-linejoin="miter" d="M -0.000526565 -0.000276977 L 609.129727 -0.000276977 L 609.129727 64.999726 L -0.000526565 64.999726 Z M -0.000526565 -0.000276977 " stroke="#8447ff" stroke-width="20" stroke-opacity="1" stroke-miterlimit="4"/></g><path stroke-linecap="round" transform="matrix(-0.766585, 0, 0, -0.75, 530.222137, 191.139635)" fill="none" stroke-linejoin="miter" d="M 8.998247 8.99868 L 3.724245 8.99868 " stroke="#8cffda" stroke-width="18" stroke-opacity="1" stroke-miterlimit="4"/><path stroke-linecap="round" transform="matrix(-0.766585, 0, 0, -0.75, 555.50628, 191.139635)" fill="none" stroke-linejoin="miter" d="M 9.00202 8.99868 L 3.728019 8.99868 " stroke="#8cffda" stroke-width="18" stroke-opacity="1" stroke-miterlimit="4"/><path stroke-linecap="round" transform="matrix(-0.766585, 0, 0, -0.75, 581.41087, 191.139635)" fill="none" stroke-linejoin="miter" d="M 8.999856 8.99868 L 3.725854 8.99868 " stroke="#8cffda" stroke-width="18" stroke-opacity="1" stroke-miterlimit="4"/><g clip-path="url(#fa519aace5)"><path fill="#49e6b4" d="M 196.457031 262.667969 L 264.8125 262.667969 L 264.8125 330.441406 L 196.457031 330.441406 Z M 196.457031 262.667969 " fill-opacity="1" fill-rule="nonzero"/></g><g clip-path="url(#e03f541817)"><path fill="#49e6b4" d="M 299.292969 262.667969 L 367.648438 262.667969 L 367.648438 330.441406 L 299.292969 330.441406 Z M 299.292969 262.667969 " fill-opacity="1" fill-rule="nonzero"/></g><g mask="url(#92da3332ce)"><g transform="matrix(1, 0, 0, 1, 398, 262)"><g clip-path="url(#bc5c881302)"><g clip-path="url(#fff0b69c12)"><path fill="#737373" d="M 0.839844 0.667969 L 173.871094 0.667969 L 173.871094 68.441406 L 0.839844 68.441406 Z M 0.839844 0.667969 " fill-opacity="1" fill-rule="nonzero"/></g></g></g></g><g clip-path="url(#83646f3087)"><path fill="#49e6b4" d="M 406.132812 252.917969 L 579.164062 252.917969 L 579.164062 320.691406 L 406.132812 320.691406 Z M 406.132812 252.917969 " fill-opacity="1" fill-rule="nonzero"/></g><path fill="#ffffff" d="M 579.78125 317.992188 L 571.949219 319.394531 L 575.984375 327.269531 L 571.179688 329.492188 L 567.109375 321.617188 L 560.984375 326.582031 L 560.183594 301.722656 L 579.78125 317.992188 " fill-opacity="1" fill-rule="nonzero"/><g clip-path="url(#6419bbf574)"><path fill="#6c38d4" d="M 567.398438 320.292969 L 571.585938 328.382812 L 574.816406 326.890625 L 570.660156 318.789062 L 577.859375 317.496094 L 561.121094 303.605469 L 561.804688 324.828125 Z M 570.777344 330.597656 L 566.816406 322.941406 L 560.160156 328.339844 L 559.242188 299.84375 L 581.703125 318.484375 L 573.234375 320.003906 L 577.15625 327.648438 L 570.777344 330.597656 " fill-opacity="1" fill-rule="nonzero"/></g><g clip-path="url(#e9e3fa023c)"><path stroke-linecap="butt" transform="matrix(0.749179, 0, 0, 0.747017, 196.458435, 378.461046)" fill="none" stroke-linejoin="miter" d="M -0.00187356 -0.000145343 L 228.242918 -0.000145343 L 228.242918 90.359238 L -0.00187356 90.359238 Z M -0.00187356 -0.000145343 " stroke="#8447ff" stroke-width="8" stroke-opacity="1" stroke-miterlimit="4"/></g><g clip-path="url(#fed2754674)"><path stroke-linecap="butt" transform="matrix(0.749179, 0, 0, 0.747017, 399.761878, 378.461046)" fill="none" stroke-linejoin="miter" d="M -0.000212059 -0.000145343 L 228.244579 -0.000145343 L 228.244579 90.359238 L -0.000212059 90.359238 Z M -0.000212059 -0.000145343 " stroke="#6c38d4" stroke-width="8" stroke-opacity="1" stroke-miterlimit="4"/></g><g clip-path="url(#317cc9375b)"><path fill="#6c38d4" d="M 196.457031 487.574219 L 570.953125 487.574219 L 570.953125 555.34375 L 196.457031 555.34375 Z M 196.457031 487.574219 " fill-opacity="1" fill-rule="nonzero"/></g><g clip-path="url(#4aafa3fdab)"><path stroke-linecap="butt" transform="matrix(0.749531, 0, 0, 0.747017, 196.459695, 487.572764)" fill="none" stroke-linejoin="miter" d="M 0.00165787 0.00194758 L 499.303741 0.00194758 L 499.303741 90.361331 L 0.00165787 90.361331 Z M 0.00165787 0.00194758 " stroke="#8447ff" stroke-width="8" stroke-opacity="1" stroke-miterlimit="4"/></g></svg>