<svg xmlns="http://www.w3.org/2000/svg" xmlns:xlink="http://www.w3.org/1999/xlink" width="1024" zoomAndPan="magnify" viewBox="0 0 768 767.999994" height="1024" preserveAspectRatio="xMidYMid meet" version="1.0"><defs><clipPath id="d93af588e0"><path d="M 0 0 L 188 0 L 188 187 L 0 187 Z M 0 0 " clip-rule="nonzero"/></clipPath><clipPath id="5e0202355a"><path d="M 79.324219 -138.722656 L 210.316406 -7.734375 L -7.121094 209.703125 L -138.113281 78.710938 Z M 79.324219 -138.722656 " clip-rule="nonzero"/></clipPath><clipPath id="12892af0ae"><path d="M 79.324219 -138.722656 L 210.316406 -7.734375 L -7.121094 209.703125 L -138.113281 78.710938 Z M 79.324219 -138.722656 " clip-rule="nonzero"/></clipPath><clipPath id="3a26b4cfdc"><path d="M 579 578 L 768 578 L 768 768 L 579 768 Z M 579 578 " clip-rule="nonzero"/></clipPath><clipPath id="34eced6b10"><path d="M 687.910156 903.441406 L 556.917969 772.449219 L 774.351562 555.015625 L 905.34375 686.003906 Z M 687.910156 903.441406 " clip-rule="nonzero"/></clipPath><clipPath id="5ae700dee9"><path d="M 687.910156 903.441406 L 556.917969 772.449219 L 774.351562 555.015625 L 905.34375 686.003906 Z M 687.910156 903.441406 " clip-rule="nonzero"/></clipPath><clipPath id="304636bf6b"><path d="M 0 577 L 188 577 L 188 768 L 0 768 Z M 0 577 " clip-rule="nonzero"/></clipPath><clipPath id="974b4cc61f"><path d="M -137.894531 686.222656 L -6.90625 555.230469 L 210.53125 772.664062 L 79.539062 903.65625 Z M -137.894531 686.222656 " clip-rule="nonzero"/></clipPath><clipPath id="330f10ebe2"><path d="M -137.894531 686.222656 L -6.90625 555.230469 L 210.53125 772.664062 L 79.539062 903.65625 Z M -137.894531 686.222656 " clip-rule="nonzero"/></clipPath><clipPath id="5bd7e2238a"><path d="M 579 0 L 768 0 L 768 188 L 579 188 Z M 579 0 " clip-rule="nonzero"/></clipPath><clipPath id="81aea9b0f9"><path d="M 905.128906 78.496094 L 774.136719 209.488281 L 556.703125 -7.949219 L 687.695312 -138.941406 Z M 905.128906 78.496094 " clip-rule="nonzero"/></clipPath><clipPath id="a9e9a9cbd5"><path d="M 905.128906 78.496094 L 774.136719 209.488281 L 556.703125 -7.949219 L 687.695312 -138.941406 Z M 905.128906 78.496094 " clip-rule="nonzero"/></clipPath><clipPath id="c064bc0daa"><path d="M 438 467.894531 L 482.183594 467.894531 L 482.183594 583.09375 L 438 583.09375 Z M 438 467.894531 " clip-rule="nonzero"/></clipPath><clipPath id="39a6f79571"><path d="M 101.476562 130.882812 L 666.226562 130.882812 L 666.226562 637.511719 L 101.476562 637.511719 Z M 101.476562 130.882812 " clip-rule="nonzero"/></clipPath><clipPath id="720b10b592"><path d="M 518.722656 162.703125 L 595.222656 162.703125 L 595.222656 239.203125 L 518.722656 239.203125 Z M 518.722656 162.703125 " clip-rule="nonzero"/></clipPath><clipPath id="fbed74229b"><path d="M 165.339844 175.335938 L 438.339844 175.335938 L 438.339844 448.335938 L 165.339844 448.335938 Z M 165.339844 175.335938 " clip-rule="nonzero"/></clipPath><clipPath id="893510dd28"><path d="M 518.722656 278.335938 L 595.222656 278.335938 L 595.222656 345 L 518.722656 345 Z M 518.722656 278.335938 " clip-rule="nonzero"/></clipPath><clipPath id="c5fb95cf2b"><path d="M 518.722656 374.070312 L 599.722656 374.070312 L 599.722656 433.320312 L 518.722656 433.320312 Z M 518.722656 374.070312 " clip-rule="nonzero"/></clipPath></defs><rect x="-76.8" width="921.6" fill="#ffffff" y="-76.799999" height="921.599993" fill-opacity="1"/><rect x="-76.8" width="921.6" fill="#ffffff" y="-76.799999" height="921.599993" fill-opacity="1"/><g clip-path="url(#d93af588e0)"><g clip-path="url(#5e0202355a)"><g clip-path="url(#12892af0ae)"><path fill="#8447ff" d="M -29.746094 186.601562 L -29.734375 -29.628906 L 187.996094 -29.640625 L 187.996094 14.632812 L 14.539062 14.640625 L 14.527344 186.601562 L -29.746094 186.601562 " fill-opacity="1" fill-rule="nonzero"/></g></g></g><g clip-path="url(#3a26b4cfdc)"><g clip-path="url(#34eced6b10)"><g clip-path="url(#5ae700dee9)"><path fill="#8447ff" d="M 796.980469 578.113281 L 796.964844 794.34375 L 579.234375 794.355469 L 579.234375 750.082031 L 752.695312 750.074219 L 752.707031 578.113281 L 796.980469 578.113281 " fill-opacity="1" fill-rule="nonzero"/></g></g></g><g clip-path="url(#304636bf6b)"><g clip-path="url(#974b4cc61f)"><g clip-path="url(#330f10ebe2)"><path fill="#8447ff" d="M 187.429688 795.292969 L -28.800781 795.277344 L -28.8125 577.546875 L 15.460938 577.546875 L 15.46875 751.007812 L 187.429688 751.019531 L 187.429688 795.292969 " fill-opacity="1" fill-rule="nonzero"/></g></g></g><g clip-path="url(#5bd7e2238a)"><g clip-path="url(#81aea9b0f9)"><g clip-path="url(#a9e9a9cbd5)"><path fill="#8447ff" d="M 579.800781 -30.574219 L 796.03125 -30.5625 L 796.042969 187.167969 L 751.769531 187.167969 L 751.761719 13.710938 L 579.800781 13.699219 L 579.800781 -30.574219 " fill-opacity="1" fill-rule="nonzero"/></g></g></g><g clip-path="url(#c064bc0daa)"><path fill="#ffffff" d="M 438 467.894531 L 482.183594 467.894531 L 482.183594 583.09375 L 438 583.09375 Z M 438 467.894531 " fill-opacity="1" fill-rule="nonzero"/></g><g clip-path="url(#39a6f79571)"><path fill="#8447ff" d="M 383.851562 512.929688 C 379.257812 512.929688 375.523438 509.1875 375.523438 504.589844 C 375.523438 499.996094 379.257812 496.253906 383.851562 496.253906 C 388.441406 496.253906 392.179688 499.996094 392.179688 504.589844 C 392.179688 509.1875 388.441406 512.929688 383.851562 512.929688 Z M 383.851562 484.71875 C 372.886719 484.71875 363.996094 493.640625 363.996094 504.589844 C 363.996094 515.566406 372.886719 524.464844 383.851562 524.464844 C 394.8125 524.464844 403.707031 515.566406 403.707031 504.589844 C 403.707031 493.640625 394.8125 484.71875 383.851562 484.71875 Z M 624.378906 541.207031 L 143.324219 541.207031 C 126.597656 541.207031 113 526.652344 113 508.738281 L 113 467.976562 L 654.699219 467.976562 L 654.699219 508.738281 C 654.699219 526.652344 641.105469 541.207031 624.378906 541.207031 Z M 451.089844 625.976562 L 316.613281 625.976562 L 341.507812 552.742188 L 426.195312 552.742188 Z M 143.324219 142.445312 L 624.378906 142.445312 C 641.105469 142.445312 654.699219 157 654.699219 174.914062 L 654.699219 456.4375 L 113 456.4375 L 113 174.914062 C 113 157 126.597656 142.445312 143.324219 142.445312 Z M 624.378906 130.90625 L 143.324219 130.90625 C 120.25 130.90625 101.476562 150.644531 101.476562 174.914062 L 101.476562 508.738281 C 101.476562 533.003906 120.25 552.742188 143.324219 552.742188 L 329.328125 552.742188 L 303.105469 629.894531 C 302.519531 631.652344 302.789062 633.589844 303.871094 635.101562 C 304.972656 636.609375 306.707031 637.511719 308.574219 637.511719 L 459.128906 637.511719 C 460.996094 637.511719 462.730469 636.609375 463.832031 635.101562 C 464.914062 633.589844 465.183594 631.652344 464.597656 629.894531 L 438.371094 552.742188 L 624.378906 552.742188 C 647.453125 552.742188 666.226562 533.003906 666.226562 508.738281 L 666.226562 174.914062 C 666.226562 150.644531 647.453125 130.90625 624.378906 130.90625 " fill-opacity="1" fill-rule="nonzero"/></g><g clip-path="url(#720b10b592)"><path fill="#8447ff" d="M 592.671875 221.351562 L 535.296875 221.351562 C 533.1875 221.351562 531.472656 219.636719 531.472656 217.527344 C 531.472656 215.417969 533.1875 213.703125 535.296875 213.703125 L 585.023438 213.703125 C 586.226562 213.703125 587.265625 212.863281 587.515625 211.6875 L 595.167969 175.988281 C 595.328125 175.234375 595.136719 174.449219 594.65625 173.847656 C 594.171875 173.253906 593.441406 172.902344 592.671875 172.902344 L 533.234375 172.902344 L 531.410156 164.699219 C 531.152344 163.53125 530.117188 162.703125 528.921875 162.703125 L 521.273438 162.703125 C 519.863281 162.703125 518.722656 163.84375 518.722656 165.253906 C 518.722656 166.664062 519.863281 167.800781 521.273438 167.800781 L 526.878906 167.800781 L 535.945312 208.601562 L 535.296875 208.601562 C 530.375 208.601562 526.371094 212.605469 526.371094 217.527344 C 526.371094 222.449219 530.375 226.453125 535.296875 226.453125 L 538.5625 226.453125 C 537.339844 227.808594 536.574219 229.585938 536.574219 231.550781 C 536.574219 235.769531 540.003906 239.203125 544.222656 239.203125 C 548.441406 239.203125 551.871094 235.769531 551.871094 231.550781 C 551.871094 229.585938 551.105469 227.808594 549.882812 226.453125 L 576.8125 226.453125 C 575.585938 227.808594 574.824219 229.585938 574.824219 231.550781 C 574.824219 235.769531 578.253906 239.203125 582.472656 239.203125 C 586.691406 239.203125 590.121094 235.769531 590.121094 231.550781 C 590.121094 229.585938 589.355469 227.808594 588.132812 226.453125 L 592.671875 226.453125 C 594.082031 226.453125 595.222656 225.3125 595.222656 223.902344 C 595.222656 222.492188 594.082031 221.351562 592.671875 221.351562 Z M 534.371094 178.003906 L 589.519531 178.003906 L 582.960938 208.601562 L 541.167969 208.601562 Z M 544.222656 234.101562 C 542.816406 234.101562 541.671875 232.960938 541.671875 231.550781 C 541.671875 230.144531 542.816406 229.003906 544.222656 229.003906 C 545.628906 229.003906 546.773438 230.144531 546.773438 231.550781 C 546.773438 232.960938 545.628906 234.101562 544.222656 234.101562 Z M 582.472656 234.101562 C 581.066406 234.101562 579.921875 232.960938 579.921875 231.550781 C 579.921875 230.144531 581.066406 229.003906 582.472656 229.003906 C 583.878906 229.003906 585.023438 230.144531 585.023438 231.550781 C 585.023438 232.960938 583.878906 234.101562 582.472656 234.101562 Z M 582.472656 234.101562 " fill-opacity="1" fill-rule="nonzero"/></g><path fill="#8cffda" d="M 225.058594 226.523438 C 218.003906 226.523438 212.261719 220.78125 212.261719 213.726562 C 212.261719 206.667969 218.003906 200.929688 225.058594 200.929688 C 232.117188 200.929688 237.855469 206.667969 237.855469 213.726562 C 237.855469 220.78125 232.117188 226.523438 225.058594 226.523438 Z M 246.386719 213.726562 C 246.386719 201.964844 236.820312 192.398438 225.058594 192.398438 C 213.300781 192.398438 203.730469 201.964844 203.730469 213.726562 C 203.730469 225.484375 213.300781 235.054688 225.058594 235.054688 C 236.820312 235.054688 246.386719 225.484375 246.386719 213.726562 " fill-opacity="1" fill-rule="nonzero"/><path fill="#8cffda" d="M 225.058594 235.054688 C 208.019531 235.054688 193.363281 247.628906 190.976562 264.304688 C 190.644531 266.636719 192.261719 268.796875 194.597656 269.132812 C 196.929688 269.464844 199.089844 267.84375 199.425781 265.511719 C 201.210938 253.011719 212.234375 243.585938 225.058594 243.585938 C 237.886719 243.585938 248.90625 253.011719 250.695312 265.511719 C 251 267.640625 252.824219 269.171875 254.914062 269.171875 C 255.113281 269.171875 255.320312 269.160156 255.523438 269.132812 C 257.855469 268.796875 259.476562 266.636719 259.144531 264.304688 C 256.753906 247.628906 242.101562 235.054688 225.058594 235.054688 " fill-opacity="1" fill-rule="nonzero"/><path fill="#8cffda" d="M 225.058594 380.085938 C 218.003906 380.085938 212.261719 374.34375 212.261719 367.289062 C 212.261719 360.230469 218.003906 354.492188 225.058594 354.492188 C 232.117188 354.492188 237.855469 360.230469 237.855469 367.289062 C 237.855469 374.34375 232.117188 380.085938 225.058594 380.085938 Z M 246.386719 367.289062 C 246.386719 355.527344 236.820312 345.960938 225.058594 345.960938 C 213.300781 345.960938 203.730469 355.527344 203.730469 367.289062 C 203.730469 379.046875 213.300781 388.617188 225.058594 388.617188 C 236.820312 388.617188 246.386719 379.046875 246.386719 367.289062 " fill-opacity="1" fill-rule="nonzero"/><path fill="#8cffda" d="M 225.058594 388.617188 C 208.019531 388.617188 193.363281 401.191406 190.976562 417.867188 C 190.644531 420.199219 192.261719 422.359375 194.597656 422.695312 C 196.929688 423.027344 199.089844 421.40625 199.425781 419.074219 C 201.210938 406.574219 212.234375 397.148438 225.058594 397.148438 C 237.886719 397.148438 248.90625 406.574219 250.695312 419.074219 C 251 421.203125 252.824219 422.734375 254.914062 422.734375 C 255.113281 422.734375 255.320312 422.722656 255.523438 422.695312 C 257.855469 422.359375 259.476562 420.199219 259.144531 417.867188 C 256.753906 401.191406 242.101562 388.617188 225.058594 388.617188 " fill-opacity="1" fill-rule="nonzero"/><g clip-path="url(#fbed74229b)"><path fill="#8cffda" d="M 378.621094 354.492188 C 350.394531 354.492188 327.433594 331.527344 327.433594 303.304688 C 327.433594 275.078125 350.394531 252.117188 378.621094 252.117188 C 406.847656 252.117188 429.808594 275.078125 429.808594 303.304688 C 429.808594 331.527344 406.847656 354.492188 378.621094 354.492188 Z M 279.183594 363.421875 C 277.976562 360.832031 276.585938 358.347656 275.03125 355.976562 L 324.492188 328.492188 C 325.707031 331.082031 327.097656 333.570312 328.652344 335.941406 Z M 225.058594 439.804688 C 196.832031 439.804688 173.871094 416.839844 173.871094 388.617188 C 173.871094 360.390625 196.832031 337.429688 225.058594 337.429688 C 253.285156 337.429688 276.246094 360.390625 276.246094 388.617188 C 276.246094 416.839844 253.285156 439.804688 225.058594 439.804688 Z M 277.742188 263.136719 C 279.078125 260.636719 280.246094 258.039062 281.21875 255.347656 L 325.9375 275.222656 C 324.601562 277.71875 323.433594 280.316406 322.460938 283.007812 Z M 225.058594 286.242188 C 196.832031 286.242188 173.871094 263.277344 173.871094 235.054688 C 173.871094 206.828125 196.832031 183.867188 225.058594 183.867188 C 253.285156 183.867188 276.246094 206.828125 276.246094 235.054688 C 276.246094 263.277344 253.285156 286.242188 225.058594 286.242188 Z M 378.621094 243.585938 C 358.921875 243.585938 341.425781 253.175781 330.542969 267.933594 L 283.566406 247.054688 C 284.363281 243.175781 284.777344 239.164062 284.777344 235.054688 C 284.777344 202.125 257.988281 175.335938 225.058594 175.335938 C 192.128906 175.335938 165.339844 202.125 165.339844 235.054688 C 165.339844 267.980469 192.128906 294.773438 225.058594 294.773438 C 244.757812 294.773438 262.253906 285.179688 273.140625 270.421875 L 320.117188 291.300781 C 319.320312 295.179688 318.902344 299.195312 318.902344 303.304688 C 318.902344 309.257812 319.789062 315.007812 321.417969 320.441406 L 269.796875 349.121094 C 258.851562 336.730469 242.855469 328.898438 225.058594 328.898438 C 192.128906 328.898438 165.339844 355.6875 165.339844 388.617188 C 165.339844 421.542969 192.128906 448.335938 225.058594 448.335938 C 257.988281 448.335938 284.777344 421.542969 284.777344 388.617188 C 284.777344 382.660156 283.890625 376.90625 282.257812 371.472656 L 333.882812 342.796875 C 344.832031 355.1875 360.828125 363.023438 378.621094 363.023438 C 411.550781 363.023438 438.339844 336.230469 438.339844 303.304688 C 438.339844 270.375 411.550781 243.585938 378.621094 243.585938 " fill-opacity="1" fill-rule="nonzero"/></g><path fill="#8cffda" d="M 378.621094 294.773438 C 371.566406 294.773438 365.824219 289.03125 365.824219 281.976562 C 365.824219 274.917969 371.566406 269.179688 378.621094 269.179688 C 385.679688 269.179688 391.417969 274.917969 391.417969 281.976562 C 391.417969 289.03125 385.679688 294.773438 378.621094 294.773438 Z M 399.949219 281.976562 C 399.949219 270.214844 390.382812 260.648438 378.621094 260.648438 C 366.863281 260.648438 357.292969 270.214844 357.292969 281.976562 C 357.292969 293.734375 366.863281 303.304688 378.621094 303.304688 C 390.382812 303.304688 399.949219 293.734375 399.949219 281.976562 " fill-opacity="1" fill-rule="nonzero"/><path fill="#8cffda" d="M 378.621094 303.304688 C 361.582031 303.304688 346.925781 315.878906 344.539062 332.554688 C 344.207031 334.886719 345.824219 337.046875 348.160156 337.382812 C 350.484375 337.710938 352.648438 336.09375 352.988281 333.761719 C 354.773438 321.261719 365.796875 311.835938 378.621094 311.835938 C 391.449219 311.835938 402.46875 321.261719 404.257812 333.761719 C 404.5625 335.890625 406.386719 337.421875 408.476562 337.421875 C 408.675781 337.421875 408.882812 337.410156 409.085938 337.382812 C 411.417969 337.046875 413.039062 334.886719 412.707031 332.554688 C 410.316406 315.878906 395.664062 303.304688 378.621094 303.304688 " fill-opacity="1" fill-rule="nonzero"/><g clip-path="url(#893510dd28)"><path fill="#8447ff" d="M 595.222656 293.226562 L 595.222656 319.339844 C 595.222656 327.550781 588.835938 334.210938 580.957031 334.210938 L 569.507812 334.210938 C 568.621094 334.210938 567.773438 334.59375 567.171875 335.269531 L 560.023438 343.238281 C 558.394531 345.058594 555.550781 345.058594 553.917969 343.238281 L 546.769531 335.269531 C 546.167969 334.59375 545.320312 334.210938 544.433594 334.210938 L 532.992188 334.210938 C 525.113281 334.207031 518.722656 327.546875 518.722656 319.335938 L 518.722656 293.226562 C 518.722656 285.011719 525.113281 278.351562 532.992188 278.351562 L 580.953125 278.351562 C 588.832031 278.351562 595.222656 285.011719 595.222656 293.226562 Z M 595.222656 293.226562 " fill-opacity="1" fill-rule="nonzero"/></g><path fill="#ffffff" d="M 571.890625 303.953125 C 571.890625 308.667969 568.460938 311.648438 565.429688 314.289062 C 565.050781 314.621094 564.660156 314.953125 564.285156 315.292969 L 563.085938 316.367188 C 561.59375 317.796875 560.023438 319.152344 558.382812 320.417969 C 557.527344 320.976562 556.421875 320.976562 555.566406 320.417969 C 553.976562 319.1875 552.457031 317.878906 550.996094 316.492188 L 549.667969 315.292969 C 549.304688 314.964844 548.925781 314.648438 548.5625 314.324219 C 545.363281 311.53125 542.054688 308.652344 542.054688 303.953125 C 541.886719 298.953125 545.773438 294.753906 550.757812 294.5625 C 553.140625 294.492188 555.421875 295.507812 556.96875 297.328125 C 558.515625 295.503906 560.808594 294.484375 563.195312 294.5625 C 568.171875 294.757812 572.066406 298.953125 571.890625 303.953125 Z M 571.890625 303.953125 " fill-opacity="1" fill-rule="nonzero"/><g clip-path="url(#c5fb95cf2b)"><path fill="#6c38d4" d="M 598.945312 413.398438 C 598.535156 412.113281 597.8125 410.941406 596.792969 409.90625 C 594.332031 407.410156 591.851562 404.925781 589.367188 402.449219 C 588.738281 401.824219 587.945312 401.46875 587.066406 401.4375 L 587.066406 387.050781 C 587.066406 379.890625 581.261719 374.0625 574.128906 374.0625 L 531.675781 374.0625 C 524.542969 374.0625 518.738281 379.890625 518.738281 387.050781 L 518.738281 405.808594 C 518.738281 412.96875 524.542969 418.792969 531.675781 418.792969 L 569.550781 418.792969 C 570.027344 419.277344 570.453125 419.710938 570.796875 420.058594 C 570.140625 420.054688 569.511719 420.050781 568.886719 420.015625 C 567.121094 419.925781 565.738281 420.691406 564.773438 422.292969 C 563.984375 423.601562 563.984375 425.0625 564.777344 426.515625 C 565.441406 427.726562 566.597656 428.167969 567.746094 428.460938 C 569.039062 428.792969 570.503906 429.171875 571.90625 429.625 C 573.539062 430.15625 575.183594 430.746094 576.777344 431.316406 L 577.601562 431.609375 C 580.214844 432.542969 582.398438 433.070312 584.472656 433.265625 C 584.8125 433.300781 585.148438 433.3125 585.488281 433.3125 C 586.199219 433.3125 586.902344 433.253906 587.574219 433.183594 C 588.71875 433.066406 589.789062 432.515625 590.753906 431.550781 L 592.597656 429.699219 C 594.367188 427.921875 596.140625 426.148438 597.898438 424.359375 C 598.203125 424.050781 598.460938 423.644531 598.621094 423.210938 C 599.253906 421.523438 599.605469 419.671875 599.667969 417.710938 C 599.707031 416.421875 599.480469 415.050781 598.945312 413.398438 Z M 521.089844 387.050781 C 521.089844 381.191406 525.839844 376.425781 531.675781 376.425781 L 574.128906 376.425781 C 579.964844 376.425781 584.714844 381.191406 584.714844 387.050781 L 584.714844 398.972656 C 584.714844 400.097656 584.539062 401.1875 584.210938 402.207031 C 583.488281 402.691406 582.9375 403.398438 582.570312 404.316406 C 581.589844 404.113281 580.492188 404.050781 579.414062 404.628906 C 578.4375 405.152344 577.71875 405.964844 577.28125 407.046875 C 576.691406 406.898438 576.019531 406.855469 575.386719 406.933594 C 574.453125 407.046875 573.480469 407.730469 572.929688 408.28125 C 572.6875 408.527344 572.4375 408.90625 572.253906 409.285156 L 571.40625 408.4375 C 570.007812 407.039062 568.394531 405.425781 567.371094 404.378906 C 566.15625 403.136719 564.65625 402.792969 563.03125 403.382812 C 561.453125 403.957031 560.484375 405.109375 560.152344 406.800781 C 559.957031 407.824219 560.109375 408.75 560.613281 409.597656 L 531.675781 409.597656 C 525.839844 409.597656 521.089844 404.832031 521.089844 398.972656 Z M 596.347656 422.46875 C 596.285156 422.621094 596.179688 422.765625 596.0625 422.882812 C 593.761719 425.199219 591.457031 427.507812 589.15625 429.824219 C 588.527344 430.457031 587.761719 430.78125 586.902344 430.898438 C 586.554688 430.945312 586.195312 430.953125 585.84375 430.945312 C 583.773438 430.898438 581.789062 430.410156 579.835938 429.761719 C 578.015625 429.160156 576.207031 428.53125 574.390625 427.921875 C 573.082031 427.480469 571.777344 427.03125 570.457031 426.628906 C 569.785156 426.425781 569.074219 426.363281 568.40625 426.160156 C 567.945312 426.019531 567.46875 425.8125 567.097656 425.511719 C 566.59375 425.097656 566.433594 424.5 566.648438 423.851562 C 566.910156 423.0625 567.382812 422.492188 568.273438 422.464844 C 569.402344 422.433594 570.53125 422.449219 571.660156 422.441406 C 572.535156 422.433594 573.410156 422.425781 574.285156 422.414062 C 574.75 422.410156 575.0625 422.15625 575.234375 421.75 C 575.40625 421.347656 575.242188 421.019531 574.945312 420.71875 C 574.300781 420.078125 573.660156 419.4375 573.019531 418.792969 C 572.234375 418.007812 571.449219 417.21875 570.667969 416.433594 C 570.117188 415.882812 569.570312 415.332031 569.019531 414.78125 C 567.71875 413.476562 566.417969 412.171875 565.121094 410.867188 C 564.730469 410.476562 564.34375 410.085938 563.957031 409.695312 C 563.679688 409.417969 563.40625 409.140625 563.128906 408.863281 C 562.148438 407.878906 562.28125 406.519531 563.410156 405.820312 C 564.15625 405.359375 565 405.457031 565.621094 406.078125 C 568.109375 408.574219 570.589844 411.066406 573.078125 413.5625 C 573.546875 414.035156 573.859375 414.09375 574.351562 413.816406 C 574.902344 413.507812 575.023438 412.898438 574.566406 412.375 C 574.449219 412.242188 574.359375 412.097656 574.292969 411.953125 C 574.214844 411.789062 574.167969 411.621094 574.148438 411.453125 C 574.148438 411.445312 574.144531 411.4375 574.144531 411.425781 C 574.140625 411.378906 574.136719 411.332031 574.136719 411.28125 C 574.136719 411.269531 574.132812 411.253906 574.132812 411.242188 C 574.132812 411.195312 574.136719 411.148438 574.140625 411.101562 C 574.140625 411.085938 574.140625 411.074219 574.144531 411.058594 C 574.148438 411.011719 574.152344 410.964844 574.160156 410.917969 C 574.164062 410.910156 574.164062 410.902344 574.167969 410.894531 C 574.207031 410.679688 574.285156 410.476562 574.390625 410.289062 C 574.394531 410.28125 574.402344 410.269531 574.40625 410.261719 C 574.429688 410.21875 574.453125 410.179688 574.480469 410.140625 C 574.488281 410.128906 574.496094 410.121094 574.503906 410.109375 C 574.53125 410.070312 574.558594 410.035156 574.585938 409.996094 C 574.59375 409.988281 574.601562 409.980469 574.609375 409.972656 C 574.640625 409.933594 574.671875 409.894531 574.707031 409.859375 C 574.824219 409.738281 574.953125 409.636719 575.089844 409.550781 C 575.101562 409.542969 575.113281 409.535156 575.128906 409.527344 C 575.535156 409.296875 576.023438 409.234375 576.476562 409.332031 C 576.558594 409.347656 576.636719 409.371094 576.714844 409.398438 C 576.726562 409.402344 576.734375 409.40625 576.746094 409.40625 C 576.820312 409.433594 576.890625 409.46875 576.960938 409.503906 C 576.972656 409.507812 576.984375 409.515625 577 409.523438 C 577.066406 409.558594 577.132812 409.601562 577.199219 409.648438 C 577.207031 409.652344 577.214844 409.660156 577.226562 409.667969 C 577.292969 409.71875 577.355469 409.769531 577.414062 409.828125 C 577.746094 410.160156 578.074219 410.496094 578.40625 410.824219 C 578.464844 410.882812 578.523438 410.933594 578.582031 410.976562 C 579.003906 411.296875 579.453125 411.304688 579.796875 410.988281 C 579.980469 410.820312 580.082031 410.613281 580.09375 410.390625 C 580.101562 410.285156 580.085938 410.179688 580.046875 410.070312 C 580.046875 410.066406 580.042969 410.0625 580.042969 410.058594 C 580.03125 410.03125 580.019531 410 580.007812 409.96875 C 580.003906 409.960938 579.996094 409.953125 579.992188 409.941406 C 579.980469 409.917969 579.96875 409.894531 579.953125 409.867188 C 579.945312 409.855469 579.941406 409.847656 579.933594 409.835938 C 579.917969 409.8125 579.898438 409.785156 579.882812 409.761719 C 579.875 409.753906 579.867188 409.742188 579.859375 409.730469 C 579.832031 409.699219 579.804688 409.664062 579.773438 409.632812 C 579.734375 409.585938 579.695312 409.539062 579.660156 409.488281 C 579.652344 409.472656 579.640625 409.453125 579.632812 409.4375 C 579.609375 409.402344 579.589844 409.363281 579.570312 409.328125 C 579.5625 409.308594 579.554688 409.285156 579.546875 409.265625 C 579.53125 409.230469 579.515625 409.191406 579.503906 409.152344 C 579.5 409.132812 579.492188 409.109375 579.488281 409.089844 C 579.476562 409.050781 579.464844 409.007812 579.460938 408.964844 C 579.457031 408.945312 579.453125 408.925781 579.449219 408.90625 C 579.441406 408.859375 579.4375 408.8125 579.433594 408.765625 C 579.433594 408.75 579.433594 408.734375 579.429688 408.71875 C 579.429688 408.667969 579.429688 408.613281 579.429688 408.5625 C 579.429688 408.550781 579.429688 408.535156 579.429688 408.523438 C 579.433594 408.464844 579.4375 408.40625 579.445312 408.347656 C 579.445312 408.34375 579.445312 408.335938 579.449219 408.328125 C 579.457031 408.265625 579.46875 408.199219 579.480469 408.132812 C 579.574219 407.6875 579.789062 407.277344 580.058594 407.054688 C 580.539062 406.65625 581.054688 406.484375 581.546875 406.542969 C 581.570312 406.546875 581.59375 406.550781 581.617188 406.554688 C 581.644531 406.558594 581.671875 406.5625 581.699219 406.570312 C 581.726562 406.574219 581.75 406.582031 581.773438 406.589844 C 581.800781 406.597656 581.828125 406.601562 581.855469 406.613281 C 581.878906 406.621094 581.902344 406.628906 581.925781 406.636719 C 581.953125 406.648438 581.980469 406.660156 582.007812 406.671875 C 582.03125 406.679688 582.054688 406.691406 582.074219 406.703125 C 582.101562 406.714844 582.132812 406.730469 582.160156 406.746094 C 582.179688 406.757812 582.203125 406.769531 582.222656 406.78125 C 582.25 406.800781 582.28125 406.816406 582.308594 406.835938 C 582.328125 406.851562 582.347656 406.863281 582.367188 406.875 C 582.398438 406.898438 582.429688 406.925781 582.460938 406.949219 C 582.476562 406.960938 582.492188 406.972656 582.507812 406.988281 C 582.554688 407.027344 582.601562 407.070312 582.644531 407.113281 C 582.78125 407.246094 582.910156 407.382812 583.042969 407.519531 C 583.289062 407.769531 583.535156 408.019531 583.792969 408.253906 C 584.320312 408.742188 585.035156 408.542969 585.304688 407.882812 C 585.484375 407.4375 585.304688 407.132812 585.050781 406.800781 C 584.933594 406.652344 584.847656 406.488281 584.785156 406.324219 C 584.730469 406.171875 584.699219 406.015625 584.6875 405.859375 C 584.6875 405.859375 584.6875 405.859375 584.6875 405.855469 C 584.675781 405.703125 584.683594 405.550781 584.710938 405.398438 C 584.714844 405.394531 584.714844 405.390625 584.714844 405.390625 C 584.730469 405.3125 584.75 405.238281 584.773438 405.164062 C 584.777344 405.160156 584.777344 405.15625 584.777344 405.15625 C 584.804688 405.082031 584.832031 405.011719 584.867188 404.941406 C 584.867188 404.941406 584.867188 404.9375 584.871094 404.9375 C 584.902344 404.871094 584.941406 404.808594 584.980469 404.746094 C 584.992188 404.734375 585 404.722656 585.007812 404.710938 C 585.050781 404.648438 585.097656 404.589844 585.148438 404.535156 C 585.210938 404.464844 585.277344 404.398438 585.347656 404.339844 C 585.355469 404.332031 585.367188 404.320312 585.378906 404.3125 C 585.445312 404.253906 585.515625 404.199219 585.589844 404.152344 C 585.59375 404.148438 585.601562 404.144531 585.609375 404.140625 C 585.765625 404.039062 585.925781 403.960938 586.09375 403.910156 C 586.097656 403.910156 586.101562 403.90625 586.109375 403.90625 C 586.128906 403.898438 586.144531 403.894531 586.164062 403.890625 C 586.195312 403.882812 586.226562 403.875 586.261719 403.867188 C 586.273438 403.863281 586.289062 403.859375 586.304688 403.855469 C 586.351562 403.847656 586.398438 403.84375 586.445312 403.839844 C 586.460938 403.835938 586.472656 403.835938 586.488281 403.835938 C 586.523438 403.832031 586.554688 403.832031 586.585938 403.832031 C 586.605469 403.832031 586.625 403.832031 586.644531 403.832031 C 586.671875 403.832031 586.703125 403.832031 586.730469 403.835938 C 586.75 403.835938 586.769531 403.839844 586.789062 403.839844 C 586.820312 403.84375 586.847656 403.847656 586.878906 403.851562 C 586.894531 403.855469 586.914062 403.859375 586.933594 403.859375 C 587.132812 403.902344 587.332031 403.976562 587.515625 404.09375 C 587.648438 404.175781 587.761719 404.285156 587.871094 404.394531 C 590.199219 406.726562 592.53125 409.054688 594.84375 411.398438 C 596.019531 412.589844 596.808594 414.019531 597.082031 415.671875 C 597.472656 417.996094 597.222656 420.273438 596.347656 422.46875 Z M 596.347656 422.46875 " fill-opacity="1" fill-rule="nonzero"/></g><path fill="#6c38d4" d="M 533.085938 401.480469 L 537.910156 401.480469 C 539.007812 401.480469 540.015625 401.25 540.898438 400.792969 C 541.816406 400.324219 542.539062 399.652344 543.054688 398.792969 C 543.566406 397.941406 543.824219 396.972656 543.824219 395.917969 C 543.824219 394.730469 543.492188 393.714844 542.839844 392.910156 C 542.617188 392.632812 542.363281 392.386719 542.082031 392.175781 C 542.144531 392.097656 542.203125 392.015625 542.257812 391.933594 C 542.71875 391.253906 542.953125 390.480469 542.953125 389.640625 C 542.953125 388.675781 542.707031 387.796875 542.230469 387.019531 C 541.753906 386.25 541.089844 385.644531 540.257812 385.21875 C 539.453125 384.808594 538.53125 384.597656 537.519531 384.597656 L 533.085938 384.597656 C 532.511719 384.597656 531.996094 384.800781 531.589844 385.195312 C 531.175781 385.597656 530.957031 386.128906 530.957031 386.730469 L 530.957031 399.347656 C 530.957031 399.929688 531.171875 400.457031 531.578125 400.859375 C 531.980469 401.265625 532.5 401.480469 533.085938 401.480469 Z M 535.210938 388.714844 L 537.519531 388.714844 C 537.976562 388.714844 538.324219 388.808594 538.550781 388.992188 C 538.617188 389.046875 538.773438 389.171875 538.773438 389.640625 C 538.773438 390.113281 538.613281 390.242188 538.542969 390.304688 C 538.316406 390.488281 537.972656 390.582031 537.519531 390.582031 L 535.210938 390.582031 Z M 535.210938 394.699219 L 537.910156 394.699219 C 538.523438 394.699219 538.992188 394.820312 539.308594 395.070312 C 539.476562 395.199219 539.648438 395.402344 539.648438 395.917969 C 539.648438 396.554688 539.425781 396.816406 539.257812 396.960938 C 538.941406 397.230469 538.5 397.363281 537.910156 397.363281 L 535.210938 397.363281 Z M 535.210938 394.699219 " fill-opacity="1" fill-rule="nonzero"/><path fill="#6c38d4" d="M 549.523438 401.003906 C 550.601562 401.519531 551.824219 401.78125 553.167969 401.78125 C 554.480469 401.78125 555.679688 401.519531 556.734375 401 C 557.820312 400.464844 558.683594 399.703125 559.300781 398.734375 C 559.917969 397.761719 560.234375 396.648438 560.234375 395.433594 L 560.234375 386.730469 C 560.234375 386.136719 560.023438 385.609375 559.621094 385.207031 C 558.828125 384.414062 557.453125 384.402344 556.628906 385.195312 C 556.21875 385.597656 556 386.128906 556 386.730469 L 556 395.433594 C 556 395.867188 555.894531 396.234375 555.679688 396.566406 C 555.453125 396.910156 555.144531 397.175781 554.730469 397.375 C 553.800781 397.820312 552.417969 397.792969 551.515625 397.371094 C 551.078125 397.164062 550.753906 396.898438 550.519531 396.550781 C 550.296875 396.222656 550.191406 395.859375 550.191406 395.433594 L 550.191406 386.730469 C 550.191406 386.136719 549.980469 385.609375 549.578125 385.207031 C 548.789062 384.421875 547.398438 384.398438 546.570312 385.195312 C 546.15625 385.597656 545.9375 386.128906 545.9375 386.730469 L 545.9375 395.433594 C 545.9375 396.667969 546.261719 397.785156 546.898438 398.757812 C 547.527344 399.71875 548.410156 400.472656 549.523438 401.003906 Z M 549.523438 401.003906 " fill-opacity="1" fill-rule="nonzero"/><path fill="#6c38d4" d="M 567.507812 395.347656 L 567.507812 399.347656 C 567.507812 399.929688 567.722656 400.453125 568.125 400.859375 C 568.527344 401.265625 569.042969 401.480469 569.613281 401.480469 C 570.199219 401.480469 570.71875 401.265625 571.125 400.859375 C 571.527344 400.453125 571.742188 399.929688 571.742188 399.347656 L 571.742188 395.351562 L 576.558594 387.890625 C 576.800781 387.503906 576.921875 387.089844 576.921875 386.65625 C 576.921875 386.125 576.738281 385.636719 576.394531 385.25 C 576.023438 384.828125 575.507812 384.597656 574.945312 384.597656 C 574.175781 384.597656 573.527344 384.953125 573.109375 385.601562 L 569.675781 391.039062 L 566.289062 385.652344 C 566.082031 385.34375 565.863281 385.109375 565.617188 384.9375 C 564.890625 384.429688 563.742188 384.496094 563.015625 385.160156 C 562.578125 385.558594 562.347656 386.082031 562.347656 386.675781 C 562.347656 387.089844 562.480469 387.503906 562.734375 387.902344 Z M 567.507812 395.347656 " fill-opacity="1" fill-rule="nonzero"/></svg>