<svg xmlns="http://www.w3.org/2000/svg" xmlns:xlink="http://www.w3.org/1999/xlink" width="1024" zoomAndPan="magnify" viewBox="0 0 768 767.999994" height="1024" preserveAspectRatio="xMidYMid meet" version="1.0"><defs><clipPath id="5c4338b248"><path d="M 0 0 L 188 0 L 188 187 L 0 187 Z M 0 0 " clip-rule="nonzero"/></clipPath><clipPath id="ad8ff7d80c"><path d="M 79.324219 -138.722656 L 210.316406 -7.734375 L -7.121094 209.703125 L -138.113281 78.710938 Z M 79.324219 -138.722656 " clip-rule="nonzero"/></clipPath><clipPath id="45932ecbc4"><path d="M 79.324219 -138.722656 L 210.316406 -7.734375 L -7.121094 209.703125 L -138.113281 78.710938 Z M 79.324219 -138.722656 " clip-rule="nonzero"/></clipPath><clipPath id="ef3a4b5060"><path d="M 579 578 L 768 578 L 768 768 L 579 768 Z M 579 578 " clip-rule="nonzero"/></clipPath><clipPath id="8391681efb"><path d="M 687.910156 903.441406 L 556.917969 772.449219 L 774.351562 555.015625 L 905.34375 686.003906 Z M 687.910156 903.441406 " clip-rule="nonzero"/></clipPath><clipPath id="1d4e7312e8"><path d="M 687.910156 903.441406 L 556.917969 772.449219 L 774.351562 555.015625 L 905.34375 686.003906 Z M 687.910156 903.441406 " clip-rule="nonzero"/></clipPath><clipPath id="89dfee9a17"><path d="M 0 577 L 188 577 L 188 768 L 0 768 Z M 0 577 " clip-rule="nonzero"/></clipPath><clipPath id="03113a90ff"><path d="M -137.894531 686.222656 L -6.90625 555.230469 L 210.53125 772.664062 L 79.539062 903.65625 Z M -137.894531 686.222656 " clip-rule="nonzero"/></clipPath><clipPath id="6daf0fc2f2"><path d="M -137.894531 686.222656 L -6.90625 555.230469 L 210.53125 772.664062 L 79.539062 903.65625 Z M -137.894531 686.222656 " clip-rule="nonzero"/></clipPath><clipPath id="253deef941"><path d="M 579 0 L 768 0 L 768 188 L 579 188 Z M 579 0 " clip-rule="nonzero"/></clipPath><clipPath id="fa86ffd1fd"><path d="M 905.128906 78.496094 L 774.136719 209.488281 L 556.703125 -7.949219 L 687.695312 -138.941406 Z M 905.128906 78.496094 " clip-rule="nonzero"/></clipPath><clipPath id="17f1d2775f"><path d="M 905.128906 78.496094 L 774.136719 209.488281 L 556.703125 -7.949219 L 687.695312 -138.941406 Z M 905.128906 78.496094 " clip-rule="nonzero"/></clipPath><clipPath id="40785bf0c5"><path d="M 101.476562 130.882812 L 666.226562 130.882812 L 666.226562 637.511719 L 101.476562 637.511719 Z M 101.476562 130.882812 " clip-rule="nonzero"/></clipPath><clipPath id="459697adc8"><path d="M 147 173.894531 L 476 173.894531 L 476 195.644531 L 147 195.644531 Z M 147 173.894531 " clip-rule="nonzero"/></clipPath><clipPath id="e241cfb61b"><path d="M 479 171.691406 L 510 171.691406 L 510 195 L 479 195 Z M 479 171.691406 " clip-rule="nonzero"/></clipPath><clipPath id="8cfcfaad3b"><path d="M 516 171.691406 L 546.492188 171.691406 L 546.492188 195 L 516 195 Z M 516 171.691406 " clip-rule="nonzero"/></clipPath><clipPath id="81cfc16fc0"><path d="M 554 171.691406 L 585 171.691406 L 585 195 L 554 195 Z M 554 171.691406 " clip-rule="nonzero"/></clipPath><clipPath id="56498ded00"><path d="M 570 171.691406 L 600.738281 171.691406 L 600.738281 195 L 570 195 Z M 570 171.691406 " clip-rule="nonzero"/></clipPath><clipPath id="b036f4f9f7"><path d="M 585 171.691406 L 616 171.691406 L 616 195 L 585 195 Z M 585 171.691406 " clip-rule="nonzero"/></clipPath><clipPath id="4791ec6cb0"><path d="M 146 209.589844 L 176 209.589844 L 176 233 L 146 233 Z M 146 209.589844 " clip-rule="nonzero"/></clipPath><clipPath id="71babce2b8"><path d="M 161 209.589844 L 192 209.589844 L 192 233 L 161 233 Z M 161 209.589844 " clip-rule="nonzero"/></clipPath><clipPath id="e90af1aaee"><path d="M 177 209.589844 L 207.480469 209.589844 L 207.480469 233 L 177 233 Z M 177 209.589844 " clip-rule="nonzero"/></clipPath><clipPath id="304f77fad0"><path d="M 212 209.589844 L 243 209.589844 L 243 233 L 212 233 Z M 212 209.589844 " clip-rule="nonzero"/></clipPath><clipPath id="bf104b33b0"><path d="M 248 209.589844 L 278 209.589844 L 278 233 L 248 233 Z M 248 209.589844 " clip-rule="nonzero"/></clipPath><clipPath id="644c0b167c"><path d="M 283 209.589844 L 313.878906 209.589844 L 313.878906 233 L 283 233 Z M 283 209.589844 " clip-rule="nonzero"/></clipPath><clipPath id="8f34c2774e"><path d="M 320 211.335938 L 630 211.335938 L 630 231.585938 L 320 231.585938 Z M 320 211.335938 " clip-rule="nonzero"/></clipPath><clipPath id="a66fe94fc7"><path d="M 148 246.300781 L 477 246.300781 L 477 268.050781 L 148 268.050781 Z M 148 246.300781 " clip-rule="nonzero"/></clipPath><clipPath id="3f45107bc7"><path d="M 480 244.097656 L 511 244.097656 L 511 268 L 480 268 Z M 480 244.097656 " clip-rule="nonzero"/></clipPath><clipPath id="6b3709cfc4"><path d="M 516 244.097656 L 547 244.097656 L 547 268 L 516 268 Z M 516 244.097656 " clip-rule="nonzero"/></clipPath><clipPath id="ad3be23afd"><path d="M 555 244.097656 L 585.972656 244.097656 L 585.972656 268 L 555 268 Z M 555 244.097656 " clip-rule="nonzero"/></clipPath><clipPath id="98cdcdbc81"><path d="M 571 244.097656 L 601.578125 244.097656 L 601.578125 268 L 571 268 Z M 571 244.097656 " clip-rule="nonzero"/></clipPath><clipPath id="840fbb7d3e"><path d="M 586 244.097656 L 617 244.097656 L 617 268 L 586 268 Z M 586 244.097656 " clip-rule="nonzero"/></clipPath><clipPath id="329937fd0f"><path d="M 146 282 L 177 282 L 177 305.996094 L 146 305.996094 Z M 146 282 " clip-rule="nonzero"/></clipPath><clipPath id="e8eb19affd"><path d="M 162 282 L 192.851562 282 L 192.851562 305.996094 L 162 305.996094 Z M 162 282 " clip-rule="nonzero"/></clipPath><clipPath id="dfdaa81240"><path d="M 177 282 L 208 282 L 208 305.996094 L 177 305.996094 Z M 177 282 " clip-rule="nonzero"/></clipPath><clipPath id="5ddb1fbb42"><path d="M 213 282 L 243.890625 282 L 243.890625 305.996094 L 213 305.996094 Z M 213 282 " clip-rule="nonzero"/></clipPath><clipPath id="0a7d1da43b"><path d="M 248 282 L 279 282 L 279 305.996094 L 248 305.996094 Z M 248 282 " clip-rule="nonzero"/></clipPath><clipPath id="ba3d3a9e56"><path d="M 284 282 L 314.71875 282 L 314.71875 305.996094 L 284 305.996094 Z M 284 282 " clip-rule="nonzero"/></clipPath><clipPath id="228347dc51"><path d="M 321 283.746094 L 630 283.746094 L 630 303.996094 L 321 303.996094 Z M 321 283.746094 " clip-rule="nonzero"/></clipPath><clipPath id="2efbd2aad7"><path d="M 276 312.796875 L 306.988281 312.796875 L 306.988281 336.796875 L 276 336.796875 Z M 276 312.796875 " clip-rule="nonzero"/></clipPath><clipPath id="28803de58a"><path d="M 292 312.796875 L 322.59375 312.796875 L 322.59375 336.796875 L 292 336.796875 Z M 292 312.796875 " clip-rule="nonzero"/></clipPath><clipPath id="85d14b2e3e"><path d="M 326 312.796875 L 356.519531 312.796875 L 356.519531 336.796875 L 326 336.796875 Z M 326 312.796875 " clip-rule="nonzero"/></clipPath><clipPath id="8cb5ebd3cc"><path d="M 361 316.136719 L 630 316.136719 L 630 334.136719 L 361 334.136719 Z M 361 316.136719 " clip-rule="nonzero"/></clipPath><clipPath id="e5e200ec36"><path d="M 573 344.101562 L 603.640625 344.101562 L 603.640625 368 L 573 368 Z M 573 344.101562 " clip-rule="nonzero"/></clipPath><clipPath id="68ebbe44f4"><path d="M 588 344.101562 L 619 344.101562 L 619 368 L 588 368 Z M 588 344.101562 " clip-rule="nonzero"/></clipPath><clipPath id="f4cceaae19"><path d="M 301 346.933594 L 570 346.933594 L 570 364.933594 L 301 364.933594 Z M 301 346.933594 " clip-rule="nonzero"/></clipPath><clipPath id="ba5c3fe978"><path d="M 310 376.667969 L 340.914062 376.667969 L 340.914062 400 L 310 400 Z M 310 376.667969 " clip-rule="nonzero"/></clipPath><clipPath id="4e8941ae11"><path d="M 348 379.234375 L 617 379.234375 L 617 397.234375 L 348 397.234375 Z M 348 379.234375 " clip-rule="nonzero"/></clipPath><clipPath id="161d874893"><path d="M 312 411.644531 L 617 411.644531 L 617 431.894531 L 312 431.894531 Z M 312 411.644531 " clip-rule="nonzero"/></clipPath><clipPath id="a9772e1fba"><path d="M 147.261719 328.886719 L 263.511719 328.886719 L 263.511719 445.136719 L 147.261719 445.136719 Z M 147.261719 328.886719 " clip-rule="nonzero"/></clipPath></defs><g clip-path="url(#5c4338b248)"><g clip-path="url(#ad8ff7d80c)"><g clip-path="url(#45932ecbc4)"><path fill="#8447ff" d="M -29.746094 186.601562 L -29.734375 -29.628906 L 187.996094 -29.640625 L 187.996094 14.632812 L 14.539062 14.640625 L 14.527344 186.601562 L -29.746094 186.601562 " fill-opacity="1" fill-rule="nonzero"/></g></g></g><g clip-path="url(#ef3a4b5060)"><g clip-path="url(#8391681efb)"><g clip-path="url(#1d4e7312e8)"><path fill="#8447ff" d="M 796.980469 578.113281 L 796.964844 794.34375 L 579.234375 794.355469 L 579.234375 750.082031 L 752.695312 750.074219 L 752.707031 578.113281 L 796.980469 578.113281 " fill-opacity="1" fill-rule="nonzero"/></g></g></g><g clip-path="url(#89dfee9a17)"><g clip-path="url(#03113a90ff)"><g clip-path="url(#6daf0fc2f2)"><path fill="#8447ff" d="M 187.429688 795.292969 L -28.800781 795.277344 L -28.8125 577.546875 L 15.460938 577.546875 L 15.46875 751.007812 L 187.429688 751.019531 L 187.429688 795.292969 " fill-opacity="1" fill-rule="nonzero"/></g></g></g><g clip-path="url(#253deef941)"><g clip-path="url(#fa86ffd1fd)"><g clip-path="url(#17f1d2775f)"><path fill="#8447ff" d="M 579.800781 -30.574219 L 796.03125 -30.5625 L 796.042969 187.167969 L 751.769531 187.167969 L 751.761719 13.710938 L 579.800781 13.699219 L 579.800781 -30.574219 " fill-opacity="1" fill-rule="nonzero"/></g></g></g><g clip-path="url(#40785bf0c5)"><path fill="#8447ff" d="M 383.851562 512.929688 C 379.257812 512.929688 375.523438 509.1875 375.523438 504.589844 C 375.523438 499.996094 379.257812 496.253906 383.851562 496.253906 C 388.441406 496.253906 392.179688 499.996094 392.179688 504.589844 C 392.179688 509.1875 388.441406 512.929688 383.851562 512.929688 Z M 383.851562 484.71875 C 372.886719 484.71875 363.996094 493.640625 363.996094 504.589844 C 363.996094 515.566406 372.886719 524.464844 383.851562 524.464844 C 394.8125 524.464844 403.707031 515.566406 403.707031 504.589844 C 403.707031 493.640625 394.8125 484.71875 383.851562 484.71875 Z M 624.378906 541.207031 L 143.324219 541.207031 C 126.597656 541.207031 113 526.652344 113 508.738281 L 113 467.976562 L 654.699219 467.976562 L 654.699219 508.738281 C 654.699219 526.652344 641.105469 541.207031 624.378906 541.207031 Z M 451.089844 625.976562 L 316.613281 625.976562 L 341.507812 552.742188 L 426.195312 552.742188 Z M 143.324219 142.445312 L 624.378906 142.445312 C 641.105469 142.445312 654.699219 157 654.699219 174.914062 L 654.699219 456.4375 L 113 456.4375 L 113 174.914062 C 113 157 126.597656 142.445312 143.324219 142.445312 Z M 624.378906 130.90625 L 143.324219 130.90625 C 120.25 130.90625 101.476562 150.644531 101.476562 174.914062 L 101.476562 508.738281 C 101.476562 533.003906 120.25 552.742188 143.324219 552.742188 L 329.328125 552.742188 L 303.105469 629.894531 C 302.519531 631.652344 302.789062 633.589844 303.871094 635.101562 C 304.972656 636.609375 306.707031 637.511719 308.574219 637.511719 L 459.128906 637.511719 C 460.996094 637.511719 462.730469 636.609375 463.832031 635.101562 C 464.914062 633.589844 465.183594 631.652344 464.597656 629.894531 L 438.371094 552.742188 L 624.378906 552.742188 C 647.453125 552.742188 666.226562 533.003906 666.226562 508.738281 L 666.226562 174.914062 C 666.226562 150.644531 647.453125 130.90625 624.378906 130.90625 " fill-opacity="1" fill-rule="nonzero"/></g><g clip-path="url(#459697adc8)"><path fill="#8cffda" d="M 464.695312 173.894531 L 158.859375 173.894531 C 152.828125 173.894531 147.9375 178.761719 147.9375 184.769531 C 147.9375 190.773438 152.828125 195.644531 158.859375 195.644531 L 464.695312 195.644531 C 470.730469 195.644531 475.621094 190.773438 475.621094 184.769531 C 475.621094 178.761719 470.730469 173.894531 464.695312 173.894531 Z M 464.695312 173.894531 " fill-opacity="1" fill-rule="nonzero"/></g><g clip-path="url(#e241cfb61b)"><path fill="#8cffda" d="M 481.710938 173.027344 C 478.808594 174.730469 480.191406 187.601562 480.960938 191.726562 C 481.316406 193.648438 483.507812 194.421875 487.222656 194.640625 C 489.613281 194.78125 502.726562 195.691406 507.019531 193.742188 C 508.074219 193.265625 508.820312 192.109375 509.015625 191.289062 C 510.304688 185.933594 509.722656 182.058594 509.546875 176.078125 C 509.488281 174.03125 507.988281 172.332031 502.9375 172.199219 C 499.511719 172.109375 496.125 171.832031 491.386719 171.761719 C 486.683594 171.691406 483.328125 172.078125 481.710938 173.027344 Z M 481.710938 173.027344 " fill-opacity="1" fill-rule="evenodd"/></g><g clip-path="url(#8cfcfaad3b)"><path fill="#8cffda" d="M 517.894531 173.027344 C 514.992188 174.730469 516.378906 187.601562 517.144531 191.726562 C 517.503906 193.648438 519.695312 194.421875 523.40625 194.640625 C 525.796875 194.78125 538.910156 195.691406 543.203125 193.742188 C 544.261719 193.265625 545.003906 192.109375 545.203125 191.289062 C 546.492188 185.933594 545.910156 182.058594 545.734375 176.078125 C 545.671875 174.03125 544.171875 172.332031 539.121094 172.199219 C 535.695312 172.109375 532.3125 171.832031 527.570312 171.761719 C 522.871094 171.691406 519.511719 172.078125 517.894531 173.027344 Z M 517.894531 173.027344 " fill-opacity="1" fill-rule="evenodd"/></g><g clip-path="url(#81cfc16fc0)"><path fill="#8cffda" d="M 556.535156 173.027344 C 553.632812 174.730469 555.015625 187.601562 555.785156 191.726562 C 556.140625 193.648438 558.332031 194.421875 562.046875 194.640625 C 564.4375 194.78125 577.546875 195.691406 581.84375 193.742188 C 582.898438 193.265625 583.644531 192.109375 583.839844 191.289062 C 585.128906 185.933594 584.546875 182.058594 584.371094 176.078125 C 584.3125 174.03125 582.8125 172.332031 577.761719 172.199219 C 574.335938 172.109375 570.949219 171.832031 566.210938 171.761719 C 561.507812 171.691406 558.152344 172.078125 556.535156 173.027344 Z M 556.535156 173.027344 " fill-opacity="1" fill-rule="evenodd"/></g><g clip-path="url(#56498ded00)"><path fill="#8cffda" d="M 572.140625 173.027344 C 569.238281 174.730469 570.621094 187.601562 571.390625 191.726562 C 571.75 193.648438 573.9375 194.421875 577.652344 194.640625 C 580.042969 194.78125 593.15625 195.691406 597.449219 193.742188 C 598.503906 193.265625 599.25 192.109375 599.449219 191.289062 C 600.738281 185.933594 600.15625 182.058594 599.980469 176.078125 C 599.917969 174.03125 598.417969 172.332031 593.367188 172.199219 C 589.941406 172.109375 586.554688 171.832031 581.816406 171.761719 C 577.113281 171.691406 573.757812 172.078125 572.140625 173.027344 Z M 572.140625 173.027344 " fill-opacity="1" fill-rule="evenodd"/></g><g clip-path="url(#b036f4f9f7)"><path fill="#8cffda" d="M 587.613281 173.027344 C 584.710938 174.730469 586.09375 187.601562 586.863281 191.726562 C 587.222656 193.648438 589.410156 194.421875 593.125 194.640625 C 595.515625 194.78125 608.628906 195.691406 612.921875 193.742188 C 613.976562 193.265625 614.722656 192.109375 614.917969 191.289062 C 616.207031 185.933594 615.625 182.058594 615.449219 176.078125 C 615.390625 174.03125 613.890625 172.332031 608.839844 172.199219 C 605.414062 172.109375 602.027344 171.832031 597.289062 171.761719 C 592.585938 171.691406 589.230469 172.078125 587.613281 173.027344 Z M 587.613281 173.027344 " fill-opacity="1" fill-rule="evenodd"/></g><g clip-path="url(#4791ec6cb0)"><path fill="#8cffda" d="M 147.808594 210.925781 C 144.90625 212.628906 146.289062 225.5 147.058594 229.625 C 147.414062 231.546875 149.605469 232.324219 153.316406 232.542969 C 155.707031 232.683594 168.820312 233.589844 173.113281 231.644531 C 174.171875 231.164062 174.917969 230.007812 175.113281 229.191406 C 176.402344 223.832031 175.820312 219.957031 175.644531 213.976562 C 175.585938 211.933594 174.082031 210.234375 169.035156 210.101562 C 165.605469 210.011719 162.222656 209.734375 157.484375 209.664062 C 152.78125 209.59375 149.421875 209.980469 147.808594 210.925781 Z M 147.808594 210.925781 " fill-opacity="1" fill-rule="evenodd"/></g><g clip-path="url(#71babce2b8)"><path fill="#8cffda" d="M 163.414062 210.925781 C 160.511719 212.628906 161.894531 225.5 162.664062 229.625 C 163.019531 231.546875 165.210938 232.324219 168.925781 232.542969 C 171.3125 232.683594 184.425781 233.589844 188.722656 231.644531 C 189.777344 231.164062 190.523438 230.007812 190.71875 229.191406 C 192.007812 223.832031 191.425781 219.957031 191.25 213.976562 C 191.191406 211.933594 189.691406 210.234375 184.640625 210.101562 C 181.214844 210.011719 177.828125 209.734375 173.089844 209.664062 C 168.386719 209.59375 165.03125 209.980469 163.414062 210.925781 Z M 163.414062 210.925781 " fill-opacity="1" fill-rule="evenodd"/></g><g clip-path="url(#e90af1aaee)"><path fill="#8cffda" d="M 178.886719 210.925781 C 175.984375 212.628906 177.367188 225.5 178.136719 229.625 C 178.492188 231.546875 180.683594 232.324219 184.398438 232.542969 C 186.785156 232.683594 199.898438 233.589844 204.191406 231.644531 C 205.25 231.164062 205.996094 230.007812 206.191406 229.191406 C 207.480469 223.832031 206.898438 219.957031 206.722656 213.976562 C 206.664062 211.933594 205.160156 210.234375 200.113281 210.101562 C 196.683594 210.011719 193.300781 209.734375 188.5625 209.664062 C 183.859375 209.59375 180.5 209.980469 178.886719 210.925781 Z M 178.886719 210.925781 " fill-opacity="1" fill-rule="evenodd"/></g><g clip-path="url(#304f77fad0)"><path fill="#8cffda" d="M 214.457031 210.925781 C 211.554688 212.628906 212.9375 225.5 213.707031 229.625 C 214.0625 231.546875 216.253906 232.324219 219.96875 232.542969 C 222.355469 232.683594 235.46875 233.589844 239.761719 231.644531 C 240.820312 231.164062 241.566406 230.007812 241.761719 229.191406 C 243.050781 223.832031 242.46875 219.957031 242.292969 213.976562 C 242.234375 211.933594 240.730469 210.234375 235.683594 210.101562 C 232.253906 210.011719 228.871094 209.734375 224.132812 209.664062 C 219.429688 209.59375 216.070312 209.980469 214.457031 210.925781 Z M 214.457031 210.925781 " fill-opacity="1" fill-rule="evenodd"/></g><g clip-path="url(#bf104b33b0)"><path fill="#8cffda" d="M 249.867188 210.925781 C 246.964844 212.628906 248.351562 225.5 249.117188 229.625 C 249.476562 231.546875 251.667969 232.324219 255.378906 232.542969 C 257.769531 232.683594 270.882812 233.589844 275.175781 231.644531 C 276.230469 231.164062 276.976562 230.007812 277.175781 229.191406 C 278.464844 223.832031 277.882812 219.957031 277.707031 213.976562 C 277.644531 211.933594 276.144531 210.234375 271.09375 210.101562 C 267.667969 210.011719 264.28125 209.734375 259.542969 209.664062 C 254.84375 209.59375 251.484375 209.980469 249.867188 210.925781 Z M 249.867188 210.925781 " fill-opacity="1" fill-rule="evenodd"/></g><g clip-path="url(#644c0b167c)"><path fill="#8cffda" d="M 285.28125 210.925781 C 282.378906 212.628906 283.761719 225.5 284.53125 229.625 C 284.886719 231.546875 287.078125 232.324219 290.792969 232.542969 C 293.179688 232.683594 306.292969 233.589844 310.589844 231.644531 C 311.644531 231.164062 312.390625 230.007812 312.585938 229.191406 C 313.875 223.832031 313.292969 219.957031 313.117188 213.976562 C 313.058594 211.933594 311.558594 210.234375 306.507812 210.101562 C 303.082031 210.011719 299.695312 209.734375 294.957031 209.664062 C 290.253906 209.59375 286.898438 209.980469 285.28125 210.925781 Z M 285.28125 210.925781 " fill-opacity="1" fill-rule="evenodd"/></g><g clip-path="url(#8f34c2774e)"><path fill="#8cffda" d="M 618.820312 211.335938 L 331.011719 211.335938 C 325.332031 211.335938 320.730469 215.871094 320.730469 221.460938 C 320.730469 227.054688 325.332031 231.585938 331.011719 231.585938 L 618.820312 231.585938 C 624.496094 231.585938 629.097656 227.054688 629.097656 221.460938 C 629.097656 215.871094 624.496094 211.335938 618.820312 211.335938 Z M 618.820312 211.335938 " fill-opacity="1" fill-rule="nonzero"/></g><g clip-path="url(#a66fe94fc7)"><path fill="#8cffda" d="M 465.535156 246.300781 L 159.699219 246.300781 C 153.667969 246.300781 148.777344 251.167969 148.777344 257.175781 C 148.777344 263.179688 153.667969 268.050781 159.699219 268.050781 L 465.535156 268.050781 C 471.570312 268.050781 476.460938 263.179688 476.460938 257.175781 C 476.460938 251.167969 471.570312 246.300781 465.535156 246.300781 Z M 465.535156 246.300781 " fill-opacity="1" fill-rule="nonzero"/></g><g clip-path="url(#3f45107bc7)"><path fill="#8cffda" d="M 482.550781 245.433594 C 479.648438 247.136719 481.03125 260.007812 481.800781 264.132812 C 482.15625 266.054688 484.347656 266.832031 488.0625 267.050781 C 490.453125 267.191406 503.566406 268.097656 507.859375 266.152344 C 508.914062 265.671875 509.660156 264.515625 509.855469 263.695312 C 511.144531 258.339844 510.5625 254.464844 510.386719 248.484375 C 510.328125 246.4375 508.828125 244.738281 503.777344 244.605469 C 500.351562 244.515625 496.964844 244.242188 492.226562 244.167969 C 487.523438 244.097656 484.167969 244.484375 482.550781 245.433594 Z M 482.550781 245.433594 " fill-opacity="1" fill-rule="evenodd"/></g><g clip-path="url(#6b3709cfc4)"><path fill="#8cffda" d="M 518.734375 245.433594 C 515.832031 247.136719 517.21875 260.007812 517.984375 264.132812 C 518.34375 266.054688 520.535156 266.832031 524.246094 267.050781 C 526.636719 267.191406 539.75 268.097656 544.042969 266.152344 C 545.101562 265.671875 545.847656 264.515625 546.042969 263.695312 C 547.332031 258.339844 546.75 254.464844 546.574219 248.484375 C 546.511719 246.4375 545.011719 244.738281 539.964844 244.605469 C 536.535156 244.515625 533.152344 244.242188 528.410156 244.167969 C 523.710938 244.097656 520.351562 244.484375 518.734375 245.433594 Z M 518.734375 245.433594 " fill-opacity="1" fill-rule="evenodd"/></g><g clip-path="url(#ad3be23afd)"><path fill="#8cffda" d="M 557.375 245.433594 C 554.472656 247.136719 555.855469 260.007812 556.625 264.132812 C 556.980469 266.054688 559.171875 266.832031 562.886719 267.050781 C 565.277344 267.191406 578.390625 268.097656 582.683594 266.152344 C 583.738281 265.671875 584.484375 264.515625 584.679688 263.695312 C 585.96875 258.339844 585.386719 254.464844 585.210938 248.484375 C 585.152344 246.4375 583.652344 244.738281 578.601562 244.605469 C 575.175781 244.515625 571.789062 244.242188 567.050781 244.167969 C 562.347656 244.097656 558.992188 244.484375 557.375 245.433594 Z M 557.375 245.433594 " fill-opacity="1" fill-rule="evenodd"/></g><g clip-path="url(#98cdcdbc81)"><path fill="#8cffda" d="M 572.980469 245.433594 C 570.078125 247.136719 571.464844 260.007812 572.230469 264.132812 C 572.589844 266.054688 574.777344 266.832031 578.492188 267.050781 C 580.882812 267.191406 593.996094 268.097656 598.289062 266.152344 C 599.34375 265.671875 600.089844 264.515625 600.289062 263.695312 C 601.578125 258.339844 600.996094 254.464844 600.820312 248.484375 C 600.757812 246.4375 599.257812 244.738281 594.207031 244.605469 C 590.78125 244.515625 587.394531 244.242188 582.65625 244.167969 C 577.953125 244.097656 574.597656 244.484375 572.980469 245.433594 Z M 572.980469 245.433594 " fill-opacity="1" fill-rule="evenodd"/></g><g clip-path="url(#840fbb7d3e)"><path fill="#8cffda" d="M 588.453125 245.433594 C 585.550781 247.136719 586.933594 260.007812 587.703125 264.132812 C 588.0625 266.054688 590.25 266.832031 593.964844 267.050781 C 596.355469 267.191406 609.46875 268.097656 613.761719 266.152344 C 614.816406 265.671875 615.5625 264.515625 615.757812 263.695312 C 617.046875 258.339844 616.464844 254.464844 616.289062 248.484375 C 616.230469 246.4375 614.730469 244.738281 609.679688 244.605469 C 606.253906 244.515625 602.867188 244.242188 598.128906 244.167969 C 593.425781 244.097656 590.070312 244.484375 588.453125 245.433594 Z M 588.453125 245.433594 " fill-opacity="1" fill-rule="evenodd"/></g><g clip-path="url(#329937fd0f)"><path fill="#8cffda" d="M 148.648438 283.335938 C 145.746094 285.039062 147.128906 297.910156 147.898438 302.035156 C 148.253906 303.957031 150.445312 304.730469 154.15625 304.949219 C 156.546875 305.089844 169.660156 306 173.953125 304.050781 C 175.011719 303.574219 175.757812 302.417969 175.953125 301.597656 C 177.242188 296.238281 176.660156 292.363281 176.484375 286.386719 C 176.425781 284.339844 174.921875 282.640625 169.875 282.507812 C 166.445312 282.417969 163.0625 282.140625 158.324219 282.070312 C 153.621094 282 150.261719 282.386719 148.648438 283.335938 Z M 148.648438 283.335938 " fill-opacity="1" fill-rule="evenodd"/></g><g clip-path="url(#e8eb19affd)"><path fill="#8cffda" d="M 164.253906 283.335938 C 161.351562 285.039062 162.734375 297.910156 163.503906 302.035156 C 163.859375 303.957031 166.050781 304.730469 169.765625 304.949219 C 172.152344 305.089844 185.265625 306 189.5625 304.050781 C 190.617188 303.574219 191.363281 302.417969 191.558594 301.597656 C 192.847656 296.238281 192.265625 292.363281 192.089844 286.386719 C 192.03125 284.339844 190.53125 282.640625 185.480469 282.507812 C 182.054688 282.417969 178.667969 282.140625 173.929688 282.070312 C 169.226562 282 165.871094 282.386719 164.253906 283.335938 Z M 164.253906 283.335938 " fill-opacity="1" fill-rule="evenodd"/></g><g clip-path="url(#dfdaa81240)"><path fill="#8cffda" d="M 179.726562 283.335938 C 176.824219 285.039062 178.207031 297.910156 178.976562 302.035156 C 179.332031 303.957031 181.523438 304.730469 185.238281 304.949219 C 187.625 305.089844 200.738281 306 205.03125 304.050781 C 206.089844 303.574219 206.835938 302.417969 207.03125 301.597656 C 208.320312 296.238281 207.738281 292.363281 207.5625 286.386719 C 207.503906 284.339844 206 282.640625 200.953125 282.507812 C 197.523438 282.417969 194.140625 282.140625 189.402344 282.070312 C 184.699219 282 181.339844 282.386719 179.726562 283.335938 Z M 179.726562 283.335938 " fill-opacity="1" fill-rule="evenodd"/></g><g clip-path="url(#5ddb1fbb42)"><path fill="#8cffda" d="M 215.296875 283.335938 C 212.394531 285.039062 213.777344 297.910156 214.546875 302.035156 C 214.902344 303.957031 217.09375 304.730469 220.808594 304.949219 C 223.195312 305.089844 236.308594 306 240.605469 304.050781 C 241.660156 303.574219 242.40625 302.417969 242.601562 301.597656 C 243.890625 296.238281 243.308594 292.363281 243.132812 286.386719 C 243.074219 284.339844 241.574219 282.640625 236.523438 282.507812 C 233.09375 282.417969 229.710938 282.140625 224.972656 282.070312 C 220.269531 282 216.910156 282.386719 215.296875 283.335938 Z M 215.296875 283.335938 " fill-opacity="1" fill-rule="evenodd"/></g><g clip-path="url(#0a7d1da43b)"><path fill="#8cffda" d="M 250.707031 283.335938 C 247.804688 285.039062 249.191406 297.910156 249.957031 302.035156 C 250.316406 303.957031 252.507812 304.730469 256.21875 304.949219 C 258.609375 305.089844 271.722656 306 276.015625 304.050781 C 277.074219 303.574219 277.816406 302.417969 278.015625 301.597656 C 279.304688 296.238281 278.722656 292.363281 278.546875 286.386719 C 278.484375 284.339844 276.984375 282.640625 271.933594 282.507812 C 268.507812 282.417969 265.121094 282.140625 260.382812 282.070312 C 255.683594 282 252.324219 282.386719 250.707031 283.335938 Z M 250.707031 283.335938 " fill-opacity="1" fill-rule="evenodd"/></g><g clip-path="url(#ba3d3a9e56)"><path fill="#8cffda" d="M 286.121094 283.335938 C 283.21875 285.039062 284.601562 297.910156 285.371094 302.035156 C 285.726562 303.957031 287.917969 304.730469 291.632812 304.949219 C 294.023438 305.089844 307.132812 306 311.429688 304.050781 C 312.484375 303.574219 313.230469 302.417969 313.425781 301.597656 C 314.714844 296.238281 314.132812 292.363281 313.957031 286.386719 C 313.898438 284.339844 312.398438 282.640625 307.347656 282.507812 C 303.921875 282.417969 300.535156 282.140625 295.796875 282.070312 C 291.09375 282 287.738281 282.386719 286.121094 283.335938 Z M 286.121094 283.335938 " fill-opacity="1" fill-rule="evenodd"/></g><g clip-path="url(#228347dc51)"><path fill="#8cffda" d="M 619.660156 283.746094 L 331.851562 283.746094 C 326.175781 283.746094 321.570312 288.277344 321.570312 293.871094 C 321.570312 299.460938 326.171875 303.996094 331.851562 303.996094 L 619.660156 303.996094 C 625.335938 303.996094 629.9375 299.460938 629.9375 293.871094 C 629.9375 288.277344 625.335938 283.746094 619.660156 283.746094 Z M 619.660156 283.746094 " fill-opacity="1" fill-rule="nonzero"/></g><g clip-path="url(#2efbd2aad7)"><path fill="#8cffda" d="M 278.390625 314.132812 C 275.488281 315.835938 276.875 328.707031 277.640625 332.832031 C 278 334.753906 280.191406 335.527344 283.902344 335.746094 C 286.292969 335.886719 299.40625 336.796875 303.699219 334.847656 C 304.753906 334.371094 305.5 333.214844 305.699219 332.394531 C 306.988281 327.039062 306.40625 323.164062 306.230469 317.183594 C 306.167969 315.136719 304.667969 313.4375 299.617188 313.304688 C 296.191406 313.214844 292.804688 312.9375 288.066406 312.867188 C 283.367188 312.796875 280.007812 313.183594 278.390625 314.132812 Z M 278.390625 314.132812 " fill-opacity="1" fill-rule="evenodd"/></g><g clip-path="url(#28803de58a)"><path fill="#8cffda" d="M 293.996094 314.132812 C 291.09375 315.835938 292.480469 328.707031 293.246094 332.832031 C 293.605469 334.753906 295.796875 335.527344 299.507812 335.746094 C 301.898438 335.886719 315.011719 336.796875 319.304688 334.847656 C 320.363281 334.371094 321.109375 333.214844 321.304688 332.394531 C 322.59375 327.039062 322.011719 323.164062 321.835938 317.183594 C 321.773438 315.136719 320.273438 313.4375 315.226562 313.304688 C 311.796875 313.214844 308.414062 312.9375 303.671875 312.867188 C 298.972656 312.796875 295.613281 313.183594 293.996094 314.132812 Z M 293.996094 314.132812 " fill-opacity="1" fill-rule="evenodd"/></g><g clip-path="url(#85d14b2e3e)"><path fill="#8cffda" d="M 327.925781 314.132812 C 325.023438 315.835938 326.40625 328.707031 327.175781 332.832031 C 327.53125 334.753906 329.722656 335.527344 333.4375 335.746094 C 335.824219 335.886719 348.9375 336.796875 353.230469 334.847656 C 354.289062 334.371094 355.035156 333.214844 355.230469 332.394531 C 356.519531 327.039062 355.9375 323.164062 355.761719 317.183594 C 355.703125 315.136719 354.199219 313.4375 349.152344 313.304688 C 345.722656 313.214844 342.339844 312.9375 337.601562 312.867188 C 332.898438 312.796875 329.539062 313.183594 327.925781 314.132812 Z M 327.925781 314.132812 " fill-opacity="1" fill-rule="evenodd"/></g><g clip-path="url(#8cb5ebd3cc)"><path fill="#8cffda" d="M 620.324219 316.136719 L 370.179688 316.136719 C 365.246094 316.136719 361.246094 320.167969 361.246094 325.136719 C 361.246094 330.105469 365.246094 334.136719 370.179688 334.136719 L 620.324219 334.136719 C 625.257812 334.136719 629.257812 330.105469 629.257812 325.136719 C 629.257812 320.167969 625.257812 316.136719 620.324219 316.136719 Z M 620.324219 316.136719 " fill-opacity="1" fill-rule="nonzero"/></g><g clip-path="url(#e5e200ec36)"><path fill="#8cffda" d="M 575.042969 345.4375 C 572.140625 347.140625 573.523438 360.011719 574.292969 364.136719 C 574.652344 366.058594 576.839844 366.835938 580.554688 367.054688 C 582.945312 367.195312 596.058594 368.101562 600.351562 366.15625 C 601.40625 365.675781 602.152344 364.519531 602.347656 363.699219 C 603.636719 358.34375 603.054688 354.46875 602.878906 348.488281 C 602.820312 346.441406 601.320312 344.742188 596.269531 344.609375 C 592.84375 344.519531 589.457031 344.246094 584.71875 344.171875 C 580.015625 344.101562 576.660156 344.488281 575.042969 345.4375 Z M 575.042969 345.4375 " fill-opacity="1" fill-rule="evenodd"/></g><g clip-path="url(#68ebbe44f4)"><path fill="#8cffda" d="M 590.648438 345.4375 C 587.746094 347.140625 589.132812 360.011719 589.898438 364.136719 C 590.257812 366.058594 592.445312 366.835938 596.160156 367.054688 C 598.550781 367.195312 611.664062 368.101562 615.957031 366.15625 C 617.011719 365.675781 617.757812 364.519531 617.957031 363.699219 C 619.246094 358.34375 618.664062 354.46875 618.488281 348.488281 C 618.425781 346.441406 616.925781 344.742188 611.875 344.609375 C 608.449219 344.519531 605.0625 344.246094 600.324219 344.171875 C 595.621094 344.101562 592.265625 344.488281 590.648438 345.4375 Z M 590.648438 345.4375 " fill-opacity="1" fill-rule="evenodd"/></g><g clip-path="url(#f4cceaae19)"><path fill="#8cffda" d="M 560.46875 346.933594 L 310.324219 346.933594 C 305.390625 346.933594 301.390625 350.964844 301.390625 355.933594 C 301.390625 360.90625 305.390625 364.933594 310.324219 364.933594 L 560.46875 364.933594 C 565.402344 364.933594 569.402344 360.90625 569.402344 355.933594 C 569.402344 350.964844 565.402344 346.933594 560.46875 346.933594 Z M 560.46875 346.933594 " fill-opacity="1" fill-rule="nonzero"/></g><g clip-path="url(#ba5c3fe978)"><path fill="#8cffda" d="M 312.316406 378.003906 C 309.414062 379.707031 310.800781 392.578125 311.566406 396.703125 C 311.925781 398.625 314.117188 399.402344 317.828125 399.621094 C 320.21875 399.761719 333.332031 400.667969 337.625 398.722656 C 338.683594 398.242188 339.425781 397.085938 339.625 396.265625 C 340.914062 390.910156 340.332031 387.035156 340.15625 381.054688 C 340.09375 379.007812 338.59375 377.308594 333.542969 377.175781 C 330.117188 377.085938 326.734375 376.8125 321.992188 376.738281 C 317.292969 376.667969 313.933594 377.054688 312.316406 378.003906 Z M 312.316406 378.003906 " fill-opacity="1" fill-rule="evenodd"/></g><g clip-path="url(#4e8941ae11)"><path fill="#8cffda" d="M 607.289062 379.234375 L 357.144531 379.234375 C 352.210938 379.234375 348.210938 383.265625 348.210938 388.234375 C 348.210938 393.207031 352.210938 397.234375 357.144531 397.234375 L 607.289062 397.234375 C 612.222656 397.234375 616.222656 393.207031 616.222656 388.234375 C 616.222656 383.265625 612.222656 379.234375 607.289062 379.234375 Z M 607.289062 379.234375 " fill-opacity="1" fill-rule="nonzero"/></g><g clip-path="url(#161d874893)"><path fill="#8cffda" d="M 606.136719 411.644531 L 322.441406 411.644531 C 316.847656 411.644531 312.3125 416.179688 312.3125 421.769531 C 312.3125 427.363281 316.847656 431.894531 322.441406 431.894531 L 606.136719 431.894531 C 611.730469 431.894531 616.269531 427.363281 616.269531 421.769531 C 616.269531 416.179688 611.730469 411.644531 606.136719 411.644531 Z M 606.136719 411.644531 " fill-opacity="1" fill-rule="nonzero"/></g><g clip-path="url(#a9772e1fba)"><path fill="#8447ff" d="M 205.386719 328.886719 C 173.351562 328.886719 147.261719 354.976562 147.261719 387.011719 C 147.261719 419.042969 173.351562 445.136719 205.386719 445.136719 C 237.417969 445.136719 263.511719 419.042969 263.511719 387.011719 C 263.511719 354.976562 237.417969 328.886719 205.386719 328.886719 Z M 255.503906 366.34375 L 235.609375 366.34375 C 232.640625 352.136719 226.699219 340.898438 219.464844 334.570312 C 235.738281 338.960938 249.171875 350.84375 255.503906 366.34375 Z M 203.449219 332.890625 L 203.449219 366.34375 L 179.164062 366.34375 C 183.296875 347.355469 192.726562 334.3125 203.449219 332.890625 Z M 207.324219 332.890625 C 218.042969 334.3125 227.472656 347.355469 231.605469 366.34375 L 207.324219 366.34375 Z M 191.4375 334.570312 C 184.074219 340.898438 178.132812 352.136719 175.160156 366.34375 L 155.269531 366.34375 C 161.597656 350.84375 175.03125 338.960938 191.4375 334.570312 Z M 153.847656 370.21875 L 257.050781 370.21875 C 258.730469 375.515625 259.765625 381.199219 259.765625 387.011719 C 259.765625 392.824219 258.859375 398.507812 257.050781 403.804688 L 153.847656 403.804688 C 152.039062 398.507812 151.136719 392.824219 151.136719 387.011719 C 151.136719 381.199219 152.039062 375.515625 153.847656 370.21875 Z M 179.164062 407.679688 L 203.449219 407.679688 L 203.449219 441.132812 C 192.726562 439.710938 183.296875 426.664062 179.164062 407.679688 Z M 207.324219 441.132812 L 207.324219 407.679688 L 231.605469 407.679688 C 227.472656 426.664062 218.042969 439.710938 207.324219 441.132812 Z M 155.269531 407.679688 L 175.289062 407.679688 C 178.261719 421.886719 184.203125 433.125 191.566406 439.453125 C 175.03125 435.0625 161.597656 423.179688 155.269531 407.679688 Z M 219.335938 439.453125 C 226.699219 433.125 232.640625 421.886719 235.609375 407.679688 L 255.632812 407.679688 C 249.171875 423.179688 235.738281 435.0625 219.335938 439.453125 Z M 219.335938 439.453125 " fill-opacity="1" fill-rule="nonzero"/></g><path fill="#8447ff" d="M 198.152344 395.535156 C 198.410156 396.3125 199.058594 396.828125 199.832031 396.828125 C 200.605469 396.828125 201.382812 396.441406 201.640625 395.664062 L 205.386719 387.527344 L 209.132812 395.664062 C 209.390625 396.3125 210.164062 396.828125 210.941406 396.828125 C 210.941406 396.828125 210.941406 396.828125 211.070312 396.828125 C 211.84375 396.828125 212.488281 396.3125 212.75 395.535156 L 218.171875 379.648438 C 218.5625 378.617188 218.042969 377.582031 217.011719 377.195312 C 215.976562 376.808594 214.945312 377.324219 214.558594 378.355469 L 210.683594 389.59375 L 207.195312 382.101562 C 206.9375 381.457031 206.160156 380.941406 205.386719 380.941406 C 204.609375 380.941406 203.964844 381.328125 203.578125 382.101562 L 200.21875 389.722656 L 196.34375 378.488281 C 195.957031 377.453125 194.921875 376.9375 193.890625 377.324219 C 192.855469 377.710938 192.339844 378.746094 192.726562 379.777344 Z M 198.152344 395.535156 " fill-opacity="1" fill-rule="nonzero"/><path fill="#8447ff" d="M 160.695312 379.777344 L 166.121094 395.664062 C 166.378906 396.441406 167.023438 396.957031 167.796875 396.957031 C 167.796875 396.957031 167.796875 396.957031 167.925781 396.957031 C 168.703125 396.957031 169.347656 396.570312 169.734375 395.792969 L 173.480469 387.65625 L 177.226562 395.792969 C 177.613281 396.570312 178.261719 396.957031 179.035156 396.957031 C 179.8125 396.957031 180.457031 396.441406 180.714844 395.664062 L 186.140625 379.777344 C 186.527344 378.746094 186.011719 377.710938 184.976562 377.324219 C 183.945312 376.9375 182.910156 377.453125 182.523438 378.488281 L 178.648438 389.722656 L 175.160156 382.230469 C 174.902344 381.585938 174.128906 381.070312 173.351562 381.070312 C 172.578125 381.070312 171.933594 381.457031 171.542969 382.230469 L 168.058594 389.722656 L 164.183594 378.488281 C 163.792969 377.453125 162.761719 376.9375 161.726562 377.324219 C 160.824219 377.582031 160.308594 378.746094 160.695312 379.777344 Z M 160.695312 379.777344 " fill-opacity="1" fill-rule="nonzero"/><path fill="#8447ff" d="M 230.058594 395.535156 C 230.316406 396.3125 230.960938 396.828125 231.734375 396.828125 C 231.734375 396.828125 231.734375 396.828125 231.863281 396.828125 C 232.640625 396.828125 233.285156 396.441406 233.671875 395.664062 L 237.417969 387.527344 L 241.164062 395.664062 C 241.550781 396.441406 242.199219 396.828125 242.972656 396.828125 C 243.75 396.828125 244.394531 396.3125 244.652344 395.535156 L 250.078125 379.648438 C 250.464844 378.617188 249.949219 377.582031 248.914062 377.195312 C 247.882812 376.808594 246.847656 377.324219 246.460938 378.355469 L 242.585938 389.59375 L 239.097656 382.101562 C 238.839844 381.457031 238.066406 380.941406 237.289062 380.941406 C 236.515625 380.941406 235.871094 381.328125 235.480469 382.101562 L 231.996094 389.59375 L 228.121094 378.355469 C 227.730469 377.324219 226.699219 376.808594 225.664062 377.195312 C 224.632812 377.582031 224.113281 378.617188 224.503906 379.648438 Z M 230.058594 395.535156 " fill-opacity="1" fill-rule="nonzero"/></svg>