<svg xmlns="http://www.w3.org/2000/svg" xmlns:xlink="http://www.w3.org/1999/xlink" width="1024" zoomAndPan="magnify" viewBox="0 0 768 767.999994" height="1024" preserveAspectRatio="xMidYMid meet" version="1.0"><defs><clipPath id="5196d861aa"><path d="M 0 0 L 188 0 L 188 187 L 0 187 Z M 0 0 " clip-rule="nonzero"/></clipPath><clipPath id="af0b209f68"><path d="M 79.324219 -138.722656 L 210.316406 -7.734375 L -7.121094 209.703125 L -138.113281 78.710938 Z M 79.324219 -138.722656 " clip-rule="nonzero"/></clipPath><clipPath id="e10e9e12e2"><path d="M 79.324219 -138.722656 L 210.316406 -7.734375 L -7.121094 209.703125 L -138.113281 78.710938 Z M 79.324219 -138.722656 " clip-rule="nonzero"/></clipPath><clipPath id="50a546a0e8"><path d="M 579 578 L 768 578 L 768 768 L 579 768 Z M 579 578 " clip-rule="nonzero"/></clipPath><clipPath id="7aebaba8ad"><path d="M 687.910156 903.441406 L 556.917969 772.449219 L 774.351562 555.015625 L 905.34375 686.003906 Z M 687.910156 903.441406 " clip-rule="nonzero"/></clipPath><clipPath id="f5d5827782"><path d="M 687.910156 903.441406 L 556.917969 772.449219 L 774.351562 555.015625 L 905.34375 686.003906 Z M 687.910156 903.441406 " clip-rule="nonzero"/></clipPath><clipPath id="969a14dcff"><path d="M 0 577 L 188 577 L 188 768 L 0 768 Z M 0 577 " clip-rule="nonzero"/></clipPath><clipPath id="ce50ba1f06"><path d="M -137.894531 686.222656 L -6.90625 555.230469 L 210.53125 772.664062 L 79.539062 903.65625 Z M -137.894531 686.222656 " clip-rule="nonzero"/></clipPath><clipPath id="496f78975e"><path d="M -137.894531 686.222656 L -6.90625 555.230469 L 210.53125 772.664062 L 79.539062 903.65625 Z M -137.894531 686.222656 " clip-rule="nonzero"/></clipPath><clipPath id="dc4298a52c"><path d="M 579 0 L 768 0 L 768 188 L 579 188 Z M 579 0 " clip-rule="nonzero"/></clipPath><clipPath id="59a78ad882"><path d="M 905.128906 78.496094 L 774.136719 209.488281 L 556.703125 -7.949219 L 687.695312 -138.941406 Z M 905.128906 78.496094 " clip-rule="nonzero"/></clipPath><clipPath id="149fb52087"><path d="M 905.128906 78.496094 L 774.136719 209.488281 L 556.703125 -7.949219 L 687.695312 -138.941406 Z M 905.128906 78.496094 " clip-rule="nonzero"/></clipPath><clipPath id="04b50445a9"><path d="M 438 467.894531 L 482.183594 467.894531 L 482.183594 583.09375 L 438 583.09375 Z M 438 467.894531 " clip-rule="nonzero"/></clipPath><clipPath id="f0239fe570"><path d="M 101.476562 130.882812 L 666.226562 130.882812 L 666.226562 637.511719 L 101.476562 637.511719 Z M 101.476562 130.882812 " clip-rule="nonzero"/></clipPath><clipPath id="c58cf70706"><path d="M 252.496094 187.886719 L 514.996094 187.886719 L 514.996094 433.886719 L 252.496094 433.886719 Z M 252.496094 187.886719 " clip-rule="nonzero"/></clipPath></defs><rect x="-76.8" width="921.6" fill="#ffffff" y="-76.799999" height="921.599993" fill-opacity="1"/><rect x="-76.8" width="921.6" fill="#ffffff" y="-76.799999" height="921.599993" fill-opacity="1"/><g clip-path="url(#5196d861aa)"><g clip-path="url(#af0b209f68)"><g clip-path="url(#e10e9e12e2)"><path fill="#8447ff" d="M -29.746094 186.601562 L -29.734375 -29.628906 L 187.996094 -29.640625 L 187.996094 14.632812 L 14.539062 14.640625 L 14.527344 186.601562 L -29.746094 186.601562 " fill-opacity="1" fill-rule="nonzero"/></g></g></g><g clip-path="url(#50a546a0e8)"><g clip-path="url(#7aebaba8ad)"><g clip-path="url(#f5d5827782)"><path fill="#8447ff" d="M 796.980469 578.113281 L 796.964844 794.34375 L 579.234375 794.355469 L 579.234375 750.082031 L 752.695312 750.074219 L 752.707031 578.113281 L 796.980469 578.113281 " fill-opacity="1" fill-rule="nonzero"/></g></g></g><g clip-path="url(#969a14dcff)"><g clip-path="url(#ce50ba1f06)"><g clip-path="url(#496f78975e)"><path fill="#8447ff" d="M 187.429688 795.292969 L -28.800781 795.277344 L -28.8125 577.546875 L 15.460938 577.546875 L 15.46875 751.007812 L 187.429688 751.019531 L 187.429688 795.292969 " fill-opacity="1" fill-rule="nonzero"/></g></g></g><g clip-path="url(#dc4298a52c)"><g clip-path="url(#59a78ad882)"><g clip-path="url(#149fb52087)"><path fill="#8447ff" d="M 579.800781 -30.574219 L 796.03125 -30.5625 L 796.042969 187.167969 L 751.769531 187.167969 L 751.761719 13.710938 L 579.800781 13.699219 L 579.800781 -30.574219 " fill-opacity="1" fill-rule="nonzero"/></g></g></g><g clip-path="url(#04b50445a9)"><path fill="#ffffff" d="M 438 467.894531 L 482.183594 467.894531 L 482.183594 583.09375 L 438 583.09375 Z M 438 467.894531 " fill-opacity="1" fill-rule="nonzero"/></g><g clip-path="url(#f0239fe570)"><path fill="#8447ff" d="M 383.851562 512.929688 C 379.257812 512.929688 375.523438 509.1875 375.523438 504.589844 C 375.523438 499.996094 379.257812 496.253906 383.851562 496.253906 C 388.441406 496.253906 392.179688 499.996094 392.179688 504.589844 C 392.179688 509.1875 388.441406 512.929688 383.851562 512.929688 Z M 383.851562 484.71875 C 372.886719 484.71875 363.996094 493.640625 363.996094 504.589844 C 363.996094 515.566406 372.886719 524.464844 383.851562 524.464844 C 394.8125 524.464844 403.707031 515.566406 403.707031 504.589844 C 403.707031 493.640625 394.8125 484.71875 383.851562 484.71875 Z M 624.378906 541.207031 L 143.324219 541.207031 C 126.597656 541.207031 113 526.652344 113 508.738281 L 113 467.976562 L 654.699219 467.976562 L 654.699219 508.738281 C 654.699219 526.652344 641.105469 541.207031 624.378906 541.207031 Z M 451.089844 625.976562 L 316.613281 625.976562 L 341.507812 552.742188 L 426.195312 552.742188 Z M 143.324219 142.445312 L 624.378906 142.445312 C 641.105469 142.445312 654.699219 157 654.699219 174.914062 L 654.699219 456.4375 L 113 456.4375 L 113 174.914062 C 113 157 126.597656 142.445312 143.324219 142.445312 Z M 624.378906 130.90625 L 143.324219 130.90625 C 120.25 130.90625 101.476562 150.644531 101.476562 174.914062 L 101.476562 508.738281 C 101.476562 533.003906 120.25 552.742188 143.324219 552.742188 L 329.328125 552.742188 L 303.105469 629.894531 C 302.519531 631.652344 302.789062 633.589844 303.871094 635.101562 C 304.972656 636.609375 306.707031 637.511719 308.574219 637.511719 L 459.128906 637.511719 C 460.996094 637.511719 462.730469 636.609375 463.832031 635.101562 C 464.914062 633.589844 465.183594 631.652344 464.597656 629.894531 L 438.371094 552.742188 L 624.378906 552.742188 C 647.453125 552.742188 666.226562 533.003906 666.226562 508.738281 L 666.226562 174.914062 C 666.226562 150.644531 647.453125 130.90625 624.378906 130.90625 " fill-opacity="1" fill-rule="nonzero"/></g><g clip-path="url(#c58cf70706)"><path fill="#8cffda" d="M 482.183594 433.882812 L 285.308594 433.882812 C 284.234375 433.882812 283.164062 433.828125 282.09375 433.722656 C 281.023438 433.621094 279.960938 433.460938 278.910156 433.253906 C 277.855469 433.042969 276.8125 432.78125 275.785156 432.46875 C 274.757812 432.160156 273.746094 431.796875 272.753906 431.386719 C 271.761719 430.976562 270.789062 430.515625 269.84375 430.007812 C 268.894531 429.503906 267.972656 428.953125 267.082031 428.355469 C 266.1875 427.757812 265.324219 427.117188 264.492188 426.4375 C 263.664062 425.753906 262.867188 425.035156 262.109375 424.277344 C 261.347656 423.515625 260.628906 422.722656 259.945312 421.890625 C 259.261719 421.058594 258.625 420.199219 258.027344 419.304688 C 257.429688 418.414062 256.878906 417.492188 256.371094 416.542969 C 255.863281 415.597656 255.40625 414.628906 254.996094 413.636719 C 254.582031 412.640625 254.222656 411.632812 253.910156 410.605469 C 253.597656 409.578125 253.335938 408.535156 253.128906 407.480469 C 252.917969 406.429688 252.761719 405.367188 252.65625 404.296875 C 252.550781 403.230469 252.496094 402.15625 252.496094 401.082031 L 252.496094 220.6875 C 252.496094 219.613281 252.550781 218.542969 252.65625 217.472656 C 252.761719 216.402344 252.917969 215.34375 253.128906 214.289062 C 253.335938 213.234375 253.597656 212.195312 253.910156 211.167969 C 254.222656 210.140625 254.582031 209.128906 254.996094 208.136719 C 255.40625 207.144531 255.863281 206.175781 256.371094 205.226562 C 256.878906 204.28125 257.429688 203.359375 258.027344 202.464844 C 258.625 201.574219 259.261719 200.710938 259.945312 199.878906 C 260.628906 199.050781 261.347656 198.253906 262.109375 197.496094 C 262.867188 196.734375 263.664062 196.015625 264.492188 195.335938 C 265.324219 194.652344 266.1875 194.011719 267.082031 193.417969 C 267.972656 192.820312 268.894531 192.269531 269.84375 191.761719 C 270.789062 191.253906 271.761719 190.796875 272.753906 190.386719 C 273.746094 189.976562 274.757812 189.613281 275.785156 189.300781 C 276.8125 188.988281 277.855469 188.730469 278.910156 188.519531 C 279.960938 188.308594 281.023438 188.152344 282.09375 188.046875 C 283.164062 187.941406 284.234375 187.890625 285.308594 187.890625 L 482.183594 187.890625 C 483.257812 187.890625 484.332031 187.941406 485.402344 188.046875 C 486.46875 188.152344 487.53125 188.308594 488.585938 188.519531 C 489.640625 188.730469 490.679688 188.988281 491.710938 189.300781 C 492.738281 189.613281 493.75 189.976562 494.742188 190.386719 C 495.734375 190.796875 496.703125 191.253906 497.652344 191.761719 C 498.601562 192.269531 499.519531 192.820312 500.414062 193.417969 C 501.308594 194.011719 502.171875 194.652344 503 195.335938 C 503.832031 196.015625 504.625 196.734375 505.386719 197.496094 C 506.148438 198.253906 506.867188 199.050781 507.550781 199.878906 C 508.230469 200.710938 508.871094 201.574219 509.46875 202.464844 C 510.0625 203.359375 510.617188 204.28125 511.121094 205.226562 C 511.628906 206.175781 512.089844 207.144531 512.5 208.136719 C 512.910156 209.128906 513.273438 210.140625 513.585938 211.167969 C 513.894531 212.195312 514.15625 213.234375 514.367188 214.289062 C 514.578125 215.34375 514.734375 216.402344 514.839844 217.472656 C 514.945312 218.542969 514.996094 219.613281 514.996094 220.6875 L 514.996094 401.082031 C 514.996094 402.15625 514.945312 403.230469 514.839844 404.296875 C 514.734375 405.367188 514.578125 406.429688 514.367188 407.480469 C 514.15625 408.535156 513.894531 409.578125 513.585938 410.605469 C 513.273438 411.632812 512.910156 412.640625 512.5 413.636719 C 512.089844 414.628906 511.628906 415.597656 511.121094 416.542969 C 510.617188 417.492188 510.0625 418.414062 509.46875 419.304688 C 508.871094 420.199219 508.230469 421.058594 507.550781 421.890625 C 506.867188 422.722656 506.148438 423.515625 505.386719 424.277344 C 504.625 425.035156 503.832031 425.753906 503 426.4375 C 502.171875 427.117188 501.308594 427.757812 500.414062 428.355469 C 499.519531 428.953125 498.601562 429.503906 497.652344 430.007812 C 496.703125 430.515625 495.734375 430.976562 494.742188 431.386719 C 493.75 431.796875 492.738281 432.160156 491.710938 432.46875 C 490.679688 432.78125 489.640625 433.042969 488.585938 433.253906 C 487.53125 433.460938 486.46875 433.621094 485.402344 433.722656 C 484.332031 433.828125 483.257812 433.882812 482.183594 433.882812 Z M 285.308594 204.289062 C 284.773438 204.289062 284.238281 204.316406 283.703125 204.367188 C 283.167969 204.421875 282.636719 204.5 282.109375 204.605469 C 281.582031 204.707031 281.0625 204.839844 280.546875 204.996094 C 280.03125 205.152344 279.527344 205.332031 279.03125 205.535156 C 278.535156 205.742188 278.050781 205.972656 277.574219 206.226562 C 277.101562 206.476562 276.640625 206.753906 276.195312 207.050781 C 275.75 207.351562 275.316406 207.671875 274.902344 208.011719 C 274.488281 208.351562 274.089844 208.710938 273.707031 209.09375 C 273.328125 209.472656 272.96875 209.871094 272.628906 210.285156 C 272.285156 210.699219 271.96875 211.128906 271.667969 211.578125 C 271.371094 212.023438 271.09375 212.484375 270.839844 212.957031 C 270.585938 213.429688 270.359375 213.917969 270.152344 214.414062 C 269.945312 214.910156 269.765625 215.414062 269.609375 215.925781 C 269.453125 216.441406 269.324219 216.960938 269.21875 217.488281 C 269.113281 218.015625 269.035156 218.546875 268.984375 219.082031 C 268.929688 219.613281 268.902344 220.152344 268.902344 220.6875 L 268.902344 401.082031 C 268.902344 401.621094 268.929688 402.15625 268.984375 402.691406 C 269.035156 403.226562 269.113281 403.757812 269.21875 404.28125 C 269.324219 404.808594 269.453125 405.328125 269.609375 405.84375 C 269.765625 406.359375 269.945312 406.863281 270.152344 407.359375 C 270.359375 407.855469 270.585938 408.339844 270.839844 408.8125 C 271.09375 409.289062 271.371094 409.746094 271.667969 410.195312 C 271.96875 410.640625 272.285156 411.070312 272.628906 411.488281 C 272.96875 411.902344 273.328125 412.300781 273.707031 412.679688 C 274.089844 413.058594 274.488281 413.417969 274.902344 413.761719 C 275.316406 414.101562 275.75 414.421875 276.195312 414.71875 C 276.640625 415.015625 277.101562 415.292969 277.574219 415.546875 C 278.050781 415.800781 278.535156 416.027344 279.03125 416.234375 C 279.527344 416.441406 280.03125 416.621094 280.546875 416.777344 C 281.0625 416.933594 281.582031 417.0625 282.109375 417.167969 C 282.636719 417.273438 283.167969 417.351562 283.703125 417.402344 C 284.238281 417.457031 284.773438 417.484375 285.308594 417.484375 L 482.183594 417.484375 C 482.722656 417.484375 483.257812 417.457031 483.792969 417.402344 C 484.328125 417.351562 484.859375 417.273438 485.386719 417.167969 C 485.914062 417.0625 486.433594 416.933594 486.945312 416.777344 C 487.460938 416.621094 487.964844 416.441406 488.464844 416.234375 C 488.960938 416.027344 489.445312 415.800781 489.917969 415.546875 C 490.390625 415.292969 490.851562 415.015625 491.300781 414.71875 C 491.746094 414.421875 492.175781 414.101562 492.59375 413.761719 C 493.007812 413.417969 493.40625 413.058594 493.785156 412.679688 C 494.164062 412.300781 494.527344 411.902344 494.867188 411.488281 C 495.207031 411.070312 495.527344 410.640625 495.824219 410.195312 C 496.125 409.746094 496.402344 409.289062 496.652344 408.8125 C 496.90625 408.339844 497.136719 407.855469 497.34375 407.359375 C 497.546875 406.863281 497.730469 406.359375 497.882812 405.84375 C 498.039062 405.328125 498.171875 404.808594 498.277344 404.28125 C 498.378906 403.757812 498.460938 403.226562 498.511719 402.691406 C 498.566406 402.15625 498.589844 401.621094 498.589844 401.082031 L 498.589844 220.6875 C 498.589844 220.152344 498.566406 219.613281 498.511719 219.082031 C 498.460938 218.546875 498.378906 218.015625 498.277344 217.488281 C 498.171875 216.960938 498.039062 216.441406 497.882812 215.925781 C 497.730469 215.414062 497.546875 214.910156 497.34375 214.414062 C 497.136719 213.917969 496.90625 213.429688 496.652344 212.957031 C 496.402344 212.484375 496.125 212.023438 495.824219 211.578125 C 495.527344 211.128906 495.207031 210.699219 494.867188 210.285156 C 494.527344 209.871094 494.164062 209.472656 493.785156 209.09375 C 493.40625 208.710938 493.007812 208.351562 492.59375 208.011719 C 492.175781 207.671875 491.746094 207.351562 491.300781 207.050781 C 490.851562 206.753906 490.390625 206.476562 489.917969 206.226562 C 489.445312 205.972656 488.960938 205.742188 488.464844 205.535156 C 487.964844 205.332031 487.460938 205.152344 486.945312 204.996094 C 486.433594 204.839844 485.914062 204.707031 485.386719 204.605469 C 484.859375 204.5 484.328125 204.421875 483.792969 204.367188 C 483.257812 204.316406 482.722656 204.289062 482.183594 204.289062 Z M 285.308594 204.289062 " fill-opacity="1" fill-rule="nonzero"/></g><path fill="#8cffda" d="M 449.371094 228.886719 C 449.371094 229.425781 449.320312 229.960938 449.214844 230.488281 C 449.109375 231.015625 448.953125 231.527344 448.746094 232.027344 C 448.542969 232.523438 448.289062 232.996094 447.988281 233.445312 C 447.691406 233.890625 447.351562 234.304688 446.96875 234.6875 C 446.589844 235.066406 446.175781 235.40625 445.726562 235.707031 C 445.277344 236.003906 444.804688 236.257812 444.308594 236.464844 C 443.8125 236.667969 443.296875 236.824219 442.769531 236.929688 C 442.242188 237.035156 441.707031 237.085938 441.167969 237.085938 C 440.628906 237.085938 440.097656 237.035156 439.570312 236.929688 C 439.039062 236.824219 438.527344 236.667969 438.03125 236.464844 C 437.53125 236.257812 437.058594 236.003906 436.613281 235.707031 C 436.164062 235.40625 435.75 235.066406 435.367188 234.6875 C 434.988281 234.304688 434.648438 233.890625 434.347656 233.445312 C 434.050781 232.996094 433.796875 232.523438 433.589844 232.027344 C 433.382812 231.527344 433.230469 231.015625 433.125 230.488281 C 433.019531 229.960938 432.964844 229.425781 432.964844 228.886719 C 432.964844 228.347656 433.019531 227.816406 433.125 227.289062 C 433.230469 226.761719 433.382812 226.246094 433.589844 225.75 C 433.796875 225.253906 434.050781 224.78125 434.347656 224.332031 C 434.648438 223.882812 434.988281 223.46875 435.367188 223.089844 C 435.75 222.710938 436.164062 222.371094 436.613281 222.070312 C 437.058594 221.769531 437.53125 221.519531 438.03125 221.3125 C 438.527344 221.105469 439.039062 220.949219 439.570312 220.84375 C 440.097656 220.742188 440.628906 220.6875 441.167969 220.6875 C 441.707031 220.6875 442.242188 220.742188 442.769531 220.84375 C 443.296875 220.949219 443.8125 221.105469 444.308594 221.3125 C 444.804688 221.519531 445.277344 221.769531 445.726562 222.070312 C 446.175781 222.371094 446.589844 222.710938 446.96875 223.089844 C 447.351562 223.46875 447.691406 223.882812 447.988281 224.332031 C 448.289062 224.78125 448.542969 225.253906 448.746094 225.75 C 448.953125 226.246094 449.109375 226.761719 449.214844 227.289062 C 449.320312 227.816406 449.371094 228.347656 449.371094 228.886719 Z M 449.371094 228.886719 " fill-opacity="1" fill-rule="nonzero"/><path fill="#8cffda" d="M 482.183594 228.886719 C 482.183594 229.425781 482.132812 229.960938 482.027344 230.488281 C 481.921875 231.015625 481.765625 231.527344 481.558594 232.027344 C 481.355469 232.523438 481.101562 232.996094 480.800781 233.445312 C 480.503906 233.890625 480.164062 234.304688 479.78125 234.6875 C 479.402344 235.066406 478.988281 235.40625 478.539062 235.707031 C 478.089844 236.003906 477.617188 236.257812 477.121094 236.464844 C 476.625 236.667969 476.109375 236.824219 475.582031 236.929688 C 475.054688 237.035156 474.519531 237.085938 473.980469 237.085938 C 473.441406 237.085938 472.910156 237.035156 472.382812 236.929688 C 471.851562 236.824219 471.339844 236.667969 470.84375 236.464844 C 470.34375 236.257812 469.871094 236.003906 469.425781 235.707031 C 468.976562 235.40625 468.5625 235.066406 468.179688 234.6875 C 467.800781 234.304688 467.460938 233.890625 467.160156 233.445312 C 466.863281 232.996094 466.609375 232.523438 466.402344 232.027344 C 466.195312 231.527344 466.042969 231.015625 465.9375 230.488281 C 465.832031 229.960938 465.777344 229.425781 465.777344 228.886719 C 465.777344 228.347656 465.832031 227.816406 465.9375 227.289062 C 466.042969 226.761719 466.195312 226.246094 466.402344 225.75 C 466.609375 225.253906 466.863281 224.78125 467.160156 224.332031 C 467.460938 223.882812 467.800781 223.46875 468.179688 223.089844 C 468.5625 222.710938 468.976562 222.371094 469.425781 222.070312 C 469.871094 221.769531 470.34375 221.519531 470.84375 221.3125 C 471.339844 221.105469 471.851562 220.949219 472.382812 220.84375 C 472.910156 220.742188 473.441406 220.6875 473.980469 220.6875 C 474.519531 220.6875 475.054688 220.742188 475.582031 220.84375 C 476.109375 220.949219 476.625 221.105469 477.121094 221.3125 C 477.617188 221.519531 478.089844 221.769531 478.539062 222.070312 C 478.988281 222.371094 479.402344 222.710938 479.78125 223.089844 C 480.164062 223.46875 480.503906 223.882812 480.800781 224.332031 C 481.101562 224.78125 481.355469 225.253906 481.558594 225.75 C 481.765625 226.246094 481.921875 226.761719 482.027344 227.289062 C 482.132812 227.816406 482.183594 228.347656 482.183594 228.886719 Z M 482.183594 228.886719 " fill-opacity="1" fill-rule="nonzero"/><path fill="#8cffda" d="M 301.714844 228.886719 C 301.714844 229.425781 301.664062 229.960938 301.558594 230.488281 C 301.453125 231.015625 301.296875 231.527344 301.089844 232.027344 C 300.886719 232.523438 300.632812 232.996094 300.332031 233.445312 C 300.035156 233.890625 299.695312 234.304688 299.3125 234.6875 C 298.933594 235.066406 298.519531 235.40625 298.070312 235.707031 C 297.621094 236.003906 297.148438 236.257812 296.652344 236.464844 C 296.15625 236.667969 295.640625 236.824219 295.113281 236.929688 C 294.585938 237.035156 294.050781 237.085938 293.511719 237.085938 C 292.972656 237.085938 292.441406 237.035156 291.914062 236.929688 C 291.382812 236.824219 290.871094 236.667969 290.375 236.464844 C 289.875 236.257812 289.402344 236.003906 288.957031 235.707031 C 288.507812 235.40625 288.09375 235.066406 287.710938 234.6875 C 287.332031 234.304688 286.992188 233.890625 286.691406 233.445312 C 286.394531 232.996094 286.140625 232.523438 285.933594 232.027344 C 285.726562 231.527344 285.574219 231.015625 285.46875 230.488281 C 285.363281 229.960938 285.308594 229.425781 285.308594 228.886719 C 285.308594 228.347656 285.363281 227.816406 285.46875 227.289062 C 285.574219 226.761719 285.726562 226.246094 285.933594 225.75 C 286.140625 225.253906 286.394531 224.78125 286.691406 224.332031 C 286.992188 223.882812 287.332031 223.46875 287.710938 223.089844 C 288.09375 222.710938 288.507812 222.371094 288.957031 222.070312 C 289.402344 221.769531 289.875 221.519531 290.375 221.3125 C 290.871094 221.105469 291.382812 220.949219 291.914062 220.84375 C 292.441406 220.742188 292.972656 220.6875 293.511719 220.6875 C 294.050781 220.6875 294.585938 220.742188 295.113281 220.84375 C 295.640625 220.949219 296.15625 221.105469 296.652344 221.3125 C 297.148438 221.519531 297.621094 221.769531 298.070312 222.070312 C 298.519531 222.371094 298.933594 222.710938 299.3125 223.089844 C 299.695312 223.46875 300.035156 223.882812 300.332031 224.332031 C 300.632812 224.78125 300.886719 225.253906 301.089844 225.75 C 301.296875 226.246094 301.453125 226.761719 301.558594 227.289062 C 301.664062 227.816406 301.714844 228.347656 301.714844 228.886719 Z M 301.714844 228.886719 " fill-opacity="1" fill-rule="nonzero"/><path fill="#8cffda" d="M 334.527344 368.285156 C 333.988281 368.285156 333.457031 368.230469 332.929688 368.125 C 332.398438 368.023438 331.886719 367.867188 331.390625 367.660156 C 330.890625 367.453125 330.417969 367.203125 329.972656 366.902344 C 329.523438 366.601562 329.109375 366.261719 328.726562 365.882812 C 328.347656 365.5 328.007812 365.085938 327.707031 364.640625 C 327.410156 364.191406 327.15625 363.71875 326.949219 363.222656 C 326.742188 362.726562 326.589844 362.210938 326.484375 361.683594 C 326.378906 361.15625 326.324219 360.621094 326.324219 360.085938 L 326.324219 294.484375 L 309.917969 294.484375 L 309.917969 360.085938 C 309.917969 360.621094 309.867188 361.15625 309.761719 361.683594 C 309.65625 362.210938 309.5 362.726562 309.292969 363.222656 C 309.089844 363.71875 308.835938 364.191406 308.535156 364.640625 C 308.238281 365.085938 307.898438 365.5 307.515625 365.882812 C 307.136719 366.261719 306.722656 366.601562 306.273438 366.902344 C 305.824219 367.203125 305.351562 367.453125 304.855469 367.660156 C 304.359375 367.867188 303.84375 368.023438 303.316406 368.125 C 302.789062 368.230469 302.253906 368.285156 301.714844 368.285156 C 301.175781 368.285156 300.644531 368.230469 300.117188 368.125 C 299.585938 368.023438 299.074219 367.867188 298.578125 367.660156 C 298.078125 367.453125 297.605469 367.203125 297.160156 366.902344 C 296.710938 366.601562 296.296875 366.261719 295.914062 365.882812 C 295.535156 365.5 295.195312 365.085938 294.894531 364.640625 C 294.597656 364.191406 294.34375 363.71875 294.136719 363.222656 C 293.929688 362.726562 293.777344 362.210938 293.671875 361.683594 C 293.566406 361.15625 293.511719 360.621094 293.511719 360.085938 L 293.511719 294.484375 C 293.5 293.945312 293.515625 293.40625 293.558594 292.867188 C 293.601562 292.328125 293.671875 291.792969 293.769531 291.261719 C 293.867188 290.730469 293.992188 290.207031 294.140625 289.6875 C 294.289062 289.167969 294.464844 288.65625 294.667969 288.15625 C 294.871094 287.65625 295.097656 287.164062 295.347656 286.6875 C 295.597656 286.207031 295.871094 285.742188 296.171875 285.292969 C 296.46875 284.84375 296.789062 284.40625 297.128906 283.988281 C 297.472656 283.570312 297.832031 283.167969 298.214844 282.789062 C 298.597656 282.40625 299 282.042969 299.417969 281.703125 C 299.835938 281.359375 300.269531 281.039062 300.722656 280.742188 C 301.171875 280.445312 301.636719 280.171875 302.117188 279.921875 C 302.59375 279.667969 303.085938 279.441406 303.585938 279.242188 C 304.089844 279.039062 304.597656 278.863281 305.117188 278.714844 C 305.636719 278.5625 306.164062 278.441406 306.695312 278.34375 C 307.226562 278.246094 307.761719 278.175781 308.300781 278.132812 C 308.839844 278.089844 309.378906 278.074219 309.917969 278.085938 L 326.324219 278.085938 C 326.867188 278.074219 327.40625 278.089844 327.945312 278.132812 C 328.484375 278.175781 329.019531 278.246094 329.550781 278.34375 C 330.082031 278.441406 330.605469 278.5625 331.125 278.714844 C 331.644531 278.863281 332.15625 279.039062 332.65625 279.242188 C 333.160156 279.441406 333.648438 279.667969 334.128906 279.921875 C 334.605469 280.171875 335.070312 280.445312 335.523438 280.742188 C 335.972656 281.039062 336.410156 281.359375 336.828125 281.703125 C 337.246094 282.042969 337.644531 282.40625 338.027344 282.789062 C 338.410156 283.167969 338.773438 283.570312 339.113281 283.988281 C 339.457031 284.40625 339.777344 284.84375 340.074219 285.292969 C 340.371094 285.742188 340.644531 286.207031 340.898438 286.6875 C 341.148438 287.164062 341.375 287.65625 341.578125 288.15625 C 341.777344 288.65625 341.953125 289.167969 342.105469 289.6875 C 342.253906 290.207031 342.378906 290.730469 342.472656 291.261719 C 342.570312 291.792969 342.640625 292.328125 342.683594 292.867188 C 342.726562 293.40625 342.742188 293.945312 342.730469 294.484375 L 342.730469 360.085938 C 342.730469 360.621094 342.679688 361.15625 342.574219 361.683594 C 342.46875 362.210938 342.3125 362.726562 342.105469 363.222656 C 341.902344 363.71875 341.648438 364.191406 341.347656 364.640625 C 341.050781 365.085938 340.710938 365.5 340.328125 365.882812 C 339.949219 366.261719 339.535156 366.601562 339.085938 366.902344 C 338.636719 367.203125 338.164062 367.453125 337.667969 367.660156 C 337.171875 367.867188 336.65625 368.023438 336.128906 368.125 C 335.601562 368.230469 335.066406 368.285156 334.527344 368.285156 Z M 334.527344 368.285156 " fill-opacity="1" fill-rule="nonzero"/><path fill="#8cffda" d="M 367.339844 368.285156 C 366.800781 368.285156 366.269531 368.230469 365.742188 368.125 C 365.210938 368.023438 364.699219 367.867188 364.203125 367.660156 C 363.703125 367.453125 363.230469 367.203125 362.785156 366.902344 C 362.335938 366.601562 361.921875 366.261719 361.539062 365.882812 C 361.160156 365.5 360.820312 365.085938 360.519531 364.640625 C 360.222656 364.191406 359.96875 363.71875 359.761719 363.222656 C 359.554688 362.726562 359.402344 362.210938 359.296875 361.683594 C 359.191406 361.15625 359.136719 360.621094 359.136719 360.085938 L 359.136719 286.285156 C 359.136719 285.746094 359.191406 285.214844 359.296875 284.6875 C 359.402344 284.160156 359.554688 283.644531 359.761719 283.148438 C 359.96875 282.652344 360.222656 282.179688 360.519531 281.730469 C 360.820312 281.28125 361.160156 280.867188 361.539062 280.488281 C 361.921875 280.109375 362.335938 279.769531 362.785156 279.46875 C 363.230469 279.167969 363.703125 278.917969 364.203125 278.710938 C 364.699219 278.503906 365.210938 278.347656 365.742188 278.242188 C 366.269531 278.140625 366.800781 278.085938 367.339844 278.085938 L 391.949219 278.085938 C 392.492188 278.074219 393.03125 278.089844 393.570312 278.132812 C 394.109375 278.175781 394.644531 278.246094 395.175781 278.34375 C 395.707031 278.441406 396.230469 278.5625 396.75 278.714844 C 397.269531 278.863281 397.78125 279.039062 398.28125 279.242188 C 398.785156 279.441406 399.273438 279.667969 399.753906 279.921875 C 400.230469 280.171875 400.695312 280.445312 401.148438 280.742188 C 401.597656 281.039062 402.035156 281.359375 402.453125 281.703125 C 402.871094 282.042969 403.269531 282.40625 403.652344 282.789062 C 404.035156 283.167969 404.398438 283.570312 404.738281 283.988281 C 405.082031 284.40625 405.402344 284.84375 405.699219 285.292969 C 405.996094 285.742188 406.269531 286.207031 406.523438 286.6875 C 406.773438 287.164062 407 287.65625 407.203125 288.15625 C 407.402344 288.65625 407.578125 289.167969 407.730469 289.6875 C 407.878906 290.207031 408.003906 290.730469 408.097656 291.261719 C 408.195312 291.792969 408.265625 292.328125 408.308594 292.867188 C 408.351562 293.40625 408.367188 293.945312 408.355469 294.484375 L 408.355469 319.085938 C 408.367188 319.625 408.351562 320.164062 408.308594 320.703125 C 408.265625 321.242188 408.195312 321.777344 408.097656 322.308594 C 408.003906 322.839844 407.878906 323.367188 407.730469 323.882812 C 407.578125 324.402344 407.402344 324.914062 407.203125 325.414062 C 407 325.917969 406.773438 326.40625 406.523438 326.886719 C 406.269531 327.363281 405.996094 327.828125 405.699219 328.277344 C 405.402344 328.730469 405.082031 329.164062 404.738281 329.582031 C 404.398438 330 404.035156 330.402344 403.652344 330.785156 C 403.269531 331.164062 402.871094 331.527344 402.453125 331.871094 C 402.035156 332.210938 401.597656 332.53125 401.148438 332.828125 C 400.695312 333.125 400.230469 333.402344 399.753906 333.652344 C 399.273438 333.902344 398.785156 334.128906 398.28125 334.328125 C 397.78125 334.53125 397.269531 334.707031 396.75 334.855469 C 396.230469 335.007812 395.707031 335.128906 395.175781 335.226562 C 394.644531 335.324219 394.109375 335.394531 393.570312 335.4375 C 393.03125 335.480469 392.492188 335.496094 391.949219 335.484375 L 375.542969 335.484375 L 375.542969 360.085938 C 375.542969 360.621094 375.492188 361.15625 375.386719 361.683594 C 375.28125 362.210938 375.125 362.726562 374.917969 363.222656 C 374.714844 363.71875 374.460938 364.191406 374.160156 364.640625 C 373.863281 365.085938 373.523438 365.5 373.140625 365.882812 C 372.761719 366.261719 372.347656 366.601562 371.898438 366.902344 C 371.449219 367.203125 370.976562 367.453125 370.480469 367.660156 C 369.984375 367.867188 369.46875 368.023438 368.941406 368.125 C 368.414062 368.230469 367.878906 368.285156 367.339844 368.285156 Z M 375.542969 319.085938 L 391.949219 319.085938 L 391.949219 294.484375 L 375.542969 294.484375 Z M 375.542969 319.085938 " fill-opacity="1" fill-rule="nonzero"/><path fill="#8cffda" d="M 432.964844 368.285156 C 432.425781 368.285156 431.894531 368.230469 431.367188 368.125 C 430.835938 368.023438 430.324219 367.867188 429.828125 367.660156 C 429.328125 367.453125 428.855469 367.203125 428.410156 366.902344 C 427.960938 366.601562 427.546875 366.261719 427.164062 365.882812 C 426.785156 365.5 426.445312 365.085938 426.144531 364.640625 C 425.847656 364.191406 425.59375 363.71875 425.386719 363.222656 C 425.179688 362.726562 425.027344 362.210938 424.921875 361.683594 C 424.816406 361.15625 424.761719 360.621094 424.761719 360.085938 L 424.761719 286.285156 C 424.761719 285.746094 424.816406 285.214844 424.921875 284.6875 C 425.027344 284.160156 425.179688 283.644531 425.386719 283.148438 C 425.59375 282.652344 425.847656 282.179688 426.144531 281.730469 C 426.445312 281.28125 426.785156 280.867188 427.164062 280.488281 C 427.546875 280.109375 427.960938 279.769531 428.410156 279.46875 C 428.855469 279.167969 429.328125 278.917969 429.828125 278.710938 C 430.324219 278.503906 430.835938 278.347656 431.367188 278.242188 C 431.894531 278.140625 432.425781 278.085938 432.964844 278.085938 L 457.574219 278.085938 C 458.117188 278.074219 458.65625 278.089844 459.195312 278.132812 C 459.734375 278.175781 460.269531 278.246094 460.800781 278.34375 C 461.332031 278.441406 461.855469 278.5625 462.375 278.714844 C 462.894531 278.863281 463.40625 279.039062 463.90625 279.242188 C 464.410156 279.441406 464.898438 279.667969 465.378906 279.921875 C 465.855469 280.171875 466.320312 280.445312 466.773438 280.742188 C 467.222656 281.039062 467.660156 281.359375 468.078125 281.703125 C 468.496094 282.042969 468.894531 282.40625 469.277344 282.789062 C 469.660156 283.167969 470.023438 283.570312 470.363281 283.988281 C 470.707031 284.40625 471.027344 284.84375 471.324219 285.292969 C 471.621094 285.742188 471.894531 286.207031 472.148438 286.6875 C 472.398438 287.164062 472.625 287.65625 472.828125 288.15625 C 473.027344 288.65625 473.203125 289.167969 473.355469 289.6875 C 473.503906 290.207031 473.628906 290.730469 473.722656 291.261719 C 473.820312 291.792969 473.890625 292.328125 473.933594 292.867188 C 473.976562 293.40625 473.992188 293.945312 473.980469 294.484375 L 473.980469 319.085938 C 473.992188 319.625 473.976562 320.164062 473.933594 320.703125 C 473.890625 321.242188 473.820312 321.777344 473.722656 322.308594 C 473.628906 322.839844 473.503906 323.367188 473.355469 323.882812 C 473.203125 324.402344 473.027344 324.914062 472.828125 325.414062 C 472.625 325.917969 472.398438 326.40625 472.148438 326.886719 C 471.894531 327.363281 471.621094 327.828125 471.324219 328.277344 C 471.027344 328.730469 470.707031 329.164062 470.363281 329.582031 C 470.023438 330 469.660156 330.402344 469.277344 330.785156 C 468.894531 331.164062 468.496094 331.527344 468.078125 331.871094 C 467.660156 332.210938 467.222656 332.53125 466.773438 332.828125 C 466.320312 333.125 465.855469 333.402344 465.378906 333.652344 C 464.898438 333.902344 464.410156 334.128906 463.90625 334.332031 C 463.40625 334.53125 462.894531 334.707031 462.375 334.855469 C 461.855469 335.007812 461.332031 335.128906 460.800781 335.226562 C 460.269531 335.324219 459.734375 335.394531 459.195312 335.4375 C 458.65625 335.480469 458.117188 335.496094 457.574219 335.484375 L 441.167969 335.484375 L 441.167969 360.085938 C 441.167969 360.621094 441.117188 361.15625 441.011719 361.683594 C 440.90625 362.210938 440.75 362.726562 440.542969 363.222656 C 440.339844 363.71875 440.085938 364.191406 439.785156 364.640625 C 439.488281 365.085938 439.148438 365.5 438.765625 365.882812 C 438.386719 366.261719 437.972656 366.601562 437.523438 366.902344 C 437.074219 367.203125 436.601562 367.453125 436.105469 367.660156 C 435.609375 367.867188 435.09375 368.023438 434.566406 368.125 C 434.039062 368.230469 433.503906 368.285156 432.964844 368.285156 Z M 441.167969 319.085938 L 457.574219 319.085938 L 457.574219 294.484375 L 441.167969 294.484375 Z M 441.167969 319.085938 " fill-opacity="1" fill-rule="nonzero"/><path fill="#8cffda" d="M 334.527344 335.484375 L 301.714844 335.484375 C 301.175781 335.484375 300.644531 335.433594 300.117188 335.328125 C 299.585938 335.222656 299.074219 335.066406 298.578125 334.859375 C 298.078125 334.65625 297.605469 334.402344 297.160156 334.101562 C 296.710938 333.804688 296.296875 333.464844 295.914062 333.082031 C 295.535156 332.703125 295.195312 332.289062 294.894531 331.839844 C 294.597656 331.394531 294.34375 330.921875 294.136719 330.421875 C 293.929688 329.925781 293.777344 329.414062 293.671875 328.886719 C 293.566406 328.355469 293.511719 327.824219 293.511719 327.285156 C 293.511719 326.746094 293.566406 326.214844 293.671875 325.6875 C 293.777344 325.15625 293.929688 324.644531 294.136719 324.148438 C 294.34375 323.648438 294.597656 323.175781 294.894531 322.730469 C 295.195312 322.28125 295.535156 321.867188 295.914062 321.488281 C 296.296875 321.105469 296.710938 320.765625 297.160156 320.46875 C 297.605469 320.167969 298.078125 319.914062 298.578125 319.710938 C 299.074219 319.503906 299.585938 319.347656 300.117188 319.242188 C 300.644531 319.136719 301.175781 319.085938 301.714844 319.085938 L 334.527344 319.085938 C 335.066406 319.085938 335.601562 319.136719 336.128906 319.242188 C 336.65625 319.347656 337.171875 319.503906 337.667969 319.710938 C 338.164062 319.914062 338.636719 320.167969 339.085938 320.46875 C 339.535156 320.765625 339.949219 321.105469 340.328125 321.488281 C 340.710938 321.867188 341.050781 322.28125 341.347656 322.730469 C 341.648438 323.175781 341.902344 323.648438 342.105469 324.148438 C 342.3125 324.644531 342.46875 325.15625 342.574219 325.6875 C 342.679688 326.214844 342.730469 326.746094 342.730469 327.285156 C 342.730469 327.824219 342.679688 328.355469 342.574219 328.886719 C 342.46875 329.414062 342.3125 329.925781 342.105469 330.421875 C 341.902344 330.921875 341.648438 331.394531 341.347656 331.839844 C 341.050781 332.289062 340.710938 332.703125 340.328125 333.082031 C 339.949219 333.464844 339.535156 333.804688 339.085938 334.101562 C 338.636719 334.402344 338.164062 334.65625 337.667969 334.859375 C 337.171875 335.066406 336.65625 335.222656 336.128906 335.328125 C 335.601562 335.433594 335.066406 335.484375 334.527344 335.484375 Z M 334.527344 335.484375 " fill-opacity="1" fill-rule="nonzero"/></svg>