<svg id="Camada_1" data-name="Camada 1" xmlns="http://www.w3.org/2000/svg" viewBox="0 0 113.646 18.361"><g id="Logo_Wannaplayer" data-name="Logo+Wannaplayer"><path d="M68.053,12.11a3.283,3.283,0,0,1-.8-2.295V9.434a.161.161,0,0,1,.182-.181h.58a.161.161,0,0,1,.182.181v.345a2.634,2.634,0,0,0,.535,1.724,1.712,1.712,0,0,0,1.388.653,1.812,1.812,0,0,0,1.415-.635A2.4,2.4,0,0,0,72.1,9.87a2.428,2.428,0,0,0-.264-1.162,2.957,2.957,0,0,0-.671-.843q-.408-.354-1.333-1.061-.945-.708-1.443-1.171a3.869,3.869,0,0,1-.825-1.106,3.354,3.354,0,0,1-.327-1.534A3.008,3.008,0,0,1,68.017.8a2.961,2.961,0,0,1,4.137.091,3.372,3.372,0,0,1,.8,2.34v.454a.16.16,0,0,1-.181.181h-.6a.16.16,0,0,1-.181-.181V3.229A2.669,2.669,0,0,0,71.455,1.5a1.842,1.842,0,0,0-2.748-.091,2.282,2.282,0,0,0-.527,1.606,2.367,2.367,0,0,0,.227,1.07,3.023,3.023,0,0,0,.654.853,16.226,16.226,0,0,0,1.3,1.052,20.318,20.318,0,0,1,1.6,1.288,3.637,3.637,0,0,1,.808,1.071,3.184,3.184,0,0,1,.281,1.4,3.37,3.37,0,0,1-.807,2.367,2.715,2.715,0,0,1-2.1.88A2.685,2.685,0,0,1,68.053,12.11Z" fill="#1d1d1d"/><path d="M75.773,12.165a3.017,3.017,0,0,1-.807-2.2V2.993A2.963,2.963,0,0,1,75.773.816a3.217,3.217,0,0,1,4.282,0,2.963,2.963,0,0,1,.807,2.177v.345a.2.2,0,0,1-.054.145.172.172,0,0,1-.127.055l-.6.036a.16.16,0,0,1-.181-.181V2.939a2.105,2.105,0,0,0-.545-1.515A1.909,1.909,0,0,0,77.905.853a1.889,1.889,0,0,0-1.434.571,2.109,2.109,0,0,0-.544,1.515v7.094a2.141,2.141,0,0,0,.544,1.524,1.875,1.875,0,0,0,1.434.581,1.9,1.9,0,0,0,1.442-.581,2.117,2.117,0,0,0,.554-1.524V9.616a.16.16,0,0,1,.181-.182l.6.037a.16.16,0,0,1,.181.181V9.96a3.017,3.017,0,0,1-.807,2.2,3.191,3.191,0,0,1-4.282,0Z" fill="#1d1d1d"/><path d="M88.174.145h.6a.161.161,0,0,1,.182.181V12.664a.16.16,0,0,1-.182.181h-.6a.16.16,0,0,1-.182-.181V6.985a.064.064,0,0,0-.072-.073H84.327a.064.064,0,0,0-.072.073v5.679a.16.16,0,0,1-.182.181h-.6a.16.16,0,0,1-.181-.181V.326a.16.16,0,0,1,.181-.181h.6a.161.161,0,0,1,.182.181V5.987a.064.064,0,0,0,.072.073H87.92a.064.064,0,0,0,.072-.073V.326A.161.161,0,0,1,88.174.145Z" fill="#1d1d1d"/><path d="M92.319,12.147a3.017,3.017,0,0,1-.825-2.2V3.066A3.06,3.06,0,0,1,92.31.844,2.866,2.866,0,0,1,94.469,0a2.925,2.925,0,0,1,2.177.844,3.023,3.023,0,0,1,.835,2.222V9.942a3,3,0,0,1-.835,2.205,2.928,2.928,0,0,1-2.177.843A2.875,2.875,0,0,1,92.319,12.147Zm3.629-.608a2.165,2.165,0,0,0,.571-1.56V3.03a2.2,2.2,0,0,0-.571-1.57A1.938,1.938,0,0,0,94.469.853a1.885,1.885,0,0,0-1.451.607,2.218,2.218,0,0,0-.563,1.57V9.979a2.181,2.181,0,0,0,.563,1.56,1.9,1.9,0,0,0,1.451.6A1.954,1.954,0,0,0,95.948,11.539Z" fill="#1d1d1d"/><path d="M100.5,12.147a3.017,3.017,0,0,1-.825-2.2V3.066a3.06,3.06,0,0,1,.816-2.222A2.866,2.866,0,0,1,102.651,0a2.925,2.925,0,0,1,2.177.844,3.019,3.019,0,0,1,.835,2.222V9.942a3,3,0,0,1-.835,2.205,2.928,2.928,0,0,1-2.177.843A2.875,2.875,0,0,1,100.5,12.147Zm3.629-.608a2.165,2.165,0,0,0,.571-1.56V3.03a2.2,2.2,0,0,0-.571-1.57,1.938,1.938,0,0,0-1.479-.607,1.885,1.885,0,0,0-1.451.607,2.218,2.218,0,0,0-.563,1.57V9.979a2.181,2.181,0,0,0,.563,1.56,1.9,1.9,0,0,0,1.451.6A1.954,1.954,0,0,0,104.13,11.539Z" fill="#1d1d1d"/><path d="M108.185,12.664V.326a.16.16,0,0,1,.181-.181h.6a.16.16,0,0,1,.181.181V11.92a.064.064,0,0,0,.073.072h4.245a.161.161,0,0,1,.182.182v.49a.16.16,0,0,1-.182.181h-5.1A.16.16,0,0,1,108.185,12.664Z" fill="#1d1d1d"/><path d="M30.018,16.047a.208.208,0,0,1-.064-.154V14.387a.219.219,0,0,1,.218-.218h6.694a.219.219,0,0,1,.218.218v1.506a.219.219,0,0,1-.218.218H30.172A.206.206,0,0,1,30.018,16.047Z" fill="#1d1d1d"/><path d="M30.888,12.02a3.483,3.483,0,0,1-.988-2.6V3.538A3.431,3.431,0,0,1,30.888.961,3.6,3.6,0,0,1,33.51,0a3.623,3.623,0,0,1,2.639.961,3.429,3.429,0,0,1,.99,2.577v.2a.219.219,0,0,1-.218.218L34.8,4.046c-.145,0-.218-.067-.218-.2V3.375a1.239,1.239,0,0,0-.29-.853.992.992,0,0,0-.78-.327.969.969,0,0,0-.762.327,1.234,1.234,0,0,0-.29.853V9.634a1.2,1.2,0,0,0,.29.843.981.981,0,0,0,.762.318,1.006,1.006,0,0,0,.78-.318,1.2,1.2,0,0,0,.29-.843v-.49a.219.219,0,0,1,.218-.218l2.123.091a.219.219,0,0,1,.218.218v.181a3.47,3.47,0,0,1-1,2.6,4.041,4.041,0,0,1-5.253,0Z" fill="#1d1d1d"/><path d="M39.315,12.011a3.5,3.5,0,0,1-1-2.613V3.592a3.5,3.5,0,0,1,1-2.612,4.131,4.131,0,0,1,5.343,0,3.475,3.475,0,0,1,1.007,2.612V9.4a3.479,3.479,0,0,1-1.007,2.613,4.134,4.134,0,0,1-5.343,0Zm3.484-1.57a1.373,1.373,0,0,0,.308-.934V3.483a1.373,1.373,0,0,0-.308-.934,1.03,1.03,0,0,0-.816-.354,1,1,0,0,0-.808.354,1.4,1.4,0,0,0-.3.934V9.507a1.4,1.4,0,0,0,.3.934,1,1,0,0,0,.808.354A1.03,1.03,0,0,0,42.8,10.441Z" fill="#1d1d1d"/><path d="M47.144,12.782a.21.21,0,0,1-.064-.155V.363a.206.206,0,0,1,.064-.154A.206.206,0,0,1,47.3.145h3.284a3.66,3.66,0,0,1,2.649.962,3.389,3.389,0,0,1,1,2.558v5.66a3.386,3.386,0,0,1-1,2.558,3.655,3.655,0,0,1-2.649.962H47.3A.209.209,0,0,1,47.144,12.782Zm2.585-2.132.817-.018a1.013,1.013,0,0,0,.8-.418,1.761,1.761,0,0,0,.326-1.052V3.828a1.741,1.741,0,0,0-.308-1.088,1,1,0,0,0-.835-.4h-.8a.081.081,0,0,0-.091.091v8.128A.08.08,0,0,0,49.729,10.65Z" fill="#1d1d1d"/><path d="M62.257,2.277a.212.212,0,0,1-.154.063H58.311a.081.081,0,0,0-.091.091V5.3a.08.08,0,0,0,.091.09h2.177a.219.219,0,0,1,.218.218v1.76a.21.21,0,0,1-.064.154.206.206,0,0,1-.154.064H58.311a.08.08,0,0,0-.091.09v2.885a.08.08,0,0,0,.091.091H62.1a.217.217,0,0,1,.218.218v1.759a.217.217,0,0,1-.218.218H55.88a.217.217,0,0,1-.218-.218V.363a.206.206,0,0,1,.064-.154A.206.206,0,0,1,55.88.145H62.1a.209.209,0,0,1,.154.064.21.21,0,0,1,.064.154v1.76A.211.211,0,0,1,62.257,2.277Z" fill="#1d1d1d"/><polygon points="1.859 7.175 0 5.817 0 8.534 1.859 7.175" fill="#1d1d1d"/><path d="M2.558,4.878V2.431a.081.081,0,0,1,.091-.091h.817a1.12,1.12,0,0,1,.916.445,1.882,1.882,0,0,1,.354,1.206A1.856,1.856,0,0,1,4.382,5.18a1.109,1.109,0,0,1-.817.434L5.7,7.173a.134.134,0,0,1,.052-.043A3.1,3.1,0,0,0,6.886,5.86a4.166,4.166,0,0,0,.407-1.887,4.484,4.484,0,0,0-.426-1.995A3.2,3.2,0,0,0,5.661.626,3.318,3.318,0,0,0,3.883.145H.218A.206.206,0,0,0,.064.209.206.206,0,0,0,0,.363V3.008Z" fill="#1d1d1d"/><path d="M7.366,12.591,5.7,7.239a.061.061,0,0,1,0-.06l-2.055,1.5,1.112,3.983a.237.237,0,0,0,.253.181H7.185c.133,0,.2-.06.2-.181Z" fill="#1d1d1d"/><path d="M0,11.342v1.285a.21.21,0,0,0,.064.155.209.209,0,0,0,.154.063H2.341a.215.215,0,0,0,.217-.218V9.473Z" fill="#1d1d1d"/><path d="M9.48,11.965a3.762,3.762,0,0,1-.989-2.73V.363A.206.206,0,0,1,8.555.209.206.206,0,0,1,8.709.145h2.122a.206.206,0,0,1,.154.064.206.206,0,0,1,.064.154V9.489a1.466,1.466,0,0,0,.29.943.93.93,0,0,0,.762.363.9.9,0,0,0,.753-.363,1.492,1.492,0,0,0,.281-.943V.363A.206.206,0,0,1,13.2.209a.208.208,0,0,1,.154-.064h2.123a.208.208,0,0,1,.154.064.209.209,0,0,1,.063.154V9.235a3.765,3.765,0,0,1-.988,2.73,3.45,3.45,0,0,1-2.6,1.025A3.472,3.472,0,0,1,9.48,11.965Z" fill="#1d1d1d"/><path d="M22.379.209a.209.209,0,0,1,.154-.064h2.105a.208.208,0,0,1,.154.064.21.21,0,0,1,.064.154V12.627a.214.214,0,0,1-.064.155.211.211,0,0,1-.154.063h-2.4a.227.227,0,0,1-.236-.181l-2.25-7.022c-.011-.036-.033-.051-.063-.045s-.045.027-.045.064l.018,6.966a.217.217,0,0,1-.218.218h-2.1a.217.217,0,0,1-.218-.218V.363a.206.206,0,0,1,.064-.154.206.206,0,0,1,.154-.064h2.377a.228.228,0,0,1,.235.181l2.268,7.022q.018.054.063.045a.055.055,0,0,0,.046-.063L22.316.363A.209.209,0,0,1,22.379.209Z" fill="#1d1d1d"/><path d="M89.774,15.018a.742.742,0,0,1,.188.522v1.136a.742.742,0,0,1-.188.523.678.678,0,0,1-.793.127.611.611,0,0,1-.219-.21.028.028,0,0,0-.018-.01s-.008,0-.008.014v.191a.044.044,0,0,1-.05.05h-.049a.044.044,0,0,1-.05-.05v-3.4a.044.044,0,0,1,.05-.05h.049a.044.044,0,0,1,.05.05V15.1c0,.01,0,.016.008.018s.01,0,.013-.013a.6.6,0,0,1,.53-.29A.634.634,0,0,1,89.774,15.018Zm-.115.1a.517.517,0,0,0-.4-.164.482.482,0,0,0-.377.164.6.6,0,0,0-.149.421v1.136a.6.6,0,0,0,.149.422.485.485,0,0,0,.377.163.52.52,0,0,0,.4-.163.589.589,0,0,0,.152-.422V15.54A.589.589,0,0,0,89.659,15.119Z" fill="#1d1d1d"/><path d="M90.481,18.346a.07.07,0,0,1-.009-.035v-.035a.044.044,0,0,1,.049-.05h0a.365.365,0,0,0,.223-.07.506.506,0,0,0,.133-.233c.036-.111.085-.294.144-.548a.021.021,0,0,0,0-.017l0-.012-.644-2.435-.005-.015c0-.026.016-.04.05-.04h.054c.034,0,.052.014.055.045l.561,2.224c0,.011.006.016.009.016s.007,0,.01-.016l.556-2.224a.05.05,0,0,1,.054-.045h.055a.051.051,0,0,1,.038.014.046.046,0,0,1,.007.041l-.715,2.745a2.777,2.777,0,0,1-.157.458.427.427,0,0,1-.168.2.561.561,0,0,1-.26.05H90.5Q90.492,18.361,90.481,18.346Z" fill="#1d1d1d"/><path d="M93.757,17.316l-.646-3.4v-.009a.039.039,0,0,1,.045-.045h.055c.034,0,.052.014.056.045L93.836,17c0,.007.007.011.011.011s.006,0,.009-.011l.48-3.094c.007-.031.023-.045.051-.045h.059a.044.044,0,0,1,.05.045l.5,3.094c0,.007.007.011.01.011s.007,0,.011-.011l.524-3.094a.051.051,0,0,1,.056-.045h.059a.045.045,0,0,1,.037.014.046.046,0,0,1,.008.04l-.615,3.4c0,.03-.021.045-.055.045h-.059a.049.049,0,0,1-.051-.045l-.484-3.08c0-.007-.007-.01-.01-.01s-.007,0-.011.01l-.489,3.08a.046.046,0,0,1-.051.045h-.06A.05.05,0,0,1,93.757,17.316Z" fill="#1d1d1d"/><path d="M97.322,15.04a.968.968,0,0,1,.175.606v1.665a.044.044,0,0,1-.05.05H97.4a.044.044,0,0,1-.049-.05v-.226c0-.009,0-.015-.01-.017s-.012,0-.015.012a.6.6,0,0,1-.256.241.781.781,0,0,1-.354.08.583.583,0,0,1-.62-.68.764.764,0,0,1,.215-.6.822.822,0,0,1,.575-.194h.445a.018.018,0,0,0,.02-.02v-.275a.821.821,0,0,0-.135-.495.452.452,0,0,0-.39-.186.534.534,0,0,0-.35.123.455.455,0,0,0-.17.318c0,.03-.017.045-.05.045l-.055-.005a.045.045,0,0,1-.038-.016.046.046,0,0,1-.008-.04.6.6,0,0,1,.223-.409.7.7,0,0,1,.453-.155A.593.593,0,0,1,97.322,15.04ZM97.164,17.1a.577.577,0,0,0,.183-.46v-.556a.018.018,0,0,0-.02-.019h-.44a.651.651,0,0,0-.47.165.633.633,0,0,0-.175.485.554.554,0,0,0,.135.409.475.475,0,0,0,.354.136A.637.637,0,0,0,97.164,17.1Z" fill="#1d1d1d"/><path d="M99.351,15.021a.841.841,0,0,1,.166.555v1.735a.044.044,0,0,1-.05.05h-.05a.044.044,0,0,1-.05-.05V15.6a.74.74,0,0,0-.133-.468.456.456,0,0,0-.378-.168.473.473,0,0,0-.389.181.766.766,0,0,0-.146.495v1.675a.044.044,0,0,1-.05.05h-.049a.044.044,0,0,1-.05-.05v-2.4a.044.044,0,0,1,.05-.05h.049a.044.044,0,0,1,.05.05v.24c0,.01,0,.015.011.015s.012,0,.015-.015a.58.58,0,0,1,.222-.24.614.614,0,0,1,.323-.085A.558.558,0,0,1,99.351,15.021Z" fill="#1d1d1d"/><path d="M101.406,15.021a.841.841,0,0,1,.165.555v1.735a.044.044,0,0,1-.05.05h-.049a.044.044,0,0,1-.05-.05V15.6a.74.74,0,0,0-.133-.468.456.456,0,0,0-.378-.168.477.477,0,0,0-.39.181.772.772,0,0,0-.145.495v1.675a.044.044,0,0,1-.05.05h-.05a.044.044,0,0,1-.05-.05v-2.4a.044.044,0,0,1,.05-.05h.05a.044.044,0,0,1,.05.05v.24c0,.01,0,.015.011.015s.011,0,.014-.015a.582.582,0,0,1,.223-.24.612.612,0,0,1,.322-.085A.56.56,0,0,1,101.406,15.021Z" fill="#1d1d1d"/><path d="M103.393,15.04a.968.968,0,0,1,.174.606v1.665a.044.044,0,0,1-.049.05h-.051a.044.044,0,0,1-.05-.05v-.226c0-.009,0-.015-.01-.017s-.012,0-.014.012a.612.612,0,0,1-.256.241.788.788,0,0,1-.355.08.584.584,0,0,1-.62-.68.764.764,0,0,1,.215-.6.822.822,0,0,1,.575-.194h.445a.018.018,0,0,0,.02-.02v-.275a.821.821,0,0,0-.135-.495.452.452,0,0,0-.389-.186.539.539,0,0,0-.351.123.459.459,0,0,0-.17.318c0,.03-.017.045-.05.045l-.054-.005a.046.046,0,0,1-.039-.016.05.05,0,0,1-.007-.04.593.593,0,0,1,.222-.409.7.7,0,0,1,.453-.155A.6.6,0,0,1,103.393,15.04Zm-.159,2.061a.577.577,0,0,0,.183-.46v-.556a.018.018,0,0,0-.02-.019h-.44a.653.653,0,0,0-.47.165.633.633,0,0,0-.175.485.554.554,0,0,0,.135.409.476.476,0,0,0,.355.136A.635.635,0,0,0,103.234,17.1Z" fill="#1d1d1d"/><path d="M105.462,15.018a.749.749,0,0,1,.185.522v1.136a.75.75,0,0,1-.185.523.674.674,0,0,1-.79.127.614.614,0,0,1-.22-.21.028.028,0,0,0-.017-.01s-.008,0-.008.014v1.186a.044.044,0,0,1-.05.05h-.05a.044.044,0,0,1-.05-.05v-3.4a.044.044,0,0,1,.05-.05h.05a.044.044,0,0,1,.05.05v.19c0,.01,0,.016.008.018s.008,0,.012-.013a.6.6,0,0,1,.223-.21.677.677,0,0,1,.792.127Zm-.115.1a.52.52,0,0,0-.395-.164.489.489,0,0,0-.378.164.6.6,0,0,0-.147.421v1.136a.6.6,0,0,0,.147.422.491.491,0,0,0,.378.163.523.523,0,0,0,.395-.163.587.587,0,0,0,.155-.422V15.54A.586.586,0,0,0,105.347,15.119Z" fill="#1d1d1d"/><path d="M106.291,17.311v-3.4a.044.044,0,0,1,.05-.05h.051c.033,0,.049.016.049.05v3.4a.044.044,0,0,1-.049.05h-.051A.044.044,0,0,1,106.291,17.311Z" fill="#1d1d1d"/><path d="M108.257,15.04a.968.968,0,0,1,.175.606v1.665a.044.044,0,0,1-.05.05h-.051a.044.044,0,0,1-.05-.05v-.226c0-.009,0-.015-.01-.017s-.011,0-.014.012a.612.612,0,0,1-.256.241.788.788,0,0,1-.355.08.584.584,0,0,1-.62-.68.767.767,0,0,1,.215-.6.824.824,0,0,1,.575-.194h.446a.018.018,0,0,0,.019-.02v-.275a.821.821,0,0,0-.135-.495.449.449,0,0,0-.389-.186.539.539,0,0,0-.351.123.462.462,0,0,0-.17.318c0,.03-.016.045-.05.045l-.054-.005a.043.043,0,0,1-.038-.016.046.046,0,0,1-.008-.04.594.594,0,0,1,.223-.409.7.7,0,0,1,.453-.155A.593.593,0,0,1,108.257,15.04ZM108.1,17.1a.577.577,0,0,0,.182-.46v-.556a.017.017,0,0,0-.019-.019h-.441a.654.654,0,0,0-.47.165.633.633,0,0,0-.174.485.558.558,0,0,0,.134.409.476.476,0,0,0,.355.136A.639.639,0,0,0,108.1,17.1Z" fill="#1d1d1d"/><path d="M108.946,18.346a.062.062,0,0,1-.01-.035v-.035a.044.044,0,0,1,.05-.05h0a.365.365,0,0,0,.223-.07.506.506,0,0,0,.133-.233c.036-.111.085-.294.144-.548a.021.021,0,0,0,0-.017l0-.012-.644-2.435,0-.015c0-.026.016-.04.05-.04h.054c.033,0,.052.014.055.045l.56,2.224c0,.011.007.016.01.016s.007,0,.01-.016l.556-2.224a.049.049,0,0,1,.054-.045h.055a.051.051,0,0,1,.038.014.046.046,0,0,1,.007.041l-.715,2.745a2.875,2.875,0,0,1-.157.458.433.433,0,0,1-.168.2.567.567,0,0,1-.26.05h-.024Q108.956,18.361,108.946,18.346Z" fill="#1d1d1d"/><path d="M112.036,16.141h-1.16a.018.018,0,0,0-.02.02v.515a.593.593,0,0,0,.151.422.5.5,0,0,0,.389.163.514.514,0,0,0,.335-.115.544.544,0,0,0,.185-.3c.011-.03.028-.046.056-.046h.049a.043.043,0,0,1,.038.018.056.056,0,0,1,.007.043.638.638,0,0,1-.227.394.672.672,0,0,1-.443.151.662.662,0,0,1-.5-.2.732.732,0,0,1-.192-.523V15.54a.729.729,0,0,1,.192-.519.653.653,0,0,1,.5-.205.646.646,0,0,1,.5.205.725.725,0,0,1,.193.519v.551A.044.044,0,0,1,112.036,16.141Zm-1.029-1.022a.592.592,0,0,0-.151.421v.451a.018.018,0,0,0,.02.02h1.04a.018.018,0,0,0,.02-.02V15.54a.592.592,0,0,0-.15-.421.545.545,0,0,0-.779,0Z" fill="#1d1d1d"/><path d="M113.621,14.886a.05.05,0,0,1,.021.065l-.021.06c-.01.033-.031.041-.064.025a.428.428,0,0,0-.175-.036.442.442,0,0,0-.364.218.943.943,0,0,0-.142.532v1.561a.044.044,0,0,1-.05.05h-.05a.044.044,0,0,1-.05-.05v-2.4a.044.044,0,0,1,.05-.05h.05a.044.044,0,0,1,.05.05v.325c0,.01,0,.014.011.014s.011-.006.014-.019a.694.694,0,0,1,.2-.288.473.473,0,0,1,.3-.1A.441.441,0,0,1,113.621,14.886Z" fill="#1d1d1d"/></g></svg>