<svg xmlns="http://www.w3.org/2000/svg" xmlns:xlink="http://www.w3.org/1999/xlink" width="1024" zoomAndPan="magnify" viewBox="0 0 768 767.999994" height="1024" preserveAspectRatio="xMidYMid meet" version="1.0"><defs><clipPath id="f619a4efb9"><path d="M 0 0 L 188 0 L 188 187 L 0 187 Z M 0 0 " clip-rule="nonzero"/></clipPath><clipPath id="c9e6d2f159"><path d="M 79.324219 -138.722656 L 210.316406 -7.734375 L -7.121094 209.703125 L -138.113281 78.710938 Z M 79.324219 -138.722656 " clip-rule="nonzero"/></clipPath><clipPath id="fe4ab86bc4"><path d="M 79.324219 -138.722656 L 210.316406 -7.734375 L -7.121094 209.703125 L -138.113281 78.710938 Z M 79.324219 -138.722656 " clip-rule="nonzero"/></clipPath><clipPath id="148c50b7a1"><path d="M 579 578 L 768 578 L 768 768 L 579 768 Z M 579 578 " clip-rule="nonzero"/></clipPath><clipPath id="6564bd26e2"><path d="M 687.910156 903.441406 L 556.917969 772.449219 L 774.351562 555.015625 L 905.34375 686.003906 Z M 687.910156 903.441406 " clip-rule="nonzero"/></clipPath><clipPath id="568b547ae7"><path d="M 687.910156 903.441406 L 556.917969 772.449219 L 774.351562 555.015625 L 905.34375 686.003906 Z M 687.910156 903.441406 " clip-rule="nonzero"/></clipPath><clipPath id="91a5091c41"><path d="M 0 577 L 188 577 L 188 768 L 0 768 Z M 0 577 " clip-rule="nonzero"/></clipPath><clipPath id="bc067b3f6c"><path d="M -137.894531 686.222656 L -6.90625 555.230469 L 210.53125 772.664062 L 79.539062 903.65625 Z M -137.894531 686.222656 " clip-rule="nonzero"/></clipPath><clipPath id="0fdc3e0aa6"><path d="M -137.894531 686.222656 L -6.90625 555.230469 L 210.53125 772.664062 L 79.539062 903.65625 Z M -137.894531 686.222656 " clip-rule="nonzero"/></clipPath><clipPath id="2a47685d72"><path d="M 579 0 L 768 0 L 768 188 L 579 188 Z M 579 0 " clip-rule="nonzero"/></clipPath><clipPath id="7b6f53489d"><path d="M 905.128906 78.496094 L 774.136719 209.488281 L 556.703125 -7.949219 L 687.695312 -138.941406 Z M 905.128906 78.496094 " clip-rule="nonzero"/></clipPath><clipPath id="746ea3d117"><path d="M 905.128906 78.496094 L 774.136719 209.488281 L 556.703125 -7.949219 L 687.695312 -138.941406 Z M 905.128906 78.496094 " clip-rule="nonzero"/></clipPath><clipPath id="be6db2a8e9"><path d="M 77.550781 27.75 L 307.949219 27.75 L 307.949219 258.148438 L 77.550781 258.148438 Z M 77.550781 27.75 " clip-rule="nonzero"/></clipPath><clipPath id="e9a15e3245"><path d="M 268.800781 0 L 499.199219 0 L 499.199219 209.375 L 268.800781 209.375 Z M 268.800781 0 " clip-rule="nonzero"/></clipPath><clipPath id="ad6dd7eaf3"><path d="M 460.800781 27 L 691.199219 27 L 691.199219 257.398438 L 460.800781 257.398438 Z M 460.800781 27 " clip-rule="nonzero"/></clipPath><clipPath id="aa86dea05a"><path d="M 122 118.574219 L 646 118.574219 L 646 649.574219 L 122 649.574219 Z M 122 118.574219 " clip-rule="nonzero"/></clipPath><clipPath id="c481776072"><path d="M 320 330 L 438 330 L 438 432.894531 L 320 432.894531 Z M 320 330 " clip-rule="nonzero"/></clipPath><clipPath id="1d7ac4fcd8"><path d="M 325.617188 346.9375 C 316.136719 362.554688 322.816406 377.753906 331.207031 385.820312 L 380.273438 432.894531 L 428.304688 385.988281 C 436.109375 377.308594 439.101562 368.105469 437.441406 357.855469 C 435.144531 343.675781 423.460938 332.675781 409.027344 331.105469 C 400.175781 330.152344 391.625 332.65625 384.949219 338.203125 C 383.152344 339.695312 381.546875 341.363281 380.148438 343.175781 C 378.488281 341.113281 376.539062 339.222656 374.339844 337.550781 C 366.664062 331.714844 356.894531 329.402344 347.507812 331.203125 C 338.621094 332.917969 330.644531 338.652344 325.617188 346.9375 Z M 325.617188 346.9375 " clip-rule="nonzero"/></clipPath></defs><g clip-path="url(#f619a4efb9)"><g clip-path="url(#c9e6d2f159)"><g clip-path="url(#fe4ab86bc4)"><path fill="#8447ff" d="M -29.746094 186.601562 L -29.734375 -29.628906 L 187.996094 -29.640625 L 187.996094 14.632812 L 14.539062 14.640625 L 14.527344 186.601562 L -29.746094 186.601562 " fill-opacity="1" fill-rule="nonzero"/></g></g></g><g clip-path="url(#148c50b7a1)"><g clip-path="url(#6564bd26e2)"><g clip-path="url(#568b547ae7)"><path fill="#8447ff" d="M 796.980469 578.113281 L 796.964844 794.34375 L 579.234375 794.355469 L 579.234375 750.082031 L 752.695312 750.074219 L 752.707031 578.113281 L 796.980469 578.113281 " fill-opacity="1" fill-rule="nonzero"/></g></g></g><g clip-path="url(#91a5091c41)"><g clip-path="url(#bc067b3f6c)"><g clip-path="url(#0fdc3e0aa6)"><path fill="#8447ff" d="M 187.429688 795.292969 L -28.800781 795.277344 L -28.8125 577.546875 L 15.460938 577.546875 L 15.46875 751.007812 L 187.429688 751.019531 L 187.429688 795.292969 " fill-opacity="1" fill-rule="nonzero"/></g></g></g><g clip-path="url(#2a47685d72)"><g clip-path="url(#7b6f53489d)"><g clip-path="url(#746ea3d117)"><path fill="#8447ff" d="M 579.800781 -30.574219 L 796.03125 -30.5625 L 796.042969 187.167969 L 751.769531 187.167969 L 751.761719 13.710938 L 579.800781 13.699219 L 579.800781 -30.574219 " fill-opacity="1" fill-rule="nonzero"/></g></g></g><g clip-path="url(#be6db2a8e9)"><path fill="#ffffff" d="M 77.550781 27.75 L 307.949219 27.75 L 307.949219 258.148438 L 77.550781 258.148438 Z M 77.550781 27.75 " fill-opacity="1" fill-rule="nonzero"/></g><g clip-path="url(#e9a15e3245)"><path fill="#ffffff" d="M 268.800781 -21.023438 L 499.199219 -21.023438 L 499.199219 209.375 L 268.800781 209.375 Z M 268.800781 -21.023438 " fill-opacity="1" fill-rule="nonzero"/></g><g clip-path="url(#ad6dd7eaf3)"><path fill="#ffffff" d="M 460.800781 27 L 691.199219 27 L 691.199219 257.398438 L 460.800781 257.398438 Z M 460.800781 27 " fill-opacity="1" fill-rule="nonzero"/></g><g clip-path="url(#aa86dea05a)"><path fill="#8447ff" d="M 161.84375 404.183594 C 170.777344 398.148438 179.644531 391.828125 188.222656 385.238281 C 185.0625 392.550781 186.726562 401.175781 188.765625 408.679688 C 192.242188 421.515625 196.605469 434.84375 204.269531 445.859375 C 205.882812 448.179688 207.6875 450.34375 209.25 452.703125 C 210.023438 453.871094 210.578125 455.101562 210.992188 456.421875 C 209.65625 457.855469 208.34375 459.3125 207.027344 460.761719 C 206.855469 460.878906 206.699219 461.003906 206.570312 461.15625 C 205.910156 461.933594 205.230469 462.695312 204.554688 463.464844 C 204.425781 463.609375 204.292969 463.75 204.167969 463.894531 C 202.578125 465.675781 200.960938 467.441406 199.347656 469.207031 C 197.441406 471.246094 195.515625 473.269531 193.585938 475.277344 C 193.449219 475.417969 193.332031 475.570312 193.230469 475.734375 C 188.539062 480.640625 183.695312 485.394531 178.667969 489.921875 C 162.144531 469.289062 145.625 448.648438 129.101562 428.015625 C 139.296875 419.097656 150.644531 411.757812 161.84375 404.183594 Z M 195.6875 383.714844 C 199.476562 379.535156 204.921875 384.011719 207.886719 386.875 C 209.460938 391.585938 211.664062 396.042969 213.484375 400.671875 C 214.78125 403.964844 220.15625 402.53125 218.839844 399.191406 C 216.890625 394.234375 214.472656 389.476562 212.886719 384.378906 C 213.527344 380.648438 213.453125 375.996094 216.089844 373.316406 C 221.960938 367.347656 228.277344 371.511719 232.921875 376.121094 C 232.941406 376.140625 232.96875 376.152344 232.992188 376.171875 C 235.730469 381.203125 237.921875 386.5 240.371094 391.675781 C 241.902344 394.914062 246.691406 392.09375 245.167969 388.871094 C 242.644531 383.539062 240.402344 378.066406 237.542969 372.898438 C 237.179688 368.480469 238.125 364.578125 242.410156 362.273438 C 246.878906 359.871094 252.699219 361.746094 256.289062 364.832031 C 259.476562 369.554688 261.289062 375.007812 264.070312 379.964844 C 265.828125 383.085938 270.625 380.289062 268.867188 377.15625 C 266.144531 372.308594 264.351562 366.980469 261.28125 362.332031 C 261.933594 358.828125 263.140625 355.1875 266.976562 354.296875 C 270.632812 353.453125 275.019531 356.175781 277.941406 357.992188 C 287.53125 363.957031 293.917969 373.640625 299.0625 383.441406 C 302.074219 389.183594 304.625 395.175781 307.207031 401.121094 C 309.871094 407.265625 313.324219 413.089844 316.167969 419.160156 C 318.976562 425.167969 321.203125 431.390625 322.511719 437.894531 C 323.742188 444.054688 323.167969 450.554688 322.699219 456.847656 C 322.398438 456.863281 322.101562 456.875 321.804688 456.894531 C 307.304688 457.714844 291.851562 460.398438 280.292969 469.878906 C 276.25 473.195312 272.957031 477.109375 272.371094 482.453125 C 271.910156 486.671875 274.675781 490.132812 277.886719 492.722656 C 273.574219 496.160156 270.824219 501.1875 270.652344 506.894531 C 270.484375 512.453125 273.585938 516.457031 277.832031 519.007812 C 275.90625 520.210938 274.273438 521.605469 273.035156 523.289062 C 271.695312 518.6875 270.085938 514.183594 267.582031 509.957031 C 263.050781 502.316406 254.980469 499.285156 246.816406 497.003906 C 238.203125 494.601562 229.519531 493.101562 221.214844 489.683594 C 213.617188 486.550781 205.796875 482.53125 199.515625 477.085938 C 202.910156 473.511719 206.261719 469.902344 209.523438 466.207031 C 210.628906 464.957031 212.800781 464.40625 214.398438 463.074219 C 215.695312 461.996094 216.648438 459.871094 216.695312 458.203125 C 216.835938 453.628906 214.171875 449.882812 211.554688 446.359375 C 207.964844 441.535156 204.960938 436.597656 202.410156 431.136719 C 199.757812 425.464844 197.769531 419.480469 195.933594 413.507812 C 194.199219 407.867188 192.105469 401.925781 191.914062 395.992188 C 191.773438 391.746094 192.769531 386.929688 195.6875 383.714844 Z M 217 357.886719 C 224.917969 349.679688 232.59375 341.242188 239.449219 332.109375 C 245.761719 323.703125 251.269531 314.378906 253.90625 304.125 C 256.589844 293.683594 251.84375 284.066406 247.265625 274.886719 C 243.105469 266.539062 239.585938 258.390625 237.367188 249.332031 C 235.46875 241.566406 233.496094 232.332031 236.007812 224.507812 C 237.347656 220.339844 242.402344 218.589844 244.757812 222.71875 C 246.605469 225.964844 247.339844 230.546875 250.808594 232.609375 C 261.789062 239.148438 265.320312 224.929688 267.148438 217.375 C 269.148438 209.09375 273.335938 201.351562 277.640625 194.066406 C 281.640625 187.316406 285.984375 179.679688 291.699219 174.234375 C 294.976562 171.105469 299.550781 168.601562 304.171875 168.75 C 309.71875 168.929688 309.769531 176.070312 309.488281 180.128906 C 306.835938 184.414062 304.816406 189.035156 302.410156 193.457031 C 300.691406 196.601562 305.492188 199.40625 307.207031 196.261719 C 309.726562 191.640625 311.796875 186.796875 314.628906 182.355469 C 316.582031 181.335938 318.449219 180.203125 320.332031 179.046875 C 323.644531 177.019531 326.214844 177.734375 329.59375 179.414062 C 334.800781 181.996094 334.242188 187.652344 333.8125 192.570312 C 331.789062 197.722656 329.203125 202.628906 326.890625 207.65625 C 325.402344 210.886719 330.191406 213.710938 331.6875 210.460938 C 334.222656 204.945312 337.035156 199.558594 339.234375 193.894531 C 342.503906 190.566406 346.523438 188.800781 351.070312 191.085938 C 355.5 193.316406 357.4375 198.425781 357.457031 203.113281 C 355.902344 208.652344 352.84375 213.609375 350.804688 218.96875 C 349.527344 222.328125 354.902344 223.765625 356.164062 220.449219 C 358.117188 215.316406 360.976562 210.585938 362.589844 205.328125 C 365.457031 203.6875 369.234375 202.027344 372.125 204.285156 C 374.96875 206.515625 375.84375 210.722656 376.453125 214.070312 C 376.800781 215.980469 376.992188 217.894531 377.046875 219.808594 C 376.984375 220.039062 376.949219 220.289062 376.949219 220.554688 C 376.957031 225.246094 376.320312 229.8125 375.265625 234.304688 C 374.417969 237.679688 373.332031 240.992188 372.144531 244.199219 C 369.695312 250.8125 366.484375 257.144531 363.339844 263.449219 C 360.585938 268.96875 358.398438 274.777344 355.886719 280.40625 C 350.578125 292.308594 344.121094 302.085938 333.6875 310.023438 C 324.085938 317.324219 314.171875 324.089844 306.109375 333.167969 C 299.203125 340.945312 293.773438 350.152344 288.585938 359.277344 C 284.535156 355.375 279.828125 352.109375 274.136719 349.871094 C 265.515625 346.480469 259.207031 350.917969 256.640625 358.402344 C 246.660156 352.90625 234.300781 357.152344 232.226562 368.105469 C 230.785156 367.023438 229.246094 366.078125 227.492188 365.34375 C 223.484375 363.683594 219.109375 365.386719 215.476562 367.101562 C 209.878906 369.738281 209.023438 374.726562 208.121094 379.925781 C 205.164062 377.902344 201.875 376.566406 198.691406 376.683594 C 205.128906 370.792969 210.976562 364.125 217 357.886719 Z M 233.507812 218.472656 C 229.007812 216.335938 224.441406 214.320312 219.875 212.335938 C 206.664062 206.609375 193.378906 201.0625 180.964844 193.734375 C 194.175781 170.625 207.382812 147.511719 220.59375 124.398438 C 224.835938 125.429688 230.234375 129.746094 233.617188 131.886719 C 240.785156 136.425781 247.753906 141.269531 254.699219 146.140625 C 265.976562 154.046875 277.28125 162 289.019531 169.238281 C 288.585938 169.59375 288.167969 169.949219 287.769531 170.304688 C 283.933594 173.722656 281.195312 178.441406 278.339844 182.652344 C 274.230469 188.714844 270.46875 195.011719 267.246094 201.589844 C 264.867188 206.433594 262.84375 211.539062 261.574219 216.789062 C 260.753906 220.183594 260.355469 225.957031 257.273438 228.183594 C 253.902344 230.609375 251.746094 224.800781 250.871094 222.75 C 249.628906 219.832031 248.167969 216.9375 245.242188 215.414062 C 240.871094 213.128906 236.46875 215.148438 233.507812 218.472656 Z M 382.355469 224.765625 C 389.660156 227.820312 398.0625 229.996094 405.761719 228.585938 C 414.617188 226.96875 421.890625 220.78125 428.753906 215.347656 C 435.371094 210.109375 442.050781 205.589844 449.640625 201.890625 C 456.199219 198.691406 464.59375 194.78125 472.269531 194.957031 C 472.074219 197.566406 471.882812 200.179688 471.714844 202.789062 C 471.535156 205.675781 471.785156 207.882812 470.089844 210.242188 C 467.792969 213.445312 469.15625 218.441406 471.714844 220.957031 C 474.6875 223.878906 479.890625 223.929688 483.746094 224.066406 C 489.867188 224.289062 495.710938 224.945312 501.6875 226.382812 C 508.25 227.960938 514.628906 230.289062 520.894531 232.773438 C 526.878906 235.148438 533.105469 237.378906 537.863281 241.855469 C 540.523438 244.359375 542.90625 247.820312 542.976562 251.582031 C 543.066406 256.222656 536.964844 257.457031 533.511719 258.023438 C 533.304688 258.058594 533.09375 258.085938 532.882812 258.113281 C 528.101562 256.347656 523.121094 255.292969 518.246094 253.816406 C 514.808594 252.777344 513.347656 258.140625 516.769531 259.175781 C 521.78125 260.695312 526.925781 261.757812 531.832031 263.617188 C 534.871094 266.996094 538.976562 270.25 538.277344 275.058594 C 537.285156 281.890625 532.746094 283.511719 526.769531 284.3125 C 526.703125 284.273438 526.691406 284.265625 526.765625 284.3125 C 526.542969 284.339844 526.324219 284.375 526.101562 284.402344 C 526 284.414062 525.917969 284.453125 525.820312 284.476562 C 520.25 283.492188 514.808594 281.953125 509.300781 280.679688 C 505.816406 279.871094 504.335938 285.226562 507.824219 286.039062 C 513.691406 287.398438 519.484375 289.074219 525.433594 290.039062 C 526.378906 290.601562 526.535156 290.636719 527.984375 291.882812 C 530.25 293.84375 531.285156 296.820312 530.882812 299.753906 C 530.125 305.242188 525.046875 308.59375 520.0625 309.75 C 514.519531 309.371094 509.242188 307.421875 503.777344 306.535156 C 500.273438 305.964844 498.773438 311.316406 502.300781 311.890625 C 507.890625 312.804688 513.277344 314.632812 518.914062 315.199219 C 532.066406 330.699219 500.085938 334 490.445312 333.378906 C 481.378906 332.792969 472.445312 330.40625 463.6875 328.121094 C 456.035156 326.125 448.21875 324.855469 440.53125 323.019531 C 433.058594 321.238281 425.800781 318.777344 419.175781 314.84375 C 412.378906 310.8125 406.652344 304.515625 400.742188 299.324219 C 395.363281 294.59375 389.71875 290.191406 383.578125 286.488281 C 377.28125 282.695312 370.253906 279.929688 363.34375 277.308594 C 370.988281 260.425781 381.027344 243.484375 382.355469 224.765625 Z M 477.085938 209.222656 C 477.183594 208.496094 477.195312 207.730469 477.183594 206.980469 C 477.449219 201.027344 477.785156 195.070312 478.246094 189.109375 C 479.832031 168.515625 481.917969 147.964844 482.800781 127.324219 C 505.628906 132.242188 528.457031 137.152344 551.289062 142.070312 C 549.9375 147.492188 550.113281 153.867188 549.644531 159.09375 C 548.664062 169.988281 546.582031 180.464844 544.578125 191.214844 C 541.925781 205.480469 539.195312 219.738281 536.457031 233.988281 C 533.574219 232.253906 530.53125 230.832031 527.753906 229.644531 C 515.300781 224.324219 502.25 219.625 488.644531 218.648438 C 486.738281 218.515625 480.347656 218.601562 476.789062 217.265625 C 476.875 214.585938 476.976562 211.902344 477.085938 209.222656 Z M 533.769531 422.777344 C 540.855469 428.222656 547.597656 433.539062 553.515625 440.269531 C 558.71875 446.183594 565.289062 453.863281 567.222656 461.933594 C 565.03125 462.246094 562.839844 462.550781 560.652344 462.871094 C 558.308594 463.214844 554.203125 464.699219 551.933594 463.777344 C 549.007812 462.589844 544.605469 464.339844 542.804688 466.730469 C 540.386719 469.929688 540.78125 473.871094 541.359375 477.617188 C 542.179688 483.003906 543.625 488.070312 543.992188 493.554688 C 544.808594 505.601562 543.050781 517.773438 541.046875 529.613281 C 540.140625 534.992188 537.050781 540.59375 532.480469 543.65625 C 526.953125 547.355469 523.046875 541.210938 521.246094 536.679688 C 521.21875 536.601562 521.160156 536.523438 521.121094 536.449219 C 521.121094 536.4375 521.128906 536.429688 521.132812 536.417969 C 521.757812 531.0625 521.484375 525.6875 521.710938 520.316406 C 521.863281 516.730469 516.304688 516.742188 516.152344 520.316406 C 515.925781 525.6875 516.199219 531.0625 515.574219 536.417969 C 515.550781 536.601562 515.558594 536.765625 515.5625 536.933594 C 513.394531 540.269531 511.378906 544.644531 507.609375 545.753906 C 500.027344 547.976562 496.421875 542.542969 494.046875 536.453125 C 494.03125 536.40625 494 536.375 493.972656 536.324219 C 493.429688 530.34375 493.609375 524.339844 493.472656 518.339844 C 493.386719 514.757812 487.832031 514.75 487.914062 518.339844 C 488.054688 524.46875 487.859375 530.605469 488.449219 536.714844 C 488.453125 536.816406 488.484375 536.898438 488.496094 536.992188 C 484.945312 548.097656 472.914062 546.269531 468.058594 537.066406 C 468.078125 536.800781 468.078125 536.523438 468.023438 536.230469 C 466.949219 530.695312 467.566406 525.007812 467.0625 519.417969 C 466.746094 515.875 461.191406 515.847656 461.511719 519.417969 C 462.03125 525.308594 461.542969 531.21875 462.5625 537.0625 C 460.542969 540.042969 457.929688 543.113281 453.9375 542.277344 C 451.152344 541.695312 448.941406 539.003906 447.210938 536.949219 C 443 531.953125 440.472656 525.378906 438.820312 519.144531 C 435.0625 504.992188 436.636719 490.105469 435.867188 475.652344 C 435.117188 461.648438 434.335938 447.332031 440.484375 434.332031 C 445.605469 423.503906 451.777344 413.253906 455.65625 401.867188 C 459.636719 390.15625 460.449219 377.234375 462.015625 365.03125 C 463.339844 354.746094 464.90625 344.519531 465.527344 334.179688 C 479.636719 337.542969 493.628906 340.839844 508.320312 337.785156 C 512.488281 336.917969 517.300781 335.417969 521.15625 332.875 C 520.238281 343.441406 519.386719 354.023438 518.34375 364.582031 C 517.164062 376.496094 514.855469 388.332031 516.621094 400.3125 C 518.097656 410.371094 526.152344 416.917969 533.769531 422.777344 Z M 575.453125 466.324219 C 595.535156 463.492188 615.429688 459.667969 635.382812 456.058594 C 636.960938 484.976562 638.535156 513.898438 640.105469 542.820312 C 621.519531 541.792969 602.835938 542.265625 584.230469 541.820312 C 573.101562 541.554688 562.074219 540.957031 550.933594 541.207031 C 548.121094 541.269531 545.3125 541.292969 542.503906 541.269531 C 545.960938 535.21875 547.085938 527.328125 547.964844 521.089844 C 549.703125 508.777344 550.664062 496.070312 548.386719 483.757812 C 547.9375 481.339844 545.507812 474.382812 546.804688 470.988281 C 550.335938 470.367188 553.878906 469.757812 557.414062 469.160156 C 560.972656 468.808594 564.609375 468.054688 568.101562 467.4375 C 570.546875 467.058594 572.996094 466.675781 575.453125 466.324219 Z M 430.304688 475.523438 C 426.183594 474.828125 422.101562 474.023438 418.058594 472.773438 C 411.546875 470.757812 405.367188 467.8125 399.238281 464.882812 C 394.039062 462.398438 388.84375 459.929688 383.507812 457.742188 C 377.394531 455.238281 370.035156 454.851562 363.519531 454.710938 C 357 454.570312 350.46875 455.1875 343.984375 455.746094 C 338.761719 456.191406 333.546875 456.375 328.320312 456.585938 C 328.777344 449.320312 329 442.0625 327.558594 434.878906 C 325.042969 422.351562 318.277344 410.964844 312.660156 399.65625 C 306.652344 387.570312 301.285156 374.011719 292.601562 363.605469 C 295.878906 357.957031 299.21875 352.347656 302.8125 346.886719 C 310.28125 335.535156 319.820312 327.171875 330.660156 319.15625 C 335.160156 315.832031 339.652344 312.496094 343.953125 308.914062 C 348.433594 305.1875 351.898438 299.746094 354.839844 294.792969 C 357.203125 290.8125 359.238281 286.652344 361.15625 282.425781 C 361.363281 282.503906 361.574219 282.582031 361.785156 282.65625 C 374.929688 287.730469 386.160156 294 396.808594 303.253906 C 399.507812 305.601562 402.140625 308.003906 404.800781 310.351562 C 405.394531 310.886719 405.984375 311.414062 406.582031 311.9375 C 408.523438 313.648438 410.484375 315.21875 412.480469 316.679688 C 416.289062 319.535156 420.332031 322.066406 424.90625 323.914062 C 425.316406 324.082031 425.734375 324.214844 426.148438 324.371094 C 426.652344 324.578125 427.148438 324.792969 427.664062 324.992188 C 435.941406 328.136719 444.769531 329.6875 453.410156 331.4375 C 455.3125 331.820312 457.207031 332.242188 459.09375 332.675781 C 459.417969 332.757812 459.75 332.832031 460.074219 332.917969 C 459.585938 344.714844 457.566406 356.453125 456.058594 368.148438 C 454.402344 381.011719 453.039062 393.863281 448.226562 406.003906 C 443.707031 417.394531 436.253906 427.601562 432.515625 439.296875 C 428.808594 450.878906 429.660156 463.570312 430.304688 475.523438 Z M 428.839844 539.117188 C 417.363281 538.933594 410.019531 544.460938 403.289062 553.183594 C 397.085938 561.207031 391.765625 569.574219 384.429688 576.65625 C 378.949219 581.945312 372.773438 587.261719 365.820312 590.601562 C 364.128906 586.339844 362.457031 582.066406 360.847656 577.773438 C 359.582031 574.398438 359.695312 569.390625 355.949219 567.511719 C 352.640625 565.851562 349.355469 566.117188 345.796875 566.761719 C 340.382812 567.742188 335.328125 569.429688 329.800781 569.988281 C 317.800781 571.199219 305.546875 569.863281 293.652344 568.234375 C 288.039062 567.464844 282.042969 564.402344 278.933594 559.558594 C 275.515625 554.234375 281.8125 550.484375 286.003906 548.597656 C 291.078125 548.941406 296.144531 548.5625 301.222656 548.613281 C 304.808594 548.644531 304.804688 543.085938 301.222656 543.054688 C 296.011719 543.003906 290.816406 543.410156 285.613281 543.019531 C 281.742188 540.472656 276.71875 538.835938 276.074219 533.722656 C 275.152344 526.433594 279.664062 523.804688 285.570312 521.285156 C 291.121094 520.6875 296.710938 520.636719 302.28125 520.320312 C 305.84375 520.121094 305.863281 514.5625 302.28125 514.761719 C 296.292969 515.097656 290.28125 515.113281 284.320312 515.855469 C 279.886719 514.46875 276.398438 512.003906 276.207031 506.894531 C 276.019531 501.871094 279.660156 497.691406 283.832031 495.441406 C 289.253906 494.257812 294.855469 494.632812 300.347656 493.953125 C 303.859375 493.519531 303.898438 487.957031 300.347656 488.394531 C 294.710938 489.089844 289.007812 488.832031 283.417969 489.875 C 279.203125 487.128906 276.378906 483.691406 279.40625 478.730469 C 282.089844 474.335938 287.371094 471.421875 291.804688 469.125 C 304.152344 462.722656 318.9375 462.402344 332.527344 462.011719 C 346.410156 461.613281 360.285156 458.960938 374.152344 461.128906 C 386.585938 463.074219 397.875 470.765625 409.394531 475.515625 C 416.1875 478.316406 423.308594 480.035156 430.523438 481.308594 C 430.820312 492.210938 430.5 503.089844 432.109375 513.941406 C 433.5 523.347656 436.941406 532.789062 442.882812 540.308594 C 438.203125 539.929688 433.535156 539.191406 428.839844 539.117188 Z M 369.941406 616.046875 C 371.945312 621.199219 374.125 626.269531 376.785156 631.097656 C 356.300781 635.25 335.816406 639.402344 315.332031 643.550781 C 312.183594 638.324219 310.363281 631.992188 308.335938 626.363281 C 305.976562 619.796875 303.84375 613.160156 301.320312 606.660156 C 299.050781 600.8125 296.519531 595.046875 294.628906 589.066406 C 292.984375 583.847656 292.066406 578.425781 290.699219 573.132812 C 294.878906 574.078125 299.183594 574.523438 302.964844 574.933594 C 315.414062 576.292969 328.523438 576.84375 340.773438 573.769531 C 343.546875 573.074219 346.273438 572.1875 349.117188 571.820312 C 350.390625 571.652344 351.894531 571.625 353.046875 572.328125 C 353.472656 573.585938 353.894531 574.847656 354.335938 576.09375 C 354.363281 576.179688 354.398438 576.261719 354.429688 576.347656 C 354.429688 576.351562 354.429688 576.355469 354.429688 576.359375 C 354.457031 576.429688 354.484375 576.496094 354.507812 576.566406 C 359.234375 589.875 364.828125 602.886719 369.941406 616.046875 Z M 123.324219 429.628906 C 141.015625 451.726562 158.707031 473.828125 176.398438 495.929688 C 177.390625 497.164062 179.285156 496.835938 180.328125 495.929688 C 185.683594 491.242188 190.757812 486.261719 195.707031 481.160156 C 207.6875 491.703125 223.707031 497.175781 238.941406 500.761719 C 248.378906 502.984375 258.195312 505.027344 263.464844 513.914062 C 268.835938 522.976562 269.777344 534.207031 273.253906 544.019531 C 273.910156 545.863281 274.632812 547.679688 275.375 549.488281 C 272.527344 552.933594 271.519531 557.300781 274.132812 562.367188 C 276.34375 566.644531 280.03125 569.339844 284.289062 571.125 C 284.800781 572.660156 285.285156 574.203125 285.703125 575.777344 C 287.285156 581.777344 288.277344 587.871094 290.339844 593.742188 C 292.421875 599.683594 294.957031 605.46875 297.199219 611.347656 C 299.539062 617.484375 301.5 623.765625 303.734375 629.9375 C 305.90625 635.929688 307.925781 642.773438 311.613281 648.050781 C 312.375 649.140625 313.4375 649.589844 314.75 649.328125 C 337.113281 644.796875 359.480469 640.261719 381.84375 635.734375 C 383.011719 635.5 383.617188 634.746094 383.789062 633.875 C 384.03125 633.214844 383.996094 632.449219 383.507812 631.652344 C 376.667969 620.617188 372.503906 607.867188 367.820312 595.726562 C 376.085938 591.753906 383.28125 585.589844 389.773438 579.210938 C 397.023438 572.082031 402.164062 563.457031 408.449219 555.539062 C 411.527344 551.664062 415.222656 547.46875 420.03125 545.828125 C 426.867188 543.5 434.792969 544.925781 441.777344 545.722656 C 444.148438 545.992188 446.496094 546.042969 448.84375 545.984375 C 451.222656 547.429688 453.9375 548.21875 456.789062 547.929688 C 459.0625 547.699219 461.003906 546.664062 462.695312 545.257812 C 464.210938 545.226562 465.726562 545.234375 467.242188 545.273438 C 470.542969 548.472656 474.847656 550.433594 479.730469 550.546875 C 484.28125 550.652344 487.871094 548.421875 490.421875 545.191406 C 491.03125 545.152344 491.644531 545.113281 492.25 545.074219 C 494.929688 549.007812 498.59375 551.527344 504.574219 551.578125 C 511.039062 551.632812 513.945312 548.519531 516.859375 544.480469 C 517.734375 544.535156 518.605469 544.613281 519.480469 544.695312 C 522.953125 549.285156 527.871094 551.832031 534.339844 548.976562 C 535.84375 548.3125 537.152344 547.441406 538.324219 546.429688 C 547.046875 546.761719 555.75 546.523438 564.625 546.589844 C 574.378906 546.667969 584.144531 547.410156 593.910156 547.5625 C 604.601562 547.722656 615.300781 547.769531 625.996094 547.953125 C 631.683594 548.050781 637.375 548.171875 643.046875 548.535156 C 643.992188 548.59375 644.683594 548.246094 645.125 547.707031 C 645.585938 547.261719 645.875 546.613281 645.828125 545.757812 C 644.136719 514.761719 642.449219 483.765625 640.761719 452.769531 C 640.660156 450.855469 639.078125 449.765625 637.246094 450.09375 C 615.71875 453.957031 594.261719 457.886719 572.628906 461.101562 C 570.683594 453.085938 565.363281 446.050781 560.296875 439.730469 C 554.574219 432.605469 548.050781 426.703125 540.785156 421.1875 C 536.5 417.929688 532.21875 414.6875 528.386719 410.902344 C 523.894531 406.457031 522.128906 401.695312 521.605469 395.453125 C 520.585938 383.386719 523.582031 371.304688 524.332031 359.304688 C 525.011719 348.394531 525.875 337.472656 526.972656 326.578125 C 528.097656 324.3125 528.210938 322.015625 527.699219 319.808594 C 527.984375 317.253906 528.273438 314.699219 528.578125 312.152344 C 528.6875 312.078125 528.785156 311.992188 528.894531 311.917969 C 529.3125 311.628906 529.71875 311.328125 530.109375 311.011719 C 530.296875 310.859375 530.464844 310.703125 530.640625 310.546875 C 532.996094 308.488281 534.816406 305.878906 535.78125 302.820312 C 535.851562 302.621094 535.945312 302.433594 536.011719 302.230469 C 536.925781 299.296875 536.714844 296.488281 535.753906 293.945312 C 535.691406 293.769531 535.617188 293.597656 535.542969 293.417969 C 535.523438 293.34375 535.492188 293.273438 535.460938 293.199219 C 535.082031 292.261719 534.609375 291.34375 534.050781 290.464844 C 533.664062 289.859375 533.203125 289.296875 532.710938 288.765625 C 537.074219 287.558594 540.871094 285.296875 542.5625 280.417969 C 542.636719 280.195312 542.710938 279.964844 542.78125 279.738281 C 542.839844 279.585938 542.898438 279.449219 542.957031 279.292969 C 543.75 277.027344 544.183594 274.382812 543.875 271.902344 C 543.863281 271.8125 543.859375 271.730469 543.84375 271.640625 C 543.792969 271.273438 543.710938 270.90625 543.621094 270.546875 C 543.597656 270.441406 543.574219 270.335938 543.546875 270.234375 C 543.417969 269.777344 543.257812 269.332031 543.070312 268.902344 C 541.960938 266.476562 540.117188 264.550781 538.289062 262.617188 C 538.730469 262.484375 539.160156 262.34375 539.585938 262.183594 C 539.953125 262.046875 540.3125 261.902344 540.664062 261.746094 C 544.800781 260.019531 548.035156 257.039062 548.519531 251.816406 C 548.726562 249.578125 548.222656 247.410156 547.289062 245.363281 C 546.070312 242.3125 543.984375 239.742188 541.457031 237.5625 C 544.917969 219.046875 548.304688 200.515625 552.042969 182.050781 C 553.589844 174.402344 554.503906 166.847656 555.203125 159.09375 C 555.519531 155.519531 555.839844 151.945312 556.21875 148.378906 C 556.433594 146.339844 556.527344 142.960938 557.21875 141.394531 C 557.902344 139.855469 557.472656 137.722656 555.5625 137.308594 C 530.675781 131.953125 505.792969 126.597656 480.910156 121.242188 C 479.109375 120.855469 477.457031 122.046875 477.390625 123.921875 C 476.609375 145.804688 474.382812 167.589844 472.6875 189.410156 C 465.101562 189.058594 457.125 192.425781 450.285156 195.488281 C 445.136719 197.738281 440.085938 200.355469 435.402344 203.410156 C 429.648438 207.171875 424.515625 211.769531 418.988281 215.847656 C 418.550781 216.171875 418.097656 216.488281 417.644531 216.808594 C 417.179688 217.144531 416.707031 217.480469 416.230469 217.804688 C 415.097656 218.574219 413.941406 219.316406 412.757812 220.019531 C 412.089844 220.410156 411.421875 220.757812 410.753906 221.074219 C 410.460938 221.210938 410.15625 221.320312 409.863281 221.445312 C 409.523438 221.582031 409.195312 221.730469 408.859375 221.851562 C 408.359375 222.023438 407.855469 222.175781 407.351562 222.320312 C 407.203125 222.359375 407.054688 222.40625 406.90625 222.449219 C 406.402344 222.578125 405.90625 222.679688 405.394531 222.777344 C 405.199219 222.816406 405 222.859375 404.796875 222.890625 C 404.398438 222.953125 404 223.003906 403.601562 223.050781 C 403.195312 223.097656 402.789062 223.136719 402.378906 223.164062 C 402.199219 223.175781 402.023438 223.1875 401.84375 223.191406 C 400.773438 223.238281 399.695312 223.222656 398.59375 223.152344 L 398.589844 223.152344 C 397.550781 223.09375 396.511719 222.980469 395.476562 222.820312 C 395.300781 222.796875 395.132812 222.777344 394.960938 222.75 C 394.625 222.691406 394.289062 222.632812 393.957031 222.566406 C 393.292969 222.4375 392.628906 222.304688 391.972656 222.140625 C 388.695312 221.335938 385.484375 220.152344 382.460938 218.773438 C 382.378906 217.03125 382.234375 215.277344 381.957031 213.523438 C 381.167969 208.480469 379.484375 202.464844 374.9375 199.492188 C 371.003906 196.917969 366.644531 197.449219 362.632812 199.136719 C 361.640625 193.847656 358.675781 189.195312 353.871094 186.289062 C 349.09375 183.394531 343.847656 184.113281 339.476562 186.695312 C 339.128906 181.792969 337.386719 177.582031 332.402344 174.613281 C 329.15625 172.679688 325.636719 171.808594 321.917969 172.359375 C 319.515625 172.714844 317.222656 174.136719 315.007812 175.574219 C 314.523438 170.121094 312.261719 164.996094 306.296875 163.480469 C 302.144531 162.425781 297.828125 163.683594 294.011719 165.808594 C 280.363281 157.542969 267.363281 148.207031 254.285156 139.089844 C 247.375 134.277344 240.410156 129.519531 233.238281 125.101562 C 229.210938 122.621094 224.046875 118.804688 219.113281 118.613281 C 218.152344 118.574219 217.183594 119.164062 216.714844 119.988281 C 202.742188 144.4375 188.765625 168.886719 174.792969 193.335938 C 174.316406 194.171875 174.324219 194.980469 174.609375 195.667969 C 174.785156 196.226562 175.15625 196.746094 175.789062 197.132812 C 193.101562 207.789062 212.257812 214.707031 230.554688 223.386719 C 230.503906 223.523438 230.449219 223.664062 230.402344 223.800781 C 227.984375 231.347656 229.78125 240.398438 231.355469 247.929688 C 233.046875 256.03125 235.648438 263.808594 239.25 271.257812 C 242.960938 278.929688 247.449219 286.402344 249.085938 294.867188 C 250.496094 302.179688 246.144531 310.660156 242.773438 316.867188 C 234.785156 331.570312 222.769531 343.941406 211.222656 355.875 C 205.984375 361.285156 200.886719 366.910156 195.460938 372.128906 C 188.566406 378.753906 180.421875 383.980469 172.75 389.628906 C 156.335938 401.726562 138.472656 411.957031 123.324219 425.703125 C 122.152344 426.757812 122.261719 428.109375 122.972656 429.089844 C 123.066406 429.273438 123.183594 429.453125 123.324219 429.628906 " fill-opacity="1" fill-rule="nonzero"/></g><g clip-path="url(#c481776072)"><g clip-path="url(#1d7ac4fcd8)"><path fill="#8cffda" d="M 320.980469 330.605469 L 437.886719 330.605469 L 437.886719 432.894531 L 320.980469 432.894531 Z M 320.980469 330.605469 " fill-opacity="1" fill-rule="nonzero"/></g></g></svg>